<?xml version="1.0" encoding="UTF-8" standalone="no"?>
<!-- Created with Inkscape (http://www.inkscape.org/) -->

<svg
   xmlns:dc="http://purl.org/dc/elements/1.1/"
   xmlns:cc="http://creativecommons.org/ns#"
   xmlns:rdf="http://www.w3.org/1999/02/22-rdf-syntax-ns#"
   xmlns:svg="http://www.w3.org/2000/svg"
   xmlns="http://www.w3.org/2000/svg"
   xmlns:sodipodi="http://sodipodi.sourceforge.net/DTD/sodipodi-0.dtd"
   xmlns:inkscape="http://www.inkscape.org/namespaces/inkscape"
   width="224mm"
   height="82mm"
   viewBox="0 0 224 82"
   version="1.1"
   id="svg8"
   inkscape:version="0.92.4 (5da689c313, 2019-01-14)"
   sodipodi:docname="c01-p07-i05.svg">
  <defs
     id="defs2" />
  <sodipodi:namedview
     id="base"
     pagecolor="#ffffff"
     bordercolor="#666666"
     borderopacity="1.0"
     inkscape:pageopacity="0.0"
     inkscape:pageshadow="2"
     inkscape:zoom="0.7"
     inkscape:cx="455.5243"
     inkscape:cy="13.847575"
     inkscape:document-units="mm"
     inkscape:current-layer="layer1"
     showgrid="false"
     inkscape:window-width="1920"
     inkscape:window-height="1017"
     inkscape:window-x="-8"
     inkscape:window-y="-8"
     inkscape:window-maximized="1" />
  <metadata
     id="metadata5">
    <rdf:RDF>
      <cc:Work
         rdf:about="">
        <dc:format>image/svg+xml</dc:format>
        <dc:type
           rdf:resource="http://purl.org/dc/dcmitype/StillImage" />
        <dc:title></dc:title>
      </cc:Work>
    </rdf:RDF>
  </metadata>
  <g
     inkscape:label="Capa 1"
     inkscape:groupmode="layer"
     id="layer1"
     transform="translate(0,-215)">
    <g
       id="g1099"
       transform="translate(-10.688463,3.5672035)">
      <rect
         y="214.0128"
         x="106.5069"
         height="76.839989"
         width="56.92841"
         id="rect826"
         style="opacity:1;fill:none;stroke:#000000;stroke-width:0.5;stroke-miterlimit:4;stroke-dasharray:none;stroke-dashoffset:0;stroke-opacity:1" />
      <rect
         y="214.0128"
         x="125.61668"
         height="57.329311"
         width="18.575233"
         id="rect828"
         style="opacity:1;fill:none;stroke:#000000;stroke-width:0.5;stroke-miterlimit:4;stroke-dasharray:none;stroke-dashoffset:0;stroke-opacity:1" />
      <path
         inkscape:connector-curvature="0"
         id="path830"
         d="m 125.48304,233.25621 h 18.70887"
         style="fill:none;stroke:#000000;stroke-width:0.5;stroke-linecap:butt;stroke-linejoin:miter;stroke-miterlimit:4;stroke-dasharray:none;stroke-opacity:1" />
      <path
         style="fill:none;stroke:#000000;stroke-width:0.5;stroke-linecap:butt;stroke-linejoin:miter;stroke-miterlimit:4;stroke-dasharray:none;stroke-opacity:1"
         d="m 125.48304,252.30633 h 18.70887"
         id="path832"
         inkscape:connector-curvature="0" />
      <g
         id="text836"
         style="font-style:normal;font-weight:normal;font-size:10.58333302px;line-height:1.25;font-family:sans-serif;letter-spacing:0px;word-spacing:0px;fill:#000000;fill-opacity:1;stroke:none;stroke-width:0.26458332"
         aria-label="Inicializar en A:">
        <path
           id="path986"
           style="font-size:7.05555534px;stroke-width:0.26458332"
           d="m 181.83554,226.97537 h -2.02572 v -0.52365 h 0.6718 v -4.08244 h -0.6718 v -0.52365 h 2.02572 v 0.52365 h -0.67179 v 4.08244 h 0.67179 z"
           inkscape:connector-curvature="0" />
        <path
           id="path988"
           style="font-size:7.05555534px;stroke-width:0.26458332"
           d="m 186.16947,226.97537 h -0.64768 v -2.19108 q 0,-0.26527 -0.031,-0.49609 -0.031,-0.23427 -0.11369,-0.36518 -0.0861,-0.1447 -0.24805,-0.2136 -0.16192,-0.0724 -0.4203,-0.0724 -0.26527,0 -0.55466,0.13092 -0.28939,0.13091 -0.55466,0.33417 v 2.87321 h -0.64768 v -3.84817 h 0.64768 v 0.42719 q 0.30317,-0.25149 0.62701,-0.39274 0.32383,-0.14125 0.6649,-0.14125 0.62356,0 0.95085,0.37552 0.32728,0.37551 0.32728,1.08176 z"
           inkscape:connector-curvature="0" />
        <path
           id="path990"
           style="font-size:7.05555534px;stroke-width:0.26458332"
           d="m 188.1125,222.48297 h -0.73036 v -0.6718 h 0.73036 z m -0.0413,4.4924 h -0.64768 v -3.84817 h 0.64768 z"
           inkscape:connector-curvature="0" />
        <path
           id="path992"
           style="font-size:7.05555534px;stroke-width:0.26458332"
           d="m 192.20528,226.73422 q -0.32384,0.15502 -0.61668,0.24115 -0.28938,0.0861 -0.61667,0.0861 -0.41685,0 -0.76481,-0.12058 -0.34795,-0.12402 -0.596,-0.37207 -0.25149,-0.24805 -0.3893,-0.62701 -0.1378,-0.37896 -0.1378,-0.88539 0,-0.94395 0.51676,-1.48139 0.52021,-0.53743 1.37115,-0.53743 0.33073,0 0.64768,0.093 0.32039,0.093 0.58567,0.22737 v 0.72003 h -0.0344 q -0.29628,-0.23082 -0.61323,-0.35485 -0.3135,-0.12402 -0.61323,-0.12402 -0.55121,0 -0.87161,0.37207 -0.31695,0.36862 -0.31695,1.0852 0,0.69591 0.31006,1.07143 0.31351,0.37207 0.8785,0.37207 0.19637,0 0.39963,-0.0517 0.20326,-0.0517 0.36518,-0.13436 0.14125,-0.0723 0.26528,-0.15158 0.12402,-0.0827 0.19637,-0.14125 h 0.0344 z"
           inkscape:connector-curvature="0" />
        <path
           id="path994"
           style="font-size:7.05555534px;stroke-width:0.26458332"
           d="m 193.7349,222.48297 h -0.73036 v -0.6718 h 0.73036 z m -0.0413,4.4924 h -0.64768 v -3.84817 h 0.64768 z"
           inkscape:connector-curvature="0" />
        <path
           id="path996"
           style="font-size:7.05555534px;stroke-width:0.26458332"
           d="m 197.97237,226.97537 h -0.64424 v -0.40996 q -0.0861,0.0586 -0.23426,0.16536 -0.1447,0.10335 -0.2825,0.16537 -0.16192,0.0792 -0.37207,0.13091 -0.21015,0.0551 -0.49265,0.0551 -0.52021,0 -0.88194,-0.34451 -0.36174,-0.34451 -0.36174,-0.8785 0,-0.43753 0.18604,-0.70624 0.18948,-0.27217 0.53743,-0.42719 0.3514,-0.15503 0.84405,-0.21016 0.49265,-0.0551 1.05764,-0.0827 v -0.0999 q 0,-0.22048 -0.0792,-0.36518 -0.0758,-0.14469 -0.22049,-0.22737 -0.1378,-0.0792 -0.33073,-0.1068 -0.19292,-0.0276 -0.40308,-0.0276 -0.25493,0 -0.56844,0.0689 -0.3135,0.0655 -0.64767,0.19293 h -0.0344 v -0.65802 q 0.18948,-0.0517 0.54777,-0.11369 0.35829,-0.062 0.70624,-0.062 0.40652,0 0.70624,0.0689 0.30317,0.0654 0.52366,0.22737 0.21704,0.15848 0.33073,0.40997 0.11369,0.25149 0.11369,0.62356 z m -0.64424,-0.9474 v -1.07142 q -0.29627,0.0172 -0.69935,0.0517 -0.39963,0.0344 -0.6339,0.0999 -0.27905,0.0792 -0.45131,0.24805 -0.17225,0.16536 -0.17225,0.4582 0,0.33072 0.19981,0.49953 0.19982,0.16537 0.60979,0.16537 0.34106,0 0.62356,-0.13092 0.2825,-0.13435 0.52365,-0.32039 z"
           inkscape:connector-curvature="0" />
        <path
           id="path998"
           style="font-size:7.05555534px;stroke-width:0.26458332"
           d="m 199.88095,226.97537 h -0.64768 v -5.36057 h 0.64768 z"
           inkscape:connector-curvature="0" />
        <path
           id="path1000"
           style="font-size:7.05555534px;stroke-width:0.26458332"
           d="m 201.86532,222.48297 h -0.73036 v -0.6718 h 0.73036 z m -0.0413,4.4924 h -0.64768 v -3.84817 h 0.64768 z"
           inkscape:connector-curvature="0" />
        <path
           id="path1002"
           style="font-size:7.05555534px;stroke-width:0.26458332"
           d="m 205.90298,226.97537 h -3.10748 v -0.47887 l 2.24276,-2.82842 h -2.19453 v -0.54088 h 3.00068 v 0.46164 l -2.25309,2.83876 h 2.31166 z"
           inkscape:connector-curvature="0" />
        <path
           id="path1004"
           style="font-size:7.05555534px;stroke-width:0.26458332"
           d="m 209.80971,226.97537 h -0.64423 v -0.40996 q -0.0861,0.0586 -0.23427,0.16536 -0.14469,0.10335 -0.28249,0.16537 -0.16192,0.0792 -0.37207,0.13091 -0.21016,0.0551 -0.49265,0.0551 -0.52021,0 -0.88195,-0.34451 -0.36173,-0.34451 -0.36173,-0.8785 0,-0.43753 0.18603,-0.70624 0.18948,-0.27217 0.53744,-0.42719 0.3514,-0.15503 0.84405,-0.21016 0.49264,-0.0551 1.05764,-0.0827 v -0.0999 q 0,-0.22048 -0.0792,-0.36518 -0.0758,-0.14469 -0.22048,-0.22737 -0.13781,-0.0792 -0.33073,-0.1068 -0.19293,-0.0276 -0.40308,-0.0276 -0.25494,0 -0.56844,0.0689 -0.3135,0.0655 -0.64768,0.19293 h -0.0344 v -0.65802 q 0.18948,-0.0517 0.54777,-0.11369 0.35829,-0.062 0.70625,-0.062 0.40652,0 0.70624,0.0689 0.30317,0.0654 0.52366,0.22737 0.21704,0.15848 0.33073,0.40997 0.11368,0.25149 0.11368,0.62356 z m -0.64423,-0.9474 v -1.07142 q -0.29628,0.0172 -0.69935,0.0517 -0.39964,0.0344 -0.6339,0.0999 -0.27905,0.0792 -0.45131,0.24805 -0.17225,0.16536 -0.17225,0.4582 0,0.33072 0.19981,0.49953 0.19982,0.16537 0.60978,0.16537 0.34107,0 0.62357,-0.13092 0.28249,-0.13435 0.52365,-0.32039 z"
           inkscape:connector-curvature="0" />
        <path
           id="path1006"
           style="font-size:7.05555534px;stroke-width:0.26458332"
           d="m 213.46496,223.83345 h -0.0344 q -0.14469,-0.0345 -0.2825,-0.0482 -0.13436,-0.0172 -0.32039,-0.0172 -0.29973,0 -0.57878,0.13436 -0.27905,0.13091 -0.53743,0.34106 v 2.73196 h -0.64768 v -3.84817 h 0.64768 v 0.56844 q 0.38585,-0.31006 0.67868,-0.43753 0.29628,-0.13091 0.60289,-0.13091 0.16881,0 0.2446,0.0103 0.0758,0.007 0.22738,0.031 z"
           inkscape:connector-curvature="0" />
        <path
           id="path1008"
           style="font-size:7.05555534px;stroke-width:0.26458332"
           d="m 219.78327,225.11847 h -2.83532 q 0,0.35484 0.1068,0.62011 0.1068,0.26183 0.29283,0.43064 0.17915,0.16536 0.42375,0.24805 0.24805,0.0827 0.54433,0.0827 0.39274,0 0.78892,-0.15503 0.39963,-0.15847 0.56844,-0.31006 h 0.0344 v 0.70625 q -0.32728,0.1378 -0.66834,0.23082 -0.34107,0.093 -0.71658,0.093 -0.95774,0 -1.49518,-0.51676 -0.53743,-0.52021 -0.53743,-1.4745 0,-0.94396 0.51332,-1.49862 0.51676,-0.55466 1.35737,-0.55466 0.77859,0 1.19889,0.45476 0.42375,0.45475 0.42375,1.29191 z m -0.63046,-0.4961 q -0.003,-0.50987 -0.25838,-0.78892 -0.25149,-0.27906 -0.76826,-0.27906 -0.5202,0 -0.83026,0.30662 -0.30662,0.30661 -0.34796,0.76136 z"
           inkscape:connector-curvature="0" />
        <path
           id="path1010"
           style="font-size:7.05555534px;stroke-width:0.26458332"
           d="m 223.98284,226.97537 h -0.64768 v -2.19108 q 0,-0.26527 -0.031,-0.49609 -0.031,-0.23427 -0.11369,-0.36518 -0.0861,-0.1447 -0.24804,-0.2136 -0.16192,-0.0724 -0.42031,-0.0724 -0.26527,0 -0.55466,0.13092 -0.28938,0.13091 -0.55466,0.33417 v 2.87321 h -0.64767 v -3.84817 h 0.64767 v 0.42719 q 0.30317,-0.25149 0.62701,-0.39274 0.32384,-0.14125 0.6649,-0.14125 0.62357,0 0.95085,0.37552 0.32729,0.37551 0.32729,1.08176 z"
           inkscape:connector-curvature="0" />
        <path
           id="path1012"
           style="font-size:7.05555534px;stroke-width:0.26458332"
           d="m 231.80665,226.97537 h -0.72692 l -0.50298,-1.42971 h -2.21864 l -0.50299,1.42971 h -0.69246 l 1.86724,-5.12974 h 0.90951 z m -1.44005,-2.01538 -0.89917,-2.51836 -0.90262,2.51836 z"
           inkscape:connector-curvature="0" />
        <path
           id="path1014"
           style="font-size:7.05555534px;stroke-width:0.26458332"
           d="m 233.9116,224.10905 h -0.82338 v -0.98185 h 0.82338 z m 0,2.86632 h -0.82338 v -0.98185 h 0.82338 z"
           inkscape:connector-curvature="0" />
      </g>
      <g
         id="text840"
         style="font-style:normal;font-weight:normal;font-size:10.58333302px;line-height:1.25;font-family:sans-serif;letter-spacing:0px;word-spacing:0px;fill:#000000;fill-opacity:1;stroke:none;stroke-width:0.26458332"
         aria-label="Inicializar en B:">
        <path
           id="path955"
           style="font-size:7.05555534px;stroke-width:0.26458332"
           d="m 181.83554,246.02512 h -2.02572 v -0.52366 h 0.6718 v -4.08244 h -0.6718 v -0.52365 h 2.02572 v 0.52365 h -0.67179 v 4.08244 h 0.67179 z"
           inkscape:connector-curvature="0" />
        <path
           id="path957"
           style="font-size:7.05555534px;stroke-width:0.26458332"
           d="m 186.16947,246.02512 h -0.64768 v -2.19108 q 0,-0.26528 -0.031,-0.4961 -0.031,-0.23426 -0.11369,-0.36518 -0.0861,-0.14469 -0.24805,-0.21359 -0.16192,-0.0724 -0.4203,-0.0724 -0.26527,0 -0.55466,0.13091 -0.28939,0.13092 -0.55466,0.33418 v 2.87321 h -0.64768 v -3.84818 h 0.64768 v 0.4272 q 0.30317,-0.2515 0.62701,-0.39274 0.32383,-0.14125 0.6649,-0.14125 0.62356,0 0.95085,0.37551 0.32728,0.37552 0.32728,1.08176 z"
           inkscape:connector-curvature="0" />
        <path
           id="path959"
           style="font-size:7.05555534px;stroke-width:0.26458332"
           d="m 188.1125,241.53271 h -0.73036 v -0.67179 h 0.73036 z m -0.0413,4.49241 h -0.64768 v -3.84818 h 0.64768 z"
           inkscape:connector-curvature="0" />
        <path
           id="path961"
           style="font-size:7.05555534px;stroke-width:0.26458332"
           d="m 192.20528,245.78396 q -0.32384,0.15503 -0.61668,0.24116 -0.28938,0.0861 -0.61667,0.0861 -0.41685,0 -0.76481,-0.12057 -0.34795,-0.12403 -0.596,-0.37208 -0.25149,-0.24804 -0.3893,-0.627 -0.1378,-0.37896 -0.1378,-0.88539 0,-0.94396 0.51676,-1.48139 0.52021,-0.53744 1.37115,-0.53744 0.33073,0 0.64768,0.093 0.32039,0.093 0.58567,0.22738 v 0.72002 h -0.0344 q -0.29628,-0.23082 -0.61323,-0.35484 -0.3135,-0.12403 -0.61323,-0.12403 -0.55121,0 -0.87161,0.37207 -0.31695,0.36863 -0.31695,1.08521 0,0.69591 0.31006,1.07142 0.31351,0.37207 0.8785,0.37207 0.19637,0 0.39963,-0.0517 0.20326,-0.0517 0.36518,-0.13436 0.14125,-0.0724 0.26528,-0.15159 0.12402,-0.0827 0.19637,-0.14125 h 0.0344 z"
           inkscape:connector-curvature="0" />
        <path
           id="path963"
           style="font-size:7.05555534px;stroke-width:0.26458332"
           d="m 193.7349,241.53271 h -0.73036 v -0.67179 h 0.73036 z m -0.0413,4.49241 h -0.64768 v -3.84818 h 0.64768 z"
           inkscape:connector-curvature="0" />
        <path
           id="path965"
           style="font-size:7.05555534px;stroke-width:0.26458332"
           d="m 197.97237,246.02512 h -0.64424 v -0.40997 q -0.0861,0.0586 -0.23426,0.16536 -0.1447,0.10336 -0.2825,0.16537 -0.16192,0.0792 -0.37207,0.13091 -0.21015,0.0551 -0.49265,0.0551 -0.52021,0 -0.88194,-0.34451 -0.36174,-0.34451 -0.36174,-0.87849 0,-0.43753 0.18604,-0.70625 0.18948,-0.27216 0.53743,-0.42719 0.3514,-0.15503 0.84405,-0.21015 0.49265,-0.0551 1.05764,-0.0827 v -0.0999 q 0,-0.22049 -0.0792,-0.36518 -0.0758,-0.1447 -0.22049,-0.22738 -0.1378,-0.0792 -0.33073,-0.1068 -0.19292,-0.0276 -0.40308,-0.0276 -0.25493,0 -0.56844,0.0689 -0.3135,0.0655 -0.64767,0.19293 h -0.0344 v -0.65801 q 0.18948,-0.0517 0.54777,-0.11369 0.35829,-0.062 0.70624,-0.062 0.40652,0 0.70624,0.0689 0.30317,0.0655 0.52366,0.22738 0.21704,0.15847 0.33073,0.40996 0.11369,0.25149 0.11369,0.62356 z m -0.64424,-0.94741 v -1.07142 q -0.29627,0.0172 -0.69935,0.0517 -0.39963,0.0344 -0.6339,0.0999 -0.27905,0.0792 -0.45131,0.24805 -0.17225,0.16537 -0.17225,0.4582 0,0.33073 0.19981,0.49954 0.19982,0.16536 0.60979,0.16536 0.34106,0 0.62356,-0.13091 0.2825,-0.13436 0.52365,-0.3204 z"
           inkscape:connector-curvature="0" />
        <path
           id="path967"
           style="font-size:7.05555534px;stroke-width:0.26458332"
           d="m 199.88095,246.02512 h -0.64768 v -5.36057 h 0.64768 z"
           inkscape:connector-curvature="0" />
        <path
           id="path969"
           style="font-size:7.05555534px;stroke-width:0.26458332"
           d="m 201.86532,241.53271 h -0.73036 v -0.67179 h 0.73036 z m -0.0413,4.49241 h -0.64768 v -3.84818 h 0.64768 z"
           inkscape:connector-curvature="0" />
        <path
           id="path971"
           style="font-size:7.05555534px;stroke-width:0.26458332"
           d="m 205.90298,246.02512 h -3.10748 v -0.47887 l 2.24276,-2.82843 h -2.19453 v -0.54088 h 3.00068 v 0.46165 l -2.25309,2.83876 h 2.31166 z"
           inkscape:connector-curvature="0" />
        <path
           id="path973"
           style="font-size:7.05555534px;stroke-width:0.26458332"
           d="m 209.80971,246.02512 h -0.64423 v -0.40997 q -0.0861,0.0586 -0.23427,0.16536 -0.14469,0.10336 -0.28249,0.16537 -0.16192,0.0792 -0.37207,0.13091 -0.21016,0.0551 -0.49265,0.0551 -0.52021,0 -0.88195,-0.34451 -0.36173,-0.34451 -0.36173,-0.87849 0,-0.43753 0.18603,-0.70625 0.18948,-0.27216 0.53744,-0.42719 0.3514,-0.15503 0.84405,-0.21015 0.49264,-0.0551 1.05764,-0.0827 v -0.0999 q 0,-0.22049 -0.0792,-0.36518 -0.0758,-0.1447 -0.22048,-0.22738 -0.13781,-0.0792 -0.33073,-0.1068 -0.19293,-0.0276 -0.40308,-0.0276 -0.25494,0 -0.56844,0.0689 -0.3135,0.0655 -0.64768,0.19293 h -0.0344 v -0.65801 q 0.18948,-0.0517 0.54777,-0.11369 0.35829,-0.062 0.70625,-0.062 0.40652,0 0.70624,0.0689 0.30317,0.0655 0.52366,0.22738 0.21704,0.15847 0.33073,0.40996 0.11368,0.25149 0.11368,0.62356 z m -0.64423,-0.94741 v -1.07142 q -0.29628,0.0172 -0.69935,0.0517 -0.39964,0.0344 -0.6339,0.0999 -0.27905,0.0792 -0.45131,0.24805 -0.17225,0.16537 -0.17225,0.4582 0,0.33073 0.19981,0.49954 0.19982,0.16536 0.60978,0.16536 0.34107,0 0.62357,-0.13091 0.28249,-0.13436 0.52365,-0.3204 z"
           inkscape:connector-curvature="0" />
        <path
           id="path975"
           style="font-size:7.05555534px;stroke-width:0.26458332"
           d="m 213.46496,242.88319 h -0.0344 q -0.14469,-0.0345 -0.2825,-0.0482 -0.13436,-0.0172 -0.32039,-0.0172 -0.29973,0 -0.57878,0.13436 -0.27905,0.13091 -0.53743,0.34107 v 2.73196 h -0.64768 V 242.177 h 0.64768 v 0.56845 q 0.38585,-0.31006 0.67868,-0.43753 0.29628,-0.13092 0.60289,-0.13092 0.16881,0 0.2446,0.0103 0.0758,0.007 0.22738,0.031 z"
           inkscape:connector-curvature="0" />
        <path
           id="path977"
           style="font-size:7.05555534px;stroke-width:0.26458332"
           d="m 219.78327,244.16821 h -2.83532 q 0,0.35484 0.1068,0.62012 0.1068,0.26182 0.29283,0.43063 0.17915,0.16537 0.42375,0.24805 0.24805,0.0827 0.54433,0.0827 0.39274,0 0.78892,-0.15503 0.39963,-0.15847 0.56844,-0.31006 h 0.0344 v 0.70625 q -0.32728,0.1378 -0.66834,0.23082 -0.34107,0.093 -0.71658,0.093 -0.95774,0 -1.49518,-0.51677 -0.53743,-0.52021 -0.53743,-1.4745 0,-0.94395 0.51332,-1.49861 0.51676,-0.55466 1.35737,-0.55466 0.77859,0 1.19889,0.45475 0.42375,0.45475 0.42375,1.29191 z m -0.63046,-0.49609 q -0.003,-0.50988 -0.25838,-0.78893 -0.25149,-0.27905 -0.76826,-0.27905 -0.5202,0 -0.83026,0.30661 -0.30662,0.30661 -0.34796,0.76137 z"
           inkscape:connector-curvature="0" />
        <path
           id="path979"
           style="font-size:7.05555534px;stroke-width:0.26458332"
           d="m 223.98284,246.02512 h -0.64768 v -2.19108 q 0,-0.26528 -0.031,-0.4961 -0.031,-0.23426 -0.11369,-0.36518 -0.0861,-0.14469 -0.24804,-0.21359 -0.16192,-0.0724 -0.42031,-0.0724 -0.26527,0 -0.55466,0.13091 -0.28938,0.13092 -0.55466,0.33418 v 2.87321 h -0.64767 v -3.84818 h 0.64767 v 0.4272 q 0.30317,-0.2515 0.62701,-0.39274 0.32384,-0.14125 0.6649,-0.14125 0.62357,0 0.95085,0.37551 0.32729,0.37552 0.32729,1.08176 z"
           inkscape:connector-curvature="0" />
        <path
           id="path981"
           style="font-size:7.05555534px;stroke-width:0.26458332"
           d="m 231.63095,244.44726 q 0,0.38241 -0.1447,0.67524 -0.14469,0.29283 -0.38929,0.48231 -0.28939,0.22738 -0.63735,0.32384 -0.3445,0.0965 -0.87849,0.0965 h -1.81902 v -5.12975 h 1.51929 q 0.56155,0 0.84061,0.0413 0.27905,0.0413 0.53398,0.17225 0.2825,0.14814 0.40997,0.38241 0.12747,0.23082 0.12747,0.55466 0,0.36518 -0.18604,0.62356 -0.18603,0.25494 -0.49609,0.40997 v 0.0276 q 0.52021,0.1068 0.81993,0.4582 0.29973,0.34795 0.29973,0.88194 z m -1.14722,-2.31166 q 0,-0.18603 -0.062,-0.3135 -0.062,-0.12747 -0.19982,-0.20671 -0.16192,-0.093 -0.39274,-0.11368 -0.23082,-0.0241 -0.57188,-0.0241 h -0.81305 v 1.48139 h 0.88195 q 0.32039,0 0.50987,-0.031 0.18948,-0.0345 0.3514,-0.13781 0.16192,-0.10335 0.22738,-0.26527 0.0689,-0.16537 0.0689,-0.3893 z m 0.43753,2.33922 q 0,-0.31006 -0.093,-0.49265 -0.093,-0.18259 -0.33762,-0.31005 -0.16536,-0.0861 -0.40308,-0.11025 -0.23426,-0.0276 -0.57188,-0.0276 h -1.07143 v 1.90858 h 0.90262 q 0.44786,0 0.7338,-0.0448 0.28595,-0.0482 0.46854,-0.17226 0.19292,-0.13435 0.28249,-0.30661 0.0896,-0.17225 0.0896,-0.44442 z"
           inkscape:connector-curvature="0" />
        <path
           id="path983"
           style="font-size:7.05555534px;stroke-width:0.26458332"
           d="M 233.92538,243.1588 H 233.102 v -0.98186 h 0.82338 z m 0,2.86632 H 233.102 v -0.98186 h 0.82338 z"
           inkscape:connector-curvature="0" />
      </g>
      <g
         id="text844"
         style="font-style:normal;font-weight:normal;font-size:10.58333302px;line-height:1.25;font-family:sans-serif;letter-spacing:0px;word-spacing:0px;fill:#000000;fill-opacity:1;stroke:none;stroke-width:0.26458332"
         aria-label="Vuelta al menú">
        <path
           id="path930"
           style="font-size:7.05555534px;stroke-width:0.26458332"
           d="m 184.45381,259.94539 -1.86725,5.12974 h -0.9095 l -1.86724,-5.12974 h 0.73036 l 1.60886,4.51307 1.60886,-4.51307 z"
           inkscape:connector-curvature="0" />
        <path
           id="path932"
           style="font-size:7.05555534px;stroke-width:0.26458332"
           d="m 188.16417,265.07513 h -0.64767 v -0.42719 q -0.32729,0.25838 -0.62701,0.39619 -0.29972,0.1378 -0.66146,0.1378 -0.60634,0 -0.94396,-0.36862 -0.33761,-0.37207 -0.33761,-1.08865 v -2.4977 h 0.64767 v 2.19108 q 0,0.29284 0.0276,0.50299 0.0276,0.2067 0.11714,0.35484 0.093,0.15159 0.24115,0.22049 0.14814,0.0689 0.43064,0.0689 0.25149,0 0.54777,-0.13091 0.29972,-0.13092 0.55811,-0.33418 v -2.87321 h 0.64767 z"
           inkscape:connector-curvature="0" />
        <path
           id="path934"
           style="font-size:7.05555534px;stroke-width:0.26458332"
           d="m 192.66002,263.21823 h -2.83531 q 0,0.35484 0.1068,0.62012 0.1068,0.26182 0.29283,0.43063 0.17915,0.16537 0.42375,0.24805 0.24805,0.0827 0.54432,0.0827 0.39274,0 0.78893,-0.15503 0.39963,-0.15847 0.56844,-0.31006 h 0.0344 v 0.70625 q -0.32728,0.1378 -0.66835,0.23082 -0.34106,0.093 -0.71658,0.093 -0.95773,0 -1.49517,-0.51677 -0.53743,-0.52021 -0.53743,-1.4745 0,-0.94395 0.51332,-1.49861 0.51676,-0.55467 1.35736,-0.55467 0.7786,0 1.1989,0.45476 0.42374,0.45475 0.42374,1.29191 z m -0.63045,-0.4961 q -0.003,-0.50987 -0.25838,-0.78892 -0.25149,-0.27906 -0.76826,-0.27906 -0.52021,0 -0.83026,0.30662 -0.30662,0.30661 -0.34796,0.76136 z"
           inkscape:connector-curvature="0" />
        <path
           id="path936"
           style="font-size:7.05555534px;stroke-width:0.26458332"
           d="m 194.29644,265.07513 h -0.64767 v -5.36056 h 0.64767 z"
           inkscape:connector-curvature="0" />
        <path
           id="path938"
           style="font-size:7.05555534px;stroke-width:0.26458332"
           d="m 197.58306,265.04068 q -0.18259,0.0482 -0.39963,0.0792 -0.21359,0.031 -0.3824,0.031 -0.58911,0 -0.89573,-0.31695 -0.30661,-0.31695 -0.30661,-1.01631 v -2.04638 h -0.43753 v -0.54433 h 0.43753 v -1.10587 h 0.64768 v 1.10587 h 1.33669 v 0.54433 h -1.33669 v 1.75355 q 0,0.30317 0.0138,0.47542 0.0138,0.16881 0.0965,0.31695 0.0758,0.13781 0.20671,0.20326 0.13436,0.062 0.40652,0.062 0.15847,0 0.33073,-0.0448 0.17225,-0.0482 0.24804,-0.0792 h 0.0344 z"
           inkscape:connector-curvature="0" />
        <path
           id="path940"
           style="font-size:7.05555534px;stroke-width:0.26458332"
           d="m 201.35889,265.07513 h -0.64423 v -0.40996 q -0.0861,0.0586 -0.23427,0.16536 -0.14469,0.10336 -0.2825,0.16537 -0.16192,0.0792 -0.37207,0.13091 -0.21015,0.0551 -0.49265,0.0551 -0.52021,0 -0.88194,-0.34451 -0.36174,-0.34451 -0.36174,-0.8785 0,-0.43752 0.18604,-0.70624 0.18948,-0.27216 0.53743,-0.42719 0.3514,-0.15503 0.84405,-0.21015 0.49265,-0.0551 1.05765,-0.0827 v -0.0999 q 0,-0.22049 -0.0792,-0.36518 -0.0758,-0.1447 -0.22049,-0.22738 -0.1378,-0.0792 -0.33072,-0.1068 -0.19293,-0.0276 -0.40308,-0.0276 -0.25494,0 -0.56844,0.0689 -0.31351,0.0655 -0.64768,0.19293 h -0.0344 v -0.65801 q 0.18948,-0.0517 0.54777,-0.11369 0.35829,-0.062 0.70624,-0.062 0.40653,0 0.70625,0.0689 0.30317,0.0654 0.52365,0.22737 0.21704,0.15848 0.33073,0.40997 0.11369,0.25149 0.11369,0.62356 z m -0.64423,-0.9474 v -1.07142 q -0.29628,0.0172 -0.69936,0.0517 -0.39963,0.0345 -0.63389,0.0999 -0.27906,0.0792 -0.45131,0.24805 -0.17226,0.16536 -0.17226,0.4582 0,0.33073 0.19982,0.49954 0.19981,0.16536 0.60978,0.16536 0.34107,0 0.62356,-0.13091 0.2825,-0.13436 0.52366,-0.3204 z"
           inkscape:connector-curvature="0" />
        <path
           id="path942"
           style="font-size:7.05555534px;stroke-width:0.26458332"
           d="m 208.08372,265.07513 h -0.64424 v -0.40996 q -0.0861,0.0586 -0.23426,0.16536 -0.1447,0.10336 -0.2825,0.16537 -0.16192,0.0792 -0.37207,0.13091 -0.21015,0.0551 -0.49265,0.0551 -0.52021,0 -0.88195,-0.34451 -0.36173,-0.34451 -0.36173,-0.8785 0,-0.43752 0.18603,-0.70624 0.18949,-0.27216 0.53744,-0.42719 0.3514,-0.15503 0.84405,-0.21015 0.49265,-0.0551 1.05764,-0.0827 v -0.0999 q 0,-0.22049 -0.0792,-0.36518 -0.0758,-0.1447 -0.22049,-0.22738 -0.1378,-0.0792 -0.33073,-0.1068 -0.19293,-0.0276 -0.40308,-0.0276 -0.25493,0 -0.56844,0.0689 -0.3135,0.0655 -0.64767,0.19293 h -0.0345 v -0.65801 q 0.18948,-0.0517 0.54777,-0.11369 0.35829,-0.062 0.70625,-0.062 0.40652,0 0.70624,0.0689 0.30317,0.0654 0.52366,0.22737 0.21704,0.15848 0.33073,0.40997 0.11369,0.25149 0.11369,0.62356 z m -0.64424,-0.9474 v -1.07142 q -0.29628,0.0172 -0.69935,0.0517 -0.39963,0.0345 -0.6339,0.0999 -0.27905,0.0792 -0.45131,0.24805 -0.17225,0.16536 -0.17225,0.4582 0,0.33073 0.19981,0.49954 0.19982,0.16536 0.60979,0.16536 0.34106,0 0.62356,-0.13091 0.2825,-0.13436 0.52365,-0.3204 z"
           inkscape:connector-curvature="0" />
        <path
           id="path944"
           style="font-size:7.05555534px;stroke-width:0.26458332"
           d="m 209.9923,265.07513 h -0.64768 v -5.36056 h 0.64768 z"
           inkscape:connector-curvature="0" />
        <path
           id="path946"
           style="font-size:7.05555534px;stroke-width:0.26458332"
           d="m 219.37674,265.07513 h -0.64768 v -2.19108 q 0,-0.24804 -0.0241,-0.47886 -0.0207,-0.23083 -0.093,-0.36863 -0.0792,-0.14814 -0.22738,-0.22393 -0.14814,-0.0758 -0.42719,-0.0758 -0.27216,0 -0.54433,0.1378 -0.27216,0.13436 -0.54432,0.34451 0.0103,0.0792 0.0172,0.18604 0.007,0.10335 0.007,0.2067 v 2.46324 h -0.64767 v -2.19108 q 0,-0.25493 -0.0241,-0.48231 -0.0207,-0.23082 -0.093,-0.36862 -0.0792,-0.14814 -0.22737,-0.22049 -0.14814,-0.0758 -0.4272,-0.0758 -0.26527,0 -0.53398,0.13091 -0.26528,0.13091 -0.53055,0.33417 v 2.87321 h -0.64768 v -3.84817 h 0.64768 v 0.42719 q 0.30317,-0.25149 0.60289,-0.39274 0.30317,-0.14125 0.64424,-0.14125 0.39274,0 0.6649,0.16537 0.27561,0.16536 0.40996,0.4582 0.39275,-0.33073 0.71658,-0.47543 0.32384,-0.14814 0.69247,-0.14814 0.6339,0 0.93362,0.38586 0.30317,0.3824 0.30317,1.07142 z"
           inkscape:connector-curvature="0" />
        <path
           id="path948"
           style="font-size:7.05555534px;stroke-width:0.26458332"
           d="m 223.84503,263.21823 h -2.83532 q 0,0.35484 0.1068,0.62012 0.1068,0.26182 0.29283,0.43063 0.17915,0.16537 0.42375,0.24805 0.24805,0.0827 0.54433,0.0827 0.39274,0 0.78892,-0.15503 0.39963,-0.15847 0.56844,-0.31006 h 0.0344 v 0.70625 q -0.32728,0.1378 -0.66834,0.23082 -0.34107,0.093 -0.71658,0.093 -0.95774,0 -1.49518,-0.51677 -0.53743,-0.52021 -0.53743,-1.4745 0,-0.94395 0.51332,-1.49861 0.51676,-0.55467 1.35737,-0.55467 0.77859,0 1.19889,0.45476 0.42375,0.45475 0.42375,1.29191 z m -0.63046,-0.4961 q -0.003,-0.50987 -0.25838,-0.78892 -0.25149,-0.27906 -0.76826,-0.27906 -0.5202,0 -0.83026,0.30662 -0.30662,0.30661 -0.34796,0.76136 z"
           inkscape:connector-curvature="0" />
        <path
           id="path950"
           style="font-size:7.05555534px;stroke-width:0.26458332"
           d="m 228.0446,265.07513 h -0.64768 v -2.19108 q 0,-0.26527 -0.031,-0.49609 -0.031,-0.23427 -0.11368,-0.36518 -0.0861,-0.14469 -0.24805,-0.2136 -0.16192,-0.0723 -0.4203,-0.0723 -0.26527,0 -0.55466,0.13091 -0.28939,0.13091 -0.55466,0.33417 v 2.87321 h -0.64768 V 261.227 h 0.64768 v 0.42719 q 0.30317,-0.25149 0.627,-0.39274 0.32384,-0.14125 0.66491,-0.14125 0.62356,0 0.95084,0.37552 0.32729,0.37552 0.32729,1.08176 z"
           inkscape:connector-curvature="0" />
        <path
           id="path952"
           style="font-size:7.05555534px;stroke-width:0.26458332"
           d="m 232.48188,265.07513 h -0.64768 v -0.42719 q -0.32728,0.25838 -0.627,0.39619 -0.29973,0.1378 -0.66146,0.1378 -0.60634,0 -0.94396,-0.36862 -0.33762,-0.37207 -0.33762,-1.08865 v -2.4977 h 0.64768 v 2.19108 q 0,0.29284 0.0276,0.50299 0.0276,0.2067 0.11713,0.35484 0.093,0.15159 0.24116,0.22049 0.14814,0.0689 0.43064,0.0689 0.25149,0 0.54777,-0.13091 0.29972,-0.13092 0.5581,-0.33418 v -2.87321 h 0.64768 z m -0.57188,-5.77398 -0.94052,1.28847 h -0.51331 l 0.61667,-1.28847 z"
           inkscape:connector-curvature="0" />
      </g>
      <g
         id="text848"
         style="font-style:normal;font-weight:normal;font-size:10.58333302px;line-height:1.25;font-family:sans-serif;letter-spacing:0px;word-spacing:0px;fill:#000000;fill-opacity:1;stroke:none;stroke-width:0.26458332"
         aria-label="8">
        <path
           id="path927"
           style="font-style:normal;font-variant:normal;font-weight:normal;font-stretch:normal;font-size:8.46666622px;font-family:Consolas;-inkscape-font-specification:Consolas;stroke-width:0.26458332"
           d="m 136.74191,225.62079 q 0,0.34313 -0.14056,0.61185 -0.14056,0.26458 -0.39274,0.44648 -0.25218,0.1819 -0.59531,0.27699 -0.34314,0.0951 -0.74414,0.0951 -0.44235,0 -0.78135,-0.0992 -0.33487,-0.0992 -0.56224,-0.27698 -0.22738,-0.17777 -0.34313,-0.42168 -0.11576,-0.24392 -0.11576,-0.53744 0,-0.49609 0.27699,-0.85576 0.27698,-0.35967 0.85576,-0.65319 -0.52917,-0.26872 -0.77308,-0.59531 -0.24391,-0.33073 -0.24391,-0.75655 0,-0.26045 0.10748,-0.50436 0.10749,-0.24391 0.32246,-0.43408 0.21911,-0.19017 0.54571,-0.30179 0.32659,-0.11576 0.76894,-0.11576 0.41755,0 0.73174,0.091 0.31833,0.0868 0.5333,0.25218 0.21498,0.16536 0.32246,0.40101 0.10749,0.23564 0.10749,0.52503 0,0.47129 -0.26458,0.80202 -0.26045,0.33073 -0.74414,0.57877 0.23977,0.11989 0.44648,0.26459 0.20671,0.14469 0.35967,0.32246 0.15296,0.17776 0.23564,0.39687 0.0868,0.21911 0.0868,0.48783 z m -0.85576,-2.79466 q 0,-0.36794 -0.26045,-0.54571 -0.25632,-0.1819 -0.72347,-0.1819 -0.46302,0 -0.72347,0.17777 -0.25632,0.17777 -0.25632,0.5333 0,0.16123 0.062,0.29766 0.062,0.13642 0.19016,0.25631 0.1323,0.11989 0.3266,0.23564 0.1943,0.11576 0.46302,0.23565 0.46716,-0.21911 0.69453,-0.45475 0.22738,-0.23978 0.22738,-0.55397 z m 0.0744,2.8484 q 0,-0.15296 -0.0496,-0.29766 -0.0496,-0.14469 -0.17776,-0.28525 -0.12816,-0.14056 -0.34314,-0.28112 -0.21497,-0.14056 -0.5457,-0.28939 -0.28112,0.13643 -0.47542,0.27285 -0.19017,0.1323 -0.31006,0.27286 -0.11576,0.13642 -0.16537,0.28525 -0.0496,0.14883 -0.0496,0.31419 0,0.18604 0.0785,0.33073 0.0827,0.14056 0.22325,0.23978 0.14056,0.0992 0.33486,0.14883 0.1943,0.0496 0.42168,0.0496 0.21911,0 0.41341,-0.0455 0.1943,-0.0455 0.33486,-0.13642 0.1447,-0.0951 0.22738,-0.23565 0.0827,-0.14469 0.0827,-0.34313 z"
           inkscape:connector-curvature="0" />
      </g>
      <g
         id="text852"
         style="font-style:normal;font-weight:normal;font-size:10.58333302px;line-height:1.25;font-family:sans-serif;letter-spacing:0px;word-spacing:0px;fill:#000000;fill-opacity:1;stroke:none;stroke-width:0.26458332"
         aria-label="5">
        <path
           id="path924"
           style="font-style:normal;font-variant:normal;font-weight:normal;font-stretch:normal;font-size:8.46666622px;font-family:Consolas;-inkscape-font-specification:Consolas;stroke-width:0.26458332"
           d="m 136.55174,244.10946 q 0,0.40101 -0.17363,0.73174 -0.17363,0.33073 -0.47956,0.57051 -0.30179,0.23565 -0.7152,0.36794 -0.41341,0.13229 -0.89297,0.13229 -0.11989,0 -0.26045,-0.008 -0.13642,-0.004 -0.27285,-0.0165 -0.13642,-0.008 -0.26872,-0.0207 -0.12815,-0.0124 -0.23151,-0.0289 v -0.65319 q 0.22325,0.0538 0.5085,0.0786 0.28939,0.0248 0.58291,0.0248 0.33073,0 0.59531,-0.0786 0.26459,-0.0785 0.45062,-0.22324 0.18604,-0.14883 0.28525,-0.35554 0.0992,-0.21084 0.0992,-0.47129 0,-0.50436 -0.3638,-0.73173 -0.35967,-0.23151 -1.03766,-0.23151 h -1.02526 v -2.76159 h 2.91041 v 0.62838 h -2.23242 v 1.51722 h 0.47129 q 0.38861,0 0.75654,0.0703 0.36794,0.0703 0.65319,0.24805 0.28939,0.17363 0.46303,0.47129 0.17776,0.29352 0.17776,0.74 z"
           inkscape:connector-curvature="0" />
      </g>
      <g
         id="text856"
         style="font-style:normal;font-weight:normal;font-size:10.58333302px;line-height:1.25;font-family:sans-serif;letter-spacing:0px;word-spacing:0px;fill:#000000;fill-opacity:1;stroke:none;stroke-width:0.26458332"
         aria-label="2">
        <path
           id="path921"
           style="font-style:normal;font-variant:normal;font-weight:normal;font-stretch:normal;font-size:8.46666622px;font-family:Consolas;-inkscape-font-specification:Consolas;stroke-width:0.26458332"
           d="m 136.68403,264.88751 h -3.55947 v -0.64492 l 1.39733,-1.38906 q 0.34313,-0.339 0.55811,-0.58705 0.21497,-0.24804 0.33486,-0.45061 0.11989,-0.20671 0.16123,-0.38861 0.0413,-0.1819 0.0413,-0.39274 0,-0.19844 -0.0537,-0.37621 -0.0538,-0.1819 -0.16537,-0.31832 -0.11162,-0.13643 -0.28938,-0.21498 -0.17777,-0.0785 -0.42582,-0.0785 -0.34313,0 -0.62425,0.15297 -0.28112,0.15296 -0.51676,0.39687 l -0.39688,-0.47542 q 0.30593,-0.32246 0.7028,-0.51677 0.40101,-0.1943 0.93018,-0.1943 0.35966,0 0.65319,0.10749 0.29765,0.10748 0.51263,0.31006 0.21497,0.20257 0.33073,0.49609 0.11988,0.29352 0.11988,0.66146 0,0.31006 -0.0827,0.57464 -0.0827,0.26458 -0.25218,0.52917 -0.16536,0.26045 -0.42168,0.54157 -0.25218,0.28112 -0.59944,0.61598 l -0.97979,0.95498 h 2.62516 z"
           inkscape:connector-curvature="0" />
      </g>
      <g
         id="text860"
         style="font-style:normal;font-weight:normal;font-size:10.58333302px;line-height:1.25;font-family:sans-serif;letter-spacing:0px;word-spacing:0px;fill:#000000;fill-opacity:1;stroke:none;stroke-width:0.26458332"
         aria-label="Format A:">
        <path
           id="path904"
           style="font-style:normal;font-variant:normal;font-weight:normal;font-stretch:normal;font-size:8.46666622px;font-family:'OCR A Extended';-inkscape-font-specification:'OCR A Extended';stroke-width:0.26458332"
           d="m 11.451549,226.7349 v -5.14697 h 3.150195 q 0.136426,0 0.239779,0.10335 0.107486,0.10336 0.107486,0.24392 0,0.14469 -0.103352,0.25218 -0.103353,0.10335 -0.243913,0.10335 H 12.14608 v 1.09141 h 1.761133 q 0.144694,0 0.243912,0.10335 0.103353,0.0992 0.103353,0.24391 0,0.1447 -0.103353,0.24805 -0.09922,0.0992 -0.243912,0.0992 H 12.14608 v 2.65823 q 0,0.1447 -0.103353,0.24805 -0.09922,0.0992 -0.243913,0.0992 -0.144694,0 -0.248047,-0.0992 -0.09922,-0.10335 -0.09922,-0.24805 z"
           inkscape:connector-curvature="0" />
        <path
           id="path906"
           style="font-style:normal;font-variant:normal;font-weight:normal;font-stretch:normal;font-size:8.46666622px;font-family:'OCR A Extended';-inkscape-font-specification:'OCR A Extended';stroke-width:0.26458332"
           d="m 20.058775,224.34538 v 1.46762 q 0,0.46715 -0.44235,0.86403 -0.438216,0.39687 -0.905371,0.39687 h -0.814421 q -0.475423,0 -0.909505,-0.40101 -0.434082,-0.40514 -0.434082,-0.85989 v -1.46762 q 0,-0.45475 0.42168,-0.85576 0.425813,-0.40514 0.921907,-0.40514 h 0.814421 q 0.467155,-0.008 0.905371,0.38861 0.44235,0.39687 0.44235,0.87229 z m -2.80293,0.0289 v 1.4056 q 0,0.19017 0.136426,0.30179 l 0.260449,0.22325 q 0.08682,0.0744 0.243913,0.0744 h 0.806152 q 0.177767,0 0.322461,-0.12816 l 0.21084,-0.18603 q 0.128158,-0.0992 0.128158,-0.27699 v -1.4056 q 0,-0.2067 -0.128158,-0.30592 l -0.243913,-0.19431 q -0.124023,-0.10335 -0.289388,-0.10335 H 17.98345 q -0.235645,0 -0.363802,0.11162 l -0.235645,0.20257 q -0.128158,0.10749 -0.128158,0.28112 z"
           inkscape:connector-curvature="0" />
        <path
           id="path908"
           style="font-style:normal;font-variant:normal;font-weight:normal;font-stretch:normal;font-size:8.46666622px;font-family:'OCR A Extended';-inkscape-font-specification:'OCR A Extended';stroke-width:0.26458332"
           d="m 21.67108,226.7349 v -3.29489 q 0,-0.14469 0.09922,-0.24804 0.103352,-0.10749 0.248046,-0.10749 0.144694,0 0.243913,0.10335 0.103353,0.10336 0.103353,0.25218 v 0.43409 l 0.566374,-0.4837 q 0.351399,-0.29765 0.686263,-0.29765 h 0.508496 q 0.429948,0 0.735872,0.30592 0.305925,0.30593 0.305925,0.73588 v 0.18603 q 0,0.14883 -0.103353,0.25218 -0.09922,0.10335 -0.243913,0.10335 -0.144694,0 -0.248047,-0.0992 -0.09922,-0.10336 -0.09922,-0.24805 v -0.1943 q 0,-0.1447 -0.103353,-0.24392 -0.09922,-0.10335 -0.243912,-0.10335 h -0.450619 q -0.144694,0 -0.322461,0.15296 l -0.988053,0.85576 v 1.9389 q 0,0.1447 -0.103353,0.24805 -0.103353,0.0992 -0.243913,0.0992 -0.144694,0 -0.248046,-0.0992 -0.09922,-0.10335 -0.09922,-0.24805 z"
           inkscape:connector-curvature="0" />
        <path
           id="path910"
           style="font-style:normal;font-variant:normal;font-weight:normal;font-stretch:normal;font-size:8.46666622px;font-family:'OCR A Extended';-inkscape-font-specification:'OCR A Extended';stroke-width:0.26458332"
           d="m 26.694028,226.7349 v -3.29489 q 0,-0.14469 0.09922,-0.24391 0.103353,-0.10335 0.248047,-0.10335 0.268717,0 0.338997,0.26458 0.289388,-0.27285 0.644922,-0.27285 0.417546,0 0.686263,0.35553 0.330729,-0.35553 0.727604,-0.35553 0.322461,0 0.558106,0.23151 0.239778,0.22738 0.256315,0.58291 l 0.09922,2.836 q 0,0.14056 -0.103353,0.24392 -0.103353,0.10335 -0.243913,0.10335 -0.144694,0 -0.248047,-0.10335 -0.103353,-0.10336 -0.107487,-0.24392 l -0.08268,-2.72438 q -0.0083,-0.22324 -0.136426,-0.22324 -0.07028,0 -0.144694,0.062 l -0.413411,0.34727 v 2.53834 q 0,0.14056 -0.103353,0.23978 -0.09922,0.0992 -0.243913,0.0992 -0.14056,0 -0.243913,-0.0992 -0.103353,-0.10335 -0.103353,-0.24805 v -2.76158 q 0,-0.17777 -0.152962,-0.17777 -0.07441,0 -0.136426,0.0537 l -0.500227,0.42168 v 2.4722 q 0,0.14056 -0.09922,0.24392 -0.09922,0.10335 -0.239779,0.10335 -0.144694,0 -0.252181,-0.10335 -0.103353,-0.10336 -0.103353,-0.24392 z"
           inkscape:connector-curvature="0" />
        <path
           id="path912"
           style="font-style:normal;font-variant:normal;font-weight:normal;font-stretch:normal;font-size:8.46666622px;font-family:'OCR A Extended';-inkscape-font-specification:'OCR A Extended';stroke-width:0.26458332"
           d="m 32.924139,224.5769 h 1.360124 q 0.111621,0 0.322461,0.0496 l -0.0083,-0.49195 q 0,-0.1447 -0.103353,-0.24392 -0.09922,-0.10335 -0.243913,-0.10335 h -1.318782 q -0.14056,0 -0.243913,-0.10335 -0.103353,-0.10336 -0.103353,-0.24392 0,-0.14469 0.09922,-0.24391 0.103353,-0.10335 0.248047,-0.10335 h 1.318782 q 0.429948,0 0.731738,0.30179 0.305925,0.30179 0.318327,0.74001 l 0.08682,2.60035 q 0,0.1447 -0.103353,0.24805 -0.103353,0.0992 -0.243913,0.0992 -0.148828,0 -0.252181,-0.0992 -0.103353,-0.10335 -0.103353,-0.24805 l -0.587044,0.34727 h -1.174089 q -0.438216,0 -0.74414,-0.30593 -0.305925,-0.30592 -0.305925,-0.74414 v -0.40514 q 0,-0.43408 0.305925,-0.74001 0.310058,-0.31005 0.74414,-0.31005 z m 1.736328,1.35185 -0.02067,-0.29352 q -0.0041,-0.14883 -0.103353,-0.24805 -0.09922,-0.0992 -0.243913,-0.0992 h -1.368392 q -0.144694,0 -0.248046,0.10336 -0.09922,0.0992 -0.09922,0.24391 v 0.38861 q 0,0.14056 0.103353,0.24391 0.103353,0.10335 0.243912,0.10335 h 0.979786 z"
           inkscape:connector-curvature="0" />
        <path
           id="path914"
           style="font-style:normal;font-variant:normal;font-weight:normal;font-stretch:normal;font-size:8.46666622px;font-family:'OCR A Extended';-inkscape-font-specification:'OCR A Extended';stroke-width:0.26458332"
           d="m 39.439504,227.08217 h -0.694531 q -0.429948,0 -0.740006,-0.30593 -0.310059,-0.30592 -0.310059,-0.73587 v -2.25309 h -0.355534 q -0.144694,0 -0.248047,-0.0992 -0.09922,-0.0992 -0.09922,-0.24805 0,-0.14469 0.09922,-0.24391 0.103353,-0.10335 0.248047,-0.10335 h 0.363802 v -0.85163 q 0,-0.14469 0.09922,-0.24391 0.103353,-0.10335 0.248047,-0.10335 0.136426,0 0.239779,0.10335 0.107487,0.10335 0.107487,0.24391 v 0.85163 h 1.39733 q 0.14056,0 0.243913,0.10335 0.103353,0.10335 0.103353,0.24391 0,0.1447 -0.103353,0.24805 -0.103353,0.0992 -0.243913,0.0992 H 38.38944 v 2.25309 q 0,0.14056 0.103353,0.24391 0.107487,0.10336 0.252181,0.10336 h 0.677995 q 0.276986,0 0.367936,-0.29766 0.09095,-0.30179 0.3514,-0.30179 0.152962,0 0.248047,0.10335 0.09922,0.0992 0.09922,0.25218 0,0.3142 -0.297656,0.62839 -0.293522,0.31006 -0.752409,0.31006 z"
           inkscape:connector-curvature="0" />
        <path
           id="path916"
           style="font-style:normal;font-variant:normal;font-weight:normal;font-stretch:normal;font-size:8.46666622px;font-family:'OCR A Extended';-inkscape-font-specification:'OCR A Extended';stroke-width:0.26458332"
           d="m 47.240579,226.59848 1.405599,-4.7501 q 0.08268,-0.26045 0.347266,-0.26045 0.256315,0 0.322461,0.21911 l 1.384928,4.82451 q 0.01654,0.0537 0.01654,0.10335 0,0.1447 -0.09922,0.24805 -0.09922,0.0992 -0.227376,0.0992 -0.272852,0 -0.347266,-0.25218 l -0.28112,-0.94258 h -1.583366 l -0.305924,1.00872 q -0.0124,0.0661 -0.103353,0.12816 -0.09095,0.0579 -0.198437,0.0579 -0.152963,0 -0.252181,-0.10335 -0.09922,-0.10336 -0.09922,-0.25219 0,-0.062 0.02067,-0.12815 z m 1.744597,-3.40238 -0.595313,1.98851 h 1.169955 z"
           inkscape:connector-curvature="0" />
        <path
           id="path918"
           style="font-style:normal;font-variant:normal;font-weight:normal;font-stretch:normal;font-size:8.46666622px;font-family:'OCR A Extended';-inkscape-font-specification:'OCR A Extended';stroke-width:0.26458332"
           d="m 53.727004,222.4933 h 0.694531 q 0.148828,0 0.252181,0.11162 0.103353,0.11162 0.103353,0.23565 v 0.59944 q 0,0.14056 -0.107487,0.24392 -0.103353,0.10335 -0.239779,0.10335 h -0.711068 q -0.144694,0 -0.243912,-0.0992 -0.09508,-0.0992 -0.09508,-0.24805 v -0.59944 q 0,-0.14056 0.09922,-0.24392 0.103353,-0.10335 0.248047,-0.10335 z m 0,2.39779 h 0.694531 q 0.144694,0 0.248047,0.10335 0.107487,0.0992 0.107487,0.24391 v 0.59118 q 0,0.1447 -0.103353,0.25218 -0.103353,0.10336 -0.243913,0.10336 h -0.711068 q -0.144694,0 -0.243912,-0.10336 -0.09508,-0.10335 -0.09508,-0.24391 v -0.59945 q 0,-0.14882 0.09922,-0.24804 0.103353,-0.0992 0.248047,-0.0992 z"
           inkscape:connector-curvature="0" />
      </g>
      <g
         id="text864"
         style="font-style:normal;font-weight:normal;font-size:10.58333302px;line-height:1.25;font-family:sans-serif;letter-spacing:0px;word-spacing:0px;fill:#000000;fill-opacity:1;stroke:none;stroke-width:0.26458332"
         aria-label="Format B:">
        <path
           id="path887"
           style="font-style:normal;font-variant:normal;font-weight:normal;font-stretch:normal;font-size:8.46666622px;font-family:'OCR A Extended';-inkscape-font-specification:'OCR A Extended';stroke-width:0.26458332"
           d="m 11.451549,245.78465 v -5.14698 h 3.150195 q 0.136426,0 0.239779,0.10336 0.107486,0.10335 0.107486,0.24391 0,0.14469 -0.103352,0.25218 -0.103353,0.10335 -0.243913,0.10335 H 12.14608 v 1.09141 h 1.761133 q 0.144694,0 0.243912,0.10335 0.103353,0.0992 0.103353,0.24392 0,0.14469 -0.103353,0.24804 -0.09922,0.0992 -0.243912,0.0992 H 12.14608 v 2.65824 q 0,0.14469 -0.103353,0.24804 -0.09922,0.0992 -0.243913,0.0992 -0.144694,0 -0.248047,-0.0992 -0.09922,-0.10335 -0.09922,-0.24804 z"
           inkscape:connector-curvature="0" />
        <path
           id="path889"
           style="font-style:normal;font-variant:normal;font-weight:normal;font-stretch:normal;font-size:8.46666622px;font-family:'OCR A Extended';-inkscape-font-specification:'OCR A Extended';stroke-width:0.26458332"
           d="m 20.058775,243.39513 v 1.46761 q 0,0.46715 -0.44235,0.86403 -0.438216,0.39687 -0.905371,0.39687 h -0.814421 q -0.475423,0 -0.909505,-0.40101 -0.434082,-0.40514 -0.434082,-0.85989 v -1.46761 q 0,-0.45475 0.42168,-0.85576 0.425813,-0.40515 0.921907,-0.40515 h 0.814421 q 0.467155,-0.008 0.905371,0.38861 0.44235,0.39688 0.44235,0.8723 z m -2.80293,0.0289 v 1.4056 q 0,0.19017 0.136426,0.30179 l 0.260449,0.22324 q 0.08682,0.0744 0.243913,0.0744 h 0.806152 q 0.177767,0 0.322461,-0.12815 l 0.21084,-0.18604 q 0.128158,-0.0992 0.128158,-0.27699 v -1.40559 q 0,-0.20671 -0.128158,-0.30593 l -0.243913,-0.1943 Q 18.86815,242.8287 18.702785,242.8287 H 17.98345 q -0.235645,0 -0.363802,0.11163 l -0.235645,0.20257 q -0.128158,0.10748 -0.128158,0.28112 z"
           inkscape:connector-curvature="0" />
        <path
           id="path891"
           style="font-style:normal;font-variant:normal;font-weight:normal;font-stretch:normal;font-size:8.46666622px;font-family:'OCR A Extended';-inkscape-font-specification:'OCR A Extended';stroke-width:0.26458332"
           d="m 21.67108,245.78465 v -3.29489 q 0,-0.1447 0.09922,-0.24805 0.103352,-0.10749 0.248046,-0.10749 0.144694,0 0.243913,0.10336 0.103353,0.10335 0.103353,0.25218 v 0.43408 l 0.566374,-0.48369 q 0.351399,-0.29766 0.686263,-0.29766 h 0.508496 q 0.429948,0 0.735872,0.30593 0.305925,0.30592 0.305925,0.73587 v 0.18603 q 0,0.14883 -0.103353,0.25218 -0.09922,0.10336 -0.243913,0.10336 -0.144694,0 -0.248047,-0.0992 -0.09922,-0.10335 -0.09922,-0.24805 v -0.1943 q 0,-0.1447 -0.103353,-0.24391 -0.09922,-0.10336 -0.243912,-0.10336 h -0.450619 q -0.144694,0 -0.322461,0.15297 l -0.988053,0.85576 v 1.9389 q 0,0.14469 -0.103353,0.24804 -0.103353,0.0992 -0.243913,0.0992 -0.144694,0 -0.248046,-0.0992 -0.09922,-0.10335 -0.09922,-0.24804 z"
           inkscape:connector-curvature="0" />
        <path
           id="path893"
           style="font-style:normal;font-variant:normal;font-weight:normal;font-stretch:normal;font-size:8.46666622px;font-family:'OCR A Extended';-inkscape-font-specification:'OCR A Extended';stroke-width:0.26458332"
           d="m 26.694028,245.78465 v -3.29489 q 0,-0.1447 0.09922,-0.24392 0.103353,-0.10335 0.248047,-0.10335 0.268717,0 0.338997,0.26459 0.289388,-0.27286 0.644922,-0.27286 0.417546,0 0.686263,0.35554 0.330729,-0.35554 0.727604,-0.35554 0.322461,0 0.558106,0.23151 0.239778,0.22738 0.256315,0.58291 l 0.09922,2.83601 q 0,0.14056 -0.103353,0.24391 -0.103353,0.10335 -0.243913,0.10335 -0.144694,0 -0.248047,-0.10335 -0.103353,-0.10335 -0.107487,-0.24391 l -0.08268,-2.72438 q -0.0083,-0.22325 -0.136426,-0.22325 -0.07028,0 -0.144694,0.062 l -0.413411,0.34727 v 2.53835 q 0,0.14056 -0.103353,0.23978 -0.09922,0.0992 -0.243913,0.0992 -0.14056,0 -0.243913,-0.0992 -0.103353,-0.10336 -0.103353,-0.24805 v -2.76159 q 0,-0.17777 -0.152962,-0.17777 -0.07441,0 -0.136426,0.0538 l -0.500227,0.42168 v 2.4722 q 0,0.14056 -0.09922,0.24391 -0.09922,0.10335 -0.239779,0.10335 -0.144694,0 -0.252181,-0.10335 -0.103353,-0.10335 -0.103353,-0.24391 z"
           inkscape:connector-curvature="0" />
        <path
           id="path895"
           style="font-style:normal;font-variant:normal;font-weight:normal;font-stretch:normal;font-size:8.46666622px;font-family:'OCR A Extended';-inkscape-font-specification:'OCR A Extended';stroke-width:0.26458332"
           d="m 32.924139,243.62664 h 1.360124 q 0.111621,0 0.322461,0.0496 l -0.0083,-0.49196 q 0,-0.1447 -0.103353,-0.24391 -0.09922,-0.10336 -0.243913,-0.10336 h -1.318782 q -0.14056,0 -0.243913,-0.10335 -0.103353,-0.10335 -0.103353,-0.24391 0,-0.1447 0.09922,-0.24392 0.103353,-0.10335 0.248047,-0.10335 h 1.318782 q 0.429948,0 0.731738,0.30179 0.305925,0.30179 0.318327,0.74001 l 0.08682,2.60036 q 0,0.14469 -0.103353,0.24804 -0.103353,0.0992 -0.243913,0.0992 -0.148828,0 -0.252181,-0.0992 -0.103353,-0.10335 -0.103353,-0.24804 L 34.0982,246.1319 h -1.174089 q -0.438216,0 -0.74414,-0.30592 -0.305925,-0.30593 -0.305925,-0.74414 v -0.40515 q 0,-0.43408 0.305925,-0.74 0.310058,-0.31006 0.74414,-0.31006 z m 1.736328,1.35185 -0.02067,-0.29352 q -0.0041,-0.14883 -0.103353,-0.24804 -0.09922,-0.0992 -0.243913,-0.0992 h -1.368392 q -0.144694,0 -0.248046,0.10335 -0.09922,0.0992 -0.09922,0.24391 v 0.38861 q 0,0.14056 0.103353,0.24391 0.103353,0.10335 0.243912,0.10335 h 0.979786 z"
           inkscape:connector-curvature="0" />
        <path
           id="path897"
           style="font-style:normal;font-variant:normal;font-weight:normal;font-stretch:normal;font-size:8.46666622px;font-family:'OCR A Extended';-inkscape-font-specification:'OCR A Extended';stroke-width:0.26458332"
           d="m 39.439504,246.13191 h -0.694531 q -0.429948,0 -0.740006,-0.30592 -0.310059,-0.30593 -0.310059,-0.73587 v -2.2531 h -0.355534 q -0.144694,0 -0.248047,-0.0992 -0.09922,-0.0992 -0.09922,-0.24804 0,-0.1447 0.09922,-0.24392 0.103353,-0.10335 0.248047,-0.10335 h 0.363802 v -0.85163 q 0,-0.14469 0.09922,-0.24391 0.103353,-0.10335 0.248047,-0.10335 0.136426,0 0.239779,0.10335 0.107487,0.10335 0.107487,0.24391 v 0.85163 h 1.39733 q 0.14056,0 0.243913,0.10335 0.103353,0.10336 0.103353,0.24392 0,0.14469 -0.103353,0.24804 -0.103353,0.0992 -0.243913,0.0992 H 38.38944 v 2.2531 q 0,0.14056 0.103353,0.24391 0.107487,0.10335 0.252181,0.10335 h 0.677995 q 0.276986,0 0.367936,-0.29766 0.09095,-0.30179 0.3514,-0.30179 0.152962,0 0.248047,0.10336 0.09922,0.0992 0.09922,0.25218 0,0.31419 -0.297656,0.62838 -0.293522,0.31006 -0.752409,0.31006 z"
           inkscape:connector-curvature="0" />
        <path
           id="path899"
           style="font-style:normal;font-variant:normal;font-weight:normal;font-stretch:normal;font-size:8.46666622px;font-family:'OCR A Extended';-inkscape-font-specification:'OCR A Extended';stroke-width:0.26458332"
           d="m 50.71737,244.42866 v 0.30592 q 0,0.57464 -0.409278,0.98805 -0.405143,0.40928 -0.979785,0.40928 h -2.124935 v -5.49424 h 2.124935 q 0.574642,0 0.979785,0.40928 0.409278,0.40928 0.409278,0.98805 v 0.29353 q 0,0.61598 -0.475424,1.05006 0.475424,0.44235 0.475424,1.05007 z m -0.711068,-2.1084 V 242.035 q 0,-0.28938 -0.206706,-0.49609 -0.202571,-0.2067 -0.487825,-0.2067 h -1.413867 v 1.68258 h 1.413867 q 0.28112,0 0.487825,-0.20257 0.206706,-0.20671 0.206706,-0.49196 z m 0,2.41432 v -0.28939 q 0,-0.28938 -0.206706,-0.49609 -0.202571,-0.20671 -0.487825,-0.20671 h -1.405599 v 1.68672 h 1.405599 q 0.28112,0 0.487825,-0.20257 0.206706,-0.2067 0.206706,-0.49196 z"
           inkscape:connector-curvature="0" />
        <path
           id="path901"
           style="font-style:normal;font-variant:normal;font-weight:normal;font-stretch:normal;font-size:8.46666622px;font-family:'OCR A Extended';-inkscape-font-specification:'OCR A Extended';stroke-width:0.26458332"
           d="m 53.727004,241.54305 h 0.694531 q 0.148828,0 0.252181,0.11162 0.103353,0.11162 0.103353,0.23564 v 0.59945 q 0,0.14056 -0.107487,0.24391 -0.103353,0.10335 -0.239779,0.10335 h -0.711068 q -0.144694,0 -0.243912,-0.0992 -0.09508,-0.0992 -0.09508,-0.24804 v -0.59945 q 0,-0.14056 0.09922,-0.24391 0.103353,-0.10335 0.248047,-0.10335 z m 0,2.39778 h 0.694531 q 0.144694,0 0.248047,0.10335 0.107487,0.0992 0.107487,0.24392 v 0.59118 q 0,0.14469 -0.103353,0.25218 -0.103353,0.10335 -0.243913,0.10335 h -0.711068 q -0.144694,0 -0.243912,-0.10335 -0.09508,-0.10336 -0.09508,-0.24392 v -0.59944 q 0,-0.14883 0.09922,-0.24805 0.103353,-0.0992 0.248047,-0.0992 z"
           inkscape:connector-curvature="0" />
      </g>
      <g
         id="text868"
         style="font-style:normal;font-weight:normal;font-size:10.58333302px;line-height:1.25;font-family:sans-serif;letter-spacing:0px;word-spacing:0px;fill:#000000;fill-opacity:1;stroke:none;stroke-width:0.26458332"
         aria-label="Exit menu">
        <path
           id="path870"
           style="font-style:normal;font-variant:normal;font-weight:normal;font-stretch:normal;font-size:8.46666622px;font-family:'OCR A Extended';-inkscape-font-specification:'OCR A Extended';stroke-width:0.26458332"
           d="M 14.601744,260.39051 H 12.14608 v 1.69085 h 1.058333 q 0.14056,0 0.243913,0.10335 0.103353,0.10336 0.103353,0.24392 0,0.14882 -0.103353,0.25218 -0.09922,0.10335 -0.243913,0.10335 H 12.14608 v 1.70325 h 2.463932 q 0.14056,0 0.243913,0.10336 0.103353,0.0992 0.103353,0.24391 0,0.14469 -0.107487,0.24805 -0.103353,0.0992 -0.248047,0.0992 h -3.150195 v -5.49424 h 3.150195 q 0.144694,0 0.248047,0.10748 0.107487,0.10336 0.107487,0.24805 0,0.14056 -0.107487,0.24391 -0.103353,0.10336 -0.248047,0.10336 z"
           inkscape:connector-curvature="0" />
        <path
           id="path872"
           style="font-style:normal;font-variant:normal;font-weight:normal;font-stretch:normal;font-size:8.46666622px;font-family:'OCR A Extended';-inkscape-font-specification:'OCR A Extended';stroke-width:0.26458332"
           d="m 18.372056,263.6854 -1.136881,1.35185 q -0.111621,0.1447 -0.276986,0.1447 -0.148828,0 -0.248047,-0.10336 -0.09922,-0.10335 -0.09922,-0.25218 0,-0.13229 0.06614,-0.21084 l 1.244369,-1.49241 -1.149284,-1.3684 q -0.07855,-0.0909 -0.07855,-0.2067 0,-0.13643 0.09509,-0.24391 0.09922,-0.11162 0.252181,-0.11162 0.173632,0 0.281119,0.12815 l 1.050065,1.26091 1.07487,-1.26918 q 0.09922,-0.11988 0.248047,-0.11988 0.132292,0 0.239779,0.0951 0.107487,0.091 0.107487,0.23564 0,0.14056 -0.04548,0.19431 l -1.169954,1.41387 1.227832,1.48414 q 0.07028,0.0786 0.07028,0.19431 0,0.15709 -0.107487,0.26458 -0.103353,0.10335 -0.239779,0.10335 -0.16123,0 -0.28112,-0.14056 z"
           inkscape:connector-curvature="0" />
        <path
           id="path874"
           style="font-style:normal;font-variant:normal;font-weight:normal;font-stretch:normal;font-size:8.46666622px;font-family:'OCR A Extended';-inkscape-font-specification:'OCR A Extended';stroke-width:0.26458332"
           d="m 23.060142,259.38178 h 0.363802 q 0.144694,0 0.243913,0.10336 0.103353,0.0992 0.103353,0.24391 v 0.29766 q 0,0.14469 -0.103353,0.25218 -0.09922,0.10335 -0.243913,0.10335 h -0.37207 q -0.148828,0 -0.252181,-0.10749 -0.09922,-0.10748 -0.09509,-0.23978 l 0.0083,-0.30592 q 0,-0.1447 0.09922,-0.24391 0.103353,-0.10336 0.248047,-0.10336 z m 1.413867,5.7919 h -2.116666 q -0.144694,0 -0.248047,-0.0992 -0.09922,-0.10335 -0.09922,-0.24805 0,-0.14056 0.09922,-0.24391 0.103353,-0.10335 0.248047,-0.10335 h 0.711067 v -2.59209 h -0.702799 q -0.144694,0 -0.248047,-0.10336 -0.09922,-0.10335 -0.09922,-0.24391 0,-0.14469 0.09922,-0.24805 0.103353,-0.10748 0.248047,-0.10748 h 1.058333 q 0.144694,0 0.243913,0.10748 0.103353,0.10336 0.103353,0.24805 v 2.93936 h 0.694531 q 0.144694,0 0.248047,0.10335 0.107487,0.0992 0.107487,0.24391 0,0.1447 -0.103353,0.24805 -0.103353,0.0992 -0.243913,0.0992 z"
           inkscape:connector-curvature="0" />
        <path
           id="path876"
           style="font-style:normal;font-variant:normal;font-weight:normal;font-stretch:normal;font-size:8.46666622px;font-family:'OCR A Extended';-inkscape-font-specification:'OCR A Extended';stroke-width:0.26458332"
           d="m 29.219972,265.18195 h -0.694531 q -0.429948,0 -0.740006,-0.30593 -0.310059,-0.30592 -0.310059,-0.73587 v -2.25309 h -0.355534 q -0.144694,0 -0.248047,-0.0992 -0.09922,-0.0992 -0.09922,-0.24805 0,-0.14469 0.09922,-0.24391 0.103353,-0.10335 0.248047,-0.10335 h 0.363802 v -0.85163 q 0,-0.1447 0.09922,-0.24391 0.103353,-0.10336 0.248047,-0.10336 0.136426,0 0.239779,0.10336 0.107486,0.10335 0.107486,0.24391 v 0.85163 h 1.397331 q 0.14056,0 0.243913,0.10335 0.103353,0.10335 0.103353,0.24391 0,0.1447 -0.103353,0.24805 -0.103353,0.0992 -0.243913,0.0992 h -1.405599 v 2.25309 q 0,0.14056 0.103353,0.24391 0.107487,0.10335 0.252181,0.10335 h 0.677995 q 0.276986,0 0.367936,-0.29765 0.09095,-0.30179 0.3514,-0.30179 0.152962,0 0.248047,0.10335 0.09922,0.0992 0.09922,0.25218 0,0.31419 -0.297656,0.62839 -0.293522,0.31006 -0.752409,0.31006 z"
           inkscape:connector-curvature="0" />
        <path
           id="path878"
           style="font-style:normal;font-variant:normal;font-weight:normal;font-stretch:normal;font-size:8.46666622px;font-family:'OCR A Extended';-inkscape-font-specification:'OCR A Extended';stroke-width:0.26458332"
           d="m 36.91356,264.83468 v -3.29489 q 0,-0.14469 0.09922,-0.24391 0.103353,-0.10335 0.248047,-0.10335 0.268717,0 0.338997,0.26458 0.289388,-0.27285 0.644922,-0.27285 0.417546,0 0.686263,0.35553 0.330729,-0.35553 0.727604,-0.35553 0.322461,0 0.558106,0.23151 0.239778,0.22737 0.256315,0.58291 l 0.09922,2.836 q 0,0.14056 -0.103353,0.24391 -0.103353,0.10336 -0.243913,0.10336 -0.144694,0 -0.248047,-0.10336 -0.103353,-0.10335 -0.107487,-0.24391 l -0.08268,-2.72438 q -0.0083,-0.22324 -0.136426,-0.22324 -0.07028,0 -0.144694,0.062 l -0.413411,0.34726 v 2.53835 q 0,0.14056 -0.103353,0.23978 -0.09922,0.0992 -0.243913,0.0992 -0.14056,0 -0.243913,-0.0992 -0.103352,-0.10335 -0.103352,-0.24805 v -2.76159 q 0,-0.17776 -0.152963,-0.17776 -0.07441,0 -0.136426,0.0537 l -0.500227,0.42168 v 2.4722 q 0,0.14056 -0.09922,0.24391 -0.09922,0.10336 -0.239779,0.10336 -0.144694,0 -0.252181,-0.10336 -0.103353,-0.10335 -0.103353,-0.24391 z"
           inkscape:connector-curvature="0" />
        <path
           id="path880"
           style="font-style:normal;font-variant:normal;font-weight:normal;font-stretch:normal;font-size:8.46666622px;font-family:'OCR A Extended';-inkscape-font-specification:'OCR A Extended';stroke-width:0.26458332"
           d="m 45.607602,262.49891 v 0.83922 q 0,0.14056 -0.103353,0.24391 -0.103353,0.10336 -0.243913,0.10336 h -2.455664 v 0.20257 q 0,0.17776 0.152962,0.30179 l 0.202572,0.1695 q 0.165365,0.12815 0.314193,0.12815 h 1.785937 q 0.14056,0 0.243913,0.10336 0.103353,0.0992 0.103353,0.24391 0,0.14056 -0.107487,0.24391 -0.103353,0.10336 -0.239779,0.10336 h -1.831413 q -0.181901,0 -0.384472,-0.0744 -0.198438,-0.0786 -0.293522,-0.16123 l -0.310059,-0.27285 q -0.144694,-0.11576 -0.243913,-0.32246 -0.09508,-0.20671 -0.09508,-0.38034 v -1.59163 q 0,-0.13643 0.103353,-0.36794 0.107487,-0.23151 0.268717,-0.35967 l 0.289388,-0.22737 q 0.285254,-0.23151 0.63252,-0.23151 h 0.975651 q 0.367936,0 0.694531,0.30592 l 0.260449,0.24805 q 0.28112,0.25218 0.28112,0.75241 z m -2.794662,-0.0538 v 0.53744 h 2.108399 v -0.48369 q 0,-0.19431 -0.11989,-0.29766 l -0.202571,-0.17777 q -0.157097,-0.12816 -0.28112,-0.12816 H 43.44546 q -0.161231,0 -0.293522,0.11163 l -0.202572,0.16949 q -0.136426,0.10336 -0.136426,0.26872 z"
           inkscape:connector-curvature="0" />
        <path
           id="path882"
           style="font-style:normal;font-variant:normal;font-weight:normal;font-stretch:normal;font-size:8.46666622px;font-family:'OCR A Extended';-inkscape-font-specification:'OCR A Extended';stroke-width:0.26458332"
           d="m 48.861152,261.99868 -0.946712,0.61598 v 2.22002 q 0,0.14056 -0.103353,0.24391 -0.103353,0.10336 -0.243913,0.10336 -0.140559,0 -0.243912,-0.10336 -0.103353,-0.10335 -0.103353,-0.24391 v -3.29489 q 0,-0.14469 0.09922,-0.24805 0.103352,-0.10748 0.248046,-0.10748 0.14056,0 0.243913,0.10748 0.103353,0.10336 0.103353,0.24805 v 0.23151 l 0.63252,-0.38447 q 0.318326,-0.20257 0.719335,-0.20257 h 0.322461 q 0.413412,0 0.715202,0.29352 0.301791,0.29352 0.318327,0.72347 l 0.09509,2.63343 q 0.0041,0.14056 -0.09922,0.24391 -0.103353,0.10336 -0.248047,0.10336 -0.136426,0 -0.239779,-0.0909 -0.103352,-0.0951 -0.107487,-0.25632 l -0.103352,-2.59209 q -0.0124,-0.3638 -0.380339,-0.3638 H 49.20015 q -0.157097,0 -0.338998,0.11989 z"
           inkscape:connector-curvature="0" />
        <path
           id="path884"
           style="font-style:normal;font-variant:normal;font-weight:normal;font-stretch:normal;font-size:8.46666622px;font-family:'OCR A Extended';-inkscape-font-specification:'OCR A Extended';stroke-width:0.26458332"
           d="m 53.979185,264.47915 1.169954,-0.74414 v -2.19522 q 0,-0.14469 0.09922,-0.24805 0.103353,-0.10748 0.248047,-0.10748 0.144694,0 0.243912,0.10748 0.103353,0.10336 0.103353,0.24805 v 3.29489 q 0,0.14056 -0.103353,0.24391 -0.103353,0.10336 -0.243912,0.10336 -0.14056,0 -0.243913,-0.10336 -0.103353,-0.10335 -0.103353,-0.24391 v -0.27285 l -0.603581,0.39274 q -0.355534,0.22738 -0.719336,0.22738 h -0.322461 q -0.425813,0 -0.731738,-0.29766 -0.305924,-0.29766 -0.326595,-0.7276 l -0.09922,-2.6169 q -0.0083,-0.13642 0.09508,-0.23978 0.107487,-0.10748 0.252181,-0.10748 0.14056,0 0.239779,0.10335 0.103353,0.10335 0.107487,0.24391 l 0.09095,2.56729 q 0.0124,0.37207 0.425814,0.37207 z"
           inkscape:connector-curvature="0" />
      </g>
    </g>
  </g>
</svg>
