<?xml version="1.0" encoding="UTF-8" standalone="no"?>
<!-- Created with Inkscape (http://www.inkscape.org/) -->

<svg
   xmlns:dc="http://purl.org/dc/elements/1.1/"
   xmlns:cc="http://creativecommons.org/ns#"
   xmlns:rdf="http://www.w3.org/1999/02/22-rdf-syntax-ns#"
   xmlns:svg="http://www.w3.org/2000/svg"
   xmlns="http://www.w3.org/2000/svg"
   xmlns:sodipodi="http://sodipodi.sourceforge.net/DTD/sodipodi-0.dtd"
   xmlns:inkscape="http://www.inkscape.org/namespaces/inkscape"
   width="242mm"
   height="80mm"
   viewBox="0 0 242 80"
   version="1.1"
   id="svg8"
   inkscape:version="0.92.4 (5da689c313, 2019-01-14)"
   sodipodi:docname="c01-p07-i02.svg">
  <defs
     id="defs2" />
  <sodipodi:namedview
     id="base"
     pagecolor="#ffffff"
     bordercolor="#666666"
     borderopacity="1.0"
     inkscape:pageopacity="0.0"
     inkscape:pageshadow="2"
     inkscape:zoom="0.7"
     inkscape:cx="-20.917227"
     inkscape:cy="289.46788"
     inkscape:document-units="mm"
     inkscape:current-layer="layer1"
     showgrid="false"
     inkscape:window-width="1920"
     inkscape:window-height="1017"
     inkscape:window-x="-8"
     inkscape:window-y="-8"
     inkscape:window-maximized="1"
     showguides="true"
     inkscape:guide-bbox="true" />
  <metadata
     id="metadata5">
    <rdf:RDF>
      <cc:Work
         rdf:about="">
        <dc:format>image/svg+xml</dc:format>
        <dc:type
           rdf:resource="http://purl.org/dc/dcmitype/StillImage" />
        <dc:title />
      </cc:Work>
    </rdf:RDF>
  </metadata>
  <g
     inkscape:label="Capa 1"
     inkscape:groupmode="layer"
     id="layer1"
     transform="translate(0,-217)">
    <g
       id="g1115">
      <rect
         y="218.69408"
         x="97.304504"
         height="76.611862"
         width="56.75563"
         id="rect4529"
         style="opacity:1;fill:none;stroke:#000000;stroke-width:0.5;stroke-miterlimit:4;stroke-dasharray:none;stroke-dashoffset:0;stroke-opacity:1" />
      <path
         inkscape:connector-curvature="0"
         id="path4533"
         d="M 116.29193,218.82802 V 295.3682"
         style="fill:none;stroke:#000000;stroke-width:0.5;stroke-linecap:butt;stroke-linejoin:miter;stroke-miterlimit:4;stroke-dasharray:none;stroke-opacity:1" />
      <path
         inkscape:connector-curvature="0"
         id="path4535"
         d="M 97.204132,237.96306 H 116.38642"
         style="fill:none;stroke:#000000;stroke-width:0.5;stroke-linecap:butt;stroke-linejoin:miter;stroke-miterlimit:4;stroke-dasharray:none;stroke-opacity:1" />
      <path
         style="fill:none;stroke:#000000;stroke-width:0.5;stroke-linecap:butt;stroke-linejoin:miter;stroke-miterlimit:4;stroke-dasharray:none;stroke-opacity:1"
         d="M 97.204132,257.30601 H 116.38642"
         id="path4537"
         inkscape:connector-curvature="0" />
      <path
         inkscape:connector-curvature="0"
         id="path4539"
         d="M 97.204132,276.35602 H 116.38642"
         style="fill:none;stroke:#000000;stroke-width:0.5;stroke-linecap:butt;stroke-linejoin:miter;stroke-miterlimit:4;stroke-dasharray:none;stroke-opacity:1" />
      <g
         id="text4543"
         style="font-style:normal;font-weight:normal;font-size:10.58333302px;line-height:1.25;font-family:sans-serif;letter-spacing:0px;word-spacing:0px;fill:#000000;fill-opacity:1;stroke:none;stroke-width:0.26458332"
         aria-label="7">
        <path
           id="path925"
           style="font-style:normal;font-variant:normal;font-weight:normal;font-stretch:normal;font-size:8.46666622px;font-family:Consolas;-inkscape-font-specification:Consolas;stroke-width:0.26458332"
           d="m 108.9397,225.24476 -2.26549,4.73356 h -0.82269 l 2.35231,-4.73356 h -2.91869 v -0.66973 h 3.65456 z" />
      </g>
      <g
         id="text4547"
         style="font-style:normal;font-weight:normal;font-size:10.58333302px;line-height:1.25;font-family:sans-serif;letter-spacing:0px;word-spacing:0px;fill:#000000;fill-opacity:1;stroke:none;stroke-width:0.26458332"
         aria-label="4">
        <path
           id="path929"
           style="font-style:normal;font-variant:normal;font-weight:normal;font-stretch:normal;font-size:8.46666622px;font-family:Consolas;-inkscape-font-specification:Consolas;stroke-width:0.26458332"
           d="m 109.24149,247.49338 h -0.92191 v 1.19476 h -0.73587 v -1.19476 h -2.60036 v -0.63252 l 2.30271,-3.57601 h 1.03352 v 3.57601 h 0.92191 z m -1.65778,-3.514 -1.88102,2.88148 h 1.88102 z" />
      </g>
      <g
         id="text4551"
         style="font-style:normal;font-weight:normal;font-size:10.58333302px;line-height:1.25;font-family:sans-serif;letter-spacing:0px;word-spacing:0px;fill:#000000;fill-opacity:1;stroke:none;stroke-width:0.26458332"
         aria-label="1">
        <path
           id="path933"
           style="font-style:normal;font-variant:normal;font-weight:normal;font-stretch:normal;font-size:8.46666622px;font-family:Consolas;-inkscape-font-specification:Consolas;stroke-width:0.26458332"
           d="m 108.89422,268.72089 h -3.39411 v -0.66973 h 1.38906 v -3.94395 l -1.29397,0.7028 -0.26459,-0.61184 1.71979,-0.90538 h 0.63666 v 4.75837 h 1.20716 z" />
      </g>
      <g
         id="text4555"
         style="font-style:normal;font-weight:normal;font-size:10.58333302px;line-height:1.25;font-family:sans-serif;letter-spacing:0px;word-spacing:0px;fill:#000000;fill-opacity:1;stroke:none;stroke-width:0.26458332"
         aria-label="0">
        <path
           id="path936"
           style="font-style:normal;font-variant:normal;font-weight:normal;font-stretch:normal;font-size:8.46666622px;font-family:Consolas;-inkscape-font-specification:Consolas;stroke-width:0.26458332"
           d="m 109.07613,284.54215 q 0,0.62012 -0.12402,1.13275 -0.12403,0.5085 -0.37621,0.87643 -0.25218,0.3638 -0.62838,0.56638 -0.37207,0.19843 -0.87644,0.19843 -0.43408,0 -0.78961,-0.16123 -0.35553,-0.16536 -0.60772,-0.50436 -0.25218,-0.339 -0.3886,-0.86403 -0.13643,-0.52503 -0.13643,-1.24437 0,-0.62011 0.12403,-1.13274 0.12815,-0.51263 0.3762,-0.87644 0.25218,-0.36793 0.62839,-0.56637 0.3762,-0.20257 0.87643,-0.20257 0.43408,0 0.78961,0.16536 0.35554,0.16123 0.60772,0.50436 0.25218,0.339 0.3886,0.86403 0.13643,0.52504 0.13643,1.24437 z m -0.7276,0.0248 q 0,-0.14056 -0.0124,-0.27699 -0.008,-0.14056 -0.0207,-0.27285 l -2.28616,1.69912 q 0.062,0.21498 0.15709,0.39688 0.0951,0.1819 0.22738,0.31419 0.13643,0.12816 0.30593,0.20257 0.17363,0.0703 0.39274,0.0703 0.28112,0 0.50849,-0.13643 0.23151,-0.13642 0.39274,-0.40514 0.16123,-0.26872 0.24805,-0.66559 0.0868,-0.40101 0.0868,-0.92604 z m -2.4722,-0.0496 q 0,0.12816 0,0.25631 0.004,0.12816 0.0165,0.24805 l 2.28617,-1.69085 q -0.062,-0.21084 -0.1571,-0.38448 -0.0951,-0.17363 -0.22738,-0.29765 -0.13229,-0.12816 -0.30179,-0.19844 -0.16949,-0.0703 -0.38033,-0.0703 -0.28112,0 -0.51263,0.13643 -0.22738,0.13642 -0.38861,0.40927 -0.16123,0.26872 -0.24805,0.66973 -0.0868,0.39688 -0.0868,0.92191 z" />
      </g>
      <g
         id="text4559"
         style="font-style:normal;font-weight:normal;font-size:10.58333302px;line-height:1.25;font-family:sans-serif;letter-spacing:0px;word-spacing:0px;fill:#000000;fill-opacity:1;stroke:none;stroke-width:0.26458332"
         aria-label="Copy">
        <path
           id="path871"
           style="font-style:normal;font-variant:normal;font-weight:normal;font-stretch:normal;font-size:8.46666622px;font-family:'OCR A Extended';-inkscape-font-specification:'OCR A Extended';stroke-width:0.26458332"
           d="m 3.0229352,228.87932 h 1.2526366 q 0.144694,0 0.2480469,0.10335 0.107487,0.0992 0.107487,0.24392 0,0.14469 -0.107487,0.24804 -0.1033529,0.0992 -0.2480469,0.0992 H 2.9774599 q -0.2480468,0 -0.5126302,-0.15709 -0.2645833,-0.1571 -0.3679361,-0.3514 l -0.8020182,-1.5503 q -0.1612305,-0.33486 -0.1612305,-0.68626 0,-0.38861 0.1529622,-0.67386 l 0.8102865,-1.53376 q 0.1157552,-0.21497 0.3596679,-0.3762 0.2439128,-0.16537 0.4712891,-0.16537 h 1.3725259 q 0.144694,0 0.2439128,0.10336 0.1033528,0.10335 0.1033528,0.24391 0,0.14469 -0.1033528,0.25218 -0.099219,0.10335 -0.2439128,0.10335 H 2.9774599 q -0.1653645,0 -0.2687174,0.19431 l -0.7689453,1.43867 q -0.090951,0.1695 -0.090951,0.40101 0,0.24391 0.099219,0.42995 l 0.7358724,1.41386 q 0.1033529,0.21911 0.3389974,0.21911 z"
           inkscape:connector-curvature="0" />
        <path
           id="path873"
           style="font-style:normal;font-variant:normal;font-weight:normal;font-stretch:normal;font-size:8.46666622px;font-family:'OCR A Extended';-inkscape-font-specification:'OCR A Extended';stroke-width:0.26458332"
           d="m 9.7243347,226.83707 v 1.46761 q 0,0.46715 -0.4423502,0.86403 -0.4382161,0.39687 -0.905371,0.39687 H 7.5621929 q -0.4754231,0 -0.9095051,-0.401 -0.434082,-0.40515 -0.434082,-0.8599 v -1.46761 q 0,-0.45475 0.4216796,-0.85576 0.4258138,-0.40515 0.9219075,-0.40515 h 0.8144206 q 0.4671549,-0.008 0.905371,0.38861 0.4423502,0.39688 0.4423502,0.8723 z m -2.8029295,0.0289 v 1.4056 q 0,0.19017 0.1364258,0.30179 l 0.2604492,0.22324 q 0.086816,0.0744 0.2439127,0.0744 h 0.8061523 q 0.1777669,0 0.322461,-0.12815 l 0.2108398,-0.18604 q 0.1281575,-0.0992 0.1281575,-0.27699 v -1.40559 q 0,-0.20671 -0.1281575,-0.30593 L 8.6577332,226.374 q -0.1240234,-0.1033 -0.289388,-0.1033 H 7.6490093 q -0.2356445,0 -0.363802,0.11162 l -0.2356446,0.20257 q -0.1281575,0.10748 -0.1281575,0.28112 z"
           inkscape:connector-curvature="0" />
        <path
           id="path875"
           style="font-style:normal;font-variant:normal;font-weight:normal;font-stretch:normal;font-size:8.46666622px;font-family:'OCR A Extended';-inkscape-font-specification:'OCR A Extended';stroke-width:0.26458332"
           d="m 12.039439,229.17698 v 1.53789 q 0,0.14883 -0.103353,0.25218 -0.09922,0.10335 -0.243913,0.10335 -0.144694,0 -0.252181,-0.10335 -0.103352,-0.10335 -0.103352,-0.25218 v -4.95267 q 0,-0.14056 0.103352,-0.24391 0.103353,-0.10336 0.252181,-0.10336 0.14056,0 0.243913,0.10336 0.103353,0.10335 0.103353,0.24391 v 0.22324 q 0.504362,-0.56224 0.996322,-0.56224 h 0.16123 q 0.367936,0 0.677995,0.27285 l 0.578776,0.50023 q 0.380338,0.33073 0.380338,0.83923 v 1.08313 q 0,0.51263 -0.409277,0.86403 l -0.566374,0.48783 q -0.281119,0.25631 -0.711067,0.25631 h -0.152963 q -0.405143,0 -0.686263,-0.28112 z m 0.979785,-0.15296 h 0.177767 q 0.128158,0 0.272852,-0.12816 l 0.541569,-0.47543 q 0.136425,-0.10748 0.136425,-0.29352 v -1.12034 q 0,-0.16537 -0.152962,-0.29352 l -0.58291,-0.50023 q -0.09922,-0.0868 -0.214974,-0.0868 h -0.202572 q -0.115755,0 -0.30179,0.19017 l -0.516764,0.51263 q -0.136426,0.13643 -0.136426,0.30593 v 0.88883 q 0,0.16123 0.152962,0.31419 l 0.500228,0.50023 q 0.186035,0.18604 0.326595,0.18604 z"
           inkscape:connector-curvature="0" />
        <path
           id="path877"
           style="font-style:normal;font-variant:normal;font-weight:normal;font-stretch:normal;font-size:8.46666622px;font-family:'OCR A Extended';-inkscape-font-specification:'OCR A Extended';stroke-width:0.26458332"
           d="m 19.952134,226.60142 -1.872754,4.23334 q -0.09509,0.22737 -0.330729,0.22737 h -0.963249 q -0.144694,0 -0.248047,-0.0992 -0.09922,-0.0992 -0.09922,-0.24804 0,-0.1447 0.09922,-0.24391 0.103353,-0.0992 0.248047,-0.0992 h 0.744141 l 0.475423,-1.10381 h -0.169499 q -0.235645,0 -0.338997,-0.24391 l -1.041797,-2.4226 v -0.66972 q 0,-0.1447 0.09922,-0.24391 0.09922,-0.10336 0.239778,-0.10336 0.144694,0 0.248047,0.10336 0.107487,0.0992 0.107487,0.24391 v 0.51676 l 0.913639,2.11667 h 0.243913 l 0.942578,-2.1084 v -0.5333 q 0,-0.13643 0.103353,-0.23978 0.107487,-0.10749 0.252181,-0.10749 0.14056,0 0.243913,0.10336 0.103353,0.10335 0.103353,0.24391 z"
           inkscape:connector-curvature="0" />
      </g>
      <g
         id="text4563"
         style="font-style:normal;font-weight:normal;font-size:10.58333302px;line-height:1.25;font-family:sans-serif;letter-spacing:0px;word-spacing:0px;fill:#000000;fill-opacity:1;stroke:none;stroke-width:0.26458332"
         aria-label="Format">
        <path
           id="path880"
           style="font-style:normal;font-variant:normal;font-weight:normal;font-stretch:normal;font-size:8.46666622px;font-family:'OCR A Extended';-inkscape-font-specification:'OCR A Extended';stroke-width:0.26458332"
           d="m 1.1336449,248.37373 v -5.14697 h 3.1501952 q 0.1364257,0 0.2397786,0.10335 0.107487,0.10335 0.107487,0.24391 0,0.14469 -0.1033529,0.25218 -0.1033529,0.10335 -0.2439127,0.10335 h -2.455664 v 1.09141 h 1.7611327 q 0.144694,0 0.2439128,0.10335 0.1033528,0.0992 0.1033528,0.24392 0,0.14469 -0.1033528,0.24804 -0.099219,0.0992 -0.2439128,0.0992 H 1.8281761 v 2.65824 q 0,0.14469 -0.1033528,0.24804 -0.099219,0.0992 -0.2439128,0.0992 -0.144694,0 -0.2480468,-0.0992 -0.099219,-0.10335 -0.099219,-0.24804 z"
           inkscape:connector-curvature="0" />
        <path
           id="path882"
           style="font-style:normal;font-variant:normal;font-weight:normal;font-stretch:normal;font-size:8.46666622px;font-family:'OCR A Extended';-inkscape-font-specification:'OCR A Extended';stroke-width:0.26458332"
           d="m 9.7408712,245.98421 v 1.46761 q 0,0.46715 -0.4423502,0.86403 -0.4382162,0.39687 -0.9053711,0.39687 H 7.5787294 q -0.4754232,0 -0.9095052,-0.401 -0.434082,-0.40515 -0.434082,-0.8599 v -1.46761 q 0,-0.45475 0.4216797,-0.85576 0.4258138,-0.40515 0.9219075,-0.40515 h 0.8144205 q 0.4671549,-0.008 0.9053711,0.38861 0.4423502,0.39688 0.4423502,0.8723 z m -2.8029296,0.0289 v 1.4056 q 0,0.19017 0.1364258,0.30179 l 0.2604492,0.22324 q 0.086816,0.0744 0.2439128,0.0744 h 0.8061523 q 0.1777669,0 0.3224609,-0.12815 L 8.9181824,247.704 Q 9.04634,247.60478 9.04634,247.42702 v -1.4056 q 0,-0.20671 -0.1281576,-0.30593 l -0.2439127,-0.1943 q -0.1240234,-0.10335 -0.289388,-0.10335 H 7.6655458 q -0.2356445,0 -0.3638021,0.11162 l -0.2356445,0.20257 q -0.1281576,0.10749 -0.1281576,0.28112 z"
           inkscape:connector-curvature="0" />
        <path
           id="path884"
           style="font-style:normal;font-variant:normal;font-weight:normal;font-stretch:normal;font-size:8.46666622px;font-family:'OCR A Extended';-inkscape-font-specification:'OCR A Extended';stroke-width:0.26458332"
           d="m 11.353176,248.37373 v -3.29489 q 0,-0.1447 0.09922,-0.24805 0.103353,-0.10749 0.248047,-0.10749 0.144694,0 0.243912,0.10336 0.103353,0.10335 0.103353,0.25218 v 0.43408 l 0.566374,-0.48369 q 0.3514,-0.29766 0.686263,-0.29766 h 0.508496 q 0.429948,0 0.735872,0.30593 0.305925,0.30592 0.305925,0.73587 v 0.18603 q 0,0.14883 -0.103353,0.25219 -0.09922,0.10335 -0.243913,0.10335 -0.144694,0 -0.248047,-0.0992 -0.09922,-0.10335 -0.09922,-0.24805 v -0.1943 q 0,-0.14469 -0.103353,-0.24391 -0.09922,-0.10336 -0.243913,-0.10336 H 13.35822 q -0.144694,0 -0.32246,0.15297 l -0.988054,0.85576 v 1.9389 q 0,0.14469 -0.103353,0.24804 -0.103353,0.0992 -0.243912,0.0992 -0.144694,0 -0.248047,-0.0992 -0.09922,-0.10335 -0.09922,-0.24804 z"
           inkscape:connector-curvature="0" />
        <path
           id="path886"
           style="font-style:normal;font-variant:normal;font-weight:normal;font-stretch:normal;font-size:8.46666622px;font-family:'OCR A Extended';-inkscape-font-specification:'OCR A Extended';stroke-width:0.26458332"
           d="m 16.376125,248.37373 v -3.29489 q 0,-0.1447 0.09922,-0.24391 0.103353,-0.10336 0.248047,-0.10336 0.268718,0 0.338998,0.26459 0.289388,-0.27286 0.644921,-0.27286 0.417546,0 0.686263,0.35554 0.33073,-0.35554 0.727605,-0.35554 0.32246,0 0.558105,0.23151 0.239779,0.22738 0.256315,0.58291 l 0.09922,2.83601 q 0,0.14056 -0.103353,0.24391 -0.103353,0.10335 -0.243913,0.10335 -0.144694,0 -0.248047,-0.10335 -0.103352,-0.10335 -0.107487,-0.24391 l -0.08268,-2.72438 q -0.0083,-0.22325 -0.136426,-0.22325 -0.07028,0 -0.144694,0.062 l -0.413411,0.34726 v 2.53835 q 0,0.14056 -0.103353,0.23978 -0.09922,0.0992 -0.243913,0.0992 -0.14056,0 -0.243912,-0.0992 -0.103353,-0.10336 -0.103353,-0.24805 v -2.76159 q 0,-0.17777 -0.152963,-0.17777 -0.07441,0 -0.136425,0.0538 l -0.500228,0.42168 v 2.4722 q 0,0.14056 -0.09922,0.24391 -0.09922,0.10335 -0.239779,0.10335 -0.144694,0 -0.252181,-0.10335 -0.103352,-0.10335 -0.103352,-0.24391 z"
           inkscape:connector-curvature="0" />
        <path
           id="path888"
           style="font-style:normal;font-variant:normal;font-weight:normal;font-stretch:normal;font-size:8.46666622px;font-family:'OCR A Extended';-inkscape-font-specification:'OCR A Extended';stroke-width:0.26458332"
           d="m 22.606236,246.21572 h 1.360123 q 0.111621,0 0.322461,0.0496 l -0.0083,-0.49196 q 0,-0.14469 -0.103353,-0.24391 -0.09922,-0.10336 -0.243913,-0.10336 h -1.318782 q -0.14056,0 -0.243913,-0.10335 -0.103353,-0.10335 -0.103353,-0.24391 0,-0.1447 0.09922,-0.24391 0.103353,-0.10336 0.248047,-0.10336 h 1.318782 q 0.429948,0 0.731739,0.30179 0.305924,0.30179 0.318326,0.74001 l 0.08682,2.60036 q 0,0.14469 -0.103353,0.24804 -0.103353,0.0992 -0.243913,0.0992 -0.148828,0 -0.252181,-0.0992 -0.103353,-0.10335 -0.103353,-0.24804 l -0.587044,0.34726 h -1.174088 q -0.438217,0 -0.744141,-0.30592 -0.305924,-0.30593 -0.305924,-0.74414 v -0.40515 q 0,-0.43408 0.305924,-0.74 0.310059,-0.31006 0.744141,-0.31006 z m 1.736328,1.35186 -0.02067,-0.29353 q -0.0041,-0.14883 -0.103353,-0.24804 -0.09922,-0.0992 -0.243913,-0.0992 h -1.368391 q -0.144694,0 -0.248047,0.10335 -0.09922,0.0992 -0.09922,0.24391 v 0.38861 q 0,0.14056 0.103353,0.24391 0.103353,0.10336 0.243913,0.10336 h 0.979785 z"
           inkscape:connector-curvature="0" />
        <path
           id="path890"
           style="font-style:normal;font-variant:normal;font-weight:normal;font-stretch:normal;font-size:8.46666622px;font-family:'OCR A Extended';-inkscape-font-specification:'OCR A Extended';stroke-width:0.26458332"
           d="m 29.121601,248.72099 h -0.694532 q -0.429948,0 -0.740006,-0.30592 -0.310059,-0.30593 -0.310059,-0.73587 v -2.2531 H 27.02147 q -0.144694,0 -0.248046,-0.0992 -0.09922,-0.0992 -0.09922,-0.24805 0,-0.1447 0.09922,-0.24391 0.103352,-0.10336 0.248046,-0.10336 h 0.363802 v -0.85162 q 0,-0.1447 0.09922,-0.24392 0.103353,-0.10335 0.248047,-0.10335 0.136426,0 0.239779,0.10335 0.107487,0.10336 0.107487,0.24392 v 0.85162 h 1.39733 q 0.14056,0 0.243913,0.10336 0.103353,0.10335 0.103353,0.24391 0,0.14469 -0.103353,0.24805 -0.103353,0.0992 -0.243913,0.0992 h -1.405599 v 2.2531 q 0,0.14056 0.103353,0.24391 0.107487,0.10335 0.252181,0.10335 h 0.677995 q 0.276986,0 0.367936,-0.29765 0.09095,-0.30179 0.3514,-0.30179 0.152962,0 0.248047,0.10335 0.09922,0.0992 0.09922,0.25218 0,0.31419 -0.297657,0.62838 -0.293522,0.31006 -0.752408,0.31006 z"
           inkscape:connector-curvature="0" />
      </g>
      <g
         id="text4567"
         style="font-style:normal;font-weight:normal;font-size:10.58333302px;line-height:1.25;font-family:sans-serif;letter-spacing:0px;word-spacing:0px;fill:#000000;fill-opacity:1;stroke:none;stroke-width:0.26458332"
         aria-label="Verify">
        <path
           id="path893"
           style="font-style:normal;font-variant:normal;font-weight:normal;font-stretch:normal;font-size:8.46666622px;font-family:'OCR A Extended';-inkscape-font-specification:'OCR A Extended';stroke-width:0.26458332"
           d="m 4.6393739,262.42883 v 1.27744 l -1.4138671,3.60082 q -0.107487,0.26045 -0.3389974,0.26045 -0.2439127,0 -0.3472656,-0.26045 l -1.4055989,-3.60082 v -1.27744 q 0,-0.14883 0.099219,-0.25218 0.1033528,-0.10335 0.2480468,-0.10335 0.144694,0 0.2439128,0.10335 0.1033528,0.10335 0.1033528,0.25218 v 1.13275 l 1.0583333,2.69544 1.0583333,-2.68717 v -1.14102 q 0,-0.14883 0.099219,-0.25218 0.1033529,-0.10335 0.2480469,-0.10335 0.144694,0 0.2439128,0.10335 0.1033528,0.10335 0.1033523,0.25218 z"
           inkscape:connector-curvature="0" />
        <path
           id="path895"
           style="font-style:normal;font-variant:normal;font-weight:normal;font-stretch:normal;font-size:8.46666622px;font-family:'OCR A Extended';-inkscape-font-specification:'OCR A Extended';stroke-width:0.26458332"
           d="m 9.732603,264.8845 v 0.83922 q 0,0.14056 -0.1033529,0.24391 -0.1033528,0.10336 -0.2439127,0.10336 h -2.455664 v 0.20257 q 0,0.17776 0.1529623,0.30179 l 0.2025716,0.1695 Q 7.4505719,266.873 7.5994,266.873 h 1.7859374 q 0.1405599,0 0.2439127,0.10336 0.1033529,0.0992 0.1033529,0.24391 0,0.14056 -0.107487,0.24391 -0.1033529,0.10336 -0.2397786,0.10336 H 7.5539247 q -0.181901,0 -0.3844726,-0.0744 -0.1984375,-0.0785 -0.2935221,-0.16123 l -0.3100586,-0.27285 q -0.144694,-0.11576 -0.2439128,-0.32246 -0.095085,-0.20671 -0.095085,-0.38034 v -1.59163 q 0,-0.13643 0.1033529,-0.36794 0.1074869,-0.23151 0.2687174,-0.35967 l 0.289388,-0.22737 q 0.2852539,-0.23151 0.6325195,-0.23151 h 0.975651 q 0.3679362,0 0.6945312,0.30592 l 0.2604492,0.24805 q 0.2811198,0.25218 0.2811198,0.75241 z m -2.7946613,-0.0537 v 0.53744 H 9.04634 v -0.48369 q 0,-0.19431 -0.1198893,-0.29766 L 8.7238791,264.40907 Q 8.5667827,264.28091 8.4427593,264.28091 H 7.5704612 q -0.1612305,0 -0.2935222,0.11163 l -0.2025716,0.16949 q -0.1364257,0.10336 -0.1364257,0.26872 z"
           inkscape:connector-curvature="0" />
        <path
           id="path897"
           style="font-style:normal;font-variant:normal;font-weight:normal;font-stretch:normal;font-size:8.46666622px;font-family:'OCR A Extended';-inkscape-font-specification:'OCR A Extended';stroke-width:0.26458332"
           d="m 11.344908,267.22027 v -3.29489 q 0,-0.14469 0.09922,-0.24805 0.103352,-0.10748 0.248046,-0.10748 0.144694,0 0.243913,0.10335 0.103353,0.10335 0.103353,0.25218 v 0.43408 l 0.566374,-0.48369 q 0.351399,-0.29765 0.686263,-0.29765 h 0.508496 q 0.429948,0 0.735872,0.30592 0.305925,0.30592 0.305925,0.73587 v 0.18604 q 0,0.14883 -0.103353,0.25218 -0.09922,0.10335 -0.243913,0.10335 -0.144694,0 -0.248047,-0.0992 -0.09922,-0.10335 -0.09922,-0.24804 v -0.19431 q 0,-0.14469 -0.103353,-0.24391 -0.09922,-0.10335 -0.243912,-0.10335 h -0.450619 q -0.144694,0 -0.322461,0.15296 l -0.988053,0.85576 v 1.9389 q 0,0.14469 -0.103353,0.24805 -0.103353,0.0992 -0.243913,0.0992 -0.144694,0 -0.248046,-0.0992 -0.09922,-0.10336 -0.09922,-0.24805 z"
           inkscape:connector-curvature="0" />
        <path
           id="path899"
           style="font-style:normal;font-variant:normal;font-weight:normal;font-stretch:normal;font-size:8.46666622px;font-family:'OCR A Extended';-inkscape-font-specification:'OCR A Extended';stroke-width:0.26458332"
           d="m 17.843735,261.76737 h 0.363802 q 0.144694,0 0.243913,0.10336 0.103353,0.0992 0.103353,0.24391 v 0.29765 q 0,0.1447 -0.103353,0.25219 -0.09922,0.10335 -0.243913,0.10335 h -0.37207 q -0.148828,0 -0.252181,-0.10749 -0.09922,-0.10749 -0.09509,-0.23978 l 0.0083,-0.30592 q 0,-0.1447 0.09922,-0.24391 0.103353,-0.10336 0.248047,-0.10336 z m 1.413867,5.7919 h -2.116666 q -0.144694,0 -0.248047,-0.0992 -0.09922,-0.10335 -0.09922,-0.24805 0,-0.14056 0.09922,-0.24391 0.103353,-0.10335 0.248047,-0.10335 h 0.711067 v -2.59209 h -0.702799 q -0.144694,0 -0.248047,-0.10336 -0.09922,-0.10335 -0.09922,-0.24391 0,-0.14469 0.09922,-0.24805 0.103353,-0.10748 0.248047,-0.10748 h 1.058333 q 0.144694,0 0.243913,0.10748 0.103353,0.10336 0.103353,0.24805 v 2.93936 h 0.694531 q 0.144694,0 0.248047,0.10335 0.107487,0.0992 0.107487,0.24391 0,0.1447 -0.103353,0.24805 -0.103353,0.0992 -0.243913,0.0992 z"
           inkscape:connector-curvature="0" />
        <path
           id="path901"
           style="font-style:normal;font-variant:normal;font-weight:normal;font-stretch:normal;font-size:8.46666622px;font-family:'OCR A Extended';-inkscape-font-specification:'OCR A Extended';stroke-width:0.26458332"
           d="m 23.147805,264.27265 v 2.94762 q 0,0.14469 -0.103353,0.24805 -0.103353,0.0992 -0.243913,0.0992 -0.148828,0 -0.252181,-0.0992 -0.103353,-0.10336 -0.103353,-0.24805 v -2.94762 h -0.355534 q -0.144694,0 -0.248047,-0.10336 -0.09922,-0.10335 -0.09922,-0.24391 0,-0.13643 0.09095,-0.23978 0.09509,-0.10748 0.256315,-0.10748 h 0.363802 v -0.26872 q 0,-0.5333 0.363802,-0.8847 0.367937,-0.3514 0.91364,-0.3514 h 0.81442 q 0.144694,0 0.243913,0.10335 0.103353,0.10335 0.103353,0.25218 0,0.14056 -0.103353,0.24391 -0.103353,0.10336 -0.243913,0.10336 h -0.81442 q -0.248047,0 -0.413412,0.14882 -0.16123,0.14883 -0.16123,0.38448 v 0.26872 h 0.694531 q 0.14056,-0.004 0.243913,0.0992 0.103353,0.10336 0.103353,0.24805 0,0.14056 -0.103353,0.24391 -0.103353,0.10336 -0.243913,0.10336 z"
           inkscape:connector-curvature="0" />
        <path
           id="path903"
           style="font-style:normal;font-variant:normal;font-weight:normal;font-stretch:normal;font-size:8.46666622px;font-family:'OCR A Extended';-inkscape-font-specification:'OCR A Extended';stroke-width:0.26458332"
           d="m 30.179934,264.59511 -1.872754,4.23333 q -0.09508,0.22738 -0.330729,0.22738 h -0.963249 q -0.144694,0 -0.248047,-0.0992 -0.09922,-0.0992 -0.09922,-0.24805 0,-0.14469 0.09922,-0.24391 0.103353,-0.0992 0.248047,-0.0992 h 0.744141 l 0.475423,-1.10381 h -0.169499 q -0.235644,0 -0.338997,-0.24391 l -1.041797,-2.42259 v -0.66973 q 0,-0.14469 0.09922,-0.24391 0.09922,-0.10335 0.239778,-0.10335 0.144694,0 0.248047,0.10335 0.107487,0.0992 0.107487,0.24391 v 0.51676 l 0.91364,2.11667 h 0.243912 l 0.942578,-2.1084 v -0.5333 q 0,-0.13642 0.103353,-0.23978 0.107487,-0.10748 0.252181,-0.10748 0.14056,0 0.243913,0.10335 0.103353,0.10335 0.103353,0.24391 z"
           inkscape:connector-curvature="0" />
      </g>
      <g
         id="text4571"
         style="font-style:normal;font-weight:normal;font-size:10.58333302px;line-height:1.25;font-family:sans-serif;letter-spacing:0px;word-spacing:0px;fill:#000000;fill-opacity:1;stroke:none;stroke-width:0.26458332"
         aria-label="Exit from program">
        <path
           id="path906"
           style="font-style:normal;font-variant:normal;font-weight:normal;font-stretch:normal;font-size:8.46666622px;font-family:'OCR A Extended';-inkscape-font-specification:'OCR A Extended';stroke-width:0.26458332"
           d="m 4.2838401,281.82608 h -2.455664 v 1.69086 h 1.0583333 q 0.1405599,0 0.2439127,0.10335 0.1033529,0.10335 0.1033529,0.24391 0,0.14883 -0.1033529,0.25218 -0.099219,0.10336 -0.2439127,0.10336 H 1.8281761 v 1.70325 h 2.4639322 q 0.1405599,0 0.2439127,0.10335 0.1033529,0.0992 0.1033529,0.24392 0,0.14469 -0.107487,0.24804 -0.1033528,0.0992 -0.2480468,0.0992 H 1.1336449 v -5.49423 h 3.1501952 q 0.144694,0 0.2480468,0.10748 0.107487,0.10336 0.107487,0.24805 0,0.14056 -0.107487,0.24391 -0.1033528,0.10335 -0.2480468,0.10335 z"
           inkscape:connector-curvature="0" />
        <path
           id="path908"
           style="font-style:normal;font-variant:normal;font-weight:normal;font-stretch:normal;font-size:8.46666622px;font-family:'OCR A Extended';-inkscape-font-specification:'OCR A Extended';stroke-width:0.26458332"
           d="m 8.0541525,285.12097 -1.1368814,1.35186 q -0.1116211,0.14469 -0.2769857,0.14469 -0.1488281,0 -0.2480468,-0.10335 -0.099219,-0.10335 -0.099219,-0.25218 0,-0.13229 0.066146,-0.21084 l 1.2443685,-1.49242 -1.1492838,-1.36839 q -0.078548,-0.0909 -0.078548,-0.2067 0,-0.13643 0.095085,-0.24392 0.099219,-0.11162 0.252181,-0.11162 0.1736328,0 0.2811198,0.12816 l 1.050065,1.26091 1.0748698,-1.26918 q 0.099219,-0.11989 0.2480468,-0.11989 0.1322917,0 0.2397787,0.0951 0.1074869,0.091 0.1074869,0.23564 0,0.14056 -0.045475,0.19431 l -1.1699544,1.41386 1.227832,1.48415 q 0.07028,0.0786 0.07028,0.1943 0,0.1571 -0.107487,0.26459 -0.1033528,0.10335 -0.2397786,0.10335 -0.1612304,0 -0.2811198,-0.14056 z"
           inkscape:connector-curvature="0" />
        <path
           id="path910"
           style="font-style:normal;font-variant:normal;font-weight:normal;font-stretch:normal;font-size:8.46666622px;font-family:'OCR A Extended';-inkscape-font-specification:'OCR A Extended';stroke-width:0.26458332"
           d="m 12.742238,280.81736 h 0.363802 q 0.144694,0 0.243913,0.10335 0.103353,0.0992 0.103353,0.24392 v 0.29765 q 0,0.1447 -0.103353,0.25218 -0.09922,0.10336 -0.243913,0.10336 h -0.37207 q -0.148828,0 -0.252181,-0.10749 -0.09922,-0.10749 -0.09508,-0.23978 l 0.0083,-0.30592 q 0,-0.1447 0.09922,-0.24392 0.103352,-0.10335 0.248046,-0.10335 z m 1.413868,5.79189 h -2.116667 q -0.144694,0 -0.248047,-0.0992 -0.09922,-0.10336 -0.09922,-0.24805 0,-0.14056 0.09922,-0.24391 0.103353,-0.10336 0.248047,-0.10336 h 0.711068 v -2.59209 h -0.7028 q -0.144694,0 -0.248047,-0.10335 -0.09922,-0.10335 -0.09922,-0.24391 0,-0.1447 0.09922,-0.24805 0.103353,-0.10749 0.248047,-0.10749 h 1.058333 q 0.144694,0 0.243913,0.10749 0.103353,0.10335 0.103353,0.24805 v 2.93935 h 0.694531 q 0.144694,0 0.248047,0.10336 0.107487,0.0992 0.107487,0.24391 0,0.14469 -0.103353,0.24805 -0.103353,0.0992 -0.243912,0.0992 z"
           inkscape:connector-curvature="0" />
        <path
           id="path912"
           style="font-style:normal;font-variant:normal;font-weight:normal;font-stretch:normal;font-size:8.46666622px;font-family:'OCR A Extended';-inkscape-font-specification:'OCR A Extended';stroke-width:0.26458332"
           d="m 18.902068,286.61752 h -0.694531 q -0.429948,0 -0.740006,-0.30592 -0.310059,-0.30593 -0.310059,-0.73587 v -2.2531 h -0.355534 q -0.144694,0 -0.248046,-0.0992 -0.09922,-0.0992 -0.09922,-0.24805 0,-0.1447 0.09922,-0.24391 0.103352,-0.10336 0.248046,-0.10336 h 0.363802 v -0.85162 q 0,-0.1447 0.09922,-0.24392 0.103353,-0.10335 0.248047,-0.10335 0.136426,0 0.239779,0.10335 0.107487,0.10336 0.107487,0.24392 v 0.85162 h 1.39733 q 0.14056,0 0.243913,0.10336 0.103353,0.10335 0.103353,0.24391 0,0.14469 -0.103353,0.24805 -0.103353,0.0992 -0.243913,0.0992 h -1.405599 v 2.2531 q 0,0.14056 0.103353,0.24391 0.107487,0.10335 0.252181,0.10335 h 0.677995 q 0.276986,0 0.367936,-0.29765 0.09095,-0.30179 0.3514,-0.30179 0.152962,0 0.248047,0.10335 0.09922,0.0992 0.09922,0.25218 0,0.31419 -0.297657,0.62838 -0.293522,0.31006 -0.752409,0.31006 z"
           inkscape:connector-curvature="0" />
        <path
           id="path914"
           style="font-style:normal;font-variant:normal;font-weight:normal;font-stretch:normal;font-size:8.46666622px;font-family:'OCR A Extended';-inkscape-font-specification:'OCR A Extended';stroke-width:0.26458332"
           d="m 28.265839,283.32263 v 2.94763 q 0,0.14469 -0.103353,0.24804 -0.103353,0.0992 -0.243913,0.0992 -0.148828,0 -0.252181,-0.0992 -0.103353,-0.10335 -0.103353,-0.24804 v -2.94763 h -0.355533 q -0.144694,0 -0.248047,-0.10335 -0.09922,-0.10335 -0.09922,-0.24391 0,-0.13643 0.09095,-0.23978 0.09509,-0.10749 0.256316,-0.10749 h 0.363802 v -0.26871 q 0,-0.53331 0.363802,-0.88471 0.367936,-0.35139 0.913639,-0.35139 h 0.81442 q 0.144694,0 0.243913,0.10335 0.103353,0.10335 0.103353,0.25218 0,0.14056 -0.103353,0.24391 -0.103353,0.10335 -0.243913,0.10335 h -0.81442 q -0.248047,0 -0.413411,0.14883 -0.161231,0.14883 -0.161231,0.38448 v 0.26871 h 0.694531 q 0.14056,-0.004 0.243913,0.0992 0.103353,0.10335 0.103353,0.24805 0,0.14056 -0.103353,0.24391 -0.103353,0.10335 -0.243913,0.10335 z"
           inkscape:connector-curvature="0" />
        <path
           id="path916"
           style="font-style:normal;font-variant:normal;font-weight:normal;font-stretch:normal;font-size:8.46666622px;font-family:'OCR A Extended';-inkscape-font-specification:'OCR A Extended';stroke-width:0.26458332"
           d="m 31.792237,286.27026 v -3.29489 q 0,-0.1447 0.09922,-0.24805 0.103353,-0.10749 0.248047,-0.10749 0.144694,0 0.243912,0.10336 0.103353,0.10335 0.103353,0.25218 v 0.43408 l 0.566374,-0.48369 q 0.3514,-0.29766 0.686263,-0.29766 h 0.508496 q 0.429948,0 0.735872,0.30593 0.305925,0.30592 0.305925,0.73587 v 0.18603 q 0,0.14883 -0.103353,0.25219 -0.09922,0.10335 -0.243913,0.10335 -0.144694,0 -0.248047,-0.0992 -0.09922,-0.10335 -0.09922,-0.24805 v -0.1943 q 0,-0.14469 -0.103353,-0.24391 -0.09922,-0.10336 -0.243913,-0.10336 h -0.450618 q -0.144694,0 -0.322461,0.15297 l -0.988054,0.85576 v 1.9389 q 0,0.14469 -0.103353,0.24804 -0.103352,0.0992 -0.243912,0.0992 -0.144694,0 -0.248047,-0.0992 -0.09922,-0.10335 -0.09922,-0.24804 z"
           inkscape:connector-curvature="0" />
        <path
           id="path918"
           style="font-style:normal;font-variant:normal;font-weight:normal;font-stretch:normal;font-size:8.46666622px;font-family:'OCR A Extended';-inkscape-font-specification:'OCR A Extended';stroke-width:0.26458332"
           d="m 40.399466,283.88074 v 1.46761 q 0,0.46716 -0.44235,0.86403 -0.438217,0.39687 -0.905371,0.39687 h -0.814421 q -0.475423,0 -0.909505,-0.401 -0.434082,-0.40515 -0.434082,-0.8599 v -1.46761 q 0,-0.45475 0.421679,-0.85576 0.425814,-0.40515 0.921908,-0.40515 h 0.814421 q 0.467154,-0.008 0.905371,0.38861 0.44235,0.39688 0.44235,0.8723 z m -2.80293,0.0289 v 1.4056 q 0,0.19017 0.136426,0.30179 l 0.260449,0.22324 q 0.08682,0.0744 0.243913,0.0744 h 0.806152 q 0.177767,0 0.322461,-0.12815 l 0.21084,-0.18604 q 0.128158,-0.0992 0.128158,-0.27698 v -1.4056 q 0,-0.20671 -0.128158,-0.30593 l -0.243913,-0.1943 q -0.124023,-0.10335 -0.289388,-0.10335 H 38.32414 q -0.235644,0 -0.363802,0.11162 l -0.235644,0.20257 q -0.128158,0.10749 -0.128158,0.28112 z"
           inkscape:connector-curvature="0" />
        <path
           id="path920"
           style="font-style:normal;font-variant:normal;font-weight:normal;font-stretch:normal;font-size:8.46666622px;font-family:'OCR A Extended';-inkscape-font-specification:'OCR A Extended';stroke-width:0.26458332"
           d="m 41.924953,286.27026 v -3.29489 q 0,-0.1447 0.09922,-0.24391 0.103353,-0.10336 0.248047,-0.10336 0.268718,0 0.338998,0.26459 0.289388,-0.27286 0.644922,-0.27286 0.417545,0 0.686263,0.35554 0.330729,-0.35554 0.727604,-0.35554 0.322461,0 0.558105,0.23152 0.239779,0.22737 0.256315,0.58291 l 0.09922,2.836 q 0,0.14056 -0.103353,0.24391 -0.103353,0.10335 -0.243913,0.10335 -0.144694,0 -0.248047,-0.10335 -0.103352,-0.10335 -0.107486,-0.24391 l -0.08268,-2.72438 q -0.0083,-0.22325 -0.136426,-0.22325 -0.07028,0 -0.144694,0.062 l -0.413411,0.34726 v 2.53835 q 0,0.14056 -0.103353,0.23978 -0.09922,0.0992 -0.243913,0.0992 -0.140559,0 -0.243912,-0.0992 -0.103353,-0.10336 -0.103353,-0.24805 v -2.76159 q 0,-0.17777 -0.152962,-0.17777 -0.07441,0 -0.136426,0.0537 l -0.500228,0.42168 v 2.4722 q 0,0.14056 -0.09922,0.24391 -0.09922,0.10335 -0.239778,0.10335 -0.144694,0 -0.252181,-0.10335 -0.103353,-0.10335 -0.103353,-0.24391 z"
           inkscape:connector-curvature="0" />
        <path
           id="path922"
           style="font-style:normal;font-variant:normal;font-weight:normal;font-stretch:normal;font-size:8.46666622px;font-family:'OCR A Extended';-inkscape-font-specification:'OCR A Extended';stroke-width:0.26458332"
           d="m 52.934101,286.22065 v 1.53789 q 0,0.14883 -0.103353,0.25218 -0.09922,0.10335 -0.243913,0.10335 -0.144694,0 -0.252181,-0.10335 -0.103353,-0.10335 -0.103353,-0.25218 v -4.95267 q 0,-0.14056 0.103353,-0.24391 0.103353,-0.10336 0.252181,-0.10336 0.14056,0 0.243913,0.10336 0.103353,0.10335 0.103353,0.24391 v 0.22324 q 0.504362,-0.56224 0.996321,-0.56224 h 0.161231 q 0.367936,0 0.677994,0.27285 l 0.578776,0.50023 q 0.380339,0.33073 0.380339,0.83923 v 1.08313 q 0,0.51264 -0.409277,0.86403 l -0.566374,0.48783 q -0.28112,0.25632 -0.711068,0.25632 h -0.152962 q -0.405143,0 -0.686263,-0.28112 z m 0.979785,-0.15296 h 0.177767 q 0.128157,0 0.272851,-0.12816 l 0.541569,-0.47542 q 0.136426,-0.10749 0.136426,-0.29353 v -1.12034 q 0,-0.16537 -0.152962,-0.29352 l -0.58291,-0.50023 q -0.09922,-0.0868 -0.214974,-0.0868 h -0.202572 q -0.115755,0 -0.30179,0.19017 l -0.516765,0.51263 q -0.136425,0.13643 -0.136425,0.30593 v 0.88883 q 0,0.16123 0.152962,0.31419 l 0.500228,0.50023 q 0.186035,0.18604 0.326595,0.18604 z"
           inkscape:connector-curvature="0" />
        <path
           id="path924"
           style="font-style:normal;font-variant:normal;font-weight:normal;font-stretch:normal;font-size:8.46666622px;font-family:'OCR A Extended';-inkscape-font-specification:'OCR A Extended';stroke-width:0.26458332"
           d="m 57.341065,286.27026 v -3.29489 q 0,-0.1447 0.09922,-0.24805 0.103353,-0.10749 0.248047,-0.10749 0.144694,0 0.243913,0.10336 0.103352,0.10335 0.103352,0.25218 v 0.43408 l 0.566374,-0.48369 q 0.3514,-0.29766 0.686263,-0.29766 h 0.508496 q 0.429948,0 0.735873,0.30593 0.305924,0.30592 0.305924,0.73587 v 0.18603 q 0,0.14883 -0.103353,0.25219 -0.09922,0.10335 -0.243913,0.10335 -0.144694,0 -0.248046,-0.0992 -0.09922,-0.10335 -0.09922,-0.24805 v -0.1943 q 0,-0.14469 -0.103353,-0.24391 -0.09922,-0.10336 -0.243913,-0.10336 h -0.450618 q -0.144694,0 -0.322461,0.15297 l -0.988054,0.85576 v 1.9389 q 0,0.14469 -0.103352,0.24804 -0.103353,0.0992 -0.243913,0.0992 -0.144694,0 -0.248047,-0.0992 -0.09922,-0.10335 -0.09922,-0.24804 z"
           inkscape:connector-curvature="0" />
        <path
           id="path926"
           style="font-style:normal;font-variant:normal;font-weight:normal;font-stretch:normal;font-size:8.46666622px;font-family:'OCR A Extended';-inkscape-font-specification:'OCR A Extended';stroke-width:0.26458332"
           d="m 65.94829,283.88074 v 1.46761 q 0,0.46716 -0.44235,0.86403 -0.438216,0.39687 -0.905371,0.39687 h -0.814421 q -0.475423,0 -0.909505,-0.401 -0.434082,-0.40515 -0.434082,-0.8599 v -1.46761 q 0,-0.45475 0.42168,-0.85576 0.425814,-0.40515 0.921907,-0.40515 h 0.814421 q 0.467155,-0.008 0.905371,0.38861 0.44235,0.39688 0.44235,0.8723 z m -2.802929,0.0289 v 1.4056 q 0,0.19017 0.136425,0.30179 l 0.26045,0.22324 q 0.08682,0.0744 0.243912,0.0744 h 0.806153 q 0.177767,0 0.322461,-0.12815 l 0.210839,-0.18604 q 0.128158,-0.0992 0.128158,-0.27698 v -1.4056 q 0,-0.20671 -0.128158,-0.30593 l -0.243912,-0.1943 q -0.124024,-0.10335 -0.289388,-0.10335 h -0.719336 q -0.235645,0 -0.363802,0.11162 l -0.235645,0.20257 q -0.128157,0.10749 -0.128157,0.28112 z"
           inkscape:connector-curvature="0" />
        <path
           id="path928"
           style="font-style:normal;font-variant:normal;font-weight:normal;font-stretch:normal;font-size:8.46666622px;font-family:'OCR A Extended';-inkscape-font-specification:'OCR A Extended';stroke-width:0.26458332"
           d="m 69.743406,288.1058 h -1.504818 q -0.144694,0 -0.248047,-0.0992 -0.09922,-0.0992 -0.09922,-0.24805 0,-0.1447 0.09922,-0.24391 0.103353,-0.0992 0.248047,-0.0992 h 1.504818 q 0.136426,0 0.256315,-0.10336 l 0.235644,-0.20257 q 0.11989,-0.091 0.11989,-0.23978 v -1.05833 q -0.487826,0.49196 -0.950847,0.49196 h -0.5333 q -0.413412,0 -0.744141,-0.28525 l -0.260449,-0.23151 q -0.128158,-0.10749 -0.223242,-0.3142 -0.09095,-0.2067 -0.09095,-0.40514 v -1.14928 q 0,-0.24392 0.09095,-0.46302 0.09508,-0.21911 0.223242,-0.3266 l 0.285254,-0.24391 q 0.305924,-0.26459 0.719336,-0.26459 h 0.500228 q 0.409277,0 0.74414,0.28939 l 0.239779,0.20257 -0.0083,-0.13642 q 0,-0.14056 0.103352,-0.24391 0.103353,-0.10336 0.243913,-0.10336 0.144694,0 0.248047,0.10336 0.107487,0.0992 0.107487,0.24391 v 3.89433 q 0,0.44235 -0.355534,0.75655 l -0.28112,0.24391 q -0.107487,0.0951 -0.305924,0.16536 -0.194303,0.0703 -0.363802,0.0703 z m -0.396875,-4.79143 h -0.467155 q -0.152962,0 -0.293522,0.11989 l -0.214974,0.17776 q -0.124024,0.10335 -0.124024,0.28112 v 1.15755 q 0,0.14056 0.136426,0.26459 l 0.227377,0.20257 q 0.107486,0.0909 0.227376,0.0909 h 0.566373 q 0.124024,0 0.272852,-0.12402 l 0.549837,-0.46716 q 0.128158,-0.11162 0.128158,-0.27285 v -0.52503 q 0,-0.19017 -0.144694,-0.31006 l -0.566374,-0.48369 q -0.119889,-0.11162 -0.297656,-0.11162 z"
           inkscape:connector-curvature="0" />
        <path
           id="path930"
           style="font-style:normal;font-variant:normal;font-weight:normal;font-stretch:normal;font-size:8.46666622px;font-family:'OCR A Extended';-inkscape-font-specification:'OCR A Extended';stroke-width:0.26458332"
           d="m 72.670365,286.27026 v -3.29489 q 0,-0.1447 0.09922,-0.24805 0.103353,-0.10749 0.248047,-0.10749 0.144694,0 0.243913,0.10336 0.103352,0.10335 0.103352,0.25218 v 0.43408 l 0.566374,-0.48369 q 0.3514,-0.29766 0.686263,-0.29766 h 0.508496 q 0.429948,0 0.735872,0.30593 0.305925,0.30592 0.305925,0.73587 v 0.18603 q 0,0.14883 -0.103353,0.25219 -0.09922,0.10335 -0.243913,0.10335 -0.144694,0 -0.248047,-0.0992 -0.09922,-0.10335 -0.09922,-0.24805 v -0.1943 q 0,-0.14469 -0.103353,-0.24391 -0.09922,-0.10336 -0.243913,-0.10336 H 74.67541 q -0.144694,0 -0.322461,0.15297 l -0.988054,0.85576 v 1.9389 q 0,0.14469 -0.103352,0.24804 -0.103353,0.0992 -0.243913,0.0992 -0.144694,0 -0.248047,-0.0992 -0.09922,-0.10335 -0.09922,-0.24804 z"
           inkscape:connector-curvature="0" />
        <path
           id="path932"
           style="font-style:normal;font-variant:normal;font-weight:normal;font-stretch:normal;font-size:8.46666622px;font-family:'OCR A Extended';-inkscape-font-specification:'OCR A Extended';stroke-width:0.26458332"
           d="m 78.813658,284.11225 h 1.360123 q 0.111622,0 0.322461,0.0496 l -0.0083,-0.49196 q 0,-0.14469 -0.103353,-0.24391 -0.09922,-0.10336 -0.243912,-0.10336 h -1.318783 q -0.14056,0 -0.243913,-0.10335 -0.103353,-0.10335 -0.103353,-0.24391 0,-0.1447 0.09922,-0.24391 0.103353,-0.10336 0.248047,-0.10336 h 1.318783 q 0.429947,0 0.731738,0.30179 0.305924,0.30179 0.318327,0.74001 l 0.08682,2.60036 q 0,0.14469 -0.103353,0.24804 -0.103353,0.0992 -0.243913,0.0992 -0.148828,0 -0.252181,-0.0992 -0.103352,-0.10335 -0.103352,-0.24804 l -0.587045,0.34726 h -1.174088 q -0.438216,0 -0.744141,-0.30592 -0.305924,-0.30593 -0.305924,-0.74414 v -0.40515 q 0,-0.43408 0.305924,-0.74 0.310059,-0.31006 0.744141,-0.31006 z m 1.736328,1.35186 -0.02067,-0.29353 q -0.0041,-0.14882 -0.103353,-0.24804 -0.09922,-0.0992 -0.243912,-0.0992 h -1.368392 q -0.144694,0 -0.248047,0.10335 -0.09922,0.0992 -0.09922,0.24391 v 0.38861 q 0,0.14056 0.103353,0.24391 0.103353,0.10336 0.243913,0.10336 h 0.979785 z"
           inkscape:connector-curvature="0" />
        <path
           id="path934"
           style="font-style:normal;font-variant:normal;font-weight:normal;font-stretch:normal;font-size:8.46666622px;font-family:'OCR A Extended';-inkscape-font-specification:'OCR A Extended';stroke-width:0.26458332"
           d="m 82.803077,286.27026 v -3.29489 q 0,-0.1447 0.09922,-0.24391 0.103353,-0.10336 0.248047,-0.10336 0.268717,0 0.338997,0.26459 0.289388,-0.27286 0.644922,-0.27286 0.417545,0 0.686263,0.35554 0.330729,-0.35554 0.727604,-0.35554 0.322461,0 0.558105,0.23152 0.239779,0.22737 0.256315,0.58291 l 0.09922,2.836 q 0,0.14056 -0.103353,0.24391 -0.103353,0.10335 -0.243912,0.10335 -0.144694,0 -0.248047,-0.10335 -0.103353,-0.10335 -0.107487,-0.24391 l -0.08268,-2.72438 q -0.0083,-0.22325 -0.136425,-0.22325 -0.07028,0 -0.144694,0.062 l -0.413412,0.34726 v 2.53835 q 0,0.14056 -0.103353,0.23978 -0.09922,0.0992 -0.243912,0.0992 -0.14056,0 -0.243913,-0.0992 -0.103353,-0.10336 -0.103353,-0.24805 v -2.76159 q 0,-0.17777 -0.152962,-0.17777 -0.07441,0 -0.136426,0.0537 l -0.500228,0.42168 v 2.4722 q 0,0.14056 -0.09922,0.24391 -0.09922,0.10335 -0.239778,0.10335 -0.144694,0 -0.252181,-0.10335 -0.103353,-0.10335 -0.103353,-0.24391 z"
           inkscape:connector-curvature="0" />
      </g>
      <g
         id="text4575"
         style="font-style:normal;font-weight:normal;font-size:10.58333302px;line-height:1.25;font-family:sans-serif;letter-spacing:0px;word-spacing:0px;fill:#000000;fill-opacity:1;stroke:none;stroke-width:0.26458332"
         aria-label="Copiar">
        <path
           id="path1010"
           style="font-style:normal;font-variant:normal;font-weight:normal;font-stretch:normal;font-size:8.46666622px;font-family:sans-serif;-inkscape-font-specification:sans-serif;stroke-width:0.26458332"
           d="m 175.17528,229.12737 q -0.22738,0.0992 -0.41341,0.18603 -0.18191,0.0868 -0.47956,0.1819 -0.25218,0.0786 -0.54984,0.1323 -0.29352,0.0579 -0.64905,0.0579 -0.66973,0 -1.21957,-0.18603 -0.5457,-0.19017 -0.95084,-0.59118 -0.39688,-0.39274 -0.62012,-0.99632 -0.22324,-0.60772 -0.22324,-1.40973 0,-0.76068 0.21497,-1.36013 0.21497,-0.59944 0.62012,-1.01286 0.39274,-0.40101 0.94671,-0.61185 0.5581,-0.21083 1.2361,-0.21083 0.49609,0 0.98805,0.11988 0.4961,0.11989 1.09968,0.42168 v 0.97152 h -0.062 q -0.5085,-0.42581 -1.00873,-0.62012 -0.50023,-0.1943 -1.07073,-0.1943 -0.46716,0 -0.84336,0.15296 -0.37207,0.14883 -0.6656,0.46716 -0.28525,0.31006 -0.44648,0.78548 -0.1571,0.47129 -0.1571,1.09141 0,0.64905 0.17364,1.11621 0.17776,0.46715 0.45475,0.76067 0.28939,0.30593 0.67386,0.45476 0.38861,0.14469 0.81855,0.14469 0.59118,0 1.10795,-0.20257 0.51676,-0.20257 0.96738,-0.60772 h 0.0579 z" />
        <path
           id="path1012"
           style="font-style:normal;font-variant:normal;font-weight:normal;font-stretch:normal;font-size:8.46666622px;font-family:sans-serif;-inkscape-font-specification:sans-serif;stroke-width:0.26458332"
           d="m 180.21476,227.26702 q 0,1.12861 -0.57877,1.7818 -0.57878,0.65319 -1.5503,0.65319 -0.97978,0 -1.55856,-0.65319 -0.57464,-0.65319 -0.57464,-1.7818 0,-1.12862 0.57464,-1.78181 0.57878,-0.65732 1.55856,-0.65732 0.97152,0 1.5503,0.65732 0.57877,0.65319 0.57877,1.78181 z m -0.80202,0 q 0,-0.89711 -0.3514,-1.33119 -0.35139,-0.43821 -0.97565,-0.43821 -0.63252,0 -0.98392,0.43821 -0.34726,0.43408 -0.34726,1.33119 0,0.86816 0.3514,1.31878 0.3514,0.44648 0.97978,0.44648 0.62012,0 0.97152,-0.44235 0.35553,-0.44648 0.35553,-1.32291 z" />
        <path
           id="path1014"
           style="font-style:normal;font-variant:normal;font-weight:normal;font-stretch:normal;font-size:8.46666622px;font-family:sans-serif;-inkscape-font-specification:sans-serif;stroke-width:0.26458332"
           d="m 185.48576,227.20914 q 0,0.56224 -0.16123,1.02939 -0.16123,0.46302 -0.45475,0.78549 -0.27286,0.30592 -0.64493,0.47542 -0.36793,0.16536 -0.78134,0.16536 -0.35967,0 -0.65319,-0.0786 -0.28939,-0.0785 -0.59118,-0.24391 v 1.93477 h -0.77722 v -6.32106 h 0.77722 v 0.48369 q 0.31006,-0.26045 0.69453,-0.43408 0.38861,-0.17777 0.82682,-0.17777 0.83509,0 1.29811,0.63252 0.46716,0.62838 0.46716,1.74873 z m -0.80202,0.0207 q 0,-0.83509 -0.28525,-1.2485 -0.28526,-0.41341 -0.87644,-0.41341 -0.33486,0 -0.67386,0.14469 -0.33899,0.14469 -0.64905,0.38034 v 2.61689 q 0.33073,0.14883 0.56637,0.20257 0.23978,0.0538 0.54157,0.0538 0.64906,0 1.01286,-0.43822 0.3638,-0.43821 0.3638,-1.29811 z" />
        <path
           id="path1016"
           style="font-style:normal;font-variant:normal;font-weight:normal;font-stretch:normal;font-size:8.46666622px;font-family:sans-serif;-inkscape-font-specification:sans-serif;stroke-width:0.26458332"
           d="m 187.53215,224.18297 h -0.87644 v -0.80615 h 0.87644 z m -0.0496,5.39088 h -0.77722 v -4.6178 h 0.77722 z" />
        <path
           id="path1018"
           style="font-style:normal;font-variant:normal;font-weight:normal;font-stretch:normal;font-size:8.46666622px;font-family:sans-serif;-inkscape-font-specification:sans-serif;stroke-width:0.26458332"
           d="m 192.61711,229.57385 h -0.77308 v -0.49196 q -0.10336,0.0703 -0.28112,0.19844 -0.17364,0.12402 -0.339,0.19844 -0.1943,0.0951 -0.44648,0.15709 -0.25219,0.0661 -0.59118,0.0661 -0.62425,0 -1.05834,-0.41341 -0.43408,-0.41341 -0.43408,-1.0542 0,-0.52503 0.22324,-0.84749 0.22738,-0.3266 0.64493,-0.51263 0.42168,-0.18604 1.01285,-0.25219 0.59118,-0.0661 1.26918,-0.0992 v -0.11989 q 0,-0.26459 -0.0951,-0.43822 -0.0909,-0.17363 -0.26458,-0.27285 -0.16537,-0.0951 -0.39688,-0.12816 -0.23151,-0.0331 -0.48369,-0.0331 -0.30592,0 -0.68213,0.0827 -0.3762,0.0786 -0.77721,0.23151 h -0.0413 v -0.78961 q 0.22738,-0.062 0.65732,-0.13643 0.42995,-0.0744 0.8475,-0.0744 0.48782,0 0.84749,0.0827 0.3638,0.0786 0.62839,0.27285 0.26044,0.19017 0.39687,0.49196 0.13643,0.30179 0.13643,0.74827 z m -0.77308,-1.13688 v -1.28571 q -0.35554,0.0207 -0.83923,0.062 -0.47956,0.0413 -0.76068,0.11989 -0.33486,0.0951 -0.54156,0.29766 -0.20671,0.19844 -0.20671,0.54984 0,0.39687 0.23978,0.59944 0.23978,0.19844 0.73174,0.19844 0.40927,0 0.74827,-0.1571 0.339,-0.16123 0.62839,-0.38447 z" />
        <path
           id="path1020"
           style="font-style:normal;font-variant:normal;font-weight:normal;font-stretch:normal;font-size:8.46666622px;font-family:sans-serif;-inkscape-font-specification:sans-serif;stroke-width:0.26458332"
           d="m 197.0034,225.80354 h -0.0413 q -0.17363,-0.0413 -0.339,-0.0579 -0.16123,-0.0207 -0.38447,-0.0207 -0.35967,0 -0.69453,0.16123 -0.33486,0.1571 -0.64492,0.40928 v 3.27835 h -0.77722 v -4.6178 h 0.77722 v 0.68213 q 0.46302,-0.37207 0.81442,-0.52504 0.35553,-0.15709 0.72347,-0.15709 0.20257,0 0.29352,0.0124 0.0909,0.008 0.27285,0.0372 z" />
      </g>
      <g
         id="text4579"
         style="font-style:normal;font-weight:normal;font-size:10.58333302px;line-height:1.25;font-family:sans-serif;letter-spacing:0px;word-spacing:0px;fill:#000000;fill-opacity:1;stroke:none;stroke-width:0.26458332"
         aria-label="Inicializar">
        <path
           id="path987"
           style="font-style:normal;font-variant:normal;font-weight:normal;font-stretch:normal;font-size:8.46666622px;font-family:sans-serif;-inkscape-font-specification:sans-serif;stroke-width:0.26458332"
           d="m 172.5005,250.74054 h -2.43086 v -0.62839 h 0.80615 v -4.89892 h -0.80615 v -0.62839 h 2.43086 v 0.62839 h -0.80615 v 4.89892 h 0.80615 z" />
        <path
           id="path989"
           style="font-style:normal;font-variant:normal;font-weight:normal;font-stretch:normal;font-size:8.46666622px;font-family:sans-serif;-inkscape-font-specification:sans-serif;stroke-width:0.26458332"
           d="M 177.70121,250.74054 H 176.924 v -2.6293 q 0,-0.31832 -0.0372,-0.59531 -0.0372,-0.28112 -0.13642,-0.43822 -0.10335,-0.17363 -0.29766,-0.25631 -0.1943,-0.0868 -0.50436,-0.0868 -0.31833,0 -0.66559,0.1571 -0.34727,0.1571 -0.6656,0.40101 v 3.44785 h -0.77721 v -4.61781 h 0.77721 v 0.51263 q 0.36381,-0.30179 0.75241,-0.47129 0.38861,-0.16949 0.79789,-0.16949 0.74827,0 1.14101,0.45061 0.39274,0.45062 0.39274,1.29812 z" />
        <path
           id="path991"
           style="font-style:normal;font-variant:normal;font-weight:normal;font-stretch:normal;font-size:8.46666622px;font-family:sans-serif;-inkscape-font-specification:sans-serif;stroke-width:0.26458332"
           d="m 180.03286,245.34965 h -0.87644 v -0.80615 h 0.87644 z m -0.0496,5.39089 h -0.77722 v -4.61781 h 0.77722 z" />
        <path
           id="path993"
           style="font-style:normal;font-variant:normal;font-weight:normal;font-stretch:normal;font-size:8.46666622px;font-family:sans-serif;-inkscape-font-specification:sans-serif;stroke-width:0.26458332"
           d="m 184.94418,250.45115 q -0.3886,0.18604 -0.74,0.28939 -0.34727,0.10335 -0.74001,0.10335 -0.50023,0 -0.91777,-0.14469 -0.41755,-0.14883 -0.71521,-0.44649 -0.30179,-0.29765 -0.46715,-0.7524 -0.16536,-0.45476 -0.16536,-1.06247 0,-1.13275 0.62011,-1.77767 0.62425,-0.64492 1.64538,-0.64492 0.39687,0 0.77721,0.11162 0.38448,0.11162 0.7028,0.27285 v 0.86403 h -0.0413 q -0.35553,-0.27699 -0.73587,-0.42581 -0.37621,-0.14883 -0.73587,-0.14883 -0.66146,0 -1.04593,0.44648 -0.38034,0.44235 -0.38034,1.30225 0,0.83509 0.37207,1.28571 0.3762,0.44648 1.0542,0.44648 0.23564,0 0.47955,-0.062 0.24392,-0.062 0.43822,-0.16123 0.1695,-0.0868 0.31833,-0.1819 0.14883,-0.0992 0.23564,-0.1695 h 0.0413 z" />
        <path
           id="path995"
           style="font-style:normal;font-variant:normal;font-weight:normal;font-stretch:normal;font-size:8.46666622px;font-family:sans-serif;-inkscape-font-specification:sans-serif;stroke-width:0.26458332"
           d="m 186.77973,245.34965 h -0.87643 v -0.80615 h 0.87643 z m -0.0496,5.39089 h -0.77721 v -4.61781 h 0.77721 z" />
        <path
           id="path997"
           style="font-style:normal;font-variant:normal;font-weight:normal;font-stretch:normal;font-size:8.46666622px;font-family:sans-serif;-inkscape-font-specification:sans-serif;stroke-width:0.26458332"
           d="m 191.86469,250.74054 h -0.77308 v -0.49196 q -0.10335,0.0703 -0.28112,0.19844 -0.17363,0.12402 -0.339,0.19843 -0.1943,0.0951 -0.44648,0.1571 -0.25218,0.0661 -0.59118,0.0661 -0.62425,0 -1.05833,-0.41341 -0.43409,-0.41342 -0.43409,-1.0542 0,-0.52504 0.22325,-0.8475 0.22737,-0.32659 0.64492,-0.51263 0.42168,-0.18603 1.01286,-0.25218 0.59118,-0.0661 1.26917,-0.0992 v -0.11989 q 0,-0.26458 -0.0951,-0.43821 -0.091,-0.17364 -0.26459,-0.27285 -0.16536,-0.0951 -0.39687,-0.12816 -0.23151,-0.0331 -0.48369,-0.0331 -0.30593,0 -0.68213,0.0827 -0.37621,0.0786 -0.77722,0.23151 h -0.0413 v -0.78962 q 0.22738,-0.062 0.65733,-0.13642 0.42994,-0.0744 0.84749,-0.0744 0.48783,0 0.84749,0.0827 0.36381,0.0785 0.62839,0.27285 0.26045,0.19017 0.39687,0.49196 0.13643,0.30179 0.13643,0.74827 z m -0.77308,-1.13688 v -1.28571 q -0.35553,0.0207 -0.83923,0.062 -0.47955,0.0413 -0.76067,0.11989 -0.33487,0.0951 -0.54157,0.29766 -0.20671,0.19843 -0.20671,0.54983 0,0.39688 0.23978,0.59945 0.23978,0.19844 0.73174,0.19844 0.40928,0 0.74827,-0.1571 0.339,-0.16123 0.62839,-0.38447 z" />
        <path
           id="path999"
           style="font-style:normal;font-variant:normal;font-weight:normal;font-stretch:normal;font-size:8.46666622px;font-family:sans-serif;-inkscape-font-specification:sans-serif;stroke-width:0.26458332"
           d="m 194.15499,250.74054 h -0.77721 v -6.43268 h 0.77721 z" />
        <path
           id="path1001"
           style="font-style:normal;font-variant:normal;font-weight:normal;font-stretch:normal;font-size:8.46666622px;font-family:sans-serif;-inkscape-font-specification:sans-serif;stroke-width:0.26458332"
           d="m 196.53624,245.34965 h -0.87643 v -0.80615 h 0.87643 z m -0.0496,5.39089 h -0.77721 v -4.61781 h 0.77721 z" />
        <path
           id="path1003"
           style="font-style:normal;font-variant:normal;font-weight:normal;font-stretch:normal;font-size:8.46666622px;font-family:sans-serif;-inkscape-font-specification:sans-serif;stroke-width:0.26458332"
           d="m 201.38142,250.74054 h -3.72897 v -0.57464 l 2.69131,-3.39411 h -2.63343 v -0.64906 h 3.60081 v 0.55398 l -2.70371,3.40651 h 2.77399 z" />
        <path
           id="path1005"
           style="font-style:normal;font-variant:normal;font-weight:normal;font-stretch:normal;font-size:8.46666622px;font-family:sans-serif;-inkscape-font-specification:sans-serif;stroke-width:0.26458332"
           d="m 206.06951,250.74054 h -0.77308 v -0.49196 q -0.10335,0.0703 -0.28112,0.19844 -0.17363,0.12402 -0.339,0.19843 -0.1943,0.0951 -0.44648,0.1571 -0.25218,0.0661 -0.59118,0.0661 -0.62425,0 -1.05833,-0.41341 -0.43409,-0.41342 -0.43409,-1.0542 0,-0.52504 0.22325,-0.8475 0.22737,-0.32659 0.64492,-0.51263 0.42168,-0.18603 1.01286,-0.25218 0.59117,-0.0661 1.26917,-0.0992 v -0.11989 q 0,-0.26458 -0.0951,-0.43821 -0.0909,-0.17364 -0.26458,-0.27285 -0.16536,-0.0951 -0.39687,-0.12816 -0.23151,-0.0331 -0.4837,-0.0331 -0.30592,0 -0.68212,0.0827 -0.37621,0.0786 -0.77722,0.23151 h -0.0413 v -0.78962 q 0.22738,-0.062 0.65733,-0.13642 0.42994,-0.0744 0.84749,-0.0744 0.48782,0 0.84749,0.0827 0.3638,0.0785 0.62839,0.27285 0.26045,0.19017 0.39687,0.49196 0.13643,0.30179 0.13643,0.74827 z m -0.77308,-1.13688 v -1.28571 q -0.35554,0.0207 -0.83923,0.062 -0.47955,0.0413 -0.76067,0.11989 -0.33487,0.0951 -0.54157,0.29766 -0.20671,0.19843 -0.20671,0.54983 0,0.39688 0.23978,0.59945 0.23978,0.19844 0.73174,0.19844 0.40928,0 0.74827,-0.1571 0.339,-0.16123 0.62839,-0.38447 z" />
        <path
           id="path1007"
           style="font-style:normal;font-variant:normal;font-weight:normal;font-stretch:normal;font-size:8.46666622px;font-family:sans-serif;-inkscape-font-specification:sans-serif;stroke-width:0.26458332"
           d="m 210.4558,246.97023 h -0.0413 q -0.17363,-0.0413 -0.339,-0.0579 -0.16123,-0.0207 -0.38447,-0.0207 -0.35967,0 -0.69453,0.16123 -0.33486,0.1571 -0.64492,0.40928 v 3.27835 h -0.77722 v -4.61781 h 0.77722 v 0.68213 q 0.46302,-0.37207 0.81442,-0.52503 0.35553,-0.1571 0.72347,-0.1571 0.20257,0 0.29352,0.0124 0.0909,0.008 0.27285,0.0372 z" />
      </g>
      <g
         id="text4583"
         style="font-style:normal;font-weight:normal;font-size:10.58333302px;line-height:1.25;font-family:sans-serif;letter-spacing:0px;word-spacing:0px;fill:#000000;fill-opacity:1;stroke:none;stroke-width:0.26458332"
         aria-label="Verificar">
        <path
           id="path968"
           style="font-style:normal;font-variant:normal;font-weight:normal;font-stretch:normal;font-size:8.46666622px;font-family:sans-serif;-inkscape-font-specification:sans-serif;stroke-width:0.26458332"
           d="m 175.64243,264.16404 -2.24069,6.15569 h -1.0914 l -2.24069,-6.15569 h 0.87643 l 1.93063,5.41569 1.93063,-5.41569 z" />
        <path
           id="path970"
           style="font-style:normal;font-variant:normal;font-weight:normal;font-stretch:normal;font-size:8.46666622px;font-family:sans-serif;-inkscape-font-specification:sans-serif;stroke-width:0.26458332"
           d="m 179.96671,268.09145 h -3.40237 q 0,0.42581 0.12816,0.74414 0.12815,0.31419 0.3514,0.51676 0.21497,0.19844 0.50849,0.29766 0.29766,0.0992 0.65319,0.0992 0.47129,0 0.94671,-0.18603 0.47956,-0.19017 0.68213,-0.37207 h 0.0413 v 0.84749 q -0.39274,0.16537 -0.80201,0.27699 -0.40928,0.11162 -0.8599,0.11162 -1.14928,0 -1.79421,-0.62012 -0.64492,-0.62425 -0.64492,-1.7694 0,-1.13275 0.61599,-1.79834 0.62011,-0.66559 1.62884,-0.66559 0.93431,0 1.43867,0.5457 0.50849,0.54571 0.50849,1.5503 z m -0.75654,-0.59532 q -0.004,-0.61185 -0.31006,-0.94671 -0.30179,-0.33486 -0.9219,-0.33486 -0.62426,0 -0.99633,0.36793 -0.36793,0.36794 -0.41754,0.91364 z" />
        <path
           id="path972"
           style="font-style:normal;font-variant:normal;font-weight:normal;font-stretch:normal;font-size:8.46666622px;font-family:sans-serif;-inkscape-font-specification:sans-serif;stroke-width:0.26458332"
           d="m 184.02642,266.54942 h -0.0413 q -0.17363,-0.0413 -0.33899,-0.0579 -0.16123,-0.0207 -0.38448,-0.0207 -0.35966,0 -0.69453,0.16123 -0.33486,0.1571 -0.64492,0.40928 v 3.27835 h -0.77721 v -4.6178 h 0.77721 v 0.68213 q 0.46302,-0.37207 0.81442,-0.52504 0.35554,-0.15709 0.72347,-0.15709 0.20257,0 0.29352,0.0124 0.091,0.008 0.27286,0.0372 z" />
        <path
           id="path974"
           style="font-style:normal;font-variant:normal;font-weight:normal;font-stretch:normal;font-size:8.46666622px;font-family:sans-serif;-inkscape-font-specification:sans-serif;stroke-width:0.26458332"
           d="m 185.60151,264.92885 h -0.87643 v -0.80615 h 0.87643 z m -0.0496,5.39088 h -0.77721 v -4.6178 h 0.77721 z" />
        <path
           id="path976"
           style="font-style:normal;font-variant:normal;font-weight:normal;font-stretch:normal;font-size:8.46666622px;font-family:sans-serif;-inkscape-font-specification:sans-serif;stroke-width:0.26458332"
           d="m 189.58267,264.63946 h -0.0413 q -0.12815,-0.0372 -0.33486,-0.0744 -0.2067,-0.0413 -0.3638,-0.0413 -0.50023,0 -0.7276,0.22325 -0.22325,0.2191 -0.22325,0.79788 v 0.1571 h 1.40147 v 0.65319 h -1.37666 v 3.96461 h -0.77722 v -3.96461 h -0.52503 v -0.65319 h 0.52503 v -0.15297 q 0,-0.82268 0.40928,-1.2609 0.40928,-0.44235 1.18236,-0.44235 0.26045,0 0.46715,0.0248 0.21084,0.0248 0.38448,0.0579 z" />
        <path
           id="path978"
           style="font-style:normal;font-variant:normal;font-weight:normal;font-stretch:normal;font-size:8.46666622px;font-family:sans-serif;-inkscape-font-specification:sans-serif;stroke-width:0.26458332"
           d="m 190.90972,264.92885 h -0.87644 v -0.80615 h 0.87644 z m -0.0496,5.39088 h -0.77722 v -4.6178 h 0.77722 z" />
        <path
           id="path980"
           style="font-style:normal;font-variant:normal;font-weight:normal;font-stretch:normal;font-size:8.46666622px;font-family:sans-serif;-inkscape-font-specification:sans-serif;stroke-width:0.26458332"
           d="m 195.82104,270.03034 q -0.3886,0.18604 -0.74,0.28939 -0.34727,0.10336 -0.74001,0.10336 -0.50023,0 -0.91777,-0.1447 -0.41755,-0.14883 -0.7152,-0.44648 -0.30179,-0.29766 -0.46716,-0.75241 -0.16536,-0.45475 -0.16536,-1.06247 0,-1.13275 0.62011,-1.77767 0.62426,-0.64492 1.64538,-0.64492 0.39688,0 0.77721,0.11162 0.38448,0.11162 0.7028,0.27285 v 0.86403 h -0.0413 q -0.35553,-0.27698 -0.73587,-0.42581 -0.3762,-0.14883 -0.73587,-0.14883 -0.66146,0 -1.04593,0.44648 -0.38034,0.44236 -0.38034,1.30225 0,0.83509 0.37207,1.28571 0.3762,0.44648 1.0542,0.44648 0.23564,0 0.47956,-0.062 0.24391,-0.062 0.43821,-0.16123 0.1695,-0.0868 0.31833,-0.1819 0.14883,-0.0992 0.23564,-0.1695 h 0.0413 z" />
        <path
           id="path982"
           style="font-style:normal;font-variant:normal;font-weight:normal;font-stretch:normal;font-size:8.46666622px;font-family:sans-serif;-inkscape-font-specification:sans-serif;stroke-width:0.26458332"
           d="m 200.40991,270.31973 h -0.77308 v -0.49196 q -0.10335,0.0703 -0.28112,0.19844 -0.17363,0.12402 -0.339,0.19844 -0.1943,0.0951 -0.44648,0.15709 -0.25218,0.0661 -0.59118,0.0661 -0.62425,0 -1.05833,-0.41341 -0.43408,-0.41341 -0.43408,-1.0542 0,-0.52503 0.22324,-0.84749 0.22737,-0.3266 0.64492,-0.51263 0.42168,-0.18604 1.01286,-0.25218 0.59118,-0.0661 1.26917,-0.0992 v -0.11989 q 0,-0.26459 -0.0951,-0.43822 -0.091,-0.17363 -0.26459,-0.27285 -0.16536,-0.0951 -0.39687,-0.12816 -0.23151,-0.0331 -0.48369,-0.0331 -0.30593,0 -0.68213,0.0827 -0.37621,0.0786 -0.77722,0.23151 h -0.0413 v -0.78961 q 0.22738,-0.062 0.65733,-0.13643 0.42995,-0.0744 0.84749,-0.0744 0.48783,0 0.84749,0.0827 0.36381,0.0785 0.62839,0.27285 0.26045,0.19017 0.39687,0.49196 0.13643,0.30179 0.13643,0.74827 z m -0.77308,-1.13688 v -1.28571 q -0.35553,0.0207 -0.83922,0.062 -0.47956,0.0413 -0.76068,0.11989 -0.33486,0.0951 -0.54157,0.29766 -0.20671,0.19844 -0.20671,0.54984 0,0.39687 0.23978,0.59944 0.23978,0.19844 0.73174,0.19844 0.40928,0 0.74828,-0.1571 0.33899,-0.16123 0.62838,-0.38447 z" />
        <path
           id="path984"
           style="font-style:normal;font-variant:normal;font-weight:normal;font-stretch:normal;font-size:8.46666622px;font-family:sans-serif;-inkscape-font-specification:sans-serif;stroke-width:0.26458332"
           d="m 204.79621,266.54942 h -0.0413 q -0.17364,-0.0413 -0.339,-0.0579 -0.16123,-0.0207 -0.38447,-0.0207 -0.35967,0 -0.69454,0.16123 -0.33486,0.1571 -0.64492,0.40928 v 3.27835 h -0.77721 v -4.6178 h 0.77721 v 0.68213 q 0.46302,-0.37207 0.81442,-0.52504 0.35554,-0.15709 0.72347,-0.15709 0.20257,0 0.29352,0.0124 0.091,0.008 0.27286,0.0372 z" />
      </g>
      <g
         id="text4587"
         style="font-style:normal;font-weight:normal;font-size:10.58333302px;line-height:1.25;font-family:sans-serif;letter-spacing:0px;word-spacing:0px;fill:#000000;fill-opacity:1;stroke:none;stroke-width:0.26458332"
         aria-label="Fin del programa">
        <path
           id="path939"
           style="font-style:normal;font-variant:normal;font-weight:normal;font-stretch:normal;font-size:8.46666622px;font-family:sans-serif;-inkscape-font-specification:sans-serif;stroke-width:0.26458332"
           d="m 174.00119,283.41248 h -3.11298 v 1.73633 h 2.67477 v 0.72761 h -2.67477 v 2.96416 h -0.81856 v -6.1557 h 3.93154 z" />
        <path
           id="path941"
           style="font-style:normal;font-variant:normal;font-weight:normal;font-stretch:normal;font-size:8.46666622px;font-family:sans-serif;-inkscape-font-specification:sans-serif;stroke-width:0.26458332"
           d="m 175.70445,283.44969 h -0.87643 v -0.80615 h 0.87643 z m -0.0496,5.39089 h -0.77721 v -4.61781 h 0.77721 z" />
        <path
           id="path943"
           style="font-style:normal;font-variant:normal;font-weight:normal;font-stretch:normal;font-size:8.46666622px;font-family:sans-serif;-inkscape-font-specification:sans-serif;stroke-width:0.26458332"
           d="m 181.06226,288.84058 h -0.77721 v -2.6293 q 0,-0.31833 -0.0372,-0.59531 -0.0372,-0.28112 -0.13642,-0.43822 -0.10336,-0.17363 -0.29766,-0.25631 -0.1943,-0.0868 -0.50436,-0.0868 -0.31833,0 -0.6656,0.1571 -0.34726,0.15709 -0.66559,0.401 v 3.44786 H 177.201 v -4.61781 h 0.77721 v 0.51263 q 0.3638,-0.30179 0.75241,-0.47129 0.38861,-0.1695 0.79789,-0.1695 0.74827,0 1.14101,0.45062 0.39274,0.45062 0.39274,1.29811 z" />
        <path
           id="path945"
           style="font-style:normal;font-variant:normal;font-weight:normal;font-stretch:normal;font-size:8.46666622px;font-family:sans-serif;-inkscape-font-specification:sans-serif;stroke-width:0.26458332"
           d="m 189.28088,288.84058 h -0.77721 v -0.4837 q -0.33487,0.28939 -0.69867,0.45062 -0.3638,0.16123 -0.78961,0.16123 -0.82683,0 -1.31465,-0.63665 -0.48369,-0.63665 -0.48369,-1.76527 0,-0.58704 0.16536,-1.04593 0.1695,-0.45888 0.45475,-0.78135 0.28112,-0.31419 0.65319,-0.47955 0.37621,-0.16537 0.77722,-0.16537 0.3638,0 0.64492,0.0786 0.28112,0.0744 0.59118,0.23565 v -2.00092 h 0.77721 z m -0.77721,-1.13689 v -2.64996 q -0.3142,-0.14056 -0.56224,-0.19431 -0.24805,-0.0537 -0.54157,-0.0537 -0.65319,0 -1.01699,0.45475 -0.36381,0.45476 -0.36381,1.28985 0,0.82269 0.28112,1.25263 0.28112,0.42582 0.90124,0.42582 0.33073,0 0.66973,-0.1447 0.339,-0.14882 0.63252,-0.38034 z" />
        <path
           id="path947"
           style="font-style:normal;font-variant:normal;font-weight:normal;font-stretch:normal;font-size:8.46666622px;font-family:sans-serif;-inkscape-font-specification:sans-serif;stroke-width:0.26458332"
           d="m 194.6759,286.61229 h -3.40238 q 0,0.42581 0.12816,0.74414 0.12816,0.31419 0.3514,0.51676 0.21498,0.19844 0.5085,0.29766 0.29765,0.0992 0.65319,0.0992 0.47129,0 0.94671,-0.18604 0.47956,-0.19017 0.68213,-0.37207 h 0.0413 v 0.8475 q -0.39274,0.16536 -0.80202,0.27698 -0.40928,0.11162 -0.85989,0.11162 -1.14929,0 -1.79421,-0.62011 -0.64492,-0.62426 -0.64492,-1.7694 0,-1.13275 0.61598,-1.79834 0.62012,-0.6656 1.62884,-0.6656 0.93431,0 1.43867,0.54571 0.5085,0.5457 0.5085,1.55029 z m -0.75654,-0.59531 q -0.004,-0.61185 -0.31006,-0.94672 -0.30179,-0.33486 -0.92191,-0.33486 -0.62425,0 -0.99632,0.36794 -0.36794,0.36793 -0.41755,0.91364 z" />
        <path
           id="path949"
           style="font-style:normal;font-variant:normal;font-weight:normal;font-stretch:normal;font-size:8.46666622px;font-family:sans-serif;-inkscape-font-specification:sans-serif;stroke-width:0.26458332"
           d="m 196.6396,288.84058 h -0.77721 v -6.43269 h 0.77721 z" />
        <path
           id="path951"
           style="font-style:normal;font-variant:normal;font-weight:normal;font-stretch:normal;font-size:8.46666622px;font-family:sans-serif;-inkscape-font-specification:sans-serif;stroke-width:0.26458332"
           d="m 205.22616,286.47586 q 0,0.56224 -0.16123,1.0294 -0.16123,0.46302 -0.45475,0.78548 -0.27285,0.30592 -0.64492,0.47542 -0.36794,0.16537 -0.78135,0.16537 -0.35967,0 -0.65319,-0.0786 -0.28939,-0.0786 -0.59118,-0.24391 v 1.93476 h -0.77721 v -6.32106 h 0.77721 v 0.48369 q 0.31006,-0.26045 0.69453,-0.43408 0.38861,-0.17777 0.82682,-0.17777 0.83509,0 1.29811,0.63252 0.46716,0.62839 0.46716,1.74873 z m -0.80202,0.0207 q 0,-0.83509 -0.28525,-1.2485 -0.28526,-0.41341 -0.87643,-0.41341 -0.33487,0 -0.67387,0.14469 -0.33899,0.1447 -0.64905,0.38034 v 2.6169 q 0.33073,0.14882 0.56637,0.20257 0.23978,0.0537 0.54157,0.0537 0.64906,0 1.01286,-0.43821 0.3638,-0.43822 0.3638,-1.29812 z" />
        <path
           id="path953"
           style="font-style:normal;font-variant:normal;font-weight:normal;font-stretch:normal;font-size:8.46666622px;font-family:sans-serif;-inkscape-font-specification:sans-serif;stroke-width:0.26458332"
           d="m 209.31893,285.07026 h -0.0413 q -0.17363,-0.0413 -0.33899,-0.0579 -0.16123,-0.0207 -0.38448,-0.0207 -0.35966,0 -0.69453,0.16123 -0.33486,0.15709 -0.64492,0.40927 v 3.27836 h -0.77721 v -4.61781 h 0.77721 v 0.68213 q 0.46302,-0.37207 0.81442,-0.52503 0.35553,-0.1571 0.72347,-0.1571 0.20257,0 0.29352,0.0124 0.091,0.008 0.27285,0.0372 z" />
        <path
           id="path955"
           style="font-style:normal;font-variant:normal;font-weight:normal;font-stretch:normal;font-size:8.46666622px;font-family:sans-serif;-inkscape-font-specification:sans-serif;stroke-width:0.26458332"
           d="m 213.99462,286.53374 q 0,1.12861 -0.57878,1.7818 -0.57878,0.65319 -1.55029,0.65319 -0.97979,0 -1.55856,-0.65319 -0.57465,-0.65319 -0.57465,-1.7818 0,-1.12861 0.57465,-1.7818 0.57877,-0.65733 1.55856,-0.65733 0.97151,0 1.55029,0.65733 0.57878,0.65319 0.57878,1.7818 z m -0.80202,0 q 0,-0.8971 -0.3514,-1.33118 -0.3514,-0.43822 -0.97565,-0.43822 -0.63252,0 -0.98392,0.43822 -0.34727,0.43408 -0.34727,1.33118 0,0.86816 0.3514,1.31878 0.3514,0.44649 0.97979,0.44649 0.62011,0 0.97151,-0.44235 0.35554,-0.44649 0.35554,-1.32292 z" />
        <path
           id="path957"
           style="font-style:normal;font-variant:normal;font-weight:normal;font-stretch:normal;font-size:8.46666622px;font-family:sans-serif;-inkscape-font-specification:sans-serif;stroke-width:0.26458332"
           d="m 218.94728,288.31554 q 0,1.17409 -0.5333,1.72393 -0.5333,0.54984 -1.64124,0.54984 -0.36794,0 -0.71934,-0.0538 -0.34726,-0.0496 -0.68626,-0.14469 v -0.79375 h 0.0413 q 0.19017,0.0744 0.60358,0.1819 0.41341,0.11162 0.82683,0.11162 0.39687,0 0.65732,-0.0951 0.26045,-0.0951 0.40514,-0.26459 0.1447,-0.16123 0.20671,-0.3886 0.062,-0.22738 0.062,-0.5085 v -0.42168 q -0.3514,0.28112 -0.67386,0.42168 -0.31833,0.13643 -0.81442,0.13643 -0.82682,0 -1.31465,-0.59532 -0.48369,-0.59944 -0.48369,-1.68671 0,-0.59532 0.16536,-1.02527 0.1695,-0.43408 0.45889,-0.74827 0.26872,-0.29352 0.65319,-0.45475 0.38447,-0.16537 0.76481,-0.16537 0.40101,0 0.66973,0.0827 0.27285,0.0785 0.57464,0.24391 l 0.0496,-0.19844 h 0.7276 z m -0.77721,-0.74414 v -2.51767 q -0.31006,-0.14056 -0.57877,-0.19844 -0.26459,-0.062 -0.52917,-0.062 -0.64079,0 -1.00873,0.42995 -0.36793,0.42994 -0.36793,1.2485 0,0.77721 0.27285,1.17822 0.27285,0.40101 0.90537,0.40101 0.339,0 0.678,-0.12816 0.34313,-0.13229 0.62838,-0.3514 z" />
        <path
           id="path959"
           style="font-style:normal;font-variant:normal;font-weight:normal;font-stretch:normal;font-size:8.46666622px;font-family:sans-serif;-inkscape-font-specification:sans-serif;stroke-width:0.26458332"
           d="m 223.35839,285.07026 h -0.0414 q -0.17363,-0.0413 -0.33899,-0.0579 -0.16123,-0.0207 -0.38448,-0.0207 -0.35966,0 -0.69453,0.16123 -0.33486,0.15709 -0.64492,0.40927 v 3.27836 h -0.77721 v -4.61781 h 0.77721 v 0.68213 q 0.46302,-0.37207 0.81442,-0.52503 0.35554,-0.1571 0.72347,-0.1571 0.20257,0 0.29352,0.0124 0.091,0.008 0.27286,0.0372 z" />
        <path
           id="path961"
           style="font-style:normal;font-variant:normal;font-weight:normal;font-stretch:normal;font-size:8.46666622px;font-family:sans-serif;-inkscape-font-specification:sans-serif;stroke-width:0.26458332"
           d="m 227.53798,288.84058 h -0.77308 v -0.49196 q -0.10336,0.0703 -0.28112,0.19843 -0.17364,0.12403 -0.339,0.19844 -0.1943,0.0951 -0.44649,0.1571 -0.25218,0.0661 -0.59117,0.0661 -0.62425,0 -1.05834,-0.41341 -0.43408,-0.41341 -0.43408,-1.0542 0,-0.52503 0.22324,-0.84749 0.22738,-0.3266 0.64493,-0.51263 0.42167,-0.18604 1.01285,-0.25218 0.59118,-0.0661 1.26918,-0.0992 v -0.11989 q 0,-0.26458 -0.0951,-0.43822 -0.091,-0.17363 -0.26458,-0.27285 -0.16537,-0.0951 -0.39688,-0.12815 -0.23151,-0.0331 -0.48369,-0.0331 -0.30592,0 -0.68213,0.0827 -0.3762,0.0786 -0.77721,0.23152 h -0.0413 v -0.78962 q 0.22737,-0.062 0.65732,-0.13643 0.42995,-0.0744 0.8475,-0.0744 0.48782,0 0.84749,0.0827 0.3638,0.0786 0.62839,0.27285 0.26044,0.19017 0.39687,0.49196 0.13643,0.30179 0.13643,0.74828 z m -0.77308,-1.13689 v -1.2857 q -0.35554,0.0207 -0.83923,0.062 -0.47956,0.0413 -0.76068,0.11989 -0.33486,0.0951 -0.54156,0.29765 -0.20671,0.19844 -0.20671,0.54984 0,0.39687 0.23978,0.59945 0.23978,0.19843 0.73174,0.19843 0.40927,0 0.74827,-0.15709 0.339,-0.16123 0.62839,-0.38448 z" />
        <path
           id="path963"
           style="font-style:normal;font-variant:normal;font-weight:normal;font-stretch:normal;font-size:8.46666622px;font-family:sans-serif;-inkscape-font-specification:sans-serif;stroke-width:0.26458332"
           d="m 235.7814,288.84058 h -0.77722 v -2.6293 q 0,-0.29766 -0.0289,-0.57464 -0.0248,-0.27699 -0.11163,-0.44235 -0.0951,-0.17777 -0.27285,-0.26872 -0.17776,-0.091 -0.51263,-0.091 -0.32659,0 -0.65319,0.16536 -0.32659,0.16123 -0.65319,0.41342 0.0124,0.0951 0.0207,0.22324 0.008,0.12402 0.008,0.24804 v 2.9559 h -0.77721 v -2.6293 q 0,-0.30593 -0.0289,-0.57878 -0.0248,-0.27698 -0.11162,-0.44235 -0.0951,-0.17776 -0.27285,-0.26458 -0.17777,-0.091 -0.51263,-0.091 -0.31833,0 -0.64079,0.1571 -0.31833,0.15709 -0.63665,0.401 v 3.44786 h -0.77722 v -4.61781 h 0.77722 v 0.51263 q 0.3638,-0.30179 0.72347,-0.47129 0.3638,-0.1695 0.77307,-0.1695 0.47129,0 0.79789,0.19844 0.33073,0.19844 0.49196,0.54984 0.47129,-0.39688 0.85989,-0.57051 0.38861,-0.17777 0.83096,-0.17777 0.76068,0 1.12035,0.46302 0.3638,0.45889 0.3638,1.28571 z" />
        <path
           id="path965"
           style="font-style:normal;font-variant:normal;font-weight:normal;font-stretch:normal;font-size:8.46666622px;font-family:sans-serif;-inkscape-font-specification:sans-serif;stroke-width:0.26458332"
           d="m 240.86636,288.84058 h -0.77308 v -0.49196 q -0.10335,0.0703 -0.28112,0.19843 -0.17363,0.12403 -0.339,0.19844 -0.1943,0.0951 -0.44648,0.1571 -0.25218,0.0661 -0.59118,0.0661 -0.62425,0 -1.05833,-0.41341 -0.43408,-0.41341 -0.43408,-1.0542 0,-0.52503 0.22324,-0.84749 0.22737,-0.3266 0.64492,-0.51263 0.42168,-0.18604 1.01286,-0.25218 0.59118,-0.0661 1.26917,-0.0992 v -0.11989 q 0,-0.26458 -0.0951,-0.43822 -0.0909,-0.17363 -0.26459,-0.27285 -0.16536,-0.0951 -0.39687,-0.12815 -0.23151,-0.0331 -0.48369,-0.0331 -0.30593,0 -0.68213,0.0827 -0.37621,0.0786 -0.77722,0.23152 h -0.0413 v -0.78962 q 0.22738,-0.062 0.65733,-0.13643 0.42995,-0.0744 0.84749,-0.0744 0.48783,0 0.84749,0.0827 0.36381,0.0786 0.62839,0.27285 0.26045,0.19017 0.39687,0.49196 0.13643,0.30179 0.13643,0.74828 z m -0.77308,-1.13689 v -1.2857 q -0.35553,0.0207 -0.83922,0.062 -0.47956,0.0413 -0.76068,0.11989 -0.33486,0.0951 -0.54157,0.29765 -0.20671,0.19844 -0.20671,0.54984 0,0.39687 0.23978,0.59945 0.23978,0.19843 0.73174,0.19843 0.40928,0 0.74828,-0.15709 0.33899,-0.16123 0.62838,-0.38448 z" />
      </g>
    </g>
  </g>
</svg>
