<?xml version="1.0" encoding="UTF-8" standalone="no"?>
<!-- Created with Inkscape (http://www.inkscape.org/) -->

<svg
   xmlns:dc="http://purl.org/dc/elements/1.1/"
   xmlns:cc="http://creativecommons.org/ns#"
   xmlns:rdf="http://www.w3.org/1999/02/22-rdf-syntax-ns#"
   xmlns:svg="http://www.w3.org/2000/svg"
   xmlns="http://www.w3.org/2000/svg"
   xmlns:sodipodi="http://sodipodi.sourceforge.net/DTD/sodipodi-0.dtd"
   xmlns:inkscape="http://www.inkscape.org/namespaces/inkscape"
   width="164mm"
   height="78mm"
   viewBox="0 0 164 78"
   version="1.1"
   id="svg8"
   inkscape:version="0.92.4 (5da689c313, 2019-01-14)"
   sodipodi:docname="c01-p03-i04.svg">
  <defs
     id="defs2">
    <marker
       inkscape:stockid="TriangleOutM"
       orient="auto"
       refY="0"
       refX="0"
       id="marker1987"
       style="overflow:visible"
       inkscape:isstock="true">
      <path
         id="path1985"
         d="M 5.77,0 -2.88,5 V -5 Z"
         style="fill:#000000;fill-opacity:1;fill-rule:evenodd;stroke:#000000;stroke-width:1.00000003pt;stroke-opacity:1"
         transform="scale(0.4)"
         inkscape:connector-curvature="0" />
    </marker>
    <marker
       inkscape:stockid="Arrow2Lend"
       orient="auto"
       refY="0"
       refX="0"
       id="marker1767"
       style="overflow:visible"
       inkscape:isstock="true">
      <path
         id="path1765"
         style="fill:#000000;fill-opacity:1;fill-rule:evenodd;stroke:#000000;stroke-width:0.625;stroke-linejoin:round;stroke-opacity:1"
         d="M 8.7185878,4.0337352 -2.2072895,0.01601326 8.7185884,-4.0017078 c -1.7454984,2.3720609 -1.7354408,5.6174519 -6e-7,8.035443 z"
         transform="matrix(-1.1,0,0,-1.1,-1.1,0)"
         inkscape:connector-curvature="0" />
    </marker>
    <marker
       inkscape:stockid="Arrow2Lend"
       orient="auto"
       refY="0"
       refX="0"
       id="marker1667"
       style="overflow:visible"
       inkscape:isstock="true">
      <path
         id="path1665"
         style="fill:#000000;fill-opacity:1;fill-rule:evenodd;stroke:#000000;stroke-width:0.625;stroke-linejoin:round;stroke-opacity:1"
         d="M 8.7185878,4.0337352 -2.2072895,0.01601326 8.7185884,-4.0017078 c -1.7454984,2.3720609 -1.7354408,5.6174519 -6e-7,8.035443 z"
         transform="matrix(-1.1,0,0,-1.1,-1.1,0)"
         inkscape:connector-curvature="0" />
    </marker>
    <marker
       inkscape:stockid="Arrow2Mend"
       orient="auto"
       refY="0"
       refX="0"
       id="marker1609"
       style="overflow:visible"
       inkscape:isstock="true">
      <path
         id="path1607"
         style="fill:#000000;fill-opacity:1;fill-rule:evenodd;stroke:#000000;stroke-width:0.625;stroke-linejoin:round;stroke-opacity:1"
         d="M 8.7185878,4.0337352 -2.2072895,0.01601326 8.7185884,-4.0017078 c -1.7454984,2.3720609 -1.7354408,5.6174519 -6e-7,8.035443 z"
         transform="scale(-0.6)"
         inkscape:connector-curvature="0" />
    </marker>
    <marker
       inkscape:stockid="TriangleOutL"
       orient="auto"
       refY="0"
       refX="0"
       id="TriangleOutL"
       style="overflow:visible"
       inkscape:isstock="true">
      <path
         id="path1021"
         d="M 5.77,0 -2.88,5 V -5 Z"
         style="fill:#000000;fill-opacity:1;fill-rule:evenodd;stroke:#000000;stroke-width:1.00000003pt;stroke-opacity:1"
         transform="scale(0.8)"
         inkscape:connector-curvature="0" />
    </marker>
    <marker
       inkscape:stockid="TriangleOutM"
       orient="auto"
       refY="0"
       refX="0"
       id="TriangleOutM"
       style="overflow:visible"
       inkscape:isstock="true">
      <path
         id="path1024"
         d="M 5.77,0 -2.88,5 V -5 Z"
         style="fill:#000000;fill-opacity:1;fill-rule:evenodd;stroke:#000000;stroke-width:1.00000003pt;stroke-opacity:1"
         transform="scale(0.4)"
         inkscape:connector-curvature="0" />
    </marker>
    <marker
       inkscape:stockid="Arrow2Mend"
       orient="auto"
       refY="0"
       refX="0"
       id="marker1229"
       style="overflow:visible"
       inkscape:isstock="true">
      <path
         id="path1227"
         style="fill:#000000;fill-opacity:1;fill-rule:evenodd;stroke:#000000;stroke-width:0.625;stroke-linejoin:round;stroke-opacity:1"
         d="M 8.7185878,4.0337352 -2.2072895,0.01601326 8.7185884,-4.0017078 c -1.7454984,2.3720609 -1.7354408,5.6174519 -6e-7,8.035443 z"
         transform="scale(-0.6)"
         inkscape:connector-curvature="0" />
    </marker>
    <marker
       inkscape:stockid="Arrow2Mend"
       orient="auto"
       refY="0"
       refX="0"
       id="marker1195"
       style="overflow:visible"
       inkscape:isstock="true">
      <path
         id="path1193"
         style="fill:#000000;fill-opacity:1;fill-rule:evenodd;stroke:#000000;stroke-width:0.625;stroke-linejoin:round;stroke-opacity:1"
         d="M 8.7185878,4.0337352 -2.2072895,0.01601326 8.7185884,-4.0017078 c -1.7454984,2.3720609 -1.7354408,5.6174519 -6e-7,8.035443 z"
         transform="scale(-0.6)"
         inkscape:connector-curvature="0" />
    </marker>
    <marker
       inkscape:stockid="Arrow2Lend"
       orient="auto"
       refY="0"
       refX="0"
       id="Arrow2Lend"
       style="overflow:visible"
       inkscape:isstock="true">
      <path
         id="path900"
         style="fill:#000000;fill-opacity:1;fill-rule:evenodd;stroke:#000000;stroke-width:0.625;stroke-linejoin:round;stroke-opacity:1"
         d="M 8.7185878,4.0337352 -2.2072895,0.01601326 8.7185884,-4.0017078 c -1.7454984,2.3720609 -1.7354408,5.6174519 -6e-7,8.035443 z"
         transform="matrix(-1.1,0,0,-1.1,-1.1,0)"
         inkscape:connector-curvature="0" />
    </marker>
    <marker
       inkscape:stockid="Arrow2Mend"
       orient="auto"
       refY="0"
       refX="0"
       id="Arrow2Mend"
       style="overflow:visible"
       inkscape:isstock="true">
      <path
         id="path906"
         style="fill:#000000;fill-opacity:1;fill-rule:evenodd;stroke:#000000;stroke-width:0.625;stroke-linejoin:round;stroke-opacity:1"
         d="M 8.7185878,4.0337352 -2.2072895,0.01601326 8.7185884,-4.0017078 c -1.7454984,2.3720609 -1.7354408,5.6174519 -6e-7,8.035443 z"
         transform="scale(-0.6)"
         inkscape:connector-curvature="0" />
    </marker>
  </defs>
  <sodipodi:namedview
     id="base"
     pagecolor="#ffffff"
     bordercolor="#666666"
     borderopacity="1.0"
     inkscape:pageopacity="0.0"
     inkscape:pageshadow="2"
     inkscape:zoom="1.4"
     inkscape:cx="222.36043"
     inkscape:cy="217.59519"
     inkscape:document-units="mm"
     inkscape:current-layer="layer1"
     showgrid="false"
     showguides="true"
     inkscape:guide-bbox="true"
     inkscape:snap-global="false"
     inkscape:window-width="1920"
     inkscape:window-height="1017"
     inkscape:window-x="-8"
     inkscape:window-y="-8"
     inkscape:window-maximized="1" />
  <metadata
     id="metadata5">
    <rdf:RDF>
      <cc:Work
         rdf:about="">
        <dc:format>image/svg+xml</dc:format>
        <dc:type
           rdf:resource="http://purl.org/dc/dcmitype/StillImage" />
        <dc:title />
      </cc:Work>
    </rdf:RDF>
  </metadata>
  <g
     inkscape:label="Capa 1"
     inkscape:groupmode="layer"
     id="layer1"
     transform="translate(0,-219)">
    <g
       id="g1110">
      <g
         transform="translate(-20.501317,144.68843)"
         id="g2298">
        <path
           style="fill:none;stroke:#000000;stroke-width:0.40000001;stroke-linecap:butt;stroke-linejoin:miter;stroke-miterlimit:4;stroke-dasharray:none;stroke-opacity:1"
           d="M 78.052082,133.24181 69.264135,97.806546 h 22.910444 l 0.23386,-0.657345 5.326166,0.01181 0.15286,0.645535 h 84.864025 l -9.07143,35.151784"
           id="path828"
           inkscape:connector-curvature="0"
           sodipodi:nodetypes="cccccccc" />
        <path
           style="fill:none;stroke:#000000;stroke-width:0.40000001;stroke-linecap:butt;stroke-linejoin:miter;stroke-miterlimit:4;stroke-dasharray:none;stroke-opacity:1"
           d="m 69.209846,97.689616 0.145918,-1.033702 3.92437,-0.03055 0.425223,-4.015993 h -3.732515 l 0.233861,-1.370174 22.369488,0.0047 0.133609,0.76036 5.265891,-0.01178 0.332737,-0.75329 83.915752,-0.0067 0.29111,1.239236 h -2.78762 l -0.43704,0.385676 0.70871,3.791573 2.67351,0.0041 0.11812,1.058942"
           id="path832"
           inkscape:connector-curvature="0"
           sodipodi:nodetypes="ccccccccccccccccc" />
        <path
           style="opacity:1;fill:none;fill-opacity:1;stroke:#000000;stroke-width:0.40000001;stroke-linecap:round;stroke-linejoin:round;stroke-miterlimit:4;stroke-dasharray:none;stroke-dashoffset:0;stroke-opacity:1"
           d="m 161.66227,92.939713 h 16.15765 l 0.48869,3.207234 h -16.36285 z"
           id="rect834"
           inkscape:connector-curvature="0"
           sodipodi:nodetypes="ccccc" />
        <path
           style="fill:none;stroke:#000000;stroke-width:0.40000001;stroke-linecap:butt;stroke-linejoin:miter;stroke-miterlimit:4;stroke-dasharray:none;stroke-opacity:1"
           d="m 182.5153,92.471742 -0.0119,4.183159"
           id="path837"
           inkscape:connector-curvature="0"
           sodipodi:nodetypes="cc" />
        <path
           style="fill:none;stroke:#000000;stroke-width:0.26458332px;stroke-linecap:butt;stroke-linejoin:miter;stroke-opacity:1"
           d="m 180.10625,92.505402 0.7684,4.159382"
           id="path839"
           inkscape:connector-curvature="0" />
        <path
           style="fill:none;stroke:#000000;stroke-width:0.40000001;stroke-linecap:butt;stroke-linejoin:miter;stroke-miterlimit:4;stroke-dasharray:none;stroke-opacity:1"
           d="m 92.174579,97.70632 0.307106,-6.295053"
           id="path845"
           inkscape:connector-curvature="0"
           sodipodi:nodetypes="cc" />
        <path
           style="opacity:1;fill:none;fill-opacity:1;stroke:#000000;stroke-width:0.40000001;stroke-linecap:round;stroke-linejoin:round;stroke-miterlimit:4;stroke-dasharray:none;stroke-dashoffset:0;stroke-opacity:1"
           d="M 74.414062,93.270828 H 90.997766 L 90.761531,95.916662 74.177827,95.90485 Z"
           id="rect851"
           inkscape:connector-curvature="0"
           sodipodi:nodetypes="ccccc" />
        <path
           sodipodi:nodetypes="cc"
           inkscape:connector-curvature="0"
           id="path854"
           d="m 97.995416,97.70632 0.307106,-6.295053"
           style="fill:none;stroke:#000000;stroke-width:0.40000001;stroke-linecap:butt;stroke-linejoin:miter;stroke-miterlimit:4;stroke-dasharray:none;stroke-opacity:1" />
        <path
           style="fill:none;stroke:#000000;stroke-width:0.5;stroke-linecap:butt;stroke-linejoin:miter;stroke-miterlimit:4;stroke-dasharray:none;stroke-opacity:1"
           d="m 80.036457,93.436195 -0.236236,2.385976"
           id="path858"
           inkscape:connector-curvature="0" />
        <path
           inkscape:connector-curvature="0"
           id="path860"
           d="m 81.639685,93.363827 -0.26769,2.530712"
           style="fill:none;stroke:#000000;stroke-width:1.64445877;stroke-linecap:butt;stroke-linejoin:miter;stroke-miterlimit:4;stroke-dasharray:none;stroke-opacity:1" />
        <path
           style="fill:none;stroke:#000000;stroke-width:0.40000001;stroke-linecap:butt;stroke-linejoin:miter;stroke-miterlimit:4;stroke-dasharray:none;stroke-opacity:1"
           d="m 69.974502,92.622333 -0.0122,3.978498"
           id="path865"
           inkscape:connector-curvature="0"
           sodipodi:nodetypes="cc" />
        <path
           sodipodi:nodetypes="cc"
           inkscape:connector-curvature="0"
           id="path869"
           d="M 72.302955,92.630685 71.676542,96.65643"
           style="fill:none;stroke:#000000;stroke-width:0.26458332px;stroke-linecap:butt;stroke-linejoin:miter;stroke-opacity:1" />
        <ellipse
           style="opacity:1;fill:#000000;fill-opacity:1;stroke:#000000;stroke-width:0.43025565;stroke-linecap:round;stroke-linejoin:round;stroke-miterlimit:4;stroke-dasharray:none;stroke-dashoffset:0;stroke-opacity:1"
           id="path871"
           cx="77.92942"
           cy="103.31631"
           rx="1.9029214"
           ry="0.80620897" />
        <path
           style="opacity:1;fill:#000000;fill-opacity:1;stroke:#000000;stroke-width:0.26458332px;stroke-linecap:butt;stroke-linejoin:miter;stroke-opacity:1"
           d="m 77.62686,108.1064 0.637834,3.68526 h 2.102494 l -0.519717,-3.70888 h 1.133928 l 0.01838,-0.51089 -2.404358,-1.87509 h -0.732329 l -1.954991,1.81364 -0.01757,0.56053 z"
           id="path873"
           inkscape:connector-curvature="0"
           sodipodi:nodetypes="ccccccccccc" />
        <g
           id="g2067"
           transform="translate(0.09449405,-0.51971726)">
          <path
             sodipodi:nodetypes="cc"
             inkscape:connector-curvature="0"
             id="path877"
             d="m 80.982666,80.645316 v 7.884451"
             style="fill:none;stroke:#000000;stroke-width:0.40000001;stroke-linecap:butt;stroke-linejoin:miter;stroke-miterlimit:4;stroke-dasharray:none;stroke-opacity:1" />
          <path
             sodipodi:nodetypes="cccc"
             inkscape:connector-curvature="0"
             id="path2061"
             d="m 79.713136,86.592062 h 2.605876 l -1.320828,4.366756 z"
             style="fill:#000000;stroke:#000000;stroke-width:0.26458332px;stroke-linecap:butt;stroke-linejoin:miter;stroke-opacity:1" />
        </g>
        <g
           aria-label="Palanca"
           style="font-style:normal;font-weight:normal;font-size:10.58333302px;line-height:1.25;font-family:sans-serif;letter-spacing:0px;word-spacing:0px;fill:#000000;fill-opacity:1;stroke:none;stroke-width:0.26458332"
           id="text2071">
          <path
             inkscape:connector-curvature="0"
             d="m 75.308108,76.874593 q 0,0.238745 -0.08441,0.443728 -0.08199,0.202572 -0.23151,0.352089 -0.185691,0.185691 -0.438905,0.279742 -0.253215,0.09164 -0.639065,0.09164 h -0.477491 v 1.33842 h -0.47749 v -3.590823 h 0.974273 q 0.32315,0 0.547426,0.05547 0.224276,0.05305 0.397908,0.168809 0.204984,0.13746 0.315916,0.342443 0.113343,0.204983 0.113343,0.518487 z m -0.496783,0.01206 q 0,-0.185691 -0.06511,-0.32315 -0.06511,-0.13746 -0.197748,-0.224276 -0.115756,-0.07476 -0.265273,-0.106109 -0.147105,-0.03376 -0.373793,-0.03376 h -0.472667 v 1.434882 h 0.402732 q 0.289388,0 0.470256,-0.05064 0.180867,-0.05306 0.294211,-0.166399 0.113343,-0.115755 0.159163,-0.243568 0.04823,-0.127813 0.04823,-0.286976 z"
             style="font-size:4.93888903px;stroke-width:0.26458332"
             id="path2073" />
          <path
             inkscape:connector-curvature="0"
             d="m 77.88125,79.380211 h -0.450963 v -0.286977 q -0.06029,0.041 -0.163986,0.115756 -0.101286,0.07235 -0.197749,0.115755 -0.113343,0.05547 -0.260449,0.09164 -0.147106,0.03859 -0.344854,0.03859 -0.364147,0 -0.617361,-0.241156 -0.253215,-0.241157 -0.253215,-0.61495 0,-0.306269 0.130225,-0.494371 0.132636,-0.190514 0.376204,-0.299034 0.24598,-0.108521 0.590834,-0.147106 0.344854,-0.03858 0.740351,-0.05788 v -0.06994 q 0,-0.15434 -0.05547,-0.255626 -0.05305,-0.101286 -0.15434,-0.159163 -0.09646,-0.05547 -0.23151,-0.07476 -0.135048,-0.01929 -0.282154,-0.01929 -0.178456,0 -0.397908,0.04823 -0.219453,0.04582 -0.453375,0.135048 h -0.02412 v -0.46061 q 0.132637,-0.03617 0.38344,-0.07958 0.250802,-0.04341 0.494371,-0.04341 0.284565,0 0.494371,0.04823 0.212218,0.04582 0.366558,0.159163 0.151929,0.110932 0.231511,0.286977 0.07958,0.176044 0.07958,0.436493 z M 77.430287,78.71703 v -0.749997 q -0.207395,0.01206 -0.489548,0.03617 -0.279742,0.02412 -0.443728,0.06994 -0.195337,0.05547 -0.315915,0.173632 -0.120579,0.115756 -0.120579,0.320739 0,0.23151 0.139871,0.349677 0.139871,0.115755 0.426847,0.115755 0.238746,0 0.436494,-0.09164 0.197749,-0.09405 0.366558,-0.224276 z"
             style="font-size:4.93888903px;stroke-width:0.26458332"
             id="path2075" />
          <path
             inkscape:connector-curvature="0"
             d="m 79.217258,79.380211 h -0.453374 v -3.752398 h 0.453374 z"
             style="font-size:4.93888903px;stroke-width:0.26458332"
             id="path2077" />
          <path
             inkscape:connector-curvature="0"
             d="m 82.212425,79.380211 h -0.450963 v -0.286977 q -0.06029,0.041 -0.163987,0.115756 -0.101286,0.07235 -0.197748,0.115755 -0.113344,0.05547 -0.26045,0.09164 -0.147105,0.03859 -0.344854,0.03859 -0.364146,0 -0.617361,-0.241156 -0.253214,-0.241157 -0.253214,-0.61495 0,-0.306269 0.130224,-0.494371 0.132636,-0.190514 0.376205,-0.299034 0.24598,-0.108521 0.590834,-0.147106 0.344854,-0.03858 0.740351,-0.05788 v -0.06994 q 0,-0.15434 -0.05547,-0.255626 -0.05306,-0.101286 -0.154341,-0.159163 -0.09646,-0.05547 -0.23151,-0.07476 -0.135048,-0.01929 -0.282153,-0.01929 -0.178456,0 -0.397909,0.04823 -0.219453,0.04582 -0.453375,0.135048 h -0.02411 v -0.46061 q 0.132636,-0.03617 0.383439,-0.07958 0.250803,-0.04341 0.494371,-0.04341 0.284565,0 0.494371,0.04823 0.212218,0.04582 0.366559,0.159163 0.151928,0.110932 0.23151,0.286977 0.07958,0.176044 0.07958,0.436493 z M 81.761462,78.71703 v -0.749997 q -0.207395,0.01206 -0.489548,0.03617 -0.279742,0.02412 -0.443729,0.06994 -0.195337,0.05547 -0.315915,0.173632 -0.120578,0.115756 -0.120578,0.320739 0,0.23151 0.139871,0.349677 0.13987,0.115755 0.426847,0.115755 0.238745,0 0.436493,-0.09164 0.197749,-0.09405 0.366559,-0.224276 z"
             style="font-size:4.93888903px;stroke-width:0.26458332"
             id="path2079" />
          <path
             inkscape:connector-curvature="0"
             d="m 85.342639,79.380211 h -0.453375 v -1.533757 q 0,-0.18569 -0.0217,-0.347265 -0.0217,-0.163987 -0.07958,-0.255626 -0.06029,-0.101286 -0.173632,-0.149518 -0.113344,-0.05064 -0.294212,-0.05064 -0.18569,0 -0.388262,0.09164 -0.202571,0.09164 -0.388262,0.233922 v 2.011247 h -0.453375 v -2.69372 h 0.453375 v 0.299034 q 0.212218,-0.176044 0.438905,-0.274919 0.226687,-0.09887 0.465432,-0.09887 0.436494,0 0.665593,0.262861 0.229099,0.262861 0.229099,0.757232 z"
             style="font-size:4.93888903px;stroke-width:0.26458332"
             id="path2081" />
          <path
             inkscape:connector-curvature="0"
             d="m 88.20758,79.211401 q -0.226688,0.108521 -0.431671,0.16881 -0.202571,0.06029 -0.43167,0.06029 -0.2918,0 -0.535368,-0.08441 -0.243568,-0.08682 -0.417201,-0.260449 -0.176045,-0.173633 -0.272507,-0.438905 -0.09646,-0.265273 -0.09646,-0.619773 0,-0.660769 0.361735,-1.036974 0.364147,-0.376204 0.959804,-0.376204 0.23151,0 0.453374,0.06511 0.224276,0.06511 0.409967,0.159164 v 0.504017 h -0.02412 q -0.207395,-0.161575 -0.429259,-0.248391 -0.219453,-0.08682 -0.429259,-0.08682 -0.385851,0 -0.610126,0.26045 -0.221864,0.258037 -0.221864,0.759643 0,0.487137 0.217041,0.749997 0.219452,0.26045 0.614949,0.26045 0.137459,0 0.279742,-0.03617 0.142282,-0.03617 0.255626,-0.09405 0.09887,-0.05064 0.185691,-0.106109 0.08682,-0.05788 0.137459,-0.09887 h 0.02412 z"
             style="font-size:4.93888903px;stroke-width:0.26458332"
             id="path2083" />
          <path
             inkscape:connector-curvature="0"
             d="m 90.884419,79.380211 h -0.450963 v -0.286977 q -0.06029,0.041 -0.163986,0.115756 -0.101286,0.07235 -0.197749,0.115755 -0.113343,0.05547 -0.260449,0.09164 -0.147106,0.03859 -0.344854,0.03859 -0.364147,0 -0.617361,-0.241156 -0.253215,-0.241157 -0.253215,-0.61495 0,-0.306269 0.130225,-0.494371 0.132636,-0.190514 0.376204,-0.299034 0.24598,-0.108521 0.590834,-0.147106 0.344854,-0.03858 0.740351,-0.05788 v -0.06994 q 0,-0.15434 -0.05547,-0.255626 -0.05305,-0.101286 -0.15434,-0.159163 -0.09646,-0.05547 -0.23151,-0.07476 -0.135048,-0.01929 -0.282154,-0.01929 -0.178456,0 -0.397908,0.04823 -0.219453,0.04582 -0.453375,0.135048 h -0.02412 v -0.46061 q 0.132637,-0.03617 0.38344,-0.07958 0.250803,-0.04341 0.494371,-0.04341 0.284565,0 0.494371,0.04823 0.212218,0.04582 0.366558,0.159163 0.151929,0.110932 0.231511,0.286977 0.07958,0.176044 0.07958,0.436493 z M 90.433456,78.71703 v -0.749997 q -0.207394,0.01206 -0.489548,0.03617 -0.279742,0.02412 -0.443728,0.06994 -0.195337,0.05547 -0.315915,0.173632 -0.120579,0.115756 -0.120579,0.320739 0,0.23151 0.139871,0.349677 0.139871,0.115755 0.426848,0.115755 0.238745,0 0.436493,-0.09164 0.197749,-0.09405 0.366558,-0.224276 z"
             style="font-size:4.93888903px;stroke-width:0.26458332"
             id="path2085" />
        </g>
        <g
           id="g2100">
          <path
             sodipodi:nodetypes="cccc"
             inkscape:connector-curvature="0"
             id="path2094"
             d="m 72.897764,106.03592 1.937702,1.60362 1.702167,-3.99422 z"
             style="fill:#000000;stroke:#000000;stroke-width:0.26458332px;stroke-linecap:butt;stroke-linejoin:miter;stroke-opacity:1" />
          <path
             inkscape:connector-curvature="0"
             id="path2096"
             d="M 55.057521,131.22607 74.167293,106.57046"
             style="fill:none;stroke:#000000;stroke-width:0.40000001;stroke-linecap:butt;stroke-linejoin:miter;stroke-miterlimit:4;stroke-dasharray:none;stroke-opacity:1" />
        </g>
        <g
           aria-label="Orificio"
           style="font-style:normal;font-weight:normal;font-size:10.58333302px;line-height:1.25;font-family:sans-serif;letter-spacing:0px;word-spacing:0px;fill:#000000;fill-opacity:1;stroke:none;stroke-width:0.26458332"
           id="text2104">
          <path
             inkscape:connector-curvature="0"
             d="m 24.874801,133.92756 q 0.219453,0.24115 0.335208,0.59083 0.118167,0.34968 0.118167,0.79341 0,0.44373 -0.120578,0.79581 -0.118167,0.34968 -0.332797,0.5836 -0.221864,0.24357 -0.525721,0.36656 -0.301446,0.12299 -0.689708,0.12299 -0.378616,0 -0.689709,-0.1254 -0.30868,-0.1254 -0.525721,-0.36415 -0.217041,-0.23874 -0.335208,-0.58601 -0.115755,-0.34726 -0.115755,-0.7934 0,-0.43891 0.115755,-0.78617 0.115755,-0.34968 0.337619,-0.59807 0.212218,-0.23634 0.525722,-0.36174 0.315915,-0.1254 0.687297,-0.1254 0.38585,0 0.692119,0.12781 0.308681,0.12541 0.52331,0.35933 z m -0.04341,1.38424 q 0,-0.69936 -0.313504,-1.07797 -0.313503,-0.38103 -0.856106,-0.38103 -0.547426,0 -0.860929,0.38103 -0.311092,0.37861 -0.311092,1.07797 0,0.70659 0.318326,1.08279 0.318327,0.37379 0.853695,0.37379 0.535368,0 0.851283,-0.37379 0.318327,-0.3762 0.318327,-1.08279 z"
             style="font-size:4.93888903px;stroke-width:0.26458332"
             id="path2203" />
          <path
             inkscape:connector-curvature="0"
             d="m 27.730097,134.90665 h -0.02412 q -0.101286,-0.0241 -0.197749,-0.0338 -0.09405,-0.0121 -0.224275,-0.0121 -0.209807,0 -0.405144,0.0941 -0.195336,0.0916 -0.376204,0.23874 v 1.91237 H 26.04923 v -2.69372 h 0.453375 v 0.39791 q 0.270096,-0.21704 0.475079,-0.30627 0.207394,-0.0916 0.422024,-0.0916 0.118167,0 0.171221,0.007 0.05306,0.005 0.159164,0.0217 z"
             style="font-size:4.93888903px;stroke-width:0.26458332"
             id="path2205" />
          <path
             inkscape:connector-curvature="0"
             d="m 28.648904,133.96132 h -0.511253 v -0.47026 h 0.511253 z m -0.02894,3.14468 H 28.16659 v -2.69372 h 0.453375 z"
             style="font-size:4.93888903px;stroke-width:0.26458332"
             id="path2207" />
          <path
             inkscape:connector-curvature="0"
             d="m 30.971242,133.79251 h -0.02412 q -0.07476,-0.0217 -0.195337,-0.0434 -0.120579,-0.0241 -0.212218,-0.0241 -0.2918,0 -0.424436,0.13022 -0.130224,0.12781 -0.130224,0.46543 v 0.0916 h 0.817521 v 0.38103 h -0.803052 v 2.31269 h -0.453375 v -2.31269 h -0.306269 v -0.38103 h 0.306269 v -0.0892 q 0,-0.4799 0.238745,-0.73552 0.238746,-0.25804 0.689709,-0.25804 0.151928,0 0.272507,0.0145 0.12299,0.0145 0.224275,0.0338 z"
             style="font-size:4.93888903px;stroke-width:0.26458332"
             id="path2209" />
          <path
             inkscape:connector-curvature="0"
             d="m 31.745356,133.96132 h -0.511252 v -0.47026 h 0.511252 z m -0.02894,3.14468 h -0.453375 v -2.69372 h 0.453375 z"
             style="font-size:4.93888903px;stroke-width:0.26458332"
             id="path2211" />
          <path
             inkscape:connector-curvature="0"
             d="m 34.610297,136.93719 q -0.226687,0.10852 -0.43167,0.16881 -0.202572,0.0603 -0.431671,0.0603 -0.291799,0 -0.535368,-0.0844 -0.243568,-0.0868 -0.417201,-0.26045 -0.176044,-0.17363 -0.272507,-0.43891 -0.09646,-0.26527 -0.09646,-0.61977 0,-0.66077 0.361735,-1.03697 0.364146,-0.37621 0.959803,-0.37621 0.231511,0 0.453375,0.0651 0.224276,0.0651 0.409966,0.15917 v 0.50402 h -0.02412 q -0.207395,-0.16158 -0.429259,-0.2484 -0.219453,-0.0868 -0.429259,-0.0868 -0.385851,0 -0.610127,0.26045 -0.221864,0.25803 -0.221864,0.75964 0,0.48714 0.217041,0.75 0.219453,0.26045 0.61495,0.26045 0.137459,0 0.279741,-0.0362 0.142283,-0.0362 0.255627,-0.0941 0.09887,-0.0506 0.18569,-0.10611 0.08682,-0.0579 0.13746,-0.0989 h 0.02412 z"
             style="font-size:4.93888903px;stroke-width:0.26458332"
             id="path2213" />
          <path
             inkscape:connector-curvature="0"
             d="M 35.681032,133.96132 H 35.16978 v -0.47026 h 0.511252 z m -0.02894,3.14468 h -0.453375 v -2.69372 h 0.453375 z"
             style="font-size:4.93888903px;stroke-width:0.26458332"
             id="path2215" />
          <path
             inkscape:connector-curvature="0"
             d="m 38.849831,135.76035 q 0,0.65836 -0.337619,1.03938 -0.33762,0.38103 -0.904338,0.38103 -0.571541,0 -0.90916,-0.38103 -0.335208,-0.38102 -0.335208,-1.03938 0,-0.65836 0.335208,-1.03939 0.337619,-0.38344 0.90916,-0.38344 0.566718,0 0.904338,0.38344 0.337619,0.38103 0.337619,1.03939 z m -0.467844,0 q 0,-0.52331 -0.204983,-0.77653 -0.204983,-0.25562 -0.56913,-0.25562 -0.368969,0 -0.573953,0.25562 -0.202571,0.25322 -0.202571,0.77653 0,0.50643 0.204983,0.76929 0.204983,0.26045 0.571541,0.26045 0.361735,0 0.566718,-0.25804 0.207395,-0.26045 0.207395,-0.7717 z"
             style="font-size:4.93888903px;stroke-width:0.26458332"
             id="path2217" />
        </g>
        <g
           aria-label="de"
           style="font-style:normal;font-weight:normal;font-size:10.58333302px;line-height:1.25;font-family:sans-serif;letter-spacing:0px;word-spacing:0px;fill:#000000;fill-opacity:1;stroke:none;stroke-width:0.26458332"
           id="text2108">
          <path
             inkscape:connector-curvature="0"
             d="M 43.658584,137.106 H 43.20521 v -0.28215 q -0.195337,0.16881 -0.407555,0.26286 -0.212218,0.094 -0.460609,0.094 -0.482314,0 -0.766878,-0.37138 -0.282154,-0.37138 -0.282154,-1.02974 0,-0.34244 0.09646,-0.61013 0.09887,-0.26768 0.265272,-0.45578 0.163987,-0.18328 0.381028,-0.27974 0.219452,-0.0965 0.453374,-0.0965 0.212218,0 0.376205,0.0458 0.163986,0.0434 0.344854,0.13746 v -1.1672 h 0.453374 z m -0.453374,-0.66318 v -1.54581 q -0.183279,-0.082 -0.327973,-0.11335 -0.144694,-0.0314 -0.315915,-0.0314 -0.381028,0 -0.593246,0.26528 -0.212218,0.26527 -0.212218,0.7524 0,0.47991 0.163987,0.73071 0.163986,0.24839 0.525721,0.24839 0.192926,0 0.390674,-0.0844 0.197749,-0.0868 0.36897,-0.22187 z"
             style="font-size:4.93888903px;stroke-width:0.26458332"
             id="path2198" />
          <path
             inkscape:connector-curvature="0"
             d="M 46.805679,135.80617 H 44.82096 q 0,0.24839 0.07476,0.43408 0.07476,0.18328 0.204984,0.30145 0.125401,0.11575 0.296622,0.17363 0.173633,0.0579 0.381028,0.0579 0.274918,0 0.552249,-0.10852 0.279741,-0.11094 0.397908,-0.21704 h 0.02412 v 0.49437 q -0.229099,0.0965 -0.467844,0.16157 -0.238745,0.0651 -0.501606,0.0651 -0.670416,0 -1.04662,-0.36173 -0.376205,-0.36415 -0.376205,-1.03215 0,-0.66077 0.359324,-1.04903 0.361735,-0.38827 0.950157,-0.38827 0.545014,0 0.839226,0.31833 0.296622,0.31833 0.296622,0.90434 z m -0.441316,-0.34727 q -0.0024,-0.35691 -0.180868,-0.55225 -0.176044,-0.19533 -0.537779,-0.19533 -0.364147,0 -0.581188,0.21463 -0.214629,0.21463 -0.243568,0.53295 z"
             style="font-size:4.93888903px;stroke-width:0.26458332"
             id="path2200" />
        </g>
        <g
           aria-label="protección"
           style="font-style:normal;font-weight:normal;font-size:10.58333302px;line-height:1.25;font-family:sans-serif;letter-spacing:0px;word-spacing:0px;fill:#000000;fill-opacity:1;stroke:none;stroke-width:0.26458332"
           id="text2112">
          <path
             inkscape:connector-curvature="0"
             d="m 51.252616,135.72659 q 0,0.32797 -0.09405,0.60048 -0.09405,0.27009 -0.265272,0.45819 -0.159163,0.17846 -0.376204,0.27733 -0.21463,0.0965 -0.455786,0.0965 -0.209807,0 -0.381028,-0.0458 -0.16881,-0.0458 -0.344854,-0.14228 v 1.12861 h -0.453375 v -3.68729 h 0.453375 v 0.28216 q 0.180867,-0.15193 0.405143,-0.25322 0.226687,-0.1037 0.482314,-0.1037 0.487136,0 0.757232,0.36897 0.272507,0.36656 0.272507,1.0201 z m -0.467844,0.0121 q 0,-0.48713 -0.166398,-0.72829 -0.166399,-0.24116 -0.511253,-0.24116 -0.195337,0 -0.393085,0.0844 -0.197749,0.0844 -0.378616,0.22186 v 1.52653 q 0.192925,0.0868 0.330385,0.11816 0.13987,0.0314 0.315915,0.0314 0.378616,0 0.590834,-0.25562 0.212218,-0.25563 0.212218,-0.75724 z"
             style="font-size:4.93888903px;stroke-width:0.26458332"
             id="path2177" />
          <path
             inkscape:connector-curvature="0"
             d="m 53.640067,134.90665 h -0.02412 q -0.101286,-0.0241 -0.197748,-0.0338 -0.09405,-0.0121 -0.224276,-0.0121 -0.209806,0 -0.405143,0.0941 -0.195337,0.0916 -0.376205,0.23874 v 1.91237 h -0.453374 v -2.69372 h 0.453374 v 0.39791 q 0.270096,-0.21704 0.475079,-0.30627 0.207395,-0.0916 0.422024,-0.0916 0.118167,0 0.171221,0.007 0.05306,0.005 0.159164,0.0217 z"
             style="font-size:4.93888903px;stroke-width:0.26458332"
             id="path2179" />
          <path
             inkscape:connector-curvature="0"
             d="m 56.367549,135.76035 q 0,0.65836 -0.337619,1.03938 -0.33762,0.38103 -0.904338,0.38103 -0.571541,0 -0.909161,-0.38103 -0.335207,-0.38102 -0.335207,-1.03938 0,-0.65836 0.335207,-1.03939 0.33762,-0.38344 0.909161,-0.38344 0.566718,0 0.904338,0.38344 0.337619,0.38103 0.337619,1.03939 z m -0.467844,0 q 0,-0.52331 -0.204983,-0.77653 -0.204983,-0.25562 -0.56913,-0.25562 -0.36897,0 -0.573953,0.25562 -0.202571,0.25322 -0.202571,0.77653 0,0.50643 0.204983,0.76929 0.204983,0.26045 0.571541,0.26045 0.361735,0 0.566718,-0.25804 0.207395,-0.26045 0.207395,-0.7717 z"
             style="font-size:4.93888903px;stroke-width:0.26458332"
             id="path2181" />
          <path
             inkscape:connector-curvature="0"
             d="m 58.470435,137.08189 q -0.127813,0.0338 -0.279742,0.0555 -0.149517,0.0217 -0.267683,0.0217 -0.412378,0 -0.627008,-0.22187 -0.214629,-0.22186 -0.214629,-0.71141 v -1.43247 h -0.306269 v -0.38103 h 0.306269 v -0.77411 h 0.453374 v 0.77411 h 0.935688 v 0.38103 h -0.935688 v 1.22749 q 0,0.21222 0.0096,0.33279 0.0096,0.11817 0.06752,0.22187 0.05306,0.0965 0.144694,0.14228 0.09405,0.0434 0.284565,0.0434 0.110932,0 0.231511,-0.0313 0.120578,-0.0338 0.173633,-0.0555 h 0.02412 z"
             style="font-size:4.93888903px;stroke-width:0.26458332"
             id="path2183" />
          <path
             inkscape:connector-curvature="0"
             d="m 61.275088,135.80617 h -1.98472 q 0,0.24839 0.07476,0.43408 0.07476,0.18328 0.204983,0.30145 0.125402,0.11575 0.296623,0.17363 0.173633,0.0579 0.381027,0.0579 0.274919,0 0.552249,-0.10852 0.279742,-0.11094 0.397909,-0.21704 h 0.02412 v 0.49437 q -0.229098,0.0965 -0.467844,0.16157 -0.238745,0.0651 -0.501606,0.0651 -0.670415,0 -1.04662,-0.36173 -0.376204,-0.36415 -0.376204,-1.03215 0,-0.66077 0.359323,-1.04903 0.361736,-0.38827 0.950158,-0.38827 0.545014,0 0.839225,0.31833 0.296623,0.31833 0.296623,0.90434 z m -0.441317,-0.34727 q -0.0024,-0.35691 -0.180867,-0.55225 -0.176045,-0.19533 -0.53778,-0.19533 -0.364146,0 -0.581187,0.21463 -0.21463,0.21463 -0.243569,0.53295 z"
             style="font-size:4.93888903px;stroke-width:0.26458332"
             id="path2185" />
          <path
             inkscape:connector-curvature="0"
             d="m 63.954339,136.93719 q -0.226687,0.10852 -0.43167,0.16881 -0.202572,0.0603 -0.431671,0.0603 -0.2918,0 -0.535368,-0.0844 -0.243568,-0.0868 -0.417201,-0.26045 -0.176044,-0.17363 -0.272507,-0.43891 -0.09646,-0.26527 -0.09646,-0.61977 0,-0.66077 0.361735,-1.03697 0.364147,-0.37621 0.959804,-0.37621 0.231511,0 0.453375,0.0651 0.224275,0.0651 0.409966,0.15917 v 0.50402 h -0.02412 q -0.207394,-0.16158 -0.429259,-0.2484 -0.219452,-0.0868 -0.429258,-0.0868 -0.385851,0 -0.610127,0.26045 -0.221864,0.25803 -0.221864,0.75964 0,0.48714 0.217041,0.75 0.219453,0.26045 0.61495,0.26045 0.137459,0 0.279741,-0.0362 0.142283,-0.0362 0.255626,-0.0941 0.09887,-0.0506 0.185691,-0.10611 0.08682,-0.0579 0.137459,-0.0989 h 0.02412 z"
             style="font-size:4.93888903px;stroke-width:0.26458332"
             id="path2187" />
          <path
             inkscape:connector-curvature="0"
             d="m 66.529892,136.93719 q -0.226687,0.10852 -0.431671,0.16881 -0.202571,0.0603 -0.43167,0.0603 -0.2918,0 -0.535368,-0.0844 -0.243568,-0.0868 -0.417201,-0.26045 -0.176044,-0.17363 -0.272507,-0.43891 -0.09646,-0.26527 -0.09646,-0.61977 0,-0.66077 0.361735,-1.03697 0.364147,-0.37621 0.959804,-0.37621 0.23151,0 0.453375,0.0651 0.224275,0.0651 0.409966,0.15917 v 0.50402 h -0.02412 q -0.207394,-0.16158 -0.429259,-0.2484 -0.219452,-0.0868 -0.429259,-0.0868 -0.38585,0 -0.610126,0.26045 -0.221864,0.25803 -0.221864,0.75964 0,0.48714 0.217041,0.75 0.219453,0.26045 0.614949,0.26045 0.13746,0 0.279742,-0.0362 0.142283,-0.0362 0.255626,-0.0941 0.09888,-0.0506 0.185691,-0.10611 0.08682,-0.0579 0.137459,-0.0989 h 0.02412 z"
             style="font-size:4.93888903px;stroke-width:0.26458332"
             id="path2189" />
          <path
             inkscape:connector-curvature="0"
             d="m 67.600627,133.96132 h -0.511252 v -0.47026 h 0.511252 z m -0.02894,3.14468 h -0.453374 v -2.69372 h 0.453374 z"
             style="font-size:4.93888903px;stroke-width:0.26458332"
             id="path2191" />
          <path
             inkscape:connector-curvature="0"
             d="m 70.769427,135.76035 q 0,0.65836 -0.337619,1.03938 -0.33762,0.38103 -0.904338,0.38103 -0.571541,0 -0.909161,-0.38103 -0.335208,-0.38102 -0.335208,-1.03938 0,-0.65836 0.335208,-1.03939 0.33762,-0.38344 0.909161,-0.38344 0.566718,0 0.904338,0.38344 0.337619,0.38103 0.337619,1.03939 z m -0.467844,0 q 0,-0.52331 -0.204983,-0.77653 -0.204983,-0.25562 -0.56913,-0.25562 -0.36897,0 -0.573953,0.25562 -0.202572,0.25322 -0.202572,0.77653 0,0.50643 0.204984,0.76929 0.204983,0.26045 0.571541,0.26045 0.361735,0 0.566718,-0.25804 0.207395,-0.26045 0.207395,-0.7717 z m -0.02412,-2.69613 -0.658357,0.90192 h -0.359324 l 0.431671,-0.90192 z"
             style="font-size:4.93888903px;stroke-width:0.26458332"
             id="path2193" />
          <path
             inkscape:connector-curvature="0"
             d="m 73.726007,137.106 h -0.453374 v -1.53375 q 0,-0.18569 -0.0217,-0.34727 -0.0217,-0.16399 -0.07958,-0.25563 -0.06029,-0.10128 -0.173633,-0.14951 -0.113344,-0.0506 -0.294211,-0.0506 -0.185691,0 -0.388262,0.0916 -0.202572,0.0916 -0.388263,0.23393 v 2.01124 H 71.47361 v -2.69372 h 0.453374 v 0.29904 q 0.212218,-0.17605 0.438906,-0.27492 0.226687,-0.0989 0.465432,-0.0989 0.436494,0 0.665592,0.26286 0.229099,0.26287 0.229099,0.75724 z"
             style="font-size:4.93888903px;stroke-width:0.26458332"
             id="path2195" />
        </g>
        <g
           aria-label="contra"
           style="font-style:normal;font-weight:normal;font-size:10.58333302px;line-height:1.25;font-family:sans-serif;letter-spacing:0px;word-spacing:0px;fill:#000000;fill-opacity:1;stroke:none;stroke-width:0.26458332"
           id="text2116">
          <path
             inkscape:connector-curvature="0"
             d="m 31.096055,143.41847 q -0.226687,0.10852 -0.43167,0.16881 -0.202572,0.0603 -0.431671,0.0603 -0.2918,0 -0.535368,-0.0844 -0.243568,-0.0868 -0.417201,-0.26044 -0.176044,-0.17364 -0.272507,-0.43891 -0.09646,-0.26527 -0.09646,-0.61977 0,-0.66077 0.361735,-1.03698 0.364147,-0.3762 0.959804,-0.3762 0.231511,0 0.453375,0.0651 0.224275,0.0651 0.409966,0.15917 v 0.50401 h -0.02412 q -0.207394,-0.16157 -0.429259,-0.24839 -0.219452,-0.0868 -0.429258,-0.0868 -0.385851,0 -0.610127,0.26045 -0.221864,0.25804 -0.221864,0.75965 0,0.48713 0.217041,0.74999 0.219453,0.26045 0.61495,0.26045 0.137459,0 0.279741,-0.0362 0.142283,-0.0362 0.255626,-0.0941 0.09888,-0.0506 0.185691,-0.10611 0.08682,-0.0579 0.137459,-0.0989 h 0.02412 z"
             style="font-size:4.93888903px;stroke-width:0.26458332"
             id="path2164" />
          <path
             inkscape:connector-curvature="0"
             d="m 33.975466,142.24163 q 0,0.65835 -0.337619,1.03938 -0.33762,0.38103 -0.904338,0.38103 -0.571541,0 -0.909161,-0.38103 -0.335208,-0.38103 -0.335208,-1.03938 0,-0.65836 0.335208,-1.03939 0.33762,-0.38344 0.909161,-0.38344 0.566718,0 0.904338,0.38344 0.337619,0.38103 0.337619,1.03939 z m -0.467844,0 q 0,-0.52331 -0.204983,-0.77653 -0.204983,-0.25562 -0.56913,-0.25562 -0.36897,0 -0.573953,0.25562 -0.202572,0.25322 -0.202572,0.77653 0,0.50642 0.204984,0.76929 0.204983,0.26045 0.571541,0.26045 0.361735,0 0.566718,-0.25804 0.207395,-0.26045 0.207395,-0.7717 z"
             style="font-size:4.93888903px;stroke-width:0.26458332"
             id="path2166" />
          <path
             inkscape:connector-curvature="0"
             d="m 36.932047,143.58728 h -0.453375 v -1.53376 q 0,-0.18569 -0.0217,-0.34726 -0.0217,-0.16399 -0.07958,-0.25563 -0.06029,-0.10128 -0.173632,-0.14952 -0.113344,-0.0506 -0.294212,-0.0506 -0.18569,0 -0.388262,0.0916 -0.202572,0.0916 -0.388262,0.23392 v 2.01125 h -0.453375 v -2.69372 h 0.453375 v 0.29903 q 0.212218,-0.17604 0.438905,-0.27491 0.226687,-0.0989 0.465432,-0.0989 0.436494,0 0.665593,0.26286 0.229099,0.26286 0.229099,0.75723 z"
             style="font-size:4.93888903px;stroke-width:0.26458332"
             id="path2168" />
          <path
             inkscape:connector-curvature="0"
             d="m 39.203743,143.56316 q -0.127813,0.0338 -0.279742,0.0555 -0.149517,0.0217 -0.267684,0.0217 -0.412378,0 -0.627007,-0.22186 -0.21463,-0.22186 -0.21463,-0.71141 v -1.43247 h -0.306269 v -0.38103 h 0.306269 v -0.77411 h 0.453375 v 0.77411 h 0.935688 v 0.38103 h -0.935688 v 1.22749 q 0,0.21221 0.0096,0.33279 0.0096,0.11817 0.06752,0.22187 0.05306,0.0965 0.144694,0.14228 0.09405,0.0434 0.284565,0.0434 0.110932,0 0.231511,-0.0314 0.120578,-0.0338 0.173632,-0.0555 h 0.02412 z"
             style="font-size:4.93888903px;stroke-width:0.26458332"
             id="path2170" />
          <path
             inkscape:connector-curvature="0"
             d="m 41.434443,141.38793 h -0.02412 q -0.101286,-0.0241 -0.197748,-0.0338 -0.09405,-0.0121 -0.224276,-0.0121 -0.209806,0 -0.405143,0.0941 -0.195337,0.0916 -0.376205,0.23875 v 1.91237 h -0.453374 v -2.69372 h 0.453374 v 0.39791 q 0.270096,-0.21704 0.475079,-0.30627 0.207395,-0.0916 0.422024,-0.0916 0.118167,0 0.171221,0.007 0.05306,0.005 0.159164,0.0217 z"
             style="font-size:4.93888903px;stroke-width:0.26458332"
             id="path2172" />
          <path
             inkscape:connector-curvature="0"
             d="m 43.872537,143.58728 h -0.450963 v -0.28698 q -0.06029,0.041 -0.163987,0.11576 -0.101286,0.0724 -0.197749,0.11575 -0.113343,0.0555 -0.260449,0.0916 -0.147105,0.0386 -0.344854,0.0386 -0.364146,0 -0.617361,-0.24116 -0.253214,-0.24115 -0.253214,-0.61495 0,-0.30627 0.130224,-0.49437 0.132636,-0.19051 0.376205,-0.29903 0.245979,-0.10852 0.590833,-0.14711 0.344855,-0.0386 0.740352,-0.0579 v -0.0699 q 0,-0.15434 -0.05547,-0.25563 -0.05305,-0.10128 -0.15434,-0.15916 -0.09646,-0.0555 -0.23151,-0.0748 -0.135048,-0.0193 -0.282154,-0.0193 -0.178455,0 -0.397908,0.0482 -0.219453,0.0458 -0.453375,0.13505 h -0.02412 v -0.46061 q 0.132636,-0.0362 0.383439,-0.0796 0.250803,-0.0434 0.494371,-0.0434 0.284565,0 0.494371,0.0482 0.212218,0.0458 0.366558,0.15916 0.151929,0.11093 0.231511,0.28698 0.07958,0.17604 0.07958,0.43649 z m -0.450963,-0.66318 v -0.75 q -0.207395,0.0121 -0.489549,0.0362 -0.279741,0.0241 -0.443728,0.0699 -0.195337,0.0555 -0.315915,0.17363 -0.120578,0.11576 -0.120578,0.32074 0,0.23151 0.13987,0.34968 0.139871,0.11575 0.426848,0.11575 0.238745,0 0.436493,-0.0916 0.197749,-0.0941 0.366559,-0.22428 z"
             style="font-size:4.93888903px;stroke-width:0.26458332"
             id="path2174" />
        </g>
        <g
           aria-label="escritura"
           style="font-style:normal;font-weight:normal;font-size:10.58333302px;line-height:1.25;font-family:sans-serif;letter-spacing:0px;word-spacing:0px;fill:#000000;fill-opacity:1;stroke:none;stroke-width:0.26458332"
           id="text2120">
          <path
             inkscape:connector-curvature="0"
             d="m 48.821431,142.28745 h -1.98472 q 0,0.24839 0.07476,0.43408 0.07476,0.18328 0.204983,0.30144 0.125401,0.11576 0.296623,0.17364 0.173632,0.0579 0.381027,0.0579 0.274919,0 0.552249,-0.10852 0.279742,-0.11093 0.397909,-0.21704 h 0.02412 v 0.49437 q -0.229099,0.0965 -0.467844,0.16158 -0.238745,0.0651 -0.501606,0.0651 -0.670415,0 -1.04662,-0.36173 -0.376204,-0.36415 -0.376204,-1.03215 0,-0.66077 0.359323,-1.04904 0.361735,-0.38826 0.950158,-0.38826 0.545014,0 0.839225,0.31833 0.296623,0.31833 0.296623,0.90434 z m -0.441317,-0.34727 q -0.0024,-0.35691 -0.180868,-0.55225 -0.176044,-0.19534 -0.537779,-0.19534 -0.364147,0 -0.581188,0.21463 -0.214629,0.21463 -0.243568,0.53296 z"
             style="font-size:4.93888903px;stroke-width:0.26458332"
             id="path2145" />
          <path
             inkscape:connector-curvature="0"
             d="m 51.433158,142.81076 q 0,0.36897 -0.306269,0.6053 -0.303858,0.23633 -0.831991,0.23633 -0.299034,0 -0.549837,-0.0699 -0.248391,-0.0724 -0.417201,-0.15675 v -0.50885 h 0.02412 q 0.214629,0.16158 0.47749,0.25804 0.262861,0.094 0.504017,0.094 0.299035,0 0.467844,-0.0965 0.16881,-0.0965 0.16881,-0.30386 0,-0.15916 -0.09164,-0.24115 -0.09164,-0.082 -0.352088,-0.13987 -0.09646,-0.0217 -0.253215,-0.0506 -0.15434,-0.0289 -0.282153,-0.0627 -0.354501,-0.094 -0.504018,-0.27492 -0.147105,-0.18328 -0.147105,-0.44855 0,-0.1664 0.06752,-0.3135 0.06993,-0.14711 0.209806,-0.26286 0.135048,-0.11335 0.342442,-0.17846 0.209807,-0.0675 0.467844,-0.0675 0.241157,0 0.487137,0.0603 0.248391,0.0579 0.412378,0.14228 v 0.48472 h -0.02412 q -0.173633,-0.12781 -0.422024,-0.21463 -0.248391,-0.0892 -0.487137,-0.0892 -0.248391,0 -0.419612,0.0965 -0.171221,0.0941 -0.171221,0.28215 0,0.1664 0.103697,0.25081 0.101286,0.0844 0.327973,0.13746 0.125401,0.0289 0.279742,0.0579 0.156752,0.0289 0.260449,0.0531 0.315915,0.0723 0.487137,0.24839 0.171221,0.17845 0.171221,0.47267 z"
             style="font-size:4.93888903px;stroke-width:0.26458332"
             id="path2147" />
          <path
             inkscape:connector-curvature="0"
             d="m 54.076235,143.41847 q -0.226687,0.10852 -0.431671,0.16881 -0.202571,0.0603 -0.43167,0.0603 -0.2918,0 -0.535368,-0.0844 -0.243568,-0.0868 -0.417201,-0.26044 -0.176044,-0.17364 -0.272507,-0.43891 -0.09646,-0.26527 -0.09646,-0.61977 0,-0.66077 0.361735,-1.03698 0.364147,-0.3762 0.959804,-0.3762 0.23151,0 0.453374,0.0651 0.224276,0.0651 0.409967,0.15917 v 0.50401 h -0.02412 q -0.207395,-0.16157 -0.429259,-0.24839 -0.219452,-0.0868 -0.429259,-0.0868 -0.38585,0 -0.610126,0.26045 -0.221864,0.25804 -0.221864,0.75965 0,0.48713 0.217041,0.74999 0.219452,0.26045 0.614949,0.26045 0.13746,0 0.279742,-0.0362 0.142283,-0.0362 0.255626,-0.0941 0.09887,-0.0506 0.185691,-0.10611 0.08682,-0.0579 0.137459,-0.0989 h 0.02412 z"
             style="font-size:4.93888903px;stroke-width:0.26458332"
             id="path2149" />
          <path
             inkscape:connector-curvature="0"
             d="m 56.340697,141.38793 h -0.02412 q -0.101286,-0.0241 -0.197749,-0.0338 -0.09405,-0.0121 -0.224275,-0.0121 -0.209807,0 -0.405144,0.0941 -0.195336,0.0916 -0.376204,0.23875 v 1.91237 H 54.65983 v -2.69372 h 0.453375 v 0.39791 q 0.270096,-0.21704 0.475079,-0.30627 0.207394,-0.0916 0.422024,-0.0916 0.118167,0 0.171221,0.007 0.05306,0.005 0.159164,0.0217 z"
             style="font-size:4.93888903px;stroke-width:0.26458332"
             id="path2151" />
          <path
             inkscape:connector-curvature="0"
             d="m 57.259504,140.4426 h -0.511253 v -0.47026 h 0.511253 z m -0.02894,3.14468 H 56.77719 v -2.69372 h 0.453375 z"
             style="font-size:4.93888903px;stroke-width:0.26458332"
             id="path2153" />
          <path
             inkscape:connector-curvature="0"
             d="m 59.5312,143.56316 q -0.127814,0.0338 -0.279742,0.0555 -0.149517,0.0217 -0.267684,0.0217 -0.412378,0 -0.627008,-0.22186 -0.214629,-0.22186 -0.214629,-0.71141 v -1.43247 h -0.306269 v -0.38103 h 0.306269 v -0.77411 h 0.453375 v 0.77411 H 59.5312 v 0.38103 h -0.935688 v 1.22749 q 0,0.21221 0.0096,0.33279 0.0096,0.11817 0.06752,0.22187 0.05305,0.0965 0.144694,0.14228 0.09405,0.0434 0.284565,0.0434 0.110932,0 0.23151,-0.0314 0.120578,-0.0338 0.173633,-0.0555 h 0.02412 z"
             style="font-size:4.93888903px;stroke-width:0.26458332"
             id="path2155" />
          <path
             inkscape:connector-curvature="0"
             d="m 62.314148,143.58728 h -0.453375 v -0.29903 q -0.229098,0.18086 -0.438905,0.27733 -0.209806,0.0965 -0.463021,0.0965 -0.424435,0 -0.660769,-0.25804 -0.236333,-0.26045 -0.236333,-0.76205 v -1.74839 h 0.453374 v 1.53376 q 0,0.20498 0.01929,0.35209 0.01929,0.14469 0.08199,0.24839 0.06511,0.10611 0.16881,0.15434 0.103697,0.0482 0.301446,0.0482 0.176044,0 0.383439,-0.0916 0.209806,-0.0916 0.390673,-0.23392 v -2.01125 h 0.453375 z"
             style="font-size:4.93888903px;stroke-width:0.26458332"
             id="path2157" />
          <path
             inkscape:connector-curvature="0"
             d="m 64.88729,141.38793 h -0.02411 q -0.101286,-0.0241 -0.197749,-0.0338 -0.09405,-0.0121 -0.224276,-0.0121 -0.209806,0 -0.405143,0.0941 -0.195337,0.0916 -0.376204,0.23875 v 1.91237 h -0.453375 v -2.69372 h 0.453375 v 0.39791 q 0.270095,-0.21704 0.475078,-0.30627 0.207395,-0.0916 0.422025,-0.0916 0.118166,0 0.171221,0.007 0.05305,0.005 0.159163,0.0217 z"
             style="font-size:4.93888903px;stroke-width:0.26458332"
             id="path2159" />
          <path
             inkscape:connector-curvature="0"
             d="M 67.325383,143.58728 H 66.87442 v -0.28698 q -0.06029,0.041 -0.163986,0.11576 -0.101286,0.0724 -0.197749,0.11575 -0.113344,0.0555 -0.260449,0.0916 -0.147106,0.0386 -0.344854,0.0386 -0.364147,0 -0.617361,-0.24116 -0.253215,-0.24115 -0.253215,-0.61495 0,-0.30627 0.130225,-0.49437 0.132636,-0.19051 0.376204,-0.29903 0.24598,-0.10852 0.590834,-0.14711 0.344854,-0.0386 0.740351,-0.0579 v -0.0699 q 0,-0.15434 -0.05547,-0.25563 -0.05305,-0.10128 -0.15434,-0.15916 -0.09646,-0.0555 -0.231511,-0.0748 -0.135047,-0.0193 -0.282153,-0.0193 -0.178456,0 -0.397909,0.0482 -0.219452,0.0458 -0.453374,0.13505 h -0.02412 v -0.46061 q 0.132636,-0.0362 0.383439,-0.0796 0.250803,-0.0434 0.494372,-0.0434 0.284564,0 0.494371,0.0482 0.212218,0.0458 0.366558,0.15916 0.151929,0.11093 0.23151,0.28698 0.07958,0.17604 0.07958,0.43649 z M 66.87442,142.9241 v -0.75 q -0.207395,0.0121 -0.489548,0.0362 -0.279742,0.0241 -0.443728,0.0699 -0.195337,0.0555 -0.315916,0.17363 -0.120578,0.11576 -0.120578,0.32074 0,0.23151 0.139871,0.34968 0.139871,0.11575 0.426847,0.11575 0.238745,0 0.436494,-0.0916 0.197748,-0.0941 0.366558,-0.22428 z"
             style="font-size:4.93888903px;stroke-width:0.26458332"
             id="path2161" />
        </g>
        <g
           aria-label="(CERRADO)"
           style="font-style:normal;font-weight:normal;font-size:10.58333302px;line-height:1.25;font-family:sans-serif;letter-spacing:0px;word-spacing:0px;fill:#000000;fill-opacity:1;stroke:none;stroke-width:0.26458332"
           id="text2124">
          <path
             inkscape:connector-curvature="0"
             d="m 35.296948,150.99532 h -0.552249 q -0.426847,-0.48955 -0.66318,-1.06832 -0.236334,-0.57878 -0.236334,-1.30466 0,-0.72588 0.236334,-1.30466 0.236333,-0.57878 0.66318,-1.06832 h 0.552249 v 0.0241 q -0.195337,0.17605 -0.373793,0.40756 -0.176044,0.2291 -0.327973,0.53536 -0.144694,0.29663 -0.236333,0.65354 -0.08923,0.35691 -0.08923,0.75241 0,0.41238 0.08682,0.75482 0.08923,0.34244 0.238745,0.65112 0.144694,0.29662 0.330385,0.53537 0.185691,0.24116 0.371381,0.40755 z"
             style="font-size:4.93888903px;stroke-width:0.26458332"
             id="path2126" />
          <path
             inkscape:connector-curvature="0"
             d="m 38.911887,149.74131 q -0.132636,0.0579 -0.241157,0.10852 -0.106109,0.0506 -0.279741,0.1061 -0.147106,0.0458 -0.320739,0.0772 -0.171221,0.0338 -0.378616,0.0338 -0.390674,0 -0.711412,-0.10852 -0.318327,-0.11094 -0.55466,-0.34486 -0.231511,-0.2291 -0.361735,-0.58119 -0.130225,-0.3545 -0.130225,-0.82234 0,-0.44373 0.125401,-0.7934 0.125402,-0.34968 0.361735,-0.59084 0.229099,-0.23392 0.552249,-0.35691 0.325562,-0.12299 0.721059,-0.12299 0.289388,0 0.576364,0.0699 0.289388,0.0699 0.641477,0.24598 v 0.56672 h -0.03617 q -0.296623,-0.24839 -0.588423,-0.36173 -0.291799,-0.11335 -0.624596,-0.11335 -0.272507,0 -0.491959,0.0892 -0.217041,0.0868 -0.388263,0.27251 -0.166398,0.18087 -0.260449,0.4582 -0.09164,0.27492 -0.09164,0.63665 0,0.37862 0.101285,0.65112 0.103698,0.27251 0.265273,0.44373 0.16881,0.17846 0.393085,0.26527 0.226688,0.0844 0.47749,0.0844 0.344855,0 0.6463,-0.11817 0.301446,-0.11816 0.564307,-0.3545 h 0.03376 z"
             style="font-size:4.93888903px;stroke-width:0.26458332"
             id="path2128" />
          <path
             inkscape:connector-curvature="0"
             d="m 41.957696,150.00175 h -2.365747 v -3.59082 h 2.365747 v 0.42444 h -1.888257 v 0.98392 h 1.888257 v 0.42443 h -1.888257 v 1.3336 h 1.888257 z"
             style="font-size:4.93888903px;stroke-width:0.26458332"
             id="path2130" />
          <path
             inkscape:connector-curvature="0"
             d="m 45.68839,150.00175 h -0.619773 l -1.20096,-1.42764 H 43.19483 v 1.42764 h -0.47749 v -3.59082 h 1.005623 q 0.325562,0 0.542603,0.0434 0.217041,0.041 0.390674,0.14952 0.195336,0.12299 0.303857,0.31109 0.110932,0.18569 0.110932,0.47267 0,0.38826 -0.195337,0.65112 -0.195337,0.26045 -0.537779,0.39308 z m -1.116555,-2.58037 q 0,-0.15434 -0.05547,-0.27251 -0.05306,-0.12058 -0.178456,-0.20257 -0.103698,-0.0699 -0.24598,-0.0965 -0.142283,-0.0289 -0.335208,-0.0289 H 43.19483 v 1.3553 h 0.482313 q 0.226688,0 0.395497,-0.0386 0.16881,-0.041 0.286977,-0.14951 0.10852,-0.10129 0.159163,-0.23151 0.05306,-0.13264 0.05306,-0.33521 z"
             style="font-size:4.93888903px;stroke-width:0.26458332"
             id="path2132" />
          <path
             inkscape:connector-curvature="0"
             d="m 49.122462,150.00175 h -0.619773 l -1.20096,-1.42764 h -0.672827 v 1.42764 h -0.477491 v -3.59082 h 1.005624 q 0.325561,0 0.542602,0.0434 0.217041,0.041 0.390674,0.14952 0.195337,0.12299 0.303858,0.31109 0.110932,0.18569 0.110932,0.47267 0,0.38826 -0.195337,0.65112 -0.195337,0.26045 -0.53778,0.39308 z m -1.116556,-2.58037 q 0,-0.15434 -0.05547,-0.27251 -0.05305,-0.12058 -0.178456,-0.20257 -0.103697,-0.0699 -0.24598,-0.0965 -0.142282,-0.0289 -0.335207,-0.0289 h -0.561895 v 1.3553 h 0.482313 q 0.226687,0 0.395497,-0.0386 0.16881,-0.041 0.286976,-0.14951 0.108521,-0.10129 0.159164,-0.23151 0.05305,-0.13264 0.05305,-0.33521 z"
             style="font-size:4.93888903px;stroke-width:0.26458332"
             id="path2134" />
          <path
             inkscape:connector-curvature="0"
             d="m 52.416661,150.00175 h -0.50884 l -0.352089,-1.0008 h -1.553049 l -0.352089,1.0008 h -0.484725 l 1.307069,-3.59082 h 0.636654 z m -1.008035,-1.41076 -0.629419,-1.76286 -0.63183,1.76286 z"
             style="font-size:4.93888903px;stroke-width:0.26458332"
             id="path2136" />
          <path
             inkscape:connector-curvature="0"
             d="m 55.995427,148.20996 q 0,0.48955 -0.214629,0.88746 -0.212218,0.39791 -0.566719,0.61736 -0.245979,0.15193 -0.549837,0.21945 -0.301446,0.0675 -0.795817,0.0675 h -0.906749 v -3.59082 h 0.897103 q 0.525721,0 0.834402,0.0772 0.311092,0.0748 0.525721,0.2074 0.366559,0.2291 0.571542,0.61012 0.204983,0.38103 0.204983,0.90434 z m -0.499194,-0.007 q 0,-0.42203 -0.147106,-0.71142 -0.147105,-0.28938 -0.438905,-0.45578 -0.212218,-0.12058 -0.450963,-0.1664 -0.238745,-0.0482 -0.571541,-0.0482 h -0.448552 v 2.77089 h 0.448552 q 0.344854,0 0.60048,-0.0506 0.258037,-0.0506 0.472667,-0.18811 0.267684,-0.17122 0.40032,-0.45096 0.135048,-0.27974 0.135048,-0.69935 z"
             style="font-size:4.93888903px;stroke-width:0.26458332"
             id="path2138" />
          <path
             inkscape:connector-curvature="0"
             d="m 59.448791,146.82331 q 0.219453,0.24116 0.335208,0.59083 0.118167,0.34968 0.118167,0.79341 0,0.44373 -0.120579,0.79582 -0.118166,0.34967 -0.332796,0.5836 -0.221864,0.24356 -0.525721,0.36655 -0.301446,0.12299 -0.689709,0.12299 -0.378616,0 -0.689708,-0.1254 -0.30868,-0.1254 -0.525721,-0.36414 -0.217041,-0.23875 -0.335208,-0.58602 -0.115755,-0.34726 -0.115755,-0.7934 0,-0.43891 0.115755,-0.78617 0.115755,-0.34968 0.337619,-0.59807 0.212218,-0.23633 0.525722,-0.36174 0.315915,-0.1254 0.687296,-0.1254 0.385851,0 0.69212,0.12782 0.308681,0.1254 0.52331,0.35932 z m -0.04341,1.38424 q 0,-0.69936 -0.313504,-1.07797 -0.313503,-0.38103 -0.856106,-0.38103 -0.547426,0 -0.860929,0.38103 -0.311093,0.37861 -0.311093,1.07797 0,0.70659 0.318327,1.08279 0.318327,0.3738 0.853695,0.3738 0.535368,0 0.851283,-0.3738 0.318327,-0.3762 0.318327,-1.08279 z"
             style="font-size:4.93888903px;stroke-width:0.26458332"
             id="path2140" />
          <path
             inkscape:connector-curvature="0"
             d="m 61.983348,148.62234 q 0,0.72588 -0.236334,1.30466 -0.236334,0.57877 -0.663181,1.06832 h -0.552249 v -0.0241 q 0.185691,-0.16639 0.371382,-0.40755 0.188102,-0.23875 0.330384,-0.53537 0.149517,-0.30868 0.236334,-0.65112 0.08923,-0.34244 0.08923,-0.75482 0,-0.3955 -0.08923,-0.75241 -0.08923,-0.35691 -0.236334,-0.65354 -0.151928,-0.30626 -0.330384,-0.53536 -0.176045,-0.23151 -0.371382,-0.40756 v -0.0241 h 0.552249 q 0.426847,0.48954 0.663181,1.06832 0.236334,0.57878 0.236334,1.30466 z"
             style="font-size:4.93888903px;stroke-width:0.26458332"
             id="path2142" />
        </g>
      </g>
    </g>
  </g>
</svg>
