<?xml version="1.0" encoding="UTF-8" standalone="no"?>
<!-- Created with Inkscape (http://www.inkscape.org/) -->

<svg
   xmlns:dc="http://purl.org/dc/elements/1.1/"
   xmlns:cc="http://creativecommons.org/ns#"
   xmlns:rdf="http://www.w3.org/1999/02/22-rdf-syntax-ns#"
   xmlns:svg="http://www.w3.org/2000/svg"
   xmlns="http://www.w3.org/2000/svg"
   xmlns:sodipodi="http://sodipodi.sourceforge.net/DTD/sodipodi-0.dtd"
   xmlns:inkscape="http://www.inkscape.org/namespaces/inkscape"
   width="222mm"
   height="80mm"
   viewBox="0 0 222 80"
   version="1.1"
   id="svg8"
   inkscape:version="0.92.4 (5da689c313, 2019-01-14)"
   sodipodi:docname="c01-p10-i04.svg">
  <defs
     id="defs2" />
  <sodipodi:namedview
     id="base"
     pagecolor="#ffffff"
     bordercolor="#666666"
     borderopacity="1.0"
     inkscape:pageopacity="0.0"
     inkscape:pageshadow="2"
     inkscape:zoom="0.98994949"
     inkscape:cx="359.60312"
     inkscape:cy="314.65022"
     inkscape:document-units="mm"
     inkscape:current-layer="layer1"
     showgrid="false"
     inkscape:window-width="1920"
     inkscape:window-height="1017"
     inkscape:window-x="-8"
     inkscape:window-y="-8"
     inkscape:window-maximized="1"
     showguides="true"
     inkscape:guide-bbox="true" />
  <metadata
     id="metadata5">
    <rdf:RDF>
      <cc:Work
         rdf:about="">
        <dc:format>image/svg+xml</dc:format>
        <dc:type
           rdf:resource="http://purl.org/dc/dcmitype/StillImage" />
        <dc:title></dc:title>
      </cc:Work>
    </rdf:RDF>
  </metadata>
  <g
     inkscape:label="Capa 1"
     inkscape:groupmode="layer"
     id="layer1"
     transform="translate(0,-217)">
    <g
       id="g1347"
       transform="translate(-6.0577786,-7.6293945e-6)">
      <rect
         transform="scale(-1,1)"
         y="218.69408"
         x="-155.38583"
         height="76.611862"
         width="56.75563"
         id="rect4529"
         style="opacity:1;fill:none;stroke:#000000;stroke-width:0.5;stroke-miterlimit:4;stroke-dasharray:none;stroke-dashoffset:0;stroke-opacity:1" />
      <path
         sodipodi:nodetypes="cc"
         inkscape:connector-curvature="0"
         id="path4533"
         d="m 136.39841,218.82801 v 57.78021"
         style="fill:none;stroke:#000000;stroke-width:0.5;stroke-linecap:butt;stroke-linejoin:miter;stroke-miterlimit:4;stroke-dasharray:none;stroke-opacity:1" />
      <path
         inkscape:connector-curvature="0"
         id="path4535"
         d="M 155.48621,237.96305 H 136.30392"
         style="fill:none;stroke:#000000;stroke-width:0.5;stroke-linecap:butt;stroke-linejoin:miter;stroke-miterlimit:4;stroke-dasharray:none;stroke-opacity:1" />
      <path
         style="fill:none;stroke:#000000;stroke-width:0.5;stroke-linecap:butt;stroke-linejoin:miter;stroke-miterlimit:4;stroke-dasharray:none;stroke-opacity:1"
         d="M 155.48621,257.306 H 136.30392"
         id="path4537"
         inkscape:connector-curvature="0" />
      <path
         inkscape:connector-curvature="0"
         id="path4539"
         d="M 155.48621,276.35601 H 136.30392"
         style="fill:none;stroke:#000000;stroke-width:0.5;stroke-linecap:butt;stroke-linejoin:miter;stroke-miterlimit:4;stroke-dasharray:none;stroke-opacity:1" />
      <g
         id="text1075"
         style="font-style:normal;font-weight:normal;font-size:10.58333302px;line-height:1.25;font-family:sans-serif;letter-spacing:0px;word-spacing:0px;fill:#000000;fill-opacity:1;stroke:none;stroke-width:0.26458332"
         aria-label="8">
        <path
           id="path1186"
           style="font-size:7.05555534px;stroke-width:0.26458332"
           d="m 147.56996,229.92794 q 0,0.6649 -0.52021,1.10587 -0.51677,0.44097 -1.30225,0.44097 -0.83371,0 -1.3298,-0.43063 -0.49265,-0.43064 -0.49265,-1.10243 0,-0.4272 0.24804,-0.7717 0.24805,-0.34796 0.69936,-0.55122 v -0.0207 q -0.41341,-0.22049 -0.61323,-0.48231 -0.19637,-0.26183 -0.19637,-0.65457 0,-0.57878 0.47542,-0.96463 0.47543,-0.38585 1.20923,-0.38585 0.76826,0 1.22646,0.36863 0.45819,0.36862 0.45819,0.93706 0,0.34796 -0.21704,0.68558 -0.21704,0.33417 -0.63734,0.52365 v 0.0207 q 0.48231,0.20671 0.73725,0.50987 0.25494,0.30317 0.25494,0.77171 z m -0.81649,-2.50459 q 0,-0.36862 -0.28594,-0.58566 -0.2825,-0.22049 -0.72347,-0.22049 -0.43408,0 -0.71314,0.20671 -0.2756,0.2067 -0.2756,0.5581 0,0.24805 0.1378,0.43064 0.14125,0.17914 0.42375,0.32039 0.12746,0.062 0.36518,0.16192 0.24115,0.0999 0.46853,0.16537 0.34106,-0.22738 0.47198,-0.47198 0.13091,-0.2446 0.13091,-0.565 z m 0.1068,2.57004 q 0,-0.31695 -0.14125,-0.50643 -0.1378,-0.19292 -0.54433,-0.38585 -0.16192,-0.0758 -0.35484,-0.14125 -0.19293,-0.0654 -0.51332,-0.18259 -0.31006,0.16881 -0.49954,0.4582 -0.18603,0.28939 -0.18603,0.65457 0,0.46509 0.32039,0.76826 0.32039,0.30316 0.81304,0.30316 0.50299,0 0.80271,-0.25838 0.30317,-0.25838 0.30317,-0.70969 z"
           inkscape:connector-curvature="0" />
      </g>
      <g
         id="text1079"
         style="font-style:normal;font-weight:normal;font-size:10.58333302px;line-height:1.25;font-family:sans-serif;letter-spacing:0px;word-spacing:0px;fill:#000000;fill-opacity:1;stroke:none;stroke-width:0.26458332"
         aria-label="5">
        <path
           id="path1183"
           style="font-size:7.05555534px;stroke-width:0.26458332"
           d="m 147.49072,248.2487 q 0,0.35829 -0.13091,0.68558 -0.13092,0.32728 -0.35829,0.55121 -0.24805,0.24116 -0.59256,0.37207 -0.34106,0.12747 -0.79237,0.12747 -0.4203,0 -0.8096,-0.0896 -0.38929,-0.0861 -0.65801,-0.21015 v -0.72692 h 0.0482 q 0.2825,0.17915 0.66146,0.30662 0.37896,0.12402 0.74414,0.12402 0.2446,0 0.47198,-0.0689 0.23082,-0.0689 0.40996,-0.24116 0.15159,-0.14814 0.22738,-0.35484 0.0792,-0.20671 0.0792,-0.47887 0,-0.26527 -0.093,-0.44786 -0.0896,-0.18259 -0.25149,-0.29284 -0.17915,-0.13091 -0.43753,-0.18259 -0.25494,-0.0551 -0.57189,-0.0551 -0.30316,0 -0.58566,0.0413 -0.27905,0.0413 -0.48232,0.0827 v -2.64239 h 3.08681 v 0.60289 h -2.4219 v 1.36426 q 0.14814,-0.0138 0.30317,-0.0207 0.15503,-0.007 0.26871,-0.007 0.41686,0 0.73036,0.0723 0.31351,0.0689 0.57533,0.24805 0.27561,0.18948 0.4272,0.4892 0.15158,0.29973 0.15158,0.75103 z"
           inkscape:connector-curvature="0" />
      </g>
      <g
         id="text1083"
         style="font-style:normal;font-weight:normal;font-size:10.58333302px;line-height:1.25;font-family:sans-serif;letter-spacing:0px;word-spacing:0px;fill:#000000;fill-opacity:1;stroke:none;stroke-width:0.26458332"
         aria-label="2">
        <path
           id="path1180"
           style="font-size:7.05555534px;stroke-width:0.26458332"
           d="m 147.53206,268.92834 h -3.47265 v -0.72002 q 0.36173,-0.31006 0.72347,-0.62012 0.36518,-0.31006 0.67868,-0.61667 0.66146,-0.64079 0.90606,-1.0163 0.2446,-0.37896 0.2446,-0.81649 0,-0.39963 -0.26527,-0.62356 -0.26183,-0.22738 -0.73381,-0.22738 -0.3135,0 -0.67868,0.11024 -0.36518,0.11025 -0.71313,0.33762 h -0.0345 v -0.72347 q 0.24461,-0.12057 0.65113,-0.22048 0.40996,-0.0999 0.79237,-0.0999 0.78893,0 1.23679,0.38241 0.44786,0.37896 0.44786,1.03008 0,0.29283 -0.0758,0.54777 -0.0724,0.25149 -0.21704,0.47887 -0.13436,0.21359 -0.31695,0.4203 -0.17915,0.2067 -0.43753,0.4582 -0.36862,0.36173 -0.76136,0.7028 -0.39274,0.33762 -0.73381,0.627 h 2.75952 z"
           inkscape:connector-curvature="0" />
      </g>
      <g
         id="text1087"
         style="font-style:normal;font-weight:normal;font-size:10.58333302px;line-height:1.25;font-family:sans-serif;letter-spacing:0px;word-spacing:0px;fill:#000000;fill-opacity:1;stroke:none;stroke-width:0.26458332"
         aria-label="Write to A:">
        <path
           id="path1161"
           style="font-style:normal;font-variant:normal;font-weight:normal;font-stretch:normal;font-size:8.81944466px;font-family:'OCR A Extended';-inkscape-font-specification:'OCR A Extended';stroke-width:0.26458332"
           d="m 9.3912557,229.63817 v 2.40726 l 0.2110121,0.35312 h 0.3014458 l 0.2196244,-0.36173 v -4.26761 q 0,-0.15073 0.10766,-0.25838 0.111965,-0.11197 0.262688,-0.11197 0.146417,0 0.254076,0.10766 0.107659,0.10766 0.107659,0.25407 v 4.3925 q 0,0.0818 -0.09043,0.22824 l -0.335897,0.55552 q -0.103353,0.18517 -0.314365,0.18517 H 9.4343194 q -0.3229778,0 -0.4134115,-0.29283 -0.099047,0.29283 -0.396186,0.29283 H 7.9873792 q -0.2756076,0 -0.396186,-0.20239 l -0.3100586,-0.52108 q -0.086127,-0.14211 -0.086127,-0.24546 v -4.38388 q 0,-0.15073 0.1076593,-0.25838 0.1119656,-0.11197 0.2626885,-0.11197 0.1421102,0 0.2454631,0.11197 0.1076592,0.10765 0.1076592,0.25838 v 4.28483 l 0.2110121,0.34451 H 8.439548 l 0.2282376,-0.36173 v -2.39865 q 0,-0.15072 0.1033529,-0.25407 0.1076592,-0.10766 0.2583821,-0.10766 0.150723,0 0.2540758,0.10766 0.1076593,0.10335 0.1076593,0.25407 z"
           inkscape:connector-curvature="0" />
        <path
           id="path1163"
           style="font-style:normal;font-variant:normal;font-weight:normal;font-stretch:normal;font-size:8.81944466px;font-family:'OCR A Extended';-inkscape-font-specification:'OCR A Extended';stroke-width:0.26458332"
           d="m 12.526293,232.76029 v -3.43218 q 0,-0.15072 0.103353,-0.25838 0.107659,-0.11196 0.258382,-0.11196 0.150723,0 0.254076,0.10765 0.107659,0.10766 0.107659,0.26269 v 0.45217 l 0.589973,-0.50384 q 0.366041,-0.31006 0.714857,-0.31006 h 0.529683 q 0.447863,0 0.766534,0.31867 0.318671,0.31867 0.318671,0.76653 v 0.19379 q 0,0.15503 -0.107659,0.26269 -0.103353,0.10766 -0.254076,0.10766 -0.150723,0 -0.258382,-0.10336 -0.103353,-0.10765 -0.103353,-0.25838 v -0.2024 q 0,-0.15072 -0.107659,-0.25407 -0.103353,-0.10766 -0.254076,-0.10766 h -0.469394 q -0.150723,0 -0.335897,0.15933 l -1.029222,0.89142 v 2.01969 q 0,0.15072 -0.107659,0.25838 -0.10766,0.10335 -0.254076,0.10335 -0.150723,0 -0.258382,-0.10335 -0.103353,-0.10766 -0.103353,-0.25838 z"
           inkscape:connector-curvature="0" />
        <path
           id="path1165"
           style="font-style:normal;font-variant:normal;font-weight:normal;font-stretch:normal;font-size:8.81944466px;font-family:'OCR A Extended';-inkscape-font-specification:'OCR A Extended';stroke-width:0.26458332"
           d="m 19.295906,227.08019 h 0.37896 q 0.150723,0 0.254076,0.10766 0.107659,0.10335 0.107659,0.25407 v 0.31006 q 0,0.15072 -0.107659,0.26269 -0.103353,0.10766 -0.254076,0.10766 h -0.387573 q -0.155029,0 -0.262688,-0.11197 -0.103353,-0.11196 -0.09905,-0.24977 l 0.0086,-0.31867 q 0,-0.15072 0.103353,-0.25407 0.107659,-0.10766 0.258382,-0.10766 z m 1.472778,6.03322 h -2.204861 q -0.150723,0 -0.258382,-0.10335 -0.103353,-0.10766 -0.103353,-0.25838 0,-0.14642 0.103353,-0.25408 0.107659,-0.10766 0.258382,-0.10766 h 0.740696 v -2.70009 h -0.732083 q -0.150723,0 -0.258382,-0.10766 -0.103353,-0.10766 -0.103353,-0.25408 0,-0.15072 0.103353,-0.25838 0.107659,-0.11196 0.258382,-0.11196 h 1.10243 q 0.150723,0 0.254076,0.11196 0.107659,0.10766 0.107659,0.25838 v 3.06183 h 0.72347 q 0.150723,0 0.258383,0.10766 0.111965,0.10335 0.111965,0.25408 0,0.15072 -0.107659,0.25838 -0.107659,0.10335 -0.254076,0.10335 z"
           inkscape:connector-curvature="0" />
        <path
           id="path1167"
           style="font-style:normal;font-variant:normal;font-weight:normal;font-stretch:normal;font-size:8.81944466px;font-family:'OCR A Extended';-inkscape-font-specification:'OCR A Extended';stroke-width:0.26458332"
           d="m 25.712396,233.12202 h -0.72347 q -0.447862,0 -0.77084,-0.31867 -0.322977,-0.31867 -0.322977,-0.76653 v -2.34697 h -0.370348 q -0.150723,0 -0.258382,-0.10335 -0.103353,-0.10336 -0.103353,-0.25839 0,-0.15072 0.103353,-0.25407 0.107659,-0.10766 0.258382,-0.10766 h 0.37896 v -0.88711 q 0,-0.15073 0.103353,-0.25408 0.107659,-0.10766 0.258382,-0.10766 0.142111,0 0.24977,0.10766 0.111965,0.10766 0.111965,0.25408 v 0.88711 h 1.455553 q 0.146417,0 0.254076,0.10766 0.107659,0.10766 0.107659,0.25407 0,0.15073 -0.107659,0.25839 -0.107659,0.10335 -0.254076,0.10335 h -1.464165 v 2.34697 q 0,0.14642 0.107659,0.25408 0.111965,0.10765 0.262688,0.10765 h 0.706245 q 0.288527,0 0.383267,-0.31005 0.09474,-0.31437 0.366041,-0.31437 0.159336,0 0.258382,0.10766 0.103353,0.10335 0.103353,0.26269 0,0.32728 -0.310058,0.65457 -0.305752,0.32297 -0.78376,0.32297 z"
           inkscape:connector-curvature="0" />
        <path
           id="path1169"
           style="font-style:normal;font-variant:normal;font-weight:normal;font-stretch:normal;font-size:8.81944466px;font-family:'OCR A Extended';-inkscape-font-specification:'OCR A Extended';stroke-width:0.26458332"
           d="m 32.1375,230.32719 v 0.87419 q 0,0.14642 -0.107659,0.25408 -0.10766,0.10766 -0.254076,0.10766 h -2.557984 v 0.21101 q 0,0.18517 0.159336,0.31437 l 0.211012,0.17656 q 0.172255,0.13349 0.327284,0.13349 h 1.860352 q 0.146416,0 0.254076,0.10766 0.107659,0.10336 0.107659,0.25408 0,0.14642 -0.111966,0.25408 -0.107659,0.10765 -0.249769,0.10765 h -1.907722 q -0.18948,0 -0.400492,-0.0775 -0.206706,-0.0818 -0.305752,-0.16795 l -0.322978,-0.28422 q -0.150723,-0.12058 -0.254076,-0.3359 -0.09905,-0.21531 -0.09905,-0.39618 v -1.65795 q 0,-0.14211 0.107659,-0.38327 0.111965,-0.24116 0.279914,-0.37465 l 0.301446,-0.23686 q 0.297139,-0.24115 0.658874,-0.24115 h 1.016303 q 0.383267,0 0.723471,0.31867 l 0.271301,0.25838 q 0.292833,0.26269 0.292833,0.78376 z m -2.911106,-0.056 v 0.55983 h 2.196249 v -0.50385 q 0,-0.2024 -0.124885,-0.31006 l -0.211012,-0.18517 q -0.163642,-0.1335 -0.292833,-0.1335 h -0.908644 q -0.167949,0 -0.305753,0.11627 l -0.211012,0.17656 q -0.14211,0.10766 -0.14211,0.27992 z"
           inkscape:connector-curvature="0" />
        <path
           id="path1171"
           style="font-style:normal;font-variant:normal;font-weight:normal;font-stretch:normal;font-size:8.81944466px;font-family:'OCR A Extended';-inkscape-font-specification:'OCR A Extended';stroke-width:0.26458332"
           d="m 41.680415,233.12202 h -0.72347 q -0.447862,0 -0.77084,-0.31867 -0.322978,-0.31867 -0.322978,-0.76653 v -2.34697 h -0.370348 q -0.150723,0 -0.258382,-0.10335 -0.103353,-0.10336 -0.103353,-0.25839 0,-0.15072 0.103353,-0.25407 0.107659,-0.10766 0.258382,-0.10766 h 0.378961 v -0.88711 q 0,-0.15073 0.103353,-0.25408 0.107659,-0.10766 0.258382,-0.10766 0.14211,0 0.249769,0.10766 0.111966,0.10766 0.111966,0.25408 v 0.88711 h 1.455553 q 0.146416,0 0.254076,0.10766 0.107659,0.10766 0.107659,0.25407 0,0.15073 -0.107659,0.25839 -0.10766,0.10335 -0.254076,0.10335 h -1.464166 v 2.34697 q 0,0.14642 0.107659,0.25408 0.111966,0.10765 0.262689,0.10765 h 0.706245 q 0.288526,0 0.383266,-0.31005 0.09474,-0.31437 0.366042,-0.31437 0.159336,0 0.258382,0.10766 0.103353,0.10335 0.103353,0.26269 0,0.32728 -0.310059,0.65457 -0.305752,0.32297 -0.783759,0.32297 z"
           inkscape:connector-curvature="0" />
        <path
           id="path1173"
           style="font-style:normal;font-variant:normal;font-weight:normal;font-stretch:normal;font-size:8.81944466px;font-family:'OCR A Extended';-inkscape-font-specification:'OCR A Extended';stroke-width:0.26458332"
           d="m 48.105517,230.27121 v 1.52876 q 0,0.48662 -0.460781,0.90003 -0.456475,0.41341 -0.943095,0.41341 h -0.848355 q -0.495232,0 -0.947401,-0.41772 -0.452169,-0.42202 -0.452169,-0.89572 v -1.52876 q 0,-0.4737 0.43925,-0.89142 0.443556,-0.42202 0.96032,-0.42202 h 0.848355 q 0.48662,-0.009 0.943095,0.40479 0.460781,0.41342 0.460781,0.90865 z m -2.919718,0.0301 v 1.46417 q 0,0.19809 0.14211,0.31436 l 0.271301,0.23255 q 0.09043,0.0775 0.254076,0.0775 h 0.839742 q 0.185174,0 0.335897,-0.1335 l 0.219625,-0.19378 q 0.133497,-0.10336 0.133497,-0.28853 v -1.46416 q 0,-0.21532 -0.133497,-0.31868 l -0.254076,-0.2024 q -0.129191,-0.10765 -0.301446,-0.10765 H 45.94372 q -0.245463,0 -0.37896,0.11627 l -0.245464,0.21101 q -0.133497,0.11197 -0.133497,0.29283 z"
           inkscape:connector-curvature="0" />
        <path
           id="path1175"
           style="font-style:normal;font-variant:normal;font-weight:normal;font-stretch:normal;font-size:8.81944466px;font-family:'OCR A Extended';-inkscape-font-specification:'OCR A Extended';stroke-width:0.26458332"
           d="m 55.129208,232.61818 1.464166,-4.94802 q 0.08613,-0.2713 0.361735,-0.2713 0.266995,0 0.335897,0.22824 l 1.442634,5.02553 q 0.01722,0.056 0.01722,0.10766 0,0.15072 -0.103353,0.25838 -0.103353,0.10335 -0.23685,0.10335 -0.28422,0 -0.361735,-0.26268 l -0.292833,-0.98186 h -1.64934 l -0.318671,1.05076 q -0.01292,0.0689 -0.107659,0.1335 -0.09474,0.0603 -0.206706,0.0603 -0.159336,0 -0.262689,-0.10765 -0.103352,-0.10766 -0.103352,-0.26269 0,-0.0646 0.02153,-0.1335 z m 1.817288,-3.54414 -0.620117,2.07136 h 1.218703 z"
           inkscape:connector-curvature="0" />
        <path
           id="path1177"
           style="font-style:normal;font-variant:normal;font-weight:normal;font-stretch:normal;font-size:8.81944466px;font-family:'OCR A Extended';-inkscape-font-specification:'OCR A Extended';stroke-width:0.26458332"
           d="m 61.885903,228.34195 h 0.72347 q 0.15503,0 0.262689,0.11628 0.107659,0.11627 0.107659,0.24546 v 0.62442 q 0,0.14642 -0.111966,0.25408 -0.107659,0.10766 -0.249769,0.10766 H 61.87729 q -0.150722,0 -0.254075,-0.10335 -0.09905,-0.10336 -0.09905,-0.25839 v -0.62442 q 0,-0.14642 0.103353,-0.25408 0.107659,-0.10766 0.258382,-0.10766 z m 0,2.4977 h 0.72347 q 0.150723,0 0.258382,0.10766 0.111966,0.10335 0.111966,0.25407 v 0.61581 q 0,0.15073 -0.107659,0.26269 -0.107659,0.10766 -0.254076,0.10766 H 61.87729 q -0.150722,0 -0.254075,-0.10766 -0.09905,-0.10766 -0.09905,-0.25407 v -0.62443 q 0,-0.15503 0.103353,-0.25838 0.107659,-0.10335 0.258382,-0.10335 z"
           inkscape:connector-curvature="0" />
      </g>
      <g
         id="text1091"
         style="font-style:normal;font-weight:normal;font-size:10.58333302px;line-height:1.25;font-family:sans-serif;letter-spacing:0px;word-spacing:0px;fill:#000000;fill-opacity:1;stroke:none;stroke-width:0.26458332"
         aria-label="Exit menu">
        <path
           id="path1144"
           style="font-style:normal;font-variant:normal;font-weight:normal;font-stretch:normal;font-size:8.81944466px;font-family:'OCR A Extended';-inkscape-font-specification:'OCR A Extended';stroke-width:0.26458332"
           d="M 10.476461,266.24134 H 7.9184774 v 1.7613 H 9.020908 q 0.1464166,0 0.2540758,0.10766 0.1076592,0.10766 0.1076592,0.25408 0,0.15503 -0.1076592,0.26269 -0.1033529,0.10766 -0.2540758,0.10766 H 7.9184774 v 1.77422 h 2.5665966 q 0.146416,0 0.254075,0.10766 0.10766,0.10335 0.10766,0.25408 0,0.15072 -0.111966,0.25838 -0.107659,0.10335 -0.258382,0.10335 H 7.1950073 v -5.72316 h 3.2814537 q 0.150723,0 0.258382,0.11196 0.111966,0.10766 0.111966,0.25838 0,0.14642 -0.111966,0.25408 -0.107659,0.10766 -0.258382,0.10766 z"
           inkscape:connector-curvature="0" />
        <path
           id="path1146"
           style="font-style:normal;font-variant:normal;font-weight:normal;font-stretch:normal;font-size:8.81944466px;font-family:'OCR A Extended';-inkscape-font-specification:'OCR A Extended';stroke-width:0.26458332"
           d="m 14.40387,269.67352 -1.184252,1.40818 q -0.116272,0.15072 -0.288526,0.15072 -0.15503,0 -0.258383,-0.10766 -0.103352,-0.10766 -0.103352,-0.26269 0,-0.1378 0.0689,-0.21962 l 1.296217,-1.5546 -1.197171,-1.42541 q -0.08182,-0.0947 -0.08182,-0.21532 0,-0.14211 0.09905,-0.25407 0.103352,-0.11627 0.262688,-0.11627 0.180868,0 0.292833,0.13349 l 1.093818,1.31345 1.119656,-1.32206 q 0.103353,-0.12488 0.258382,-0.12488 0.137804,0 0.24977,0.099 0.111965,0.0947 0.111965,0.24546 0,0.14642 -0.04737,0.2024 l -1.218702,1.47278 1.278991,1.54599 q 0.07321,0.0818 0.07321,0.2024 0,0.16364 -0.111966,0.27561 -0.107659,0.10766 -0.249769,0.10766 -0.167949,0 -0.292833,-0.14642 z"
           inkscape:connector-curvature="0" />
        <path
           id="path1148"
           style="font-style:normal;font-variant:normal;font-weight:normal;font-stretch:normal;font-size:8.81944466px;font-family:'OCR A Extended';-inkscape-font-specification:'OCR A Extended';stroke-width:0.26458332"
           d="m 19.287293,265.19059 h 0.378961 q 0.150723,0 0.254075,0.10765 0.10766,0.10336 0.10766,0.25408 v 0.31006 q 0,0.15072 -0.10766,0.26269 -0.103352,0.10766 -0.254075,0.10766 H 19.27868 q -0.155029,0 -0.262688,-0.11197 -0.103353,-0.11196 -0.09905,-0.24977 l 0.0086,-0.31867 q 0,-0.15072 0.103353,-0.25408 0.107659,-0.10765 0.258382,-0.10765 z m 1.472779,6.03322 H 18.55521 q -0.150723,0 -0.258382,-0.10335 -0.103353,-0.10766 -0.103353,-0.25839 0,-0.14641 0.103353,-0.25407 0.107659,-0.10766 0.258382,-0.10766 h 0.740696 v -2.70009 h -0.732083 q -0.150723,0 -0.258382,-0.10766 -0.103353,-0.10766 -0.103353,-0.25408 0,-0.15072 0.103353,-0.25838 0.107659,-0.11197 0.258382,-0.11197 h 1.102431 q 0.150723,0 0.254075,0.11197 0.10766,0.10766 0.10766,0.25838 v 3.06183 h 0.72347 q 0.150723,0 0.258382,0.10766 0.111966,0.10335 0.111966,0.25407 0,0.15073 -0.10766,0.25839 -0.107659,0.10335 -0.254075,0.10335 z"
           inkscape:connector-curvature="0" />
        <path
           id="path1150"
           style="font-style:normal;font-variant:normal;font-weight:normal;font-stretch:normal;font-size:8.81944466px;font-family:'OCR A Extended';-inkscape-font-specification:'OCR A Extended';stroke-width:0.26458332"
           d="m 25.703784,271.23242 h -0.72347 q -0.447863,0 -0.77084,-0.31867 -0.322978,-0.31867 -0.322978,-0.76653 v -2.34697 h -0.370348 q -0.150723,0 -0.258382,-0.10336 -0.103353,-0.10335 -0.103353,-0.25838 0,-0.15072 0.103353,-0.25408 0.107659,-0.10765 0.258382,-0.10765 h 0.378961 v -0.88712 q 0,-0.15072 0.103353,-0.25407 0.107659,-0.10766 0.258382,-0.10766 0.14211,0 0.249769,0.10766 0.111966,0.10766 0.111966,0.25407 v 0.88712 h 1.455553 q 0.146416,0 0.254075,0.10765 0.10766,0.10766 0.10766,0.25408 0,0.15072 -0.10766,0.25838 -0.107659,0.10336 -0.254075,0.10336 h -1.464166 v 2.34697 q 0,0.14641 0.107659,0.25407 0.111966,0.10766 0.262689,0.10766 h 0.706244 q 0.288527,0 0.383267,-0.31006 0.09474,-0.31436 0.366042,-0.31436 0.159335,0 0.258382,0.10766 0.103353,0.10335 0.103353,0.26269 0,0.32728 -0.310059,0.65456 -0.305752,0.32298 -0.783759,0.32298 z"
           inkscape:connector-curvature="0" />
        <path
           id="path1152"
           style="font-style:normal;font-variant:normal;font-weight:normal;font-stretch:normal;font-size:8.81944466px;font-family:'OCR A Extended';-inkscape-font-specification:'OCR A Extended';stroke-width:0.26458332"
           d="m 33.717939,270.87069 v -3.43218 q 0,-0.15072 0.103353,-0.25408 0.107659,-0.10765 0.258382,-0.10765 0.279914,0 0.353122,0.2756 0.301446,-0.28422 0.671794,-0.28422 0.434943,0 0.714857,0.37035 0.34451,-0.37035 0.757921,-0.37035 0.335897,0 0.58136,0.24116 0.249769,0.23685 0.266995,0.6072 l 0.103353,2.95417 q 0,0.14641 -0.10766,0.25407 -0.107659,0.10766 -0.254075,0.10766 -0.150723,0 -0.258382,-0.10766 -0.10766,-0.10766 -0.111966,-0.25407 l -0.08613,-2.8379 q -0.0086,-0.23254 -0.142111,-0.23254 -0.07321,0 -0.150723,0.0646 l -0.430637,0.36174 v 2.64411 q 0,0.14641 -0.107659,0.24977 -0.103353,0.10335 -0.254076,0.10335 -0.146416,0 -0.254075,-0.10335 -0.10766,-0.10766 -0.10766,-0.25839 v -2.87665 q 0,-0.18517 -0.159335,-0.18517 -0.07751,0 -0.14211,0.056 l -0.521071,0.43925 v 2.57521 q 0,0.14641 -0.103353,0.25407 -0.103353,0.10766 -0.249769,0.10766 -0.150723,0 -0.262689,-0.10766 -0.107659,-0.10766 -0.107659,-0.25407 z"
           inkscape:connector-curvature="0" />
        <path
           id="path1154"
           style="font-style:normal;font-variant:normal;font-weight:normal;font-stretch:normal;font-size:8.81944466px;font-family:'OCR A Extended';-inkscape-font-specification:'OCR A Extended';stroke-width:0.26458332"
           d="m 42.774233,268.43759 v 0.87419 q 0,0.14642 -0.107659,0.25408 -0.107659,0.10766 -0.254076,0.10766 h -2.557984 v 0.21101 q 0,0.18517 0.159336,0.31436 l 0.211012,0.17656 q 0.172255,0.1335 0.327284,0.1335 h 1.860352 q 0.146417,0 0.254076,0.10766 0.107659,0.10335 0.107659,0.25408 0,0.14641 -0.111966,0.25407 -0.107659,0.10766 -0.249769,0.10766 h -1.907722 q -0.18948,0 -0.400492,-0.0775 -0.206706,-0.0818 -0.305752,-0.16795 l -0.322978,-0.28422 q -0.150723,-0.12058 -0.254076,-0.3359 -0.09905,-0.21532 -0.09905,-0.39618 v -1.65796 q 0,-0.14211 0.107659,-0.38326 0.111966,-0.24116 0.279914,-0.37466 l 0.301446,-0.23685 q 0.297139,-0.24115 0.658874,-0.24115 h 1.016304 q 0.383266,0 0.72347,0.31867 l 0.271301,0.25838 q 0.292833,0.26269 0.292833,0.78376 z m -2.911106,-0.056 v 0.55982 h 2.196249 v -0.50384 q 0,-0.2024 -0.124885,-0.31006 l -0.211012,-0.18517 q -0.163642,-0.1335 -0.292833,-0.1335 h -0.908644 q -0.167949,0 -0.305752,0.11627 l -0.211013,0.17656 q -0.14211,0.10766 -0.14211,0.27992 z"
           inkscape:connector-curvature="0" />
        <path
           id="path1156"
           style="font-style:normal;font-variant:normal;font-weight:normal;font-stretch:normal;font-size:8.81944466px;font-family:'OCR A Extended';-inkscape-font-specification:'OCR A Extended';stroke-width:0.26458332"
           d="m 46.163345,267.91652 -0.986159,0.64165 v 2.31252 q 0,0.14641 -0.107659,0.25407 -0.107659,0.10766 -0.254076,0.10766 -0.146416,0 -0.254075,-0.10766 -0.10766,-0.10766 -0.10766,-0.25407 v -3.43218 q 0,-0.15072 0.103353,-0.25838 0.107659,-0.11197 0.258382,-0.11197 0.146417,0 0.254076,0.11197 0.107659,0.10766 0.107659,0.25838 v 0.24116 l 0.658875,-0.4005 q 0.33159,-0.21101 0.749308,-0.21101 h 0.335897 q 0.430637,0 0.745002,0.30575 0.314365,0.30576 0.33159,0.75362 l 0.09905,2.74316 q 0.0043,0.14641 -0.103353,0.25407 -0.107659,0.10766 -0.258382,0.10766 -0.14211,0 -0.24977,-0.0947 -0.107659,-0.099 -0.111965,-0.26699 l -0.107659,-2.7001 q -0.01292,-0.37896 -0.396186,-0.37896 H 46.51647 q -0.163642,0 -0.353122,0.12489 z"
           inkscape:connector-curvature="0" />
        <path
           id="path1158"
           style="font-style:normal;font-variant:normal;font-weight:normal;font-stretch:normal;font-size:8.81944466px;font-family:'OCR A Extended';-inkscape-font-specification:'OCR A Extended';stroke-width:0.26458332"
           d="m 51.494632,270.50034 1.218702,-0.77515 v -2.28668 q 0,-0.15072 0.103353,-0.25838 0.107659,-0.11197 0.258382,-0.11197 0.150723,0 0.254076,0.11197 0.107659,0.10766 0.107659,0.25838 v 3.43218 q 0,0.14641 -0.107659,0.25407 -0.107659,0.10766 -0.254076,0.10766 -0.146416,0 -0.254076,-0.10766 -0.107659,-0.10766 -0.107659,-0.25407 v -0.28422 l -0.62873,0.4091 q -0.370348,0.23685 -0.749308,0.23685 h -0.335897 q -0.443556,0 -0.762227,-0.31006 -0.318672,-0.31006 -0.340204,-0.75792 l -0.103352,-2.72593 q -0.0086,-0.14211 0.09905,-0.24977 0.111966,-0.11196 0.262689,-0.11196 0.146416,0 0.249769,0.10765 0.107659,0.10766 0.111966,0.25408 l 0.09474,2.67426 q 0.01292,0.38757 0.443556,0.38757 z"
           inkscape:connector-curvature="0" />
      </g>
      <g
         id="text1095"
         style="font-style:normal;font-weight:normal;font-size:10.58333302px;line-height:1.25;font-family:sans-serif;letter-spacing:0px;word-spacing:0px;fill:#000000;fill-opacity:1;stroke:none;stroke-width:0.26458332"
         aria-label="Write to B:">
        <path
           id="path1125"
           style="font-style:normal;font-variant:normal;font-weight:normal;font-stretch:normal;font-size:8.81944466px;font-family:'OCR A Extended';-inkscape-font-specification:'OCR A Extended';stroke-width:0.26458332"
           d="m 9.3912557,248.648 v 2.40726 l 0.2110121,0.35312 h 0.3014458 l 0.2196244,-0.36173 v -4.26762 q 0,-0.15072 0.10766,-0.25838 0.111965,-0.11196 0.262688,-0.11196 0.146417,0 0.254076,0.10766 0.107659,0.10765 0.107659,0.25407 v 4.3925 q 0,0.0818 -0.09043,0.22824 l -0.335897,0.55552 q -0.103353,0.18517 -0.314365,0.18517 H 9.4343194 q -0.3229778,0 -0.4134115,-0.29283 -0.099047,0.29283 -0.396186,0.29283 H 7.9873792 q -0.2756076,0 -0.396186,-0.2024 l -0.3100586,-0.52107 q -0.086127,-0.14211 -0.086127,-0.24546 v -4.38389 q 0,-0.15072 0.1076593,-0.25838 0.1119656,-0.11196 0.2626885,-0.11196 0.1421102,0 0.2454631,0.11196 0.1076592,0.10766 0.1076592,0.25838 v 4.28484 l 0.2110121,0.34451 H 8.439548 l 0.2282376,-0.36173 V 248.648 q 0,-0.15072 0.1033529,-0.25408 0.1076592,-0.10766 0.2583821,-0.10766 0.150723,0 0.2540758,0.10766 0.1076593,0.10336 0.1076593,0.25408 z"
           inkscape:connector-curvature="0" />
        <path
           id="path1127"
           style="font-style:normal;font-variant:normal;font-weight:normal;font-stretch:normal;font-size:8.81944466px;font-family:'OCR A Extended';-inkscape-font-specification:'OCR A Extended';stroke-width:0.26458332"
           d="m 12.526293,251.77012 v -3.43218 q 0,-0.15072 0.103353,-0.25838 0.107659,-0.11197 0.258382,-0.11197 0.150723,0 0.254076,0.10766 0.107659,0.10766 0.107659,0.26269 v 0.45217 l 0.589973,-0.50385 q 0.366041,-0.31006 0.714857,-0.31006 h 0.529683 q 0.447863,0 0.766534,0.31868 0.318671,0.31867 0.318671,0.76653 v 0.19379 q 0,0.15503 -0.107659,0.26268 -0.103353,0.10766 -0.254076,0.10766 -0.150723,0 -0.258382,-0.10335 -0.103353,-0.10766 -0.103353,-0.25838 v -0.2024 q 0,-0.15072 -0.107659,-0.25408 -0.103353,-0.10766 -0.254076,-0.10766 h -0.469394 q -0.150723,0 -0.335897,0.15934 l -1.029222,0.89142 v 2.01969 q 0,0.15072 -0.107659,0.25838 -0.10766,0.10335 -0.254076,0.10335 -0.150723,0 -0.258382,-0.10335 -0.103353,-0.10766 -0.103353,-0.25838 z"
           inkscape:connector-curvature="0" />
        <path
           id="path1129"
           style="font-style:normal;font-variant:normal;font-weight:normal;font-stretch:normal;font-size:8.81944466px;font-family:'OCR A Extended';-inkscape-font-specification:'OCR A Extended';stroke-width:0.26458332"
           d="m 19.295906,246.09001 h 0.37896 q 0.150723,0 0.254076,0.10766 0.107659,0.10336 0.107659,0.25408 v 0.31006 q 0,0.15072 -0.107659,0.26269 -0.103353,0.10766 -0.254076,0.10766 h -0.387573 q -0.155029,0 -0.262688,-0.11197 -0.103353,-0.11196 -0.09905,-0.24977 l 0.0086,-0.31867 q 0,-0.15072 0.103353,-0.25408 0.107659,-0.10766 0.258382,-0.10766 z m 1.472778,6.03323 h -2.204861 q -0.150723,0 -0.258382,-0.10335 -0.103353,-0.10766 -0.103353,-0.25839 0,-0.14641 0.103353,-0.25407 0.107659,-0.10766 0.258382,-0.10766 h 0.740696 v -2.7001 h -0.732083 q -0.150723,0 -0.258382,-0.10765 -0.103353,-0.10766 -0.103353,-0.25408 0,-0.15072 0.103353,-0.25838 0.107659,-0.11197 0.258382,-0.11197 h 1.10243 q 0.150723,0 0.254076,0.11197 0.107659,0.10766 0.107659,0.25838 v 3.06183 h 0.72347 q 0.150723,0 0.258383,0.10766 0.111965,0.10335 0.111965,0.25407 0,0.15073 -0.107659,0.25839 -0.107659,0.10335 -0.254076,0.10335 z"
           inkscape:connector-curvature="0" />
        <path
           id="path1131"
           style="font-style:normal;font-variant:normal;font-weight:normal;font-stretch:normal;font-size:8.81944466px;font-family:'OCR A Extended';-inkscape-font-specification:'OCR A Extended';stroke-width:0.26458332"
           d="m 25.712396,252.13185 h -0.72347 q -0.447862,0 -0.77084,-0.31867 -0.322977,-0.31867 -0.322977,-0.76653 v -2.34698 h -0.370348 q -0.150723,0 -0.258382,-0.10335 -0.103353,-0.10335 -0.103353,-0.25838 0,-0.15072 0.103353,-0.25408 0.107659,-0.10766 0.258382,-0.10766 h 0.37896 v -0.88711 q 0,-0.15072 0.103353,-0.25407 0.107659,-0.10766 0.258382,-0.10766 0.142111,0 0.24977,0.10766 0.111965,0.10766 0.111965,0.25407 v 0.88711 h 1.455553 q 0.146417,0 0.254076,0.10766 0.107659,0.10766 0.107659,0.25408 0,0.15072 -0.107659,0.25838 -0.107659,0.10335 -0.254076,0.10335 h -1.464165 v 2.34698 q 0,0.14641 0.107659,0.25407 0.111965,0.10766 0.262688,0.10766 h 0.706245 q 0.288527,0 0.383267,-0.31006 0.09474,-0.31436 0.366041,-0.31436 0.159336,0 0.258382,0.10766 0.103353,0.10335 0.103353,0.26269 0,0.32728 -0.310058,0.65456 -0.305752,0.32298 -0.78376,0.32298 z"
           inkscape:connector-curvature="0" />
        <path
           id="path1133"
           style="font-style:normal;font-variant:normal;font-weight:normal;font-stretch:normal;font-size:8.81944466px;font-family:'OCR A Extended';-inkscape-font-specification:'OCR A Extended';stroke-width:0.26458332"
           d="m 32.1375,249.33702 v 0.87419 q 0,0.14642 -0.107659,0.25408 -0.10766,0.10766 -0.254076,0.10766 h -2.557984 v 0.21101 q 0,0.18517 0.159336,0.31436 l 0.211012,0.17656 q 0.172255,0.1335 0.327284,0.1335 h 1.860352 q 0.146416,0 0.254076,0.10766 0.107659,0.10335 0.107659,0.25408 0,0.14641 -0.111966,0.25407 -0.107659,0.10766 -0.249769,0.10766 h -1.907722 q -0.18948,0 -0.400492,-0.0775 -0.206706,-0.0818 -0.305752,-0.16795 l -0.322978,-0.28422 q -0.150723,-0.12058 -0.254076,-0.3359 -0.09905,-0.21532 -0.09905,-0.39619 v -1.65795 q 0,-0.14211 0.107659,-0.38326 0.111965,-0.24116 0.279914,-0.37466 l 0.301446,-0.23685 q 0.297139,-0.24116 0.658874,-0.24116 h 1.016303 q 0.383267,0 0.723471,0.31868 l 0.271301,0.25838 q 0.292833,0.26269 0.292833,0.78376 z m -2.911106,-0.056 v 0.55983 h 2.196249 v -0.50384 q 0,-0.2024 -0.124885,-0.31006 l -0.211012,-0.18518 q -0.163642,-0.13349 -0.292833,-0.13349 h -0.908644 q -0.167949,0 -0.305753,0.11627 l -0.211012,0.17656 q -0.14211,0.10766 -0.14211,0.27991 z"
           inkscape:connector-curvature="0" />
        <path
           id="path1135"
           style="font-style:normal;font-variant:normal;font-weight:normal;font-stretch:normal;font-size:8.81944466px;font-family:'OCR A Extended';-inkscape-font-specification:'OCR A Extended';stroke-width:0.26458332"
           d="m 41.680415,252.13185 h -0.72347 q -0.447862,0 -0.77084,-0.31867 -0.322978,-0.31867 -0.322978,-0.76653 v -2.34698 h -0.370348 q -0.150723,0 -0.258382,-0.10335 -0.103353,-0.10335 -0.103353,-0.25838 0,-0.15072 0.103353,-0.25408 0.107659,-0.10766 0.258382,-0.10766 h 0.378961 v -0.88711 q 0,-0.15072 0.103353,-0.25407 0.107659,-0.10766 0.258382,-0.10766 0.14211,0 0.249769,0.10766 0.111966,0.10766 0.111966,0.25407 v 0.88711 h 1.455553 q 0.146416,0 0.254076,0.10766 0.107659,0.10766 0.107659,0.25408 0,0.15072 -0.107659,0.25838 -0.10766,0.10335 -0.254076,0.10335 h -1.464166 v 2.34698 q 0,0.14641 0.107659,0.25407 0.111966,0.10766 0.262689,0.10766 h 0.706245 q 0.288526,0 0.383266,-0.31006 0.09474,-0.31436 0.366042,-0.31436 0.159336,0 0.258382,0.10766 0.103353,0.10335 0.103353,0.26269 0,0.32728 -0.310059,0.65456 -0.305752,0.32298 -0.783759,0.32298 z"
           inkscape:connector-curvature="0" />
        <path
           id="path1137"
           style="font-style:normal;font-variant:normal;font-weight:normal;font-stretch:normal;font-size:8.81944466px;font-family:'OCR A Extended';-inkscape-font-specification:'OCR A Extended';stroke-width:0.26458332"
           d="m 48.105517,249.28103 v 1.52877 q 0,0.48662 -0.460781,0.90003 -0.456475,0.41341 -0.943095,0.41341 h -0.848355 q -0.495232,0 -0.947401,-0.41772 -0.452169,-0.42202 -0.452169,-0.89572 v -1.52877 q 0,-0.4737 0.43925,-0.89141 0.443556,-0.42203 0.96032,-0.42203 h 0.848355 q 0.48662,-0.009 0.943095,0.4048 0.460781,0.41341 0.460781,0.90864 z m -2.919718,0.0302 v 1.46416 q 0,0.1981 0.14211,0.31437 l 0.271301,0.23254 q 0.09043,0.0775 0.254076,0.0775 h 0.839742 q 0.185174,0 0.335897,-0.1335 l 0.219625,-0.19379 q 0.133497,-0.10335 0.133497,-0.28852 v -1.46417 q 0,-0.21532 -0.133497,-0.31867 l -0.254076,-0.2024 q -0.129191,-0.10766 -0.301446,-0.10766 H 45.94372 q -0.245463,0 -0.37896,0.11627 l -0.245464,0.21102 q -0.133497,0.11196 -0.133497,0.29283 z"
           inkscape:connector-curvature="0" />
        <path
           id="path1139"
           style="font-style:normal;font-variant:normal;font-weight:normal;font-stretch:normal;font-size:8.81944466px;font-family:'OCR A Extended';-inkscape-font-specification:'OCR A Extended';stroke-width:0.26458332"
           d="m 58.750865,250.35763 v 0.31867 q 0,0.59858 -0.42633,1.02922 -0.422025,0.42633 -1.02061,0.42633 h -2.213474 v -5.72316 h 2.213474 q 0.598585,0 1.02061,0.42633 0.42633,0.42633 0.42633,1.02922 v 0.30575 q 0,0.64165 -0.495232,1.09382 0.495232,0.46078 0.495232,1.09382 z m -0.740695,-2.19625 v -0.29714 q 0,-0.30145 -0.215319,-0.51677 -0.211012,-0.21531 -0.508152,-0.21531 h -1.472778 v 1.75269 h 1.472778 q 0.292834,0 0.508152,-0.21101 0.215319,-0.21532 0.215319,-0.51246 z m 0,2.51492 v -0.30145 q 0,-0.30144 -0.215319,-0.51676 -0.211012,-0.21532 -0.508152,-0.21532 h -1.464165 v 1.757 h 1.464165 q 0.292834,0 0.508152,-0.21101 0.215319,-0.21532 0.215319,-0.51246 z"
           inkscape:connector-curvature="0" />
        <path
           id="path1141"
           style="font-style:normal;font-variant:normal;font-weight:normal;font-stretch:normal;font-size:8.81944466px;font-family:'OCR A Extended';-inkscape-font-specification:'OCR A Extended';stroke-width:0.26458332"
           d="m 61.885903,247.35178 h 0.72347 q 0.15503,0 0.262689,0.11627 0.107659,0.11628 0.107659,0.24547 v 0.62442 q 0,0.14642 -0.111966,0.25408 -0.107659,0.10765 -0.249769,0.10765 H 61.87729 q -0.150722,0 -0.254075,-0.10335 -0.09905,-0.10335 -0.09905,-0.25838 v -0.62442 q 0,-0.14642 0.103353,-0.25408 0.107659,-0.10766 0.258382,-0.10766 z m 0,2.4977 h 0.72347 q 0.150723,0 0.258382,0.10765 0.111966,0.10336 0.111966,0.25408 v 0.61581 q 0,0.15072 -0.107659,0.26269 -0.107659,0.10766 -0.254076,0.10766 H 61.87729 q -0.150722,0 -0.254075,-0.10766 -0.09905,-0.10766 -0.09905,-0.25408 v -0.62442 q 0,-0.15503 0.103353,-0.25838 0.107659,-0.10335 0.258382,-0.10335 z"
           inkscape:connector-curvature="0" />
      </g>
      <g
         id="text1099"
         style="font-style:normal;font-weight:normal;font-size:10.58333302px;line-height:1.25;font-family:sans-serif;letter-spacing:0px;word-spacing:0px;fill:#000000;fill-opacity:1;stroke:none;stroke-width:0.26458332"
         aria-label="Escribir en A:">
        <path
           id="path1241"
           style="font-size:7.76111126px;letter-spacing:-0.17197917px;stroke-width:0.26458332"
           d="m 175.42103,230.58832 h -3.7176 v -5.64272 h 3.7176 v 0.66697 h -2.96726 v 1.54616 h 2.96726 v 0.66697 h -2.96726 v 2.09565 h 2.96726 z"
           inkscape:connector-curvature="0" />
        <path
           id="path1243"
           style="font-size:7.76111126px;letter-spacing:-0.17197917px;stroke-width:0.26458332"
           d="m 179.41004,229.36807 q 0,0.5798 -0.48128,0.95119 -0.47749,0.37138 -1.30741,0.37138 -0.46991,0 -0.86403,-0.1099 -0.39033,-0.11369 -0.6556,-0.24633 v -0.7996 h 0.0379 q 0.33728,0.2539 0.75034,0.40549 0.41307,0.14779 0.79203,0.14779 0.46991,0 0.73519,-0.15158 0.26527,-0.15159 0.26527,-0.47749 0,-0.25012 -0.14401,-0.37896 -0.144,-0.12885 -0.55328,-0.2198 -0.15158,-0.0341 -0.39791,-0.0796 -0.24253,-0.0455 -0.44338,-0.0985 -0.55707,-0.1478 -0.79203,-0.43202 -0.23117,-0.28801 -0.23117,-0.70487 0,-0.26148 0.10611,-0.49264 0.1099,-0.23117 0.3297,-0.41307 0.21222,-0.17811 0.53812,-0.28043 0.3297,-0.10611 0.73519,-0.10611 0.37896,0 0.7655,0.0947 0.39033,0.091 0.64802,0.22359 v 0.76171 h -0.0379 q -0.27285,-0.20085 -0.66318,-0.33728 -0.39033,-0.14021 -0.7655,-0.14021 -0.39033,0 -0.65939,0.15158 -0.26906,0.1478 -0.26906,0.44338 0,0.26149 0.16295,0.39412 0.15917,0.13264 0.51539,0.21601 0.19706,0.0455 0.43959,0.0909 0.24633,0.0455 0.40928,0.0834 0.49644,0.11369 0.7655,0.39033 0.26906,0.28043 0.26906,0.74277 z"
           inkscape:connector-curvature="0" />
        <path
           id="path1245"
           style="font-size:7.76111126px;letter-spacing:-0.17197917px;stroke-width:0.26458332"
           d="m 183.39147,230.32305 q -0.35622,0.17053 -0.67834,0.26527 -0.31833,0.0947 -0.67834,0.0947 -0.45854,0 -0.84129,-0.13264 -0.38275,-0.13642 -0.6556,-0.40928 -0.27664,-0.27285 -0.42823,-0.6897 -0.15158,-0.41686 -0.15158,-0.97393 0,-1.03835 0.56844,-1.62953 0.57223,-0.59118 1.50826,-0.59118 0.3638,0 0.71245,0.10232 0.35243,0.10232 0.64423,0.25011 v 0.79203 h -0.0379 q -0.3259,-0.2539 -0.67455,-0.39033 -0.34485,-0.13643 -0.67454,-0.13643 -0.60634,0 -0.95878,0.40928 -0.34864,0.40549 -0.34864,1.19373 0,0.7655 0.34107,1.17857 0.34485,0.40927 0.96635,0.40927 0.216,0 0.43959,-0.0568 0.22359,-0.0568 0.4017,-0.1478 0.15537,-0.0796 0.2918,-0.16674 0.13642,-0.091 0.216,-0.15537 h 0.0379 z"
           inkscape:connector-curvature="0" />
        <path
           id="path1247"
           style="font-size:7.76111126px;letter-spacing:-0.17197917px;stroke-width:0.26458332"
           d="m 186.77793,227.1322 h -0.0379 q -0.15916,-0.0379 -0.31074,-0.0531 -0.1478,-0.0189 -0.35244,-0.0189 -0.32969,0 -0.63665,0.14779 -0.30696,0.14401 -0.59118,0.37517 v 3.00516 h -0.71244 v -4.23299 h 0.71244 v 0.62528 q 0.42444,-0.34106 0.74655,-0.48128 0.32591,-0.144 0.66318,-0.144 0.18569,0 0.26907,0.0114 0.0834,0.008 0.25011,0.0341 z"
           inkscape:connector-curvature="0" />
        <path
           id="path1249"
           style="font-size:7.76111126px;letter-spacing:-0.17197917px;stroke-width:0.26458332"
           d="m 188.04979,225.64667 h -0.8034 v -0.73897 h 0.8034 z m -0.0455,4.94165 h -0.71245 v -4.23299 h 0.71245 z"
           inkscape:connector-curvature="0" />
        <path
           id="path1251"
           style="font-size:7.76111126px;letter-spacing:-0.17197917px;stroke-width:0.26458332"
           d="m 192.97483,228.43961 q 0,0.53055 -0.15158,0.95498 -0.1478,0.42444 -0.4017,0.71245 -0.26906,0.29938 -0.59118,0.45096 -0.32212,0.1478 -0.70866,0.1478 -0.36001,0 -0.62907,-0.0872 -0.26906,-0.0834 -0.53055,-0.22737 l -0.0455,0.19706 h -0.66697 v -5.89663 h 0.71244 v 2.10702 q 0.29938,-0.24632 0.63666,-0.4017 0.33727,-0.15916 0.75792,-0.15916 0.75034,0 1.18235,0.57602 0.43581,0.57602 0.43581,1.62574 z m -0.73518,0.019 q 0,-0.75792 -0.25012,-1.14825 -0.25011,-0.39412 -0.80718,-0.39412 -0.31075,0 -0.62908,0.13643 -0.31833,0.13263 -0.59118,0.34485 v 2.42535 q 0.30317,0.13642 0.51918,0.18948 0.2198,0.053 0.49644,0.053 0.59118,0 0.92466,-0.38654 0.33728,-0.39033 0.33728,-1.22025 z"
           inkscape:connector-curvature="0" />
        <path
           id="path1253"
           style="font-size:7.76111126px;letter-spacing:-0.17197917px;stroke-width:0.26458332"
           d="m 194.6787,225.64667 h -0.80339 v -0.73897 h 0.80339 z m -0.0455,4.94165 h -0.71245 v -4.23299 h 0.71245 z"
           inkscape:connector-curvature="0" />
        <path
           id="path1255"
           style="font-size:7.76111126px;letter-spacing:-0.17197917px;stroke-width:0.26458332"
           d="m 198.51992,227.1322 h -0.0379 q -0.15916,-0.0379 -0.31075,-0.0531 -0.14779,-0.0189 -0.35243,-0.0189 -0.32969,0 -0.63665,0.14779 -0.30696,0.14401 -0.59118,0.37517 v 3.00516 h -0.71245 v -4.23299 h 0.71245 v 0.62528 q 0.42443,-0.34106 0.74655,-0.48128 0.32591,-0.144 0.66318,-0.144 0.18569,0 0.26906,0.0114 0.0834,0.008 0.25012,0.0341 z"
           inkscape:connector-curvature="0" />
        <path
           id="path1257"
           style="font-size:7.76111126px;letter-spacing:-0.17197917px;stroke-width:0.26458332"
           d="m 205.12609,228.54572 h -3.11884 q 0,0.39033 0.11748,0.68213 0.11747,0.28801 0.32211,0.4737 0.19706,0.1819 0.46613,0.27285 0.27285,0.0909 0.59875,0.0909 0.43202,0 0.86782,-0.17053 0.4396,-0.17432 0.62529,-0.34106 h 0.0379 v 0.77686 q -0.36001,0.15159 -0.73518,0.25391 -0.37517,0.10232 -0.78824,0.10232 -1.05351,0 -1.64469,-0.56844 -0.59118,-0.57223 -0.59118,-1.62195 0,-1.03836 0.56466,-1.64848 0.56844,-0.61013 1.4931,-0.61013 0.85645,0 1.31878,0.50023 0.46612,0.50023 0.46612,1.4211 z m -0.69349,-0.5457 q -0.004,-0.56086 -0.28422,-0.86782 -0.27664,-0.30696 -0.84509,-0.30696 -0.57223,0 -0.91329,0.33727 -0.33728,0.33728 -0.38275,0.83751 z"
           inkscape:connector-curvature="0" />
        <path
           id="path1259"
           style="font-size:7.76111126px;letter-spacing:-0.17197917px;stroke-width:0.26458332"
           d="m 209.57364,230.58832 h -0.71244 v -2.41019 q 0,-0.2918 -0.0341,-0.5457 -0.0341,-0.2577 -0.12505,-0.4017 -0.0947,-0.15917 -0.27286,-0.23496 -0.17811,-0.0796 -0.46233,-0.0796 -0.2918,0 -0.61012,0.14401 -0.31833,0.144 -0.61013,0.36759 v 3.16053 h -0.71245 v -4.23299 h 0.71245 v 0.46991 q 0.33348,-0.27664 0.68971,-0.43201 0.35622,-0.15538 0.73139,-0.15538 0.68592,0 1.04593,0.41307 0.36001,0.41307 0.36001,1.18993 z"
           inkscape:connector-curvature="0" />
        <path
           id="path1261"
           style="font-size:7.76111126px;letter-spacing:-0.17197917px;stroke-width:0.26458332"
           d="m 217.83588,230.58832 h -0.79961 l -0.55328,-1.57269 h -2.4405 l -0.55329,1.57269 h -0.76171 l 2.05397,-5.64272 h 1.00045 z m -1.58405,-2.21692 -0.98909,-2.7702 -0.99288,2.7702 z"
           inkscape:connector-curvature="0" />
        <path
           id="path1263"
           style="font-size:7.76111126px;letter-spacing:-0.17197917px;stroke-width:0.26458332"
           d="m 219.97935,227.43537 h -0.90572 v -1.08004 h 0.90572 z m 0,3.15295 h -0.90572 v -1.08004 h 0.90572 z"
           inkscape:connector-curvature="0" />
      </g>
      <g
         id="text1111"
         style="font-style:normal;font-weight:normal;font-size:10.58333302px;line-height:1.25;font-family:sans-serif;letter-spacing:0px;word-spacing:0px;fill:#000000;fill-opacity:1;stroke:none;stroke-width:0.26458332"
         aria-label="Escribir en B:">
        <path
           id="path1216"
           style="font-size:7.76111126px;letter-spacing:-0.17197917px;stroke-width:0.26458332"
           d="m 175.42103,249.78246 h -3.7176 v -5.64273 h 3.7176 v 0.66697 h -2.96726 v 1.54616 h 2.96726 v 0.66697 h -2.96726 v 2.09565 h 2.96726 z"
           inkscape:connector-curvature="0" />
        <path
           id="path1218"
           style="font-size:7.76111126px;letter-spacing:-0.17197917px;stroke-width:0.26458332"
           d="m 179.41004,248.5622 q 0,0.57981 -0.48128,0.95119 -0.47749,0.37138 -1.30741,0.37138 -0.46991,0 -0.86403,-0.10989 -0.39033,-0.11369 -0.6556,-0.24633 v -0.7996 h 0.0379 q 0.33728,0.2539 0.75034,0.40548 0.41307,0.1478 0.79203,0.1478 0.46991,0 0.73519,-0.15159 0.26527,-0.15158 0.26527,-0.47749 0,-0.25011 -0.14401,-0.37896 -0.144,-0.12884 -0.55328,-0.21979 -0.15158,-0.0341 -0.39791,-0.0796 -0.24253,-0.0455 -0.44338,-0.0985 -0.55707,-0.14779 -0.79203,-0.43201 -0.23117,-0.28801 -0.23117,-0.70487 0,-0.26148 0.10611,-0.49265 0.1099,-0.23116 0.3297,-0.41306 0.21222,-0.17811 0.53812,-0.28043 0.3297,-0.10611 0.73519,-0.10611 0.37896,0 0.7655,0.0947 0.39033,0.0909 0.64802,0.22358 v 0.76171 h -0.0379 q -0.27285,-0.20084 -0.66318,-0.33727 -0.39033,-0.14022 -0.7655,-0.14022 -0.39033,0 -0.65939,0.15159 -0.26906,0.14779 -0.26906,0.44338 0,0.26149 0.16295,0.39412 0.15917,0.13264 0.51539,0.21601 0.19706,0.0455 0.43959,0.0909 0.24633,0.0455 0.40928,0.0834 0.49644,0.11369 0.7655,0.39033 0.26906,0.28043 0.26906,0.74276 z"
           inkscape:connector-curvature="0" />
        <path
           id="path1220"
           style="font-size:7.76111126px;letter-spacing:-0.17197917px;stroke-width:0.26458332"
           d="m 183.39147,249.51718 q -0.35622,0.17054 -0.67834,0.26528 -0.31833,0.0947 -0.67834,0.0947 -0.45854,0 -0.84129,-0.13264 -0.38275,-0.13643 -0.6556,-0.40928 -0.27664,-0.27285 -0.42823,-0.68971 -0.15158,-0.41685 -0.15158,-0.97392 0,-1.03836 0.56844,-1.62953 0.57223,-0.59118 1.50826,-0.59118 0.3638,0 0.71245,0.10232 0.35243,0.10232 0.64423,0.25011 v 0.79203 h -0.0379 q -0.3259,-0.25391 -0.67455,-0.39033 -0.34485,-0.13643 -0.67454,-0.13643 -0.60634,0 -0.95878,0.40928 -0.34864,0.40549 -0.34864,1.19373 0,0.7655 0.34107,1.17856 0.34485,0.40928 0.96635,0.40928 0.216,0 0.43959,-0.0568 0.22359,-0.0568 0.4017,-0.1478 0.15537,-0.0796 0.2918,-0.16674 0.13642,-0.091 0.216,-0.15538 h 0.0379 z"
           inkscape:connector-curvature="0" />
        <path
           id="path1222"
           style="font-size:7.76111126px;letter-spacing:-0.17197917px;stroke-width:0.26458332"
           d="m 186.77793,246.32634 h -0.0379 q -0.15916,-0.0379 -0.31074,-0.0531 -0.1478,-0.0189 -0.35244,-0.0189 -0.32969,0 -0.63665,0.1478 -0.30696,0.144 -0.59118,0.37517 v 3.00516 h -0.71244 v -4.23299 h 0.71244 v 0.62528 q 0.42444,-0.34106 0.74655,-0.48128 0.32591,-0.144 0.66318,-0.144 0.18569,0 0.26907,0.0114 0.0834,0.008 0.25011,0.0341 z"
           inkscape:connector-curvature="0" />
        <path
           id="path1224"
           style="font-size:7.76111126px;letter-spacing:-0.17197917px;stroke-width:0.26458332"
           d="m 188.04979,244.84081 h -0.8034 v -0.73897 h 0.8034 z m -0.0455,4.94165 h -0.71245 v -4.23299 h 0.71245 z"
           inkscape:connector-curvature="0" />
        <path
           id="path1226"
           style="font-size:7.76111126px;letter-spacing:-0.17197917px;stroke-width:0.26458332"
           d="m 192.97483,247.63375 q 0,0.53054 -0.15158,0.95498 -0.1478,0.42444 -0.4017,0.71245 -0.26906,0.29937 -0.59118,0.45096 -0.32212,0.14779 -0.70866,0.14779 -0.36001,0 -0.62907,-0.0872 -0.26906,-0.0834 -0.53055,-0.22737 l -0.0455,0.19706 h -0.66697 v -5.89663 h 0.71244 v 2.10702 q 0.29938,-0.24632 0.63666,-0.4017 0.33727,-0.15916 0.75792,-0.15916 0.75034,0 1.18235,0.57602 0.43581,0.57602 0.43581,1.62574 z m -0.73518,0.019 q 0,-0.75792 -0.25012,-1.14825 -0.25011,-0.39412 -0.80718,-0.39412 -0.31075,0 -0.62908,0.13642 -0.31833,0.13264 -0.59118,0.34486 v 2.42535 q 0.30317,0.13642 0.51918,0.18948 0.2198,0.0531 0.49644,0.0531 0.59118,0 0.92466,-0.38654 0.33728,-0.39033 0.33728,-1.22025 z"
           inkscape:connector-curvature="0" />
        <path
           id="path1228"
           style="font-size:7.76111126px;letter-spacing:-0.17197917px;stroke-width:0.26458332"
           d="m 194.6787,244.84081 h -0.80339 v -0.73897 h 0.80339 z m -0.0455,4.94165 h -0.71245 v -4.23299 h 0.71245 z"
           inkscape:connector-curvature="0" />
        <path
           id="path1230"
           style="font-size:7.76111126px;letter-spacing:-0.17197917px;stroke-width:0.26458332"
           d="m 198.51992,246.32634 h -0.0379 q -0.15916,-0.0379 -0.31075,-0.0531 -0.14779,-0.0189 -0.35243,-0.0189 -0.32969,0 -0.63665,0.1478 -0.30696,0.144 -0.59118,0.37517 v 3.00516 h -0.71245 v -4.23299 h 0.71245 v 0.62528 q 0.42443,-0.34106 0.74655,-0.48128 0.32591,-0.144 0.66318,-0.144 0.18569,0 0.26906,0.0114 0.0834,0.008 0.25012,0.0341 z"
           inkscape:connector-curvature="0" />
        <path
           id="path1232"
           style="font-size:7.76111126px;letter-spacing:-0.17197917px;stroke-width:0.26458332"
           d="m 205.12609,247.73986 h -3.11884 q 0,0.39033 0.11748,0.68213 0.11747,0.28801 0.32211,0.4737 0.19706,0.1819 0.46613,0.27285 0.27285,0.0909 0.59875,0.0909 0.43202,0 0.86782,-0.17053 0.4396,-0.17432 0.62529,-0.34107 h 0.0379 v 0.77687 q -0.36001,0.15159 -0.73518,0.25391 -0.37517,0.10232 -0.78824,0.10232 -1.05351,0 -1.64469,-0.56845 -0.59118,-0.57223 -0.59118,-1.62195 0,-1.03835 0.56466,-1.64847 0.56844,-0.61013 1.4931,-0.61013 0.85645,0 1.31878,0.50023 0.46612,0.50022 0.46612,1.4211 z m -0.69349,-0.5457 q -0.004,-0.56087 -0.28422,-0.86782 -0.27664,-0.30696 -0.84509,-0.30696 -0.57223,0 -0.91329,0.33727 -0.33728,0.33728 -0.38275,0.83751 z"
           inkscape:connector-curvature="0" />
        <path
           id="path1234"
           style="font-size:7.76111126px;letter-spacing:-0.17197917px;stroke-width:0.26458332"
           d="m 209.57364,249.78246 h -0.71244 v -2.41019 q 0,-0.2918 -0.0341,-0.54571 -0.0341,-0.25769 -0.12505,-0.40169 -0.0947,-0.15917 -0.27286,-0.23496 -0.17811,-0.0796 -0.46233,-0.0796 -0.2918,0 -0.61012,0.144 -0.31833,0.14401 -0.61013,0.36759 v 3.16054 h -0.71245 v -4.23299 h 0.71245 v 0.46991 q 0.33348,-0.27664 0.68971,-0.43202 0.35622,-0.15537 0.73139,-0.15537 0.68592,0 1.04593,0.41307 0.36001,0.41306 0.36001,1.18993 z"
           inkscape:connector-curvature="0" />
        <path
           id="path1236"
           style="font-size:7.76111126px;letter-spacing:-0.17197917px;stroke-width:0.26458332"
           d="m 217.64261,248.04682 q 0,0.42064 -0.15916,0.74276 -0.15917,0.32212 -0.42823,0.53054 -0.31832,0.25012 -0.70107,0.35623 -0.37897,0.10611 -0.96635,0.10611 h -2.00092 v -5.64273 h 1.67122 q 0.61771,0 0.92466,0.0455 0.30696,0.0455 0.58739,0.18948 0.31075,0.16295 0.45097,0.42065 0.14021,0.2539 0.14021,0.61012 0,0.4017 -0.20464,0.68592 -0.20464,0.28043 -0.5457,0.45096 v 0.0303 q 0.57223,0.11748 0.90193,0.50402 0.32969,0.38275 0.32969,0.97014 z m -1.26194,-2.54283 q 0,-0.20464 -0.0682,-0.34485 -0.0682,-0.14022 -0.2198,-0.22738 -0.17811,-0.10232 -0.43201,-0.12506 -0.25391,-0.0265 -0.62908,-0.0265 h -0.89434 v 1.62953 h 0.97014 q 0.35243,0 0.56086,-0.0341 0.20843,-0.0379 0.38654,-0.15158 0.17811,-0.11369 0.25011,-0.2918 0.0758,-0.1819 0.0758,-0.42823 z m 0.48128,2.57314 q 0,-0.34106 -0.10232,-0.54191 -0.10232,-0.20085 -0.37138,-0.34106 -0.1819,-0.0947 -0.44338,-0.12127 -0.2577,-0.0303 -0.62908,-0.0303 h -1.17856 v 2.09944 h 0.99287 q 0.49265,0 0.80719,-0.0493 0.31454,-0.0531 0.51539,-0.18948 0.21221,-0.1478 0.31074,-0.33728 0.0985,-0.18948 0.0985,-0.48886 z"
           inkscape:connector-curvature="0" />
        <path
           id="path1238"
           style="font-size:7.76111126px;letter-spacing:-0.17197917px;stroke-width:0.26458332"
           d="m 219.99451,246.6295 h -0.90572 v -1.08003 h 0.90572 z m 0,3.15296 h -0.90572 v -1.08004 h 0.90572 z"
           inkscape:connector-curvature="0" />
      </g>
      <g
         id="text1115"
         style="font-style:normal;font-weight:normal;font-size:10.58333302px;line-height:1.25;font-family:sans-serif;letter-spacing:0px;word-spacing:0px;fill:#000000;fill-opacity:1;stroke:none;stroke-width:0.26458332"
         aria-label="Vuelta">
        <path
           id="path1203"
           style="font-size:7.76111126px;letter-spacing:-0.17197917px;stroke-width:0.26458332"
           d="m 176.95425,263.44071 -2.05397,5.64273 h -1.00045 l -2.05397,-5.64273 h 0.8034 l 1.76974,4.96439 1.76975,-4.96439 z"
           inkscape:connector-curvature="0" />
        <path
           id="path1205"
           style="font-size:7.76111126px;letter-spacing:-0.17197917px;stroke-width:0.26458332"
           d="m 180.86367,269.08344 h -0.71244 v -0.46992 q -0.36002,0.28422 -0.68971,0.43581 -0.3297,0.15158 -0.72761,0.15158 -0.66697,0 -1.03835,-0.40548 -0.37138,-0.40928 -0.37138,-1.19752 v -2.74746 h 0.71245 v 2.41019 q 0,0.32211 0.0303,0.55328 0.0303,0.22737 0.12885,0.39033 0.10232,0.16674 0.26527,0.24253 0.16296,0.0758 0.4737,0.0758 0.27664,0 0.60255,-0.144 0.3297,-0.14401 0.61392,-0.36759 v -3.16053 h 0.71244 z"
           inkscape:connector-curvature="0" />
        <path
           id="path1207"
           style="font-size:7.76111126px;letter-spacing:-0.17197917px;stroke-width:0.26458332"
           d="m 185.63713,267.04084 h -3.11885 q 0,0.39033 0.11748,0.68213 0.11748,0.28801 0.32212,0.4737 0.19706,0.1819 0.46612,0.27285 0.27285,0.091 0.59876,0.091 0.43201,0 0.86782,-0.17053 0.43959,-0.17432 0.62528,-0.34107 h 0.0379 v 0.77687 q -0.36002,0.15159 -0.73519,0.25391 -0.37517,0.10231 -0.78823,0.10231 -1.05351,0 -1.64469,-0.56844 -0.59118,-0.57223 -0.59118,-1.62195 0,-1.03835 0.56465,-1.64848 0.56844,-0.61012 1.4931,-0.61012 0.85646,0 1.31879,0.50023 0.46612,0.50022 0.46612,1.4211 z m -0.6935,-0.54571 q -0.004,-0.56086 -0.28422,-0.86781 -0.27664,-0.30696 -0.84508,-0.30696 -0.57223,0 -0.9133,0.33727 -0.33727,0.33728 -0.38275,0.8375 z"
           inkscape:connector-curvature="0" />
        <path
           id="path1209"
           style="font-size:7.76111126px;letter-spacing:-0.17197917px;stroke-width:0.26458332"
           d="m 187.26521,269.08344 h -0.71244 v -5.89663 h 0.71244 z"
           inkscape:connector-curvature="0" />
        <path
           id="path1211"
           style="font-size:7.76111126px;letter-spacing:-0.17197917px;stroke-width:0.26458332"
           d="m 190.70852,269.04554 q -0.20085,0.053 -0.4396,0.0872 -0.23495,0.0341 -0.42065,0.0341 -0.64802,0 -0.98529,-0.34865 -0.33728,-0.34864 -0.33728,-1.11793 v -2.25103 h -0.48128 v -0.59875 h 0.48128 v -1.21647 h 0.71245 v 1.21647 h 1.47037 v 0.59875 h -1.47037 v 1.92891 q 0,0.33349 0.0152,0.52297 0.0152,0.18569 0.10611,0.34864 0.0834,0.15159 0.22737,0.22359 0.1478,0.0682 0.44718,0.0682 0.17432,0 0.3638,-0.0493 0.18948,-0.0531 0.27285,-0.0872 h 0.0379 z"
           inkscape:connector-curvature="0" />
        <path
           id="path1213"
           style="font-size:7.76111126px;letter-spacing:-0.17197917px;stroke-width:0.26458332"
           d="m 194.68994,269.08344 h -0.70865 v -0.45097 q -0.0947,0.0644 -0.2577,0.1819 -0.15916,0.11369 -0.31074,0.1819 -0.17811,0.0872 -0.40928,0.14401 -0.23117,0.0606 -0.54191,0.0606 -0.57223,0 -0.97014,-0.37896 -0.39791,-0.37896 -0.39791,-0.96635 0,-0.48128 0.20464,-0.77687 0.20843,-0.29937 0.59118,-0.46991 0.38654,-0.17053 0.92845,-0.23116 0.54191,-0.0606 1.16341,-0.0909 v -0.1099 q 0,-0.24254 -0.0872,-0.4017 -0.0834,-0.15916 -0.24254,-0.25011 -0.15158,-0.0872 -0.3638,-0.11748 -0.21222,-0.0303 -0.44338,-0.0303 -0.28043,0 -0.62529,0.0758 -0.34485,0.072 -0.71244,0.21222 h -0.0379 v -0.72381 q 0.20843,-0.0568 0.60255,-0.12506 0.39412,-0.0682 0.77687,-0.0682 0.44717,0 0.77686,0.0758 0.33349,0.072 0.57602,0.25011 0.23875,0.17432 0.36381,0.45097 0.12505,0.27664 0.12505,0.68591 z m -0.70865,-1.04215 v -1.17856 q -0.32591,0.0189 -0.76929,0.0568 -0.4396,0.0379 -0.69729,0.1099 -0.30696,0.0872 -0.49644,0.27285 -0.18948,0.1819 -0.18948,0.50402 0,0.3638 0.2198,0.54949 0.2198,0.1819 0.67076,0.1819 0.37517,0 0.68592,-0.144 0.31075,-0.1478 0.57602,-0.35244 z"
           inkscape:connector-curvature="0" />
      </g>
      <g
         id="text1119"
         style="font-style:normal;font-weight:normal;font-size:10.58333302px;line-height:1.25;font-family:sans-serif;letter-spacing:0px;word-spacing:0px;fill:#000000;fill-opacity:1;stroke:none;stroke-width:0.26458332"
         aria-label="al">
        <path
           id="path1198"
           style="font-size:7.76111126px;letter-spacing:-0.17197917px;stroke-width:0.26458332"
           d="m 200.60828,269.08344 h -0.70865 v -0.45097 q -0.0947,0.0644 -0.2577,0.1819 -0.15916,0.11369 -0.31074,0.1819 -0.17812,0.0872 -0.40928,0.14401 -0.23117,0.0606 -0.54192,0.0606 -0.57223,0 -0.97013,-0.37896 -0.39791,-0.37896 -0.39791,-0.96635 0,-0.48128 0.20464,-0.77687 0.20842,-0.29937 0.59117,-0.46991 0.38654,-0.17053 0.92846,-0.23116 0.54191,-0.0606 1.16341,-0.0909 v -0.1099 q 0,-0.24254 -0.0872,-0.4017 -0.0834,-0.15916 -0.24254,-0.25011 -0.15158,-0.0872 -0.3638,-0.11748 -0.21222,-0.0303 -0.44339,-0.0303 -0.28043,0 -0.62528,0.0758 -0.34485,0.072 -0.71245,0.21222 h -0.0379 v -0.72381 q 0.20843,-0.0568 0.60255,-0.12506 0.39411,-0.0682 0.77686,-0.0682 0.44718,0 0.77687,0.0758 0.33349,0.072 0.57602,0.25011 0.23875,0.17432 0.36381,0.45097 0.12505,0.27664 0.12505,0.68591 z m -0.70865,-1.04215 v -1.17856 q -0.32591,0.0189 -0.76929,0.0568 -0.4396,0.0379 -0.69729,0.1099 -0.30696,0.0872 -0.49644,0.27285 -0.18948,0.1819 -0.18948,0.50402 0,0.3638 0.2198,0.54949 0.21979,0.1819 0.67076,0.1819 0.37517,0 0.68592,-0.144 0.31074,-0.1478 0.57602,-0.35244 z"
           inkscape:connector-curvature="0" />
        <path
           id="path1200"
           style="font-size:7.76111126px;letter-spacing:-0.17197917px;stroke-width:0.26458332"
           d="m 202.53575,269.08344 h -0.71245 v -5.89663 h 0.71245 z"
           inkscape:connector-curvature="0" />
      </g>
      <g
         id="text1123"
         style="font-style:normal;font-weight:normal;font-size:10.58333302px;line-height:1.25;font-family:sans-serif;letter-spacing:0px;word-spacing:0px;fill:#000000;fill-opacity:1;stroke:none;stroke-width:0.26458332"
         aria-label="men">
        <path
           id="path1189"
           style="font-size:7.76111126px;letter-spacing:-0.17197917px;stroke-width:0.26458332"
           d="m 213.02083,269.08344 h -0.71244 v -2.41019 q 0,-0.27286 -0.0265,-0.52676 -0.0227,-0.2539 -0.10232,-0.40549 -0.0872,-0.16295 -0.25011,-0.24632 -0.16296,-0.0834 -0.46991,-0.0834 -0.29938,0 -0.59876,0.15158 -0.29938,0.1478 -0.59876,0.37896 0.0114,0.0872 0.0189,0.20464 0.008,0.11369 0.008,0.22738 v 2.70957 h -0.71245 v -2.41019 q 0,-0.28043 -0.0265,-0.53055 -0.0227,-0.2539 -0.10232,-0.40549 -0.0872,-0.16295 -0.25012,-0.24253 -0.16295,-0.0834 -0.46991,-0.0834 -0.2918,0 -0.58739,0.144 -0.2918,0.14401 -0.5836,0.36759 v 3.16054 h -0.71244 v -4.23299 h 0.71244 v 0.46991 q 0.33349,-0.27664 0.66318,-0.43202 0.33349,-0.15537 0.70866,-0.15537 0.43201,0 0.73139,0.1819 0.30317,0.1819 0.45097,0.50402 0.43201,-0.36381 0.78823,-0.52297 0.35623,-0.16295 0.76172,-0.16295 0.69728,0 1.02698,0.42443 0.33348,0.42065 0.33348,1.17857 z"
           inkscape:connector-curvature="0" />
        <path
           id="path1191"
           style="font-size:7.76111126px;letter-spacing:-0.17197917px;stroke-width:0.26458332"
           d="m 217.76397,267.04084 h -3.11884 q 0,0.39033 0.11748,0.68213 0.11747,0.28801 0.32211,0.4737 0.19706,0.1819 0.46612,0.27285 0.27285,0.091 0.59876,0.091 0.43202,0 0.86782,-0.17053 0.43959,-0.17432 0.62529,-0.34107 h 0.0379 v 0.77687 q -0.36001,0.15159 -0.73518,0.25391 -0.37517,0.10231 -0.78824,0.10231 -1.05351,0 -1.64469,-0.56844 -0.59118,-0.57223 -0.59118,-1.62195 0,-1.03835 0.56465,-1.64848 0.56844,-0.61012 1.49311,-0.61012 0.85645,0 1.31878,0.50023 0.46612,0.50022 0.46612,1.4211 z m -0.6935,-0.54571 q -0.004,-0.56086 -0.28422,-0.86781 -0.27664,-0.30696 -0.84508,-0.30696 -0.57223,0 -0.91329,0.33727 -0.33728,0.33728 -0.38275,0.8375 z"
           inkscape:connector-curvature="0" />
        <path
           id="path1193"
           style="font-size:7.76111126px;letter-spacing:-0.17197917px;stroke-width:0.26458332"
           d="m 222.21152,269.08344 h -0.71244 v -2.41019 q 0,-0.2918 -0.0341,-0.54571 -0.0341,-0.25769 -0.12506,-0.4017 -0.0947,-0.15916 -0.27285,-0.23495 -0.17811,-0.0796 -0.46233,-0.0796 -0.2918,0 -0.61013,0.144 -0.31832,0.14401 -0.61012,0.36759 v 3.16054 h -0.71245 v -4.23299 h 0.71245 v 0.46991 q 0.33348,-0.27664 0.6897,-0.43202 0.35623,-0.15537 0.7314,-0.15537 0.68592,0 1.04593,0.41307 0.36001,0.41306 0.36001,1.18993 z"
           inkscape:connector-curvature="0" />
        <path
           id="path1195"
           style="font-size:7.76111126px;letter-spacing:-0.17197917px;stroke-width:0.26458332"
           d="m 226.92055,269.08344 h -0.71244 v -0.46992 q -0.36001,0.28422 -0.68971,0.43581 -0.3297,0.15158 -0.7276,0.15158 -0.66697,0 -1.03836,-0.40548 -0.37138,-0.40928 -0.37138,-1.19752 v -2.74746 h 0.71245 v 2.41019 q 0,0.32211 0.0303,0.55328 0.0303,0.22737 0.12884,0.39033 0.10232,0.16674 0.26527,0.24253 0.16296,0.0758 0.4737,0.0758 0.27665,0 0.60255,-0.144 0.3297,-0.14401 0.61392,-0.36759 v -3.16053 h 0.71244 z m -0.62907,-6.35138 -1.03456,1.41731 h -0.56465 l 0.67834,-1.41731 z"
           inkscape:connector-curvature="0" />
      </g>
    </g>
  </g>
</svg>
