<?xml version="1.0" encoding="UTF-8" standalone="no"?>
<!-- Created with Inkscape (http://www.inkscape.org/) -->

<svg
   xmlns:dc="http://purl.org/dc/elements/1.1/"
   xmlns:cc="http://creativecommons.org/ns#"
   xmlns:rdf="http://www.w3.org/1999/02/22-rdf-syntax-ns#"
   xmlns:svg="http://www.w3.org/2000/svg"
   xmlns="http://www.w3.org/2000/svg"
   xmlns:sodipodi="http://sodipodi.sourceforge.net/DTD/sodipodi-0.dtd"
   xmlns:inkscape="http://www.inkscape.org/namespaces/inkscape"
   width="224mm"
   height="82mm"
   viewBox="0 0 224 82"
   version="1.1"
   id="svg8"
   inkscape:version="0.92.4 (5da689c313, 2019-01-14)"
   sodipodi:docname="c01-p10-i03.svg">
  <defs
     id="defs2" />
  <sodipodi:namedview
     id="base"
     pagecolor="#ffffff"
     bordercolor="#666666"
     borderopacity="1.0"
     inkscape:pageopacity="0.0"
     inkscape:pageshadow="2"
     inkscape:zoom="0.98994949"
     inkscape:cx="513.95574"
     inkscape:cy="352.28498"
     inkscape:document-units="mm"
     inkscape:current-layer="layer1"
     showgrid="false"
     inkscape:window-width="1920"
     inkscape:window-height="1017"
     inkscape:window-x="-8"
     inkscape:window-y="-8"
     inkscape:window-maximized="1" />
  <metadata
     id="metadata5">
    <rdf:RDF>
      <cc:Work
         rdf:about="">
        <dc:format>image/svg+xml</dc:format>
        <dc:type
           rdf:resource="http://purl.org/dc/dcmitype/StillImage" />
        <dc:title></dc:title>
      </cc:Work>
    </rdf:RDF>
  </metadata>
  <g
     inkscape:label="Capa 1"
     inkscape:groupmode="layer"
     id="layer1"
     transform="translate(0,-215)">
    <g
       id="g1205">
      <rect
         y="217.58"
         x="95.818436"
         height="76.839989"
         width="56.92841"
         id="rect826"
         style="opacity:1;fill:none;stroke:#000000;stroke-width:0.5;stroke-miterlimit:4;stroke-dasharray:none;stroke-dashoffset:0;stroke-opacity:1" />
      <rect
         y="217.58"
         x="114.92822"
         height="57.329311"
         width="18.575233"
         id="rect828"
         style="opacity:1;fill:none;stroke:#000000;stroke-width:0.5;stroke-miterlimit:4;stroke-dasharray:none;stroke-dashoffset:0;stroke-opacity:1" />
      <path
         inkscape:connector-curvature="0"
         id="path830"
         d="m 114.79458,236.82341 h 18.70887"
         style="fill:none;stroke:#000000;stroke-width:0.5;stroke-linecap:butt;stroke-linejoin:miter;stroke-miterlimit:4;stroke-dasharray:none;stroke-opacity:1" />
      <path
         style="fill:none;stroke:#000000;stroke-width:0.5;stroke-linecap:butt;stroke-linejoin:miter;stroke-miterlimit:4;stroke-dasharray:none;stroke-opacity:1"
         d="m 114.79458,255.87353 h 18.70887"
         id="path832"
         inkscape:connector-curvature="0" />
      <g
         transform="translate(-10.688463,3.5672035)"
         id="text848"
         style="font-style:normal;font-weight:normal;font-size:10.58333302px;line-height:1.25;font-family:sans-serif;letter-spacing:0px;word-spacing:0px;fill:#000000;fill-opacity:1;stroke:none;stroke-width:0.26458332"
         aria-label="8">
        <path
           id="path927"
           style="font-style:normal;font-variant:normal;font-weight:normal;font-stretch:normal;font-size:8.46666622px;font-family:Consolas;-inkscape-font-specification:Consolas;stroke-width:0.26458332"
           d="m 136.74191,225.62079 q 0,0.34313 -0.14056,0.61185 -0.14056,0.26458 -0.39274,0.44648 -0.25218,0.1819 -0.59531,0.27699 -0.34314,0.0951 -0.74414,0.0951 -0.44235,0 -0.78135,-0.0992 -0.33487,-0.0992 -0.56224,-0.27698 -0.22738,-0.17777 -0.34313,-0.42168 -0.11576,-0.24392 -0.11576,-0.53744 0,-0.49609 0.27699,-0.85576 0.27698,-0.35967 0.85576,-0.65319 -0.52917,-0.26872 -0.77308,-0.59531 -0.24391,-0.33073 -0.24391,-0.75655 0,-0.26045 0.10748,-0.50436 0.10749,-0.24391 0.32246,-0.43408 0.21911,-0.19017 0.54571,-0.30179 0.32659,-0.11576 0.76894,-0.11576 0.41755,0 0.73174,0.091 0.31833,0.0868 0.5333,0.25218 0.21498,0.16536 0.32246,0.40101 0.10749,0.23564 0.10749,0.52503 0,0.47129 -0.26458,0.80202 -0.26045,0.33073 -0.74414,0.57877 0.23977,0.11989 0.44648,0.26459 0.20671,0.14469 0.35967,0.32246 0.15296,0.17776 0.23564,0.39687 0.0868,0.21911 0.0868,0.48783 z m -0.85576,-2.79466 q 0,-0.36794 -0.26045,-0.54571 -0.25632,-0.1819 -0.72347,-0.1819 -0.46302,0 -0.72347,0.17777 -0.25632,0.17777 -0.25632,0.5333 0,0.16123 0.062,0.29766 0.062,0.13642 0.19016,0.25631 0.1323,0.11989 0.3266,0.23564 0.1943,0.11576 0.46302,0.23565 0.46716,-0.21911 0.69453,-0.45475 0.22738,-0.23978 0.22738,-0.55397 z m 0.0744,2.8484 q 0,-0.15296 -0.0496,-0.29766 -0.0496,-0.14469 -0.17776,-0.28525 -0.12816,-0.14056 -0.34314,-0.28112 -0.21497,-0.14056 -0.5457,-0.28939 -0.28112,0.13643 -0.47542,0.27285 -0.19017,0.1323 -0.31006,0.27286 -0.11576,0.13642 -0.16537,0.28525 -0.0496,0.14883 -0.0496,0.31419 0,0.18604 0.0785,0.33073 0.0827,0.14056 0.22325,0.23978 0.14056,0.0992 0.33486,0.14883 0.1943,0.0496 0.42168,0.0496 0.21911,0 0.41341,-0.0455 0.1943,-0.0455 0.33486,-0.13642 0.1447,-0.0951 0.22738,-0.23565 0.0827,-0.14469 0.0827,-0.34313 z"
           inkscape:connector-curvature="0" />
      </g>
      <g
         transform="translate(-10.688463,3.5672035)"
         id="text852"
         style="font-style:normal;font-weight:normal;font-size:10.58333302px;line-height:1.25;font-family:sans-serif;letter-spacing:0px;word-spacing:0px;fill:#000000;fill-opacity:1;stroke:none;stroke-width:0.26458332"
         aria-label="5">
        <path
           id="path924"
           style="font-style:normal;font-variant:normal;font-weight:normal;font-stretch:normal;font-size:8.46666622px;font-family:Consolas;-inkscape-font-specification:Consolas;stroke-width:0.26458332"
           d="m 136.55174,244.10946 q 0,0.40101 -0.17363,0.73174 -0.17363,0.33073 -0.47956,0.57051 -0.30179,0.23565 -0.7152,0.36794 -0.41341,0.13229 -0.89297,0.13229 -0.11989,0 -0.26045,-0.008 -0.13642,-0.004 -0.27285,-0.0165 -0.13642,-0.008 -0.26872,-0.0207 -0.12815,-0.0124 -0.23151,-0.0289 v -0.65319 q 0.22325,0.0538 0.5085,0.0786 0.28939,0.0248 0.58291,0.0248 0.33073,0 0.59531,-0.0786 0.26459,-0.0785 0.45062,-0.22324 0.18604,-0.14883 0.28525,-0.35554 0.0992,-0.21084 0.0992,-0.47129 0,-0.50436 -0.3638,-0.73173 -0.35967,-0.23151 -1.03766,-0.23151 h -1.02526 v -2.76159 h 2.91041 v 0.62838 h -2.23242 v 1.51722 h 0.47129 q 0.38861,0 0.75654,0.0703 0.36794,0.0703 0.65319,0.24805 0.28939,0.17363 0.46303,0.47129 0.17776,0.29352 0.17776,0.74 z"
           inkscape:connector-curvature="0" />
      </g>
      <g
         transform="translate(-10.688463,3.5672035)"
         id="text856"
         style="font-style:normal;font-weight:normal;font-size:10.58333302px;line-height:1.25;font-family:sans-serif;letter-spacing:0px;word-spacing:0px;fill:#000000;fill-opacity:1;stroke:none;stroke-width:0.26458332"
         aria-label="2">
        <path
           id="path921"
           style="font-style:normal;font-variant:normal;font-weight:normal;font-stretch:normal;font-size:8.46666622px;font-family:Consolas;-inkscape-font-specification:Consolas;stroke-width:0.26458332"
           d="m 136.68403,264.88751 h -3.55947 v -0.64492 l 1.39733,-1.38906 q 0.34313,-0.339 0.55811,-0.58705 0.21497,-0.24804 0.33486,-0.45061 0.11989,-0.20671 0.16123,-0.38861 0.0413,-0.1819 0.0413,-0.39274 0,-0.19844 -0.0537,-0.37621 -0.0538,-0.1819 -0.16537,-0.31832 -0.11162,-0.13643 -0.28938,-0.21498 -0.17777,-0.0785 -0.42582,-0.0785 -0.34313,0 -0.62425,0.15297 -0.28112,0.15296 -0.51676,0.39687 l -0.39688,-0.47542 q 0.30593,-0.32246 0.7028,-0.51677 0.40101,-0.1943 0.93018,-0.1943 0.35966,0 0.65319,0.10749 0.29765,0.10748 0.51263,0.31006 0.21497,0.20257 0.33073,0.49609 0.11988,0.29352 0.11988,0.66146 0,0.31006 -0.0827,0.57464 -0.0827,0.26458 -0.25218,0.52917 -0.16536,0.26045 -0.42168,0.54157 -0.25218,0.28112 -0.59944,0.61598 l -0.97979,0.95498 h 2.62516 z"
           inkscape:connector-curvature="0" />
      </g>
      <g
         id="text911"
         style="font-style:normal;font-weight:normal;font-size:10.58333302px;line-height:1.25;font-family:sans-serif;letter-spacing:0px;word-spacing:0px;fill:#000000;fill-opacity:1;stroke:none;stroke-width:0.26458332"
         aria-label="Read from A:">
        <path
           id="path1053"
           style="font-style:normal;font-variant:normal;font-weight:normal;font-stretch:normal;font-size:9.87777805px;font-family:'OCR A Extended';-inkscape-font-specification:'OCR A Extended';letter-spacing:-0.95249999px;stroke-width:0.26458332"
           d="m 4.4605663,232.44981 v -6.0048 h 2.8649415 q 0.4967828,0 0.8536947,0.36173 0.361735,0.36174 0.361735,0.86334 v 0.46302 q 0,0.50643 -0.3569119,0.86817 -0.3569119,0.35691 -0.8585178,0.35691 H 6.8094325 l 1.659158,2.84565 q 0.07717,0.1254 0.07717,0.2508 0,0.16399 -0.1254014,0.28456 -0.1254015,0.11576 -0.2845649,0.11576 -0.2411567,0 -0.3665582,-0.21704 L 5.8640982,229.35818 H 5.2804991 v 3.09163 q 0,0.16881 -0.1254015,0.28938 -0.1205784,0.11576 -0.2893881,0.11576 -0.1688096,0 -0.289388,-0.11576 -0.1157552,-0.12057 -0.1157552,-0.28938 z m 0.8102865,-3.90192 h 2.054655 q 0.1688097,0 0.2845649,-0.11575 0.1205783,-0.12058 0.1205783,-0.28939 v -0.47267 q 0,-0.16881 -0.1205783,-0.28456 -0.1157552,-0.12058 -0.2845649,-0.12058 h -2.054655 z" />
        <path
           id="path1055"
           style="font-style:normal;font-variant:normal;font-weight:normal;font-stretch:normal;font-size:9.87777805px;font-family:'OCR A Extended';-inkscape-font-specification:'OCR A Extended';letter-spacing:-0.95249999px;stroke-width:0.26458332"
           d="m 13.540185,229.72474 v 0.97909 q 0,0.16399 -0.120579,0.28457 -0.120578,0.12058 -0.284565,0.12058 H 10.2701 v 0.23633 q 0,0.20739 0.178456,0.35209 l 0.236334,0.19775 q 0.192925,0.14951 0.366558,0.14951 h 2.083593 q 0.163987,0 0.284565,0.12058 0.120579,0.11576 0.120579,0.28457 0,0.16398 -0.125402,0.28456 -0.120578,0.12058 -0.279742,0.12058 h -2.136648 q -0.212218,0 -0.448551,-0.0868 -0.231511,-0.0916 -0.342443,-0.1881 L 9.8456642,232.2617 q -0.1688097,-0.13504 -0.2845649,-0.3762 -0.110932,-0.24116 -0.110932,-0.44373 v -1.8569 q 0,-0.15917 0.1205783,-0.42926 0.1254015,-0.2701 0.3135037,-0.41962 l 0.3376197,-0.26527 q 0.332796,-0.27009 0.737939,-0.27009 h 1.13826 q 0.429259,0 0.810286,0.35691 l 0.303858,0.28939 q 0.327973,0.29421 0.327973,0.87781 z m -3.260439,-0.0627 v 0.627 h 2.459799 v -0.5643 q 0,-0.22669 -0.139871,-0.34727 l -0.236334,-0.20739 q -0.183279,-0.14952 -0.327973,-0.14952 h -1.017681 q -0.188102,0 -0.342443,0.13022 l -0.236333,0.19775 q -0.159164,0.12058 -0.159164,0.31351 z" />
        <path
           id="path1057"
           style="font-style:normal;font-variant:normal;font-weight:normal;font-stretch:normal;font-size:9.87777805px;font-family:'OCR A Extended';-inkscape-font-specification:'OCR A Extended';letter-spacing:-0.95249999px;stroke-width:0.26458332"
           d="m 15.67449,229.93213 h 1.586811 q 0.130225,0 0.376205,0.0579 l -0.0096,-0.57395 q 0,-0.16881 -0.120579,-0.28457 -0.115755,-0.12058 -0.284565,-0.12058 h -1.538579 q -0.163987,0 -0.284565,-0.12058 -0.120579,-0.12057 -0.120579,-0.28456 0,-0.16881 0.115756,-0.28457 0.120578,-0.12057 0.289388,-0.12057 h 1.538579 q 0.501606,0 0.853695,0.35208 0.356912,0.35209 0.371381,0.86335 l 0.101286,3.03375 q 0,0.16881 -0.120578,0.28938 -0.120578,0.11576 -0.284565,0.11576 -0.173633,0 -0.294211,-0.11576 -0.120579,-0.12057 -0.120579,-0.28938 l -0.684885,0.40514 h -1.36977 q -0.511252,0 -0.868164,-0.35691 -0.356912,-0.35691 -0.356912,-0.86817 v -0.47266 q 0,-0.50643 0.356912,-0.86334 0.361735,-0.36174 0.868164,-0.36174 z m 2.025717,1.57717 -0.02412,-0.34245 q -0.0048,-0.17363 -0.120578,-0.28938 -0.115756,-0.11576 -0.284565,-0.11576 H 15.67449 q -0.168809,0 -0.289388,0.12058 -0.115755,0.11575 -0.115755,0.28456 v 0.45338 q 0,0.16398 0.120579,0.28456 0.120578,0.12058 0.284564,0.12058 h 1.143083 z" />
        <path
           id="path1059"
           style="font-style:normal;font-variant:normal;font-weight:normal;font-stretch:normal;font-size:9.87777805px;font-family:'OCR A Extended';-inkscape-font-specification:'OCR A Extended';letter-spacing:-0.95249999px;stroke-width:0.26458332"
           d="m 22.738038,228.76493 v -1.91478 q 0,-0.16881 0.115756,-0.28457 0.115755,-0.12057 0.279741,-0.12057 0.16881,0 0.289388,0.12057 0.125402,0.11576 0.125402,0.28457 v 5.59966 q 0,0.16881 -0.120578,0.28938 -0.120579,0.11576 -0.284565,0.11576 -0.173633,0 -0.289388,-0.11576 -0.115756,-0.12057 -0.115756,-0.28938 v -0.17846 q -0.593245,0.5836 -1.10932,0.5836 H 20.93901 q -0.41479,0 -0.829579,-0.35691 l -0.33762,-0.28457 q -0.115755,-0.11093 -0.221864,-0.37138 -0.101286,-0.26045 -0.101286,-0.48713 v -1.64952 q 0,-0.27492 0.115755,-0.53054 0.115756,-0.26045 0.270096,-0.39067 l 0.332796,-0.28457 q 0.356912,-0.30868 0.839225,-0.30868 h 0.5836 q 0.47749,0 0.868164,0.33762 z m -1.176844,0.24598 h -0.564307 q -0.178456,0 -0.32315,0.13023 l -0.260449,0.22668 q -0.135048,0.12058 -0.135048,0.30868 v 1.71704 q 0,0.16881 0.159164,0.30386 l 0.265272,0.22669 q 0.125401,0.11093 0.265272,0.11093 h 0.66077 q 0.130224,0 0.30868,-0.14952 l 0.641477,-0.53054 q 0.159163,-0.13988 0.159163,-0.34727 v -0.87781 q 0,-0.29421 -0.168809,-0.43408 l -0.66077,-0.56431 q -0.130224,-0.12058 -0.347265,-0.12058 z" />
        <path
           id="path1061"
           style="font-style:normal;font-variant:normal;font-weight:normal;font-stretch:normal;font-size:9.87777805px;font-family:'OCR A Extended';-inkscape-font-specification:'OCR A Extended';letter-spacing:-0.95249999px;stroke-width:0.26458332"
           d="m 31.342646,229.01091 v 3.4389 q 0,0.16881 -0.120578,0.28938 -0.120578,0.11576 -0.284565,0.11576 -0.173633,0 -0.294211,-0.11576 -0.120578,-0.12057 -0.120578,-0.28938 v -3.4389 h -0.41479 q -0.16881,0 -0.289388,-0.12058 -0.115755,-0.12057 -0.115755,-0.28456 0,-0.15916 0.106109,-0.27974 0.110932,-0.1254 0.299034,-0.1254 h 0.424436 v -0.31351 q 0,-0.62218 0.424436,-1.03215 0.429259,-0.40996 1.065912,-0.40996 h 0.950158 q 0.168809,0 0.284564,0.12057 0.120579,0.12058 0.120579,0.29421 0,0.16399 -0.120579,0.28457 -0.120578,0.12058 -0.284564,0.12058 h -0.950158 q -0.289388,0 -0.482313,0.17363 -0.188102,0.17363 -0.188102,0.44855 v 0.31351 h 0.810286 q 0.163987,-0.005 0.284565,0.11575 0.120578,0.12058 0.120578,0.28939 0,0.16399 -0.120578,0.28456 -0.120578,0.12058 -0.284565,0.12058 z" />
        <path
           id="path1063"
           style="font-style:normal;font-variant:normal;font-weight:normal;font-stretch:normal;font-size:9.87777805px;font-family:'OCR A Extended';-inkscape-font-specification:'OCR A Extended';letter-spacing:-0.95249999px;stroke-width:0.26458332"
           d="m 34.50428,232.44981 v -3.84404 q 0,-0.16881 0.115755,-0.28939 0.120579,-0.1254 0.289388,-0.1254 0.16881,0 0.284565,0.12058 0.120579,0.12058 0.120579,0.29421 v 0.50643 l 0.660769,-0.56431 q 0.409966,-0.34726 0.80064,-0.34726 h 0.593246 q 0.501605,0 0.858517,0.35691 0.356912,0.35691 0.356912,0.85852 v 0.21704 q 0,0.17363 -0.120578,0.29421 -0.115755,0.12058 -0.284565,0.12058 -0.16881,0 -0.289388,-0.11576 -0.115755,-0.12058 -0.115755,-0.28939 v -0.22668 q 0,-0.16881 -0.120579,-0.28457 -0.115755,-0.12058 -0.284564,-0.12058 H 36.8435 q -0.16881,0 -0.376205,0.17846 l -1.152728,0.99839 v 2.26205 q 0,0.16881 -0.120579,0.28938 -0.120578,0.11576 -0.284565,0.11576 -0.168809,0 -0.289388,-0.11576 -0.115755,-0.12057 -0.115755,-0.28938 z" />
        <path
           id="path1065"
           style="font-style:normal;font-variant:normal;font-weight:normal;font-stretch:normal;font-size:9.87777805px;font-family:'OCR A Extended';-inkscape-font-specification:'OCR A Extended';letter-spacing:-0.95249999px;stroke-width:0.26458332"
           d="m 43.593543,229.66204 v 1.71221 q 0,0.54501 -0.516075,1.00803 -0.511252,0.46302 -1.056266,0.46302 h -0.950158 q -0.55466,0 -1.061089,-0.46784 -0.506429,-0.47267 -0.506429,-1.00321 v -1.71221 q 0,-0.53055 0.491959,-0.99839 0.496783,-0.47267 1.075559,-0.47267 h 0.950158 q 0.545014,-0.01 1.056266,0.45337 0.516075,0.46302 0.516075,1.01769 z m -3.270084,0.0338 v 1.63986 q 0,0.22187 0.159163,0.35209 l 0.303857,0.26045 q 0.101286,0.0868 0.284565,0.0868 h 0.940511 q 0.207395,0 0.376205,-0.14952 l 0.24598,-0.21704 q 0.149517,-0.11576 0.149517,-0.32315 v -1.63987 q 0,-0.24115 -0.149517,-0.35691 l -0.284565,-0.22669 q -0.144694,-0.12057 -0.33762,-0.12057 H 41.17233 q -0.274919,0 -0.424436,0.13022 l -0.274918,0.23633 q -0.149517,0.12541 -0.149517,0.32798 z" />
        <path
           id="path1067"
           style="font-style:normal;font-variant:normal;font-weight:normal;font-stretch:normal;font-size:9.87777805px;font-family:'OCR A Extended';-inkscape-font-specification:'OCR A Extended';letter-spacing:-0.95249999px;stroke-width:0.26458332"
           d="m 44.420782,232.44981 v -3.84404 q 0,-0.16881 0.115755,-0.28457 0.120579,-0.12057 0.289388,-0.12057 0.313504,0 0.395497,0.30868 0.33762,-0.31833 0.752409,-0.31833 0.487137,0 0.80064,0.41479 0.385851,-0.41479 0.848872,-0.41479 0.376204,0 0.651123,0.2701 0.279742,0.26527 0.299034,0.68006 l 0.115756,3.30867 q 0,0.16398 -0.120579,0.28456 -0.120578,0.12058 -0.284565,0.12058 -0.168809,0 -0.289388,-0.12058 -0.120578,-0.12058 -0.125401,-0.28456 l -0.09646,-3.17845 q -0.0096,-0.26045 -0.159163,-0.26045 -0.08199,0 -0.16881,0.0724 l -0.482313,0.40514 v 2.96141 q 0,0.16398 -0.120579,0.27974 -0.115755,0.11575 -0.284565,0.11575 -0.163986,0 -0.284564,-0.11575 -0.120579,-0.12058 -0.120579,-0.28939 v -3.22185 q 0,-0.2074 -0.178456,-0.2074 -0.08682,0 -0.159163,0.0627 l -0.583599,0.49196 v 2.88424 q 0,0.16398 -0.115756,0.28456 -0.115755,0.12058 -0.279741,0.12058 -0.16881,0 -0.294212,-0.12058 -0.120578,-0.12058 -0.120578,-0.28456 z" />
        <path
           id="path1069"
           style="font-style:normal;font-variant:normal;font-weight:normal;font-stretch:normal;font-size:9.87777805px;font-family:'OCR A Extended';-inkscape-font-specification:'OCR A Extended';letter-spacing:-0.95249999px;stroke-width:0.26458332"
           d="m 54.563968,232.29064 1.639865,-5.54178 q 0.09646,-0.30385 0.405143,-0.30385 0.299035,0 0.376205,0.25562 l 1.61575,5.6286 q 0.01929,0.0627 0.01929,0.12058 0,0.16881 -0.115755,0.28938 -0.115755,0.11576 -0.265272,0.11576 -0.318327,0 -0.405144,-0.29421 l -0.327973,-1.09968 h -1.84726 l -0.356912,1.17685 q -0.01447,0.0772 -0.120578,0.14952 -0.106109,0.0675 -0.231511,0.0675 -0.178456,0 -0.294211,-0.12058 -0.115755,-0.12058 -0.115755,-0.29421 0,-0.0724 0.02412,-0.14952 z m 2.035362,-3.96944 -0.694531,2.31993 h 1.364947 z" />
        <path
           id="path1071"
           style="font-style:normal;font-variant:normal;font-weight:normal;font-stretch:normal;font-size:9.87777805px;font-family:'OCR A Extended';-inkscape-font-specification:'OCR A Extended';letter-spacing:-0.95249999px;stroke-width:0.26458332"
           d="m 61.178967,227.50127 h 0.810287 q 0.173632,0 0.294211,0.13023 0.120578,0.13022 0.120578,0.27491 v 0.69936 q 0,0.16399 -0.125401,0.28456 -0.120579,0.12058 -0.279742,0.12058 h -0.829579 q -0.16881,0 -0.284565,-0.11575 -0.110932,-0.11576 -0.110932,-0.28939 v -0.69936 q 0,-0.16398 0.115755,-0.28456 0.120578,-0.12058 0.289388,-0.12058 z m 0,2.79742 h 0.810287 q 0.168809,0 0.289388,0.12058 0.125401,0.11575 0.125401,0.28456 v 0.68971 q 0,0.16881 -0.120578,0.29421 -0.120579,0.12058 -0.284565,0.12058 h -0.829579 q -0.16881,0 -0.284565,-0.12058 -0.110932,-0.12058 -0.110932,-0.28456 v -0.69936 q 0,-0.17363 0.115755,-0.28939 0.120578,-0.11575 0.289388,-0.11575 z" />
      </g>
      <g
         id="text915"
         style="font-style:normal;font-weight:normal;font-size:10.58333302px;line-height:1.25;font-family:sans-serif;letter-spacing:0px;word-spacing:0px;fill:#000000;fill-opacity:1;stroke:none;stroke-width:0.26458332"
         aria-label="Read from B:">
        <path
           id="path1032"
           style="font-style:normal;font-variant:normal;font-weight:normal;font-stretch:normal;font-size:9.87777805px;font-family:'OCR A Extended';-inkscape-font-specification:'OCR A Extended';letter-spacing:-0.95249999px;stroke-width:0.26458332"
           d="m 4.4605663,251.35578 v -6.0048 h 2.8649415 q 0.4967828,0 0.8536947,0.36174 0.361735,0.36173 0.361735,0.86334 v 0.46302 q 0,0.50643 -0.3569119,0.86816 -0.3569119,0.35691 -0.8585178,0.35691 H 6.8094325 l 1.659158,2.84565 q 0.07717,0.1254 0.07717,0.25081 0,0.16398 -0.1254014,0.28456 -0.1254015,0.11576 -0.2845649,0.11576 -0.2411567,0 -0.3665582,-0.21705 L 5.8640982,248.26415 H 5.2804991 v 3.09163 q 0,0.16881 -0.1254015,0.28939 -0.1205784,0.11576 -0.2893881,0.11576 -0.1688096,0 -0.289388,-0.11576 -0.1157552,-0.12058 -0.1157552,-0.28939 z m 0.8102865,-3.90191 h 2.054655 q 0.1688097,0 0.2845649,-0.11576 0.1205783,-0.12058 0.1205783,-0.28939 v -0.47266 q 0,-0.16881 -0.1205783,-0.28457 -0.1157552,-0.12058 -0.2845649,-0.12058 h -2.054655 z" />
        <path
           id="path1034"
           style="font-style:normal;font-variant:normal;font-weight:normal;font-stretch:normal;font-size:9.87777805px;font-family:'OCR A Extended';-inkscape-font-specification:'OCR A Extended';letter-spacing:-0.95249999px;stroke-width:0.26458332"
           d="m 13.540185,248.63071 v 0.9791 q 0,0.16398 -0.120579,0.28456 -0.120578,0.12058 -0.284565,0.12058 H 10.2701 v 0.23633 q 0,0.2074 0.178456,0.35209 l 0.236334,0.19775 q 0.192925,0.14952 0.366558,0.14952 h 2.083593 q 0.163987,0 0.284565,0.12058 0.120579,0.11575 0.120579,0.28456 0,0.16399 -0.125402,0.28457 -0.120578,0.12058 -0.279742,0.12058 h -2.136648 q -0.212218,0 -0.448551,-0.0868 -0.231511,-0.0916 -0.342443,-0.1881 l -0.3617348,-0.31833 q -0.1688097,-0.13505 -0.2845649,-0.3762 -0.110932,-0.24116 -0.110932,-0.44373 v -1.85691 q 0,-0.15916 0.1205783,-0.42926 0.1254015,-0.27009 0.3135037,-0.41961 l 0.3376197,-0.26527 q 0.332796,-0.2701 0.737939,-0.2701 h 1.13826 q 0.429259,0 0.810286,0.35691 l 0.303858,0.28939 q 0.327973,0.29421 0.327973,0.87781 z m -3.260439,-0.0627 v 0.62701 h 2.459799 v -0.56431 q 0,-0.22669 -0.139871,-0.34726 l -0.236334,-0.2074 q -0.183279,-0.14952 -0.327973,-0.14952 h -1.017681 q -0.188102,0 -0.342443,0.13023 l -0.236333,0.19775 q -0.159164,0.12058 -0.159164,0.3135 z" />
        <path
           id="path1036"
           style="font-style:normal;font-variant:normal;font-weight:normal;font-stretch:normal;font-size:9.87777805px;font-family:'OCR A Extended';-inkscape-font-specification:'OCR A Extended';letter-spacing:-0.95249999px;stroke-width:0.26458332"
           d="m 15.67449,248.83811 h 1.586811 q 0.130225,0 0.376205,0.0579 l -0.0096,-0.57395 q 0,-0.16881 -0.120579,-0.28456 -0.115755,-0.12058 -0.284565,-0.12058 h -1.538579 q -0.163987,0 -0.284565,-0.12058 -0.120579,-0.12058 -0.120579,-0.28457 0,-0.16881 0.115756,-0.28456 0.120578,-0.12058 0.289388,-0.12058 h 1.538579 q 0.501606,0 0.853695,0.35209 0.356912,0.35209 0.371381,0.86334 l 0.101286,3.03375 q 0,0.16881 -0.120578,0.28939 -0.120578,0.11576 -0.284565,0.11576 -0.173633,0 -0.294211,-0.11576 -0.120579,-0.12058 -0.120579,-0.28939 l -0.684885,0.40515 h -1.36977 q -0.511252,0 -0.868164,-0.35692 -0.356912,-0.35691 -0.356912,-0.86816 v -0.47267 q 0,-0.50643 0.356912,-0.86334 0.361735,-0.36173 0.868164,-0.36173 z m 2.025717,1.57716 -0.02412,-0.34244 q -0.0048,-0.17363 -0.120578,-0.28939 -0.115756,-0.11575 -0.284565,-0.11575 H 15.67449 q -0.168809,0 -0.289388,0.12057 -0.115755,0.11576 -0.115755,0.28457 v 0.45337 q 0,0.16399 0.120579,0.28457 0.120578,0.12058 0.284564,0.12058 h 1.143083 z" />
        <path
           id="path1038"
           style="font-style:normal;font-variant:normal;font-weight:normal;font-stretch:normal;font-size:9.87777805px;font-family:'OCR A Extended';-inkscape-font-specification:'OCR A Extended';letter-spacing:-0.95249999px;stroke-width:0.26458332"
           d="m 22.738038,247.67091 v -1.91479 q 0,-0.16881 0.115756,-0.28456 0.115755,-0.12058 0.279741,-0.12058 0.16881,0 0.289388,0.12058 0.125402,0.11575 0.125402,0.28456 v 5.59966 q 0,0.16881 -0.120578,0.28939 -0.120579,0.11576 -0.284565,0.11576 -0.173633,0 -0.289388,-0.11576 -0.115756,-0.12058 -0.115756,-0.28939 v -0.17845 q -0.593245,0.5836 -1.10932,0.5836 H 20.93901 q -0.41479,0 -0.829579,-0.35692 l -0.33762,-0.28456 q -0.115755,-0.11093 -0.221864,-0.37138 -0.101286,-0.26045 -0.101286,-0.48714 v -1.64951 q 0,-0.27492 0.115755,-0.53055 0.115756,-0.26045 0.270096,-0.39067 l 0.332796,-0.28456 q 0.356912,-0.30869 0.839225,-0.30869 h 0.5836 q 0.47749,0 0.868164,0.33762 z m -1.176844,0.24598 h -0.564307 q -0.178456,0 -0.32315,0.13022 l -0.260449,0.22669 q -0.135048,0.12058 -0.135048,0.30868 v 1.71704 q 0,0.16881 0.159164,0.30385 l 0.265272,0.22669 q 0.125401,0.11093 0.265272,0.11093 h 0.66077 q 0.130224,0 0.30868,-0.14951 l 0.641477,-0.53055 q 0.159163,-0.13987 0.159163,-0.34726 v -0.87782 q 0,-0.29421 -0.168809,-0.43408 l -0.66077,-0.5643 q -0.130224,-0.12058 -0.347265,-0.12058 z" />
        <path
           id="path1040"
           style="font-style:normal;font-variant:normal;font-weight:normal;font-stretch:normal;font-size:9.87777805px;font-family:'OCR A Extended';-inkscape-font-specification:'OCR A Extended';letter-spacing:-0.95249999px;stroke-width:0.26458332"
           d="m 31.342646,247.91689 v 3.43889 q 0,0.16881 -0.120578,0.28939 -0.120578,0.11576 -0.284565,0.11576 -0.173633,0 -0.294211,-0.11576 -0.120578,-0.12058 -0.120578,-0.28939 v -3.43889 h -0.41479 q -0.16881,0 -0.289388,-0.12058 -0.115755,-0.12058 -0.115755,-0.28457 0,-0.15916 0.106109,-0.27974 0.110932,-0.1254 0.299034,-0.1254 h 0.424436 v -0.3135 q 0,-0.62219 0.424436,-1.03215 0.429259,-0.40997 1.065912,-0.40997 h 0.950158 q 0.168809,0 0.284564,0.12058 0.120579,0.12058 0.120579,0.29421 0,0.16399 -0.120579,0.28456 -0.120578,0.12058 -0.284564,0.12058 h -0.950158 q -0.289388,0 -0.482313,0.17364 -0.188102,0.17363 -0.188102,0.44855 v 0.3135 h 0.810286 q 0.163987,-0.005 0.284565,0.11576 0.120578,0.12057 0.120578,0.28938 0,0.16399 -0.120578,0.28457 -0.120578,0.12058 -0.284565,0.12058 z" />
        <path
           id="path1042"
           style="font-style:normal;font-variant:normal;font-weight:normal;font-stretch:normal;font-size:9.87777805px;font-family:'OCR A Extended';-inkscape-font-specification:'OCR A Extended';letter-spacing:-0.95249999px;stroke-width:0.26458332"
           d="m 34.50428,251.35578 v -3.84404 q 0,-0.16881 0.115755,-0.28938 0.120579,-0.12541 0.289388,-0.12541 0.16881,0 0.284565,0.12058 0.120579,0.12058 0.120579,0.29421 v 0.50643 l 0.660769,-0.5643 q 0.409966,-0.34727 0.80064,-0.34727 h 0.593246 q 0.501605,0 0.858517,0.35691 0.356912,0.35691 0.356912,0.85852 v 0.21704 q 0,0.17363 -0.120578,0.29421 -0.115755,0.12058 -0.284565,0.12058 -0.16881,0 -0.289388,-0.11575 -0.115755,-0.12058 -0.115755,-0.28939 v -0.22669 q 0,-0.16881 -0.120579,-0.28456 -0.115755,-0.12058 -0.284564,-0.12058 H 36.8435 q -0.16881,0 -0.376205,0.17845 l -1.152728,0.99839 v 2.26205 q 0,0.16881 -0.120579,0.28939 -0.120578,0.11576 -0.284565,0.11576 -0.168809,0 -0.289388,-0.11576 -0.115755,-0.12058 -0.115755,-0.28939 z" />
        <path
           id="path1044"
           style="font-style:normal;font-variant:normal;font-weight:normal;font-stretch:normal;font-size:9.87777805px;font-family:'OCR A Extended';-inkscape-font-specification:'OCR A Extended';letter-spacing:-0.95249999px;stroke-width:0.26458332"
           d="m 43.593543,248.56801 v 1.71221 q 0,0.54502 -0.516075,1.00804 -0.511252,0.46302 -1.056266,0.46302 h -0.950158 q -0.55466,0 -1.061089,-0.46784 -0.506429,-0.47267 -0.506429,-1.00322 v -1.71221 q 0,-0.53054 0.491959,-0.99839 0.496783,-0.47267 1.075559,-0.47267 h 0.950158 q 0.545014,-0.01 1.056266,0.45338 0.516075,0.46302 0.516075,1.01768 z m -3.270084,0.0338 v 1.63987 q 0,0.22186 0.159163,0.35209 l 0.303857,0.26045 q 0.101286,0.0868 0.284565,0.0868 h 0.940511 q 0.207395,0 0.376205,-0.14951 l 0.24598,-0.21705 q 0.149517,-0.11575 0.149517,-0.32315 v -1.63986 q 0,-0.24116 -0.149517,-0.35691 l -0.284565,-0.22669 q -0.144694,-0.12058 -0.33762,-0.12058 H 41.17233 q -0.274919,0 -0.424436,0.13023 l -0.274918,0.23633 q -0.149517,0.1254 -0.149517,0.32797 z" />
        <path
           id="path1046"
           style="font-style:normal;font-variant:normal;font-weight:normal;font-stretch:normal;font-size:9.87777805px;font-family:'OCR A Extended';-inkscape-font-specification:'OCR A Extended';letter-spacing:-0.95249999px;stroke-width:0.26458332"
           d="m 44.420782,251.35578 v -3.84404 q 0,-0.16881 0.115755,-0.28456 0.120579,-0.12058 0.289388,-0.12058 0.313504,0 0.395497,0.30868 0.33762,-0.31833 0.752409,-0.31833 0.487137,0 0.80064,0.41479 0.385851,-0.41479 0.848872,-0.41479 0.376204,0 0.651123,0.2701 0.279742,0.26527 0.299034,0.68006 l 0.115756,3.30867 q 0,0.16399 -0.120579,0.28457 -0.120578,0.12058 -0.284565,0.12058 -0.168809,0 -0.289388,-0.12058 -0.120578,-0.12058 -0.125401,-0.28457 l -0.09646,-3.17844 q -0.0096,-0.26045 -0.159163,-0.26045 -0.08199,0 -0.16881,0.0723 l -0.482313,0.40515 v 2.9614 q 0,0.16399 -0.120579,0.27974 -0.115755,0.11576 -0.284565,0.11576 -0.163986,0 -0.284564,-0.11576 -0.120579,-0.12057 -0.120579,-0.28938 v -3.22186 q 0,-0.20739 -0.178456,-0.20739 -0.08682,0 -0.159163,0.0627 l -0.583599,0.49196 v 2.88423 q 0,0.16399 -0.115756,0.28457 -0.115755,0.12058 -0.279741,0.12058 -0.16881,0 -0.294212,-0.12058 -0.120578,-0.12058 -0.120578,-0.28457 z" />
        <path
           id="path1048"
           style="font-style:normal;font-variant:normal;font-weight:normal;font-stretch:normal;font-size:9.87777805px;font-family:'OCR A Extended';-inkscape-font-specification:'OCR A Extended';letter-spacing:-0.95249999px;stroke-width:0.26458332"
           d="m 58.620223,249.77379 v 0.35692 q 0,0.67041 -0.47749,1.15273 -0.472667,0.47749 -1.143083,0.47749 h -2.47909 v -6.40995 h 2.47909 q 0.670416,0 1.143083,0.47749 0.47749,0.47749 0.47749,1.15273 v 0.34244 q 0,0.71865 -0.55466,1.22508 0.55466,0.51607 0.55466,1.22507 z M 57.790644,247.314 v -0.3328 q 0,-0.33762 -0.241156,-0.57878 -0.236334,-0.24115 -0.56913,-0.24115 h -1.649512 v 1.96301 h 1.649512 q 0.327973,0 0.56913,-0.23633 0.241156,-0.24116 0.241156,-0.57395 z m 0,2.81671 v -0.33762 q 0,-0.33762 -0.241156,-0.57878 -0.236334,-0.24116 -0.56913,-0.24116 h -1.639866 v 1.96784 h 1.639866 q 0.327973,0 0.56913,-0.23633 0.241156,-0.24116 0.241156,-0.57395 z" />
        <path
           id="path1050"
           style="font-style:normal;font-variant:normal;font-weight:normal;font-stretch:normal;font-size:9.87777805px;font-family:'OCR A Extended';-inkscape-font-specification:'OCR A Extended';letter-spacing:-0.95249999px;stroke-width:0.26458332"
           d="m 61.178967,246.40725 h 0.810287 q 0.173632,0 0.294211,0.13022 0.120578,0.13023 0.120578,0.27492 v 0.69935 q 0,0.16399 -0.125401,0.28457 -0.120579,0.12058 -0.279742,0.12058 h -0.829579 q -0.16881,0 -0.284565,-0.11576 -0.110932,-0.11575 -0.110932,-0.28939 v -0.69935 q 0,-0.16399 0.115755,-0.28456 0.120578,-0.12058 0.289388,-0.12058 z m 0,2.79741 h 0.810287 q 0.168809,0 0.289388,0.12058 0.125401,0.11576 0.125401,0.28457 v 0.68971 q 0,0.16881 -0.120578,0.29421 -0.120579,0.12058 -0.284565,0.12058 h -0.829579 q -0.16881,0 -0.284565,-0.12058 -0.110932,-0.12058 -0.110932,-0.28457 v -0.69935 q 0,-0.17364 0.115755,-0.28939 0.120578,-0.11576 0.289388,-0.11576 z" />
      </g>
      <g
         id="text919"
         style="font-style:normal;font-weight:normal;font-size:10.58333302px;line-height:1.25;font-family:sans-serif;letter-spacing:0px;word-spacing:0px;fill:#000000;fill-opacity:1;stroke:none;stroke-width:0.26458332"
         aria-label="Exit menu">
        <path
           id="path1015"
           style="font-style:normal;font-variant:normal;font-weight:normal;font-stretch:normal;font-size:9.87777805px;font-family:'OCR A Extended';-inkscape-font-specification:'OCR A Extended';letter-spacing:-0.95249999px;stroke-width:0.26458332"
           d="M 8.1357942,265.41023 H 5.2708527 v 1.97266 H 6.505575 q 0.1639865,0 0.2845648,0.12058 0.1205784,0.12058 0.1205784,0.28457 0,0.17363 -0.1205784,0.29421 -0.1157552,0.12058 -0.2845648,0.12058 H 5.2708527 v 1.98713 h 2.8745877 q 0.1639866,0 0.2845649,0.12058 0.1205784,0.11575 0.1205784,0.28456 0,0.16881 -0.1254015,0.28939 -0.1205783,0.11575 -0.289388,0.11575 h -3.675228 v -6.40994 h 3.675228 q 0.1688097,0 0.289388,0.1254 0.1254015,0.12058 0.1254015,0.28939 0,0.16399 -0.1254015,0.28456 -0.1205783,0.12058 -0.289388,0.12058 z" />
        <path
           id="path1017"
           style="font-style:normal;font-variant:normal;font-weight:normal;font-stretch:normal;font-size:9.87777805px;font-family:'OCR A Extended';-inkscape-font-specification:'OCR A Extended';letter-spacing:-0.95249999px;stroke-width:0.26458332"
           d="m 11.581992,269.25427 -1.326361,1.57716 q -0.130225,0.16881 -0.3231504,0.16881 -0.1736329,0 -0.2893881,-0.12057 -0.1157552,-0.12058 -0.1157552,-0.29422 0,-0.15434 0.07717,-0.24598 l 1.4517635,-1.74115 -1.3408315,-1.59645 q -0.09164,-0.10611 -0.09164,-0.24116 0,-0.15916 0.1109321,-0.28457 0.1157552,-0.13022 0.2942109,-0.13022 0.202572,0 0.327973,0.14952 l 1.225076,1.47105 1.254015,-1.4807 q 0.115755,-0.13987 0.289388,-0.13987 0.15434,0 0.279742,0.11093 0.125401,0.10611 0.125401,0.27492 0,0.16399 -0.05305,0.22669 l -1.364947,1.64951 1.432471,1.7315 q 0.08199,0.0916 0.08199,0.22669 0,0.18328 -0.125401,0.30868 -0.120579,0.12058 -0.279742,0.12058 -0.188102,0 -0.327973,-0.16399 z" />
        <path
           id="path1019"
           style="font-style:normal;font-variant:normal;font-weight:normal;font-stretch:normal;font-size:9.87777805px;font-family:'OCR A Extended';-inkscape-font-specification:'OCR A Extended';letter-spacing:-0.95249999px;stroke-width:0.26458332"
           d="m 16.098926,264.23339 h 0.424436 q 0.16881,0 0.284565,0.12058 0.120578,0.11575 0.120578,0.28456 v 0.34727 q 0,0.16881 -0.120578,0.29421 -0.115755,0.12058 -0.284565,0.12058 H 16.08928 q -0.173633,0 -0.294211,-0.12541 -0.115755,-0.1254 -0.110932,-0.27974 l 0.0096,-0.35691 q 0,-0.16881 0.115755,-0.28456 0.120578,-0.12058 0.289388,-0.12058 z m 1.649512,6.75721 h -2.469445 q -0.168809,0 -0.289388,-0.11576 -0.115755,-0.12058 -0.115755,-0.28939 0,-0.16398 0.115755,-0.28456 0.120579,-0.12058 0.289388,-0.12058 h 0.829579 v -3.0241 H 15.28864 q -0.16881,0 -0.289388,-0.12058 -0.115756,-0.12058 -0.115756,-0.28457 0,-0.16881 0.115756,-0.28938 0.120578,-0.12541 0.289388,-0.12541 h 1.234722 q 0.16881,0 0.284565,0.12541 0.120578,0.12057 0.120578,0.28938 v 3.42925 h 0.810287 q 0.168809,0 0.289388,0.12058 0.125401,0.11575 0.125401,0.28456 0,0.16881 -0.120578,0.28939 -0.120579,0.11576 -0.284565,0.11576 z" />
        <path
           id="path1021"
           style="font-style:normal;font-variant:normal;font-weight:normal;font-stretch:normal;font-size:9.87777805px;font-family:'OCR A Extended';-inkscape-font-specification:'OCR A Extended';letter-spacing:-0.95249999px;stroke-width:0.26458332"
           d="m 22.332895,271.00024 h -0.810286 q -0.501606,0 -0.863341,-0.35691 -0.361735,-0.35691 -0.361735,-0.85852 v -2.6286 h -0.41479 q -0.16881,0 -0.289388,-0.11576 -0.115755,-0.11575 -0.115755,-0.28939 0,-0.16881 0.115755,-0.28456 0.120578,-0.12058 0.289388,-0.12058 h 0.424436 v -0.99357 q 0,-0.16881 0.115755,-0.28456 0.120579,-0.12058 0.289388,-0.12058 0.159164,0 0.279742,0.12058 0.125401,0.12058 0.125401,0.28456 v 0.99357 h 1.63022 q 0.163986,0 0.284565,0.12058 0.120578,0.12058 0.120578,0.28456 0,0.16881 -0.120578,0.28939 -0.120579,0.11576 -0.284565,0.11576 h -1.639866 v 2.6286 q 0,0.16399 0.120579,0.28457 0.125401,0.12058 0.294211,0.12058 h 0.790994 q 0.32315,0 0.429259,-0.34727 0.106108,-0.35209 0.409966,-0.35209 0.178456,0 0.289388,0.12058 0.115755,0.11576 0.115755,0.29421 0,0.36656 -0.347265,0.73312 -0.342443,0.36173 -0.877811,0.36173 z" />
        <path
           id="path1023"
           style="font-style:normal;font-variant:normal;font-weight:normal;font-stretch:normal;font-size:9.87777805px;font-family:'OCR A Extended';-inkscape-font-specification:'OCR A Extended';letter-spacing:-0.95249999px;stroke-width:0.26458332"
           d="m 29.403746,270.5951 v -3.84404 q 0,-0.16881 0.115756,-0.28456 0.120578,-0.12058 0.289388,-0.12058 0.313503,0 0.395497,0.30868 0.337619,-0.31833 0.752409,-0.31833 0.487136,0 0.80064,0.41479 0.38585,-0.41479 0.848871,-0.41479 0.376205,0 0.651123,0.2701 0.279742,0.26527 0.299035,0.68006 l 0.115755,3.30867 q 0,0.16399 -0.120578,0.28457 -0.120579,0.12057 -0.284565,0.12057 -0.16881,0 -0.289388,-0.12057 -0.120579,-0.12058 -0.125402,-0.28457 l -0.09646,-3.17844 q -0.0096,-0.26045 -0.159163,-0.26045 -0.08199,0 -0.16881,0.0723 l -0.482313,0.40515 v 2.9614 q 0,0.16399 -0.120578,0.27974 -0.115756,0.11576 -0.284565,0.11576 -0.163987,0 -0.284565,-0.11576 -0.120579,-0.12058 -0.120579,-0.28939 v -3.22185 q 0,-0.20739 -0.178455,-0.20739 -0.08682,0 -0.159164,0.0627 l -0.583599,0.49196 v 2.88423 q 0,0.16399 -0.115755,0.28457 -0.115756,0.12057 -0.279742,0.12057 -0.16881,0 -0.294211,-0.12057 -0.120579,-0.12058 -0.120579,-0.28457 z" />
        <path
           id="path1025"
           style="font-style:normal;font-variant:normal;font-weight:normal;font-stretch:normal;font-size:9.87777805px;font-family:'OCR A Extended';-inkscape-font-specification:'OCR A Extended';letter-spacing:-0.95249999px;stroke-width:0.26458332"
           d="m 38.594297,267.87003 v 0.9791 q 0,0.16398 -0.120578,0.28456 -0.120578,0.12058 -0.284565,0.12058 h -2.864941 v 0.23633 q 0,0.2074 0.178456,0.35209 l 0.236333,0.19775 q 0.192926,0.14952 0.366558,0.14952 h 2.083594 q 0.163987,0 0.284565,0.12058 0.120578,0.11575 0.120578,0.28456 0,0.16399 -0.125401,0.28457 -0.120578,0.12057 -0.279742,0.12057 h -2.136648 q -0.212218,0 -0.448552,-0.0868 -0.23151,-0.0916 -0.342442,-0.1881 L 34.899777,270.407 q -0.16881,-0.13505 -0.284565,-0.37621 -0.110932,-0.24115 -0.110932,-0.44372 v -1.85691 q 0,-0.15916 0.120578,-0.42926 0.125402,-0.27009 0.313504,-0.41961 l 0.337619,-0.26527 q 0.332797,-0.2701 0.73794,-0.2701 h 1.138259 q 0.429259,0 0.810287,0.35691 l 0.303857,0.28939 q 0.327973,0.29421 0.327973,0.87781 z m -3.260438,-0.0627 v 0.62701 h 2.459798 v -0.56431 q 0,-0.22669 -0.139871,-0.34727 l -0.236333,-0.20739 q -0.183279,-0.14952 -0.327973,-0.14952 h -1.017682 q -0.188102,0 -0.342442,0.13023 l -0.236334,0.19775 q -0.159163,0.12057 -0.159163,0.3135 z" />
        <path
           id="path1027"
           style="font-style:normal;font-variant:normal;font-weight:normal;font-stretch:normal;font-size:9.87777805px;font-family:'OCR A Extended';-inkscape-font-specification:'OCR A Extended';letter-spacing:-0.95249999px;stroke-width:0.26458332"
           d="m 41.437602,267.28643 -1.104497,0.71865 v 2.59002 q 0,0.16399 -0.120579,0.28457 -0.120578,0.12057 -0.284565,0.12057 -0.163986,0 -0.284564,-0.12057 -0.120579,-0.12058 -0.120579,-0.28457 v -3.84404 q 0,-0.16881 0.115755,-0.28938 0.120579,-0.12541 0.289388,-0.12541 0.163987,0 0.284565,0.12541 0.120579,0.12057 0.120579,0.28938 v 0.2701 l 0.737939,-0.44855 q 0.371382,-0.23634 0.839225,-0.23634 h 0.376205 q 0.482313,0 0.834402,0.34245 0.352089,0.34244 0.371381,0.84404 l 0.110932,3.07234 q 0.0048,0.16399 -0.115755,0.28457 -0.120578,0.12057 -0.289388,0.12057 -0.159163,0 -0.279742,-0.1061 -0.120578,-0.11094 -0.125401,-0.29904 l -0.120578,-3.0241 q -0.01447,-0.42444 -0.443729,-0.42444 h -0.395497 q -0.183279,0 -0.395497,0.13987 z" />
        <path
           id="path1029"
           style="font-style:normal;font-variant:normal;font-weight:normal;font-stretch:normal;font-size:9.87777805px;font-family:'OCR A Extended';-inkscape-font-specification:'OCR A Extended';letter-spacing:-0.95249999px;stroke-width:0.26458332"
           d="m 46.456145,270.18031 1.364946,-0.86816 v -2.56109 q 0,-0.16881 0.115756,-0.28938 0.120578,-0.12541 0.289388,-0.12541 0.168809,0 0.284565,0.12541 0.120578,0.12057 0.120578,0.28938 v 3.84404 q 0,0.16399 -0.120578,0.28457 -0.120579,0.12057 -0.284565,0.12057 -0.163987,0 -0.284565,-0.12057 -0.120579,-0.12058 -0.120579,-0.28457 v -0.31833 l -0.704177,0.4582 q -0.41479,0.26527 -0.839225,0.26527 h -0.376205 q -0.496783,0 -0.853695,-0.34726 -0.356911,-0.34727 -0.381027,-0.84887 l -0.115755,-3.05305 q -0.0096,-0.15916 0.110932,-0.27974 0.125401,-0.1254 0.294211,-0.1254 0.163986,0 0.279742,0.12058 0.120578,0.12058 0.125401,0.28456 l 0.106109,2.99517 q 0.01447,0.43408 0.496783,0.43408 z" />
      </g>
      <g
         id="text923"
         style="font-style:normal;font-weight:normal;font-size:10.58333302px;line-height:1.25;font-family:sans-serif;letter-spacing:0px;word-spacing:0px;fill:#000000;fill-opacity:1;stroke:none;stroke-width:0.26458332"
         aria-label="Leer en A:">
        <path
           id="path1116"
           style="font-size:8.46666622px;letter-spacing:-0.47095832px;stroke-width:0.26458332"
           d="m 171.04928,230.36174 h -3.89433 v -6.1557 h 0.81855 v 5.4281 h 3.07578 z" />
        <path
           id="path1118"
           style="font-size:8.46666622px;letter-spacing:-0.47095832px;stroke-width:0.26458332"
           d="m 175.20027,228.13345 h -3.40238 q 0,0.42582 0.12816,0.74414 0.12815,0.3142 0.3514,0.51677 0.21497,0.19843 0.50849,0.29765 0.29766,0.0992 0.65319,0.0992 0.47129,0 0.94671,-0.18603 0.47956,-0.19017 0.68213,-0.37207 h 0.0413 v 0.84749 q -0.39274,0.16536 -0.80201,0.27699 -0.40928,0.11162 -0.8599,0.11162 -1.14928,0 -1.79421,-0.62012 -0.64492,-0.62425 -0.64492,-1.7694 0,-1.13275 0.61599,-1.79834 0.62011,-0.66559 1.62884,-0.66559 0.93431,0 1.43867,0.5457 0.5085,0.5457 0.5085,1.55029 z m -0.75655,-0.59531 q -0.004,-0.61185 -0.31006,-0.94671 -0.30179,-0.33487 -0.9219,-0.33487 -0.62426,0 -0.99633,0.36794 -0.36793,0.36794 -0.41754,0.91364 z" />
        <path
           id="path1120"
           style="font-size:8.46666622px;letter-spacing:-0.47095832px;stroke-width:0.26458332"
           d="m 179.77293,228.13345 h -3.40238 q 0,0.42582 0.12816,0.74414 0.12816,0.3142 0.3514,0.51677 0.21497,0.19843 0.50849,0.29765 0.29766,0.0992 0.65319,0.0992 0.47129,0 0.94672,-0.18603 0.47955,-0.19017 0.68212,-0.37207 h 0.0414 v 0.84749 q -0.39274,0.16536 -0.80202,0.27699 -0.40928,0.11162 -0.8599,0.11162 -1.14928,0 -1.7942,-0.62012 -0.64493,-0.62425 -0.64493,-1.7694 0,-1.13275 0.61599,-1.79834 0.62011,-0.66559 1.62884,-0.66559 0.93431,0 1.43867,0.5457 0.5085,0.5457 0.5085,1.55029 z m -0.75655,-0.59531 q -0.004,-0.61185 -0.31006,-0.94671 -0.30179,-0.33487 -0.9219,-0.33487 -0.62425,0 -0.99632,0.36794 -0.36794,0.36794 -0.41755,0.91364 z" />
        <path
           id="path1122"
           style="font-size:8.46666622px;letter-spacing:-0.47095832px;stroke-width:0.26458332"
           d="m 183.36167,226.59143 h -0.0413 q -0.17364,-0.0413 -0.339,-0.0579 -0.16123,-0.0207 -0.38447,-0.0207 -0.35967,0 -0.69453,0.16123 -0.33487,0.1571 -0.64493,0.40928 v 3.27835 h -0.77721 v -4.61781 h 0.77721 v 0.68213 q 0.46303,-0.37207 0.81442,-0.52503 0.35554,-0.1571 0.72347,-0.1571 0.20258,0 0.29353,0.0124 0.0909,0.008 0.27285,0.0372 z" />
        <path
           id="path1124"
           style="font-size:8.46666622px;letter-spacing:-0.47095832px;stroke-width:0.26458332"
           d="m 190.00172,228.13345 h -3.40238 q 0,0.42582 0.12816,0.74414 0.12816,0.3142 0.3514,0.51677 0.21497,0.19843 0.50849,0.29765 0.29766,0.0992 0.65319,0.0992 0.47129,0 0.94672,-0.18603 0.47955,-0.19017 0.68213,-0.37207 h 0.0413 v 0.84749 q -0.39274,0.16536 -0.80202,0.27699 -0.40928,0.11162 -0.8599,0.11162 -1.14928,0 -1.7942,-0.62012 -0.64492,-0.62425 -0.64492,-1.7694 0,-1.13275 0.61598,-1.79834 0.62012,-0.66559 1.62884,-0.66559 0.93431,0 1.43867,0.5457 0.5085,0.5457 0.5085,1.55029 z m -0.75655,-0.59531 q -0.004,-0.61185 -0.31005,-0.94671 -0.30179,-0.33487 -0.92191,-0.33487 -0.62425,0 -0.99632,0.36794 -0.36794,0.36794 -0.41755,0.91364 z" />
        <path
           id="path1126"
           style="font-size:8.46666622px;letter-spacing:-0.47095832px;stroke-width:0.26458332"
           d="m 194.57024,230.36174 h -0.77721 v -2.6293 q 0,-0.31832 -0.0372,-0.59531 -0.0372,-0.28112 -0.13642,-0.43822 -0.10336,-0.17363 -0.29766,-0.25631 -0.1943,-0.0868 -0.50436,-0.0868 -0.31833,0 -0.66559,0.1571 -0.34727,0.1571 -0.6656,0.40101 v 3.44785 h -0.77721 v -4.61781 h 0.77721 v 0.51263 q 0.36381,-0.30179 0.75241,-0.47128 0.38861,-0.1695 0.79789,-0.1695 0.74827,0 1.14101,0.45062 0.39274,0.45061 0.39274,1.29811 z" />
        <path
           id="path1128"
           style="font-size:8.46666622px;letter-spacing:-0.47095832px;stroke-width:0.26458332"
           d="m 203.0169,230.36174 h -0.8723 l -0.60358,-1.71566 h -2.66237 l -0.60358,1.71566 h -0.83096 l 2.24069,-6.1557 h 1.09141 z m -1.72806,-2.41846 -1.079,-3.02203 -1.08314,3.02203 z" />
        <path
           id="path1130"
           style="font-size:8.46666622px;letter-spacing:-0.47095832px;stroke-width:0.26458332"
           d="m 205.07189,226.92216 h -0.98806 v -1.17823 h 0.98806 z m 0,3.43958 h -0.98806 v -1.17822 h 0.98806 z" />
      </g>
      <g
         id="text927"
         style="font-style:normal;font-weight:normal;font-size:10.58333302px;line-height:1.25;font-family:sans-serif;letter-spacing:0px;word-spacing:0px;fill:#000000;fill-opacity:1;stroke:none;stroke-width:0.26458332"
         aria-label="Leer en B:">
        <path
           id="path1099"
           style="font-size:8.46666622px;letter-spacing:-0.47095832px;stroke-width:0.26458332"
           d="m 171.04928,248.88295 h -3.89433 v -6.1557 h 0.81855 v 5.4281 h 3.07578 z" />
        <path
           id="path1101"
           style="font-size:8.46666622px;letter-spacing:-0.47095832px;stroke-width:0.26458332"
           d="m 175.20027,246.65466 h -3.40238 q 0,0.42582 0.12816,0.74414 0.12815,0.3142 0.3514,0.51677 0.21497,0.19843 0.50849,0.29765 0.29766,0.0992 0.65319,0.0992 0.47129,0 0.94671,-0.18603 0.47956,-0.19017 0.68213,-0.37207 h 0.0413 v 0.84749 q -0.39274,0.16536 -0.80201,0.27699 -0.40928,0.11162 -0.8599,0.11162 -1.14928,0 -1.79421,-0.62012 -0.64492,-0.62425 -0.64492,-1.7694 0,-1.13275 0.61599,-1.79834 0.62011,-0.66559 1.62884,-0.66559 0.93431,0 1.43867,0.5457 0.5085,0.5457 0.5085,1.55029 z m -0.75655,-0.59531 q -0.004,-0.61185 -0.31006,-0.94671 -0.30179,-0.33487 -0.9219,-0.33487 -0.62426,0 -0.99633,0.36794 -0.36793,0.36794 -0.41754,0.91364 z" />
        <path
           id="path1103"
           style="font-size:8.46666622px;letter-spacing:-0.47095832px;stroke-width:0.26458332"
           d="m 179.77293,246.65466 h -3.40238 q 0,0.42582 0.12816,0.74414 0.12816,0.3142 0.3514,0.51677 0.21497,0.19843 0.50849,0.29765 0.29766,0.0992 0.65319,0.0992 0.47129,0 0.94672,-0.18603 0.47955,-0.19017 0.68212,-0.37207 h 0.0414 v 0.84749 q -0.39274,0.16536 -0.80202,0.27699 -0.40928,0.11162 -0.8599,0.11162 -1.14928,0 -1.7942,-0.62012 -0.64493,-0.62425 -0.64493,-1.7694 0,-1.13275 0.61599,-1.79834 0.62011,-0.66559 1.62884,-0.66559 0.93431,0 1.43867,0.5457 0.5085,0.5457 0.5085,1.55029 z m -0.75655,-0.59531 q -0.004,-0.61185 -0.31006,-0.94671 -0.30179,-0.33487 -0.9219,-0.33487 -0.62425,0 -0.99632,0.36794 -0.36794,0.36794 -0.41755,0.91364 z" />
        <path
           id="path1105"
           style="font-size:8.46666622px;letter-spacing:-0.47095832px;stroke-width:0.26458332"
           d="m 183.36167,245.11264 h -0.0413 q -0.17364,-0.0413 -0.339,-0.0579 -0.16123,-0.0207 -0.38447,-0.0207 -0.35967,0 -0.69453,0.16123 -0.33487,0.1571 -0.64493,0.40928 v 3.27835 h -0.77721 v -4.61781 h 0.77721 v 0.68213 q 0.46303,-0.37207 0.81442,-0.52503 0.35554,-0.1571 0.72347,-0.1571 0.20258,0 0.29353,0.0124 0.0909,0.008 0.27285,0.0372 z" />
        <path
           id="path1107"
           style="font-size:8.46666622px;letter-spacing:-0.47095832px;stroke-width:0.26458332"
           d="m 190.00172,246.65466 h -3.40238 q 0,0.42582 0.12816,0.74414 0.12816,0.3142 0.3514,0.51677 0.21497,0.19843 0.50849,0.29765 0.29766,0.0992 0.65319,0.0992 0.47129,0 0.94672,-0.18603 0.47955,-0.19017 0.68213,-0.37207 h 0.0413 v 0.84749 q -0.39274,0.16536 -0.80202,0.27699 -0.40928,0.11162 -0.8599,0.11162 -1.14928,0 -1.7942,-0.62012 -0.64492,-0.62425 -0.64492,-1.7694 0,-1.13275 0.61598,-1.79834 0.62012,-0.66559 1.62884,-0.66559 0.93431,0 1.43867,0.5457 0.5085,0.5457 0.5085,1.55029 z m -0.75655,-0.59531 q -0.004,-0.61185 -0.31005,-0.94671 -0.30179,-0.33487 -0.92191,-0.33487 -0.62425,0 -0.99632,0.36794 -0.36794,0.36794 -0.41755,0.91364 z" />
        <path
           id="path1109"
           style="font-size:8.46666622px;letter-spacing:-0.47095832px;stroke-width:0.26458332"
           d="m 194.57024,248.88295 h -0.77721 v -2.6293 q 0,-0.31832 -0.0372,-0.59531 -0.0372,-0.28112 -0.13642,-0.43822 -0.10336,-0.17363 -0.29766,-0.25631 -0.1943,-0.0868 -0.50436,-0.0868 -0.31833,0 -0.66559,0.1571 -0.34727,0.1571 -0.6656,0.40101 v 3.44785 h -0.77721 v -4.61781 h 0.77721 v 0.51263 q 0.36381,-0.30179 0.75241,-0.47128 0.38861,-0.1695 0.79789,-0.1695 0.74827,0 1.14101,0.45062 0.39274,0.45061 0.39274,1.29811 z" />
        <path
           id="path1111"
           style="font-size:8.46666622px;letter-spacing:-0.47095832px;stroke-width:0.26458332"
           d="m 202.80606,246.98953 q 0,0.45888 -0.17363,0.81028 -0.17363,0.3514 -0.46716,0.57878 -0.34726,0.27285 -0.76481,0.3886 -0.41341,0.11576 -1.0542,0.11576 h -2.18281 v -6.1557 h 1.82315 q 0.67386,0 1.00872,0.0496 0.33486,0.0496 0.64079,0.20671 0.33899,0.17777 0.49196,0.45889 0.15296,0.27698 0.15296,0.66559 0,0.43821 -0.22324,0.74827 -0.22325,0.30593 -0.59532,0.49196 v 0.0331 q 0.62426,0.12816 0.98392,0.54984 0.35967,0.41755 0.35967,1.05834 z m -1.37666,-2.774 q 0,-0.22324 -0.0744,-0.3762 -0.0744,-0.15296 -0.23978,-0.24805 -0.1943,-0.11162 -0.47129,-0.13642 -0.27699,-0.0289 -0.68626,-0.0289 h -0.97565 v 1.77767 h 1.05833 q 0.38447,0 0.61185,-0.0372 0.22737,-0.0413 0.42168,-0.16536 0.1943,-0.12403 0.27285,-0.31833 0.0827,-0.19844 0.0827,-0.46716 z m 0.52503,2.80707 q 0,-0.37207 -0.11162,-0.59118 -0.11162,-0.21911 -0.40514,-0.37207 -0.19844,-0.10335 -0.48369,-0.13229 -0.28112,-0.0331 -0.68626,-0.0331 h -1.28571 v 2.29029 h 1.08313 q 0.53744,0 0.88057,-0.0537 0.34313,-0.0579 0.56224,-0.2067 0.23151,-0.16124 0.339,-0.36794 0.10748,-0.20671 0.10748,-0.5333 z" />
        <path
           id="path1113"
           style="font-size:8.46666622px;letter-spacing:-0.47095832px;stroke-width:0.26458332"
           d="m 205.08842,245.44337 h -0.98805 v -1.17823 h 0.98805 z m 0,3.43958 h -0.98805 v -1.17822 h 0.98805 z" />
      </g>
      <g
         id="text931"
         style="font-style:normal;font-weight:normal;font-size:10.58333302px;line-height:1.25;font-family:sans-serif;letter-spacing:0px;word-spacing:0px;fill:#000000;fill-opacity:1;stroke:none;stroke-width:0.26458332"
         aria-label="Vuelta al men">
        <path
           id="path1074"
           style="font-size:7.76111126px;letter-spacing:-0.47095832px;stroke-width:0.26458332"
           d="m 172.26333,262.29044 -2.05397,5.64273 h -1.00045 l -2.05397,-5.64273 h 0.8034 l 1.76974,4.96439 1.76975,-4.96439 z" />
        <path
           id="path1076"
           style="font-size:7.76111126px;letter-spacing:-0.47095832px;stroke-width:0.26458332"
           d="m 175.87378,267.93317 h -0.71245 v -0.46991 q -0.36001,0.28422 -0.68971,0.4358 -0.32969,0.15158 -0.7276,0.15158 -0.66697,0 -1.03835,-0.40548 -0.37139,-0.40928 -0.37139,-1.19752 v -2.74746 h 0.71245 v 2.41019 q 0,0.32211 0.0303,0.55328 0.0303,0.22738 0.12884,0.39033 0.10232,0.16674 0.26528,0.24253 0.16295,0.0758 0.4737,0.0758 0.27664,0 0.60254,-0.144 0.3297,-0.14401 0.61392,-0.36759 v -3.16053 h 0.71245 z" />
        <path
           id="path1078"
           style="font-size:7.76111126px;letter-spacing:-0.47095832px;stroke-width:0.26458332"
           d="m 180.34825,265.89057 h -3.11884 q 0,0.39033 0.11747,0.68213 0.11748,0.28801 0.32212,0.4737 0.19706,0.1819 0.46612,0.27285 0.27285,0.0909 0.59876,0.0909 0.43202,0 0.86782,-0.17053 0.43959,-0.17432 0.62528,-0.34107 h 0.0379 v 0.77687 q -0.36001,0.15159 -0.73518,0.25391 -0.37517,0.10232 -0.78824,0.10232 -1.05351,0 -1.64469,-0.56844 -0.59118,-0.57223 -0.59118,-1.62196 0,-1.03835 0.56465,-1.64847 0.56844,-0.61013 1.49311,-0.61013 0.85645,0 1.31878,0.50023 0.46612,0.50023 0.46612,1.4211 z m -0.6935,-0.5457 q -0.004,-0.56087 -0.28422,-0.86782 -0.27664,-0.30696 -0.84508,-0.30696 -0.57223,0 -0.91329,0.33727 -0.33728,0.33728 -0.38275,0.83751 z" />
        <path
           id="path1080"
           style="font-size:7.76111126px;letter-spacing:-0.47095832px;stroke-width:0.26458332"
           d="m 181.67736,267.93317 h -0.71245 v -5.89663 h 0.71245 z" />
        <path
           id="path1082"
           style="font-size:7.76111126px;letter-spacing:-0.47095832px;stroke-width:0.26458332"
           d="m 184.82168,267.89527 q -0.20085,0.0531 -0.43959,0.0872 -0.23496,0.0341 -0.42065,0.0341 -0.64802,0 -0.9853,-0.34865 -0.33727,-0.34864 -0.33727,-1.11793 v -2.25102 h -0.48128 v -0.59876 h 0.48128 v -1.21647 h 0.71244 v 1.21647 h 1.47037 v 0.59876 h -1.47037 v 1.9289 q 0,0.33349 0.0152,0.52297 0.0152,0.18569 0.10611,0.34864 0.0834,0.15159 0.22738,0.22359 0.14779,0.0682 0.44717,0.0682 0.17432,0 0.3638,-0.0493 0.18948,-0.0531 0.27286,-0.0872 h 0.0379 z" />
        <path
           id="path1084"
           style="font-size:7.76111126px;letter-spacing:-0.47095832px;stroke-width:0.26458332"
           d="m 188.50413,267.93317 h -0.70866 v -0.45097 q -0.0947,0.0644 -0.25769,0.1819 -0.15916,0.11369 -0.31075,0.18191 -0.17811,0.0872 -0.40927,0.144 -0.23117,0.0606 -0.54192,0.0606 -0.57223,0 -0.97014,-0.37896 -0.39791,-0.37896 -0.39791,-0.96635 0,-0.48128 0.20464,-0.77686 0.20843,-0.29938 0.59118,-0.46992 0.38654,-0.17053 0.92845,-0.23116 0.54192,-0.0606 1.16341,-0.091 v -0.1099 q 0,-0.24254 -0.0872,-0.4017 -0.0834,-0.15916 -0.24253,-0.25011 -0.15159,-0.0872 -0.3638,-0.11748 -0.21222,-0.0303 -0.44339,-0.0303 -0.28043,0 -0.62528,0.0758 -0.34486,0.072 -0.71245,0.21222 h -0.0379 v -0.72381 q 0.20842,-0.0568 0.60254,-0.12506 0.39412,-0.0682 0.77687,-0.0682 0.44718,0 0.77687,0.0758 0.33349,0.072 0.57602,0.25011 0.23875,0.17433 0.3638,0.45097 0.12506,0.27664 0.12506,0.68592 z m -0.70866,-1.04214 v -1.17857 q -0.3259,0.0189 -0.76929,0.0568 -0.43959,0.0379 -0.69728,0.1099 -0.30696,0.0872 -0.49644,0.27285 -0.18948,0.1819 -0.18948,0.50402 0,0.3638 0.2198,0.54949 0.21979,0.1819 0.67076,0.1819 0.37517,0 0.68591,-0.144 0.31075,-0.1478 0.57602,-0.35243 z" />
        <path
           id="path1086"
           style="font-size:7.76111126px;letter-spacing:-0.47095832px;stroke-width:0.26458332"
           d="m 194.95952,267.93317 h -0.70865 v -0.45097 q -0.0947,0.0644 -0.2577,0.1819 -0.15916,0.11369 -0.31074,0.18191 -0.17812,0.0872 -0.40928,0.144 -0.23117,0.0606 -0.54192,0.0606 -0.57223,0 -0.97013,-0.37896 -0.39791,-0.37896 -0.39791,-0.96635 0,-0.48128 0.20464,-0.77686 0.20842,-0.29938 0.59117,-0.46992 0.38654,-0.17053 0.92846,-0.23116 0.54191,-0.0606 1.16341,-0.091 v -0.1099 q 0,-0.24254 -0.0872,-0.4017 -0.0834,-0.15916 -0.24254,-0.25011 -0.15158,-0.0872 -0.3638,-0.11748 -0.21222,-0.0303 -0.44338,-0.0303 -0.28044,0 -0.62529,0.0758 -0.34485,0.072 -0.71245,0.21222 h -0.0379 v -0.72381 q 0.20843,-0.0568 0.60255,-0.12506 0.39411,-0.0682 0.77686,-0.0682 0.44718,0 0.77687,0.0758 0.33349,0.072 0.57602,0.25011 0.23875,0.17433 0.36381,0.45097 0.12505,0.27664 0.12505,0.68592 z m -0.70865,-1.04214 v -1.17857 q -0.32591,0.0189 -0.76929,0.0568 -0.4396,0.0379 -0.69729,0.1099 -0.30696,0.0872 -0.49644,0.27285 -0.18948,0.1819 -0.18948,0.50402 0,0.3638 0.2198,0.54949 0.2198,0.1819 0.67076,0.1819 0.37517,0 0.68592,-0.144 0.31074,-0.1478 0.57602,-0.35243 z" />
        <path
           id="path1088"
           style="font-size:7.76111126px;letter-spacing:-0.47095832px;stroke-width:0.26458332"
           d="m 196.58801,267.93317 h -0.71245 v -5.89663 h 0.71245 z" />
        <path
           id="path1090"
           style="font-size:7.76111126px;letter-spacing:-0.47095832px;stroke-width:0.26458332"
           d="m 205.96897,267.93317 h -0.71244 v -2.41019 q 0,-0.27285 -0.0265,-0.52676 -0.0227,-0.2539 -0.10232,-0.40549 -0.0872,-0.16295 -0.25011,-0.24632 -0.16296,-0.0834 -0.46991,-0.0834 -0.29938,0 -0.59876,0.15158 -0.29938,0.1478 -0.59876,0.37896 0.0114,0.0872 0.019,0.20464 0.008,0.11369 0.008,0.22738 v 2.70957 h -0.71245 v -2.41019 q 0,-0.28043 -0.0265,-0.53055 -0.0227,-0.2539 -0.10231,-0.40548 -0.0872,-0.16296 -0.25012,-0.24254 -0.16295,-0.0834 -0.46991,-0.0834 -0.2918,0 -0.58739,0.144 -0.2918,0.14401 -0.5836,0.3676 v 3.16053 h -0.71244 v -4.23299 h 0.71244 v 0.46991 q 0.33349,-0.27664 0.66318,-0.43202 0.33349,-0.15537 0.70866,-0.15537 0.43201,0 0.73139,0.1819 0.30317,0.1819 0.45097,0.50402 0.43201,-0.3638 0.78823,-0.52297 0.35623,-0.16295 0.76171,-0.16295 0.69729,0 1.02699,0.42444 0.33348,0.42064 0.33348,1.17856 z" />
        <path
           id="path1092"
           style="font-size:7.76111126px;letter-spacing:-0.47095832px;stroke-width:0.26458332"
           d="m 210.41313,265.89057 h -3.11884 q 0,0.39033 0.11747,0.68213 0.11748,0.28801 0.32212,0.4737 0.19706,0.1819 0.46612,0.27285 0.27285,0.0909 0.59876,0.0909 0.43201,0 0.86782,-0.17053 0.43959,-0.17432 0.62528,-0.34107 h 0.0379 v 0.77687 q -0.36001,0.15159 -0.73518,0.25391 -0.37517,0.10232 -0.78824,0.10232 -1.05351,0 -1.64469,-0.56844 -0.59118,-0.57223 -0.59118,-1.62196 0,-1.03835 0.56465,-1.64847 0.56844,-0.61013 1.49311,-0.61013 0.85645,0 1.31878,0.50023 0.46612,0.50023 0.46612,1.4211 z m -0.6935,-0.5457 q -0.004,-0.56087 -0.28422,-0.86782 -0.27664,-0.30696 -0.84508,-0.30696 -0.57223,0 -0.91329,0.33727 -0.33728,0.33728 -0.38275,0.83751 z" />
        <path
           id="path1094"
           style="font-size:7.76111126px;letter-spacing:-0.47095832px;stroke-width:0.26458332"
           d="m 214.5617,267.93317 h -0.71244 v -2.41019 q 0,-0.2918 -0.0341,-0.54571 -0.0341,-0.25769 -0.12505,-0.40169 -0.0947,-0.15917 -0.27286,-0.23496 -0.17811,-0.0796 -0.46233,-0.0796 -0.2918,0 -0.61012,0.144 -0.31833,0.14401 -0.61013,0.3676 v 3.16053 h -0.71245 v -4.23299 h 0.71245 v 0.46991 q 0.33348,-0.27664 0.68971,-0.43202 0.35622,-0.15537 0.73139,-0.15537 0.68592,0 1.04593,0.41307 0.36001,0.41306 0.36001,1.18993 z" />
        <path
           id="path1096"
           style="font-size:7.76111126px;letter-spacing:-0.47095832px;stroke-width:0.26458332"
           d="m 218.97176,267.93317 h -0.71245 v -0.46991 q -0.36001,0.28422 -0.68971,0.4358 -0.32969,0.15158 -0.7276,0.15158 -0.66697,0 -1.03835,-0.40548 -0.37138,-0.40928 -0.37138,-1.19752 v -2.74746 h 0.71244 v 2.41019 q 0,0.32211 0.0303,0.55328 0.0303,0.22738 0.12884,0.39033 0.10232,0.16674 0.26528,0.24253 0.16295,0.0758 0.4737,0.0758 0.27664,0 0.60254,-0.144 0.3297,-0.14401 0.61392,-0.36759 v -3.16053 h 0.71245 z m -0.62908,-6.35138 -1.03456,1.41731 h -0.56465 l 0.67834,-1.41731 z" />
      </g>
    </g>
  </g>
</svg>
