<?xml version="1.0" encoding="UTF-8" standalone="no"?>
<!-- Created with Inkscape (http://www.inkscape.org/) -->

<svg
   xmlns:dc="http://purl.org/dc/elements/1.1/"
   xmlns:cc="http://creativecommons.org/ns#"
   xmlns:rdf="http://www.w3.org/1999/02/22-rdf-syntax-ns#"
   xmlns:svg="http://www.w3.org/2000/svg"
   xmlns="http://www.w3.org/2000/svg"
   xmlns:sodipodi="http://sodipodi.sourceforge.net/DTD/sodipodi-0.dtd"
   xmlns:inkscape="http://www.inkscape.org/namespaces/inkscape"
   width="362mm"
   height="150mm"
   viewBox="0 0 362 150"
   version="1.1"
   id="svg8"
   inkscape:version="0.92.4 (5da689c313, 2019-01-14)"
   sodipodi:docname="c01-p03-i02.svg">
  <defs
     id="defs2" />
  <sodipodi:namedview
     id="base"
     pagecolor="#ffffff"
     bordercolor="#666666"
     borderopacity="1.0"
     inkscape:pageopacity="0.0"
     inkscape:pageshadow="2"
     inkscape:zoom="0.49497475"
     inkscape:cx="733.69618"
     inkscape:cy="339.3234"
     inkscape:document-units="mm"
     inkscape:current-layer="layer1"
     showgrid="false"
     inkscape:window-width="1920"
     inkscape:window-height="1017"
     inkscape:window-x="-8"
     inkscape:window-y="-8"
     inkscape:window-maximized="1"
     inkscape:snap-global="true" />
  <metadata
     id="metadata5">
    <rdf:RDF>
      <cc:Work
         rdf:about="">
        <dc:format>image/svg+xml</dc:format>
        <dc:type
           rdf:resource="http://purl.org/dc/dcmitype/StillImage" />
        <dc:title></dc:title>
      </cc:Work>
    </rdf:RDF>
  </metadata>
  <g
     inkscape:label="Capa 1"
     inkscape:groupmode="layer"
     id="layer1"
     transform="translate(0,-147)">
    <g
       id="g1023"
       transform="translate(67.266324)">
      <g
         transform="matrix(0.85271216,0,0,0.85271216,18.02906,63.849576)"
         id="g875">
        <path
           style="fill:none;stroke:#000000;stroke-width:0.40000001;stroke-linecap:butt;stroke-linejoin:miter;stroke-miterlimit:4;stroke-dasharray:none;stroke-opacity:1"
           d="m -10.583334,137.77753 -2.715446,0.9714 c -1.081637,0.38693 -1.891101,0.84103 -2.530674,1.60935 -0.563776,0.67726 -1.020543,1.33465 -0.990486,2.45106 0.0294,1.09188 1.078528,1.71918 1.444849,1.97814 58.794025,41.56359 161.273901,113.28098 161.273901,113.28098 0,0 2.60902,1.65838 5.11422,2.35311 1.07985,0.29946 4.00748,0.47599 5.43213,0.35005 1.8758,-0.16583 4.10023,-0.81328 4.10023,-0.81328 l 159.12797,-75.21727 c 0,0 2.72023,-1.42626 3.11938,-3.60266 0.46772,-2.55033 -3.44397,-4.7138 -3.44397,-4.7138 L 138.74064,100.52288 c 0,0 -2.6385,-1.132545 -5.80672,-1.016284 -2.78463,0.102185 -4.97864,0.849854 -4.97864,0.849854 l -107.241892,29.1992 3.0736,2.27179 -6.280834,2.07134 -3.293622,-2.56199 -14.97045131,4.115 8.97645731,6.39825 -8.81989444,2.73952 z"
           id="path826"
           inkscape:connector-curvature="0"
           sodipodi:nodetypes="csasscssccsccsccccccccc" />
        <path
           style="fill:none;stroke:#000000;stroke-width:0.40000001;stroke-linecap:butt;stroke-linejoin:miter;stroke-miterlimit:4;stroke-dasharray:none;stroke-opacity:1"
           d="m 12.662202,139.00596 c 2.393165,-0.75216 4.588263,-1.43473 7.087054,-1.79538 2.085057,-0.30093 4.803033,0.30109 5.764137,1.70088 0.695789,1.01337 -1.133929,2.22061 -1.133929,2.22061 l -5.197172,1.6064 c 0,0 -3.271556,0.29613 -4.866444,0 -2.838578,-0.28192 -4.222352,-2.62419 -1.653646,-3.73251 z"
           id="path828"
           inkscape:connector-curvature="0"
           sodipodi:nodetypes="csscccc" />
        <path
           style="fill:none;stroke:#000000;stroke-width:0.40000001;stroke-linecap:butt;stroke-linejoin:miter;stroke-miterlimit:4;stroke-dasharray:none;stroke-opacity:1"
           d="m 13.418155,142.54948 c 0,0 4.375905,-1.6007 6.472842,-2.07887 0.906457,-0.2067 2.377026,-0.29098 3.260045,-1e-5 0.553643,0.18244 1.228422,0.66147 1.228422,0.66147"
           id="path830"
           inkscape:connector-curvature="0"
           sodipodi:nodetypes="cssc" />
        <path
           style="fill:none;stroke:#000000;stroke-width:0.40000001;stroke-linecap:butt;stroke-linejoin:miter;stroke-miterlimit:4;stroke-dasharray:none;stroke-opacity:1"
           d="m -8.8198943,138.91008 0.7545617,-0.5379 5.8919695,-1.87032 1.30913797,0.0429"
           id="path832"
           inkscape:connector-curvature="0"
           sodipodi:nodetypes="cccc" />
        <path
           style="fill:none;stroke:#000000;stroke-width:0.40000001;stroke-linecap:butt;stroke-linejoin:miter;stroke-miterlimit:4;stroke-dasharray:none;stroke-opacity:1"
           d="m -1.0059662,135.38092 0.14174107,1.16385 7.89290513,5.73553"
           id="path834"
           inkscape:connector-curvature="0"
           sodipodi:nodetypes="ccc" />
        <path
           style="fill:#000000;fill-opacity:1;stroke:none;stroke-width:0.40000001;stroke-linecap:butt;stroke-linejoin:miter;stroke-miterlimit:4;stroke-dasharray:none;stroke-opacity:1"
           d="m -8.812163,137.42485 5.6846678,-1.75258 0.9541321,0.82959 -5.8919694,1.87032 z"
           id="path836"
           inkscape:connector-curvature="0"
           sodipodi:nodetypes="ccccc" />
        <path
           style="fill:#000000;stroke:none;stroke-width:0.26458332px;stroke-linecap:butt;stroke-linejoin:miter;stroke-opacity:1"
           d="m -8.884859,138.91599 0.072696,-1.49114 0.7468305,0.94733 z"
           id="path838"
           inkscape:connector-curvature="0"
           sodipodi:nodetypes="cccc" />
        <path
           style="fill:none;stroke:#000000;stroke-width:0.40000001;stroke-linecap:butt;stroke-linejoin:miter;stroke-miterlimit:4;stroke-dasharray:none;stroke-opacity:1"
           d="m -16.818902,142.47081 -0.01908,2.98737 146.998232,103.70058 0.0421,7.57057 -146.738781,-106.38408 v 1.79538 L 139.23356,266.09731 c -0.0479,0.012 5.1369,4.3436 8.83515,5.03291 3.1162,0.58082 6.41515,0.2832 9.49893,-0.45053 2.13114,-0.50706 6.00131,-2.67843 6.00131,-2.67843 l 155.81814,-75.23637 c 0,0 2.95642,-1.55297 3.16834,-3.06287 0.38778,-2.76281 0.28348,-9.07144 0.28348,-9.07144"
           id="path840"
           inkscape:connector-curvature="0"
           sodipodi:nodetypes="cccccccsaccsc" />
        <path
           style="fill:none;stroke:#000000;stroke-width:0.40000001;stroke-linecap:butt;stroke-linejoin:miter;stroke-miterlimit:4;stroke-dasharray:none;stroke-opacity:1"
           d="m -15.234363,146.59408 v 2.93996 l -1.435733,0.61076"
           id="path842"
           inkscape:connector-curvature="0"
           sodipodi:nodetypes="ccc" />
        <path
           style="fill:none;stroke:#000000;stroke-width:0.40000001;stroke-linecap:butt;stroke-linejoin:miter;stroke-miterlimit:4;stroke-dasharray:none;stroke-opacity:1"
           d="M -15.234363,149.53404 130.19366,254.87164"
           id="path844"
           inkscape:connector-curvature="0"
           sodipodi:nodetypes="cc" />
        <path
           style="fill:none;stroke:#000000;stroke-width:0.40000001;stroke-linecap:butt;stroke-linejoin:miter;stroke-miterlimit:4;stroke-dasharray:none;stroke-opacity:1"
           d="m 20.429414,129.48883 -0.03341,3.44756"
           id="path846"
           inkscape:connector-curvature="0"
           sodipodi:nodetypes="cc" />
        <path
           style="fill:#000000;stroke:#000000;stroke-width:0.26499999;stroke-linecap:butt;stroke-linejoin:miter;stroke-miterlimit:4;stroke-dasharray:none;stroke-opacity:1"
           d="m 131.01461,148.34072 c 0.91714,-2.18229 -3.82562,-4.42107 -3.82562,-4.42107 0,0 -24.26055,-12.06086 -35.31509,-17.471 -3.717681,-1.81946 -6.812139,-2.3569 -9.95579,-2.50567 -3.664997,-0.17344 -6.986661,0.10153 -9.632471,1.76019 -1.253224,0.78564 -2.453122,2.77528 -2.287826,3.57256 0.352316,-0.29206 1.669174,-1.83003 2.038477,-2.13532 2.605687,-2.15402 5.802501,-1.91174 9.480916,-1.99471 3.244168,-0.0732 8.68626,1.97112 8.68626,1.97112 0,0 24.428734,12.22208 36.384164,18.206 1.90364,0.95281 4.37567,2.62555 3.56341,4.58412 0.3738,-0.58182 0.68502,-1.14136 0.86357,-1.56622 z"
           id="path848"
           inkscape:connector-curvature="0"
           sodipodi:nodetypes="scssscsscscs" />
        <path
           sodipodi:nodetypes="ccssccssc"
           inkscape:connector-curvature="0"
           id="path852"
           d="m 72.9743,132.74937 34.36504,18.42716 c 0,0 5.95062,3.67449 13.2236,2.68219 3.29634,-0.44974 8.68348,-1.48697 10.25122,-5.21732 0.91714,-2.18229 -3.82562,-4.42107 -3.82562,-4.42107 L 90.470736,126.11456 c 0,0 -5.308458,-2.14457 -8.552625,-2.07135 -3.678405,0.083 -8.159075,0.17139 -10.423511,2.33861 -3.908526,3.74073 1.4797,6.36755 1.4797,6.36755 z"
           style="fill:none;stroke:#000000;stroke-width:0.40000001;stroke-linecap:butt;stroke-linejoin:miter;stroke-miterlimit:4;stroke-dasharray:none;stroke-opacity:1" />
        <ellipse
           style="opacity:1;fill:none;stroke:#000000;stroke-width:0.40000001;stroke-linecap:round;stroke-linejoin:round;stroke-miterlimit:4;stroke-dasharray:none;stroke-dashoffset:0;stroke-opacity:1"
           id="path854"
           cx="156.95403"
           cy="173.45467"
           rx="18.040693"
           ry="7.4835472" />
        <ellipse
           ry="8.3714075"
           rx="18.494242"
           cy="172.76923"
           cx="156.95403"
           id="ellipse856"
           style="opacity:1;fill:none;stroke:#000000;stroke-width:0.42834839;stroke-linecap:round;stroke-linejoin:round;stroke-miterlimit:4;stroke-dasharray:none;stroke-dashoffset:0;stroke-opacity:1" />
        <ellipse
           style="opacity:1;fill:none;stroke:#000000;stroke-width:0.40000001;stroke-linecap:round;stroke-linejoin:round;stroke-miterlimit:4;stroke-dasharray:none;stroke-dashoffset:0;stroke-opacity:1"
           id="path858"
           cx="187.99071"
           cy="188.55539"
           rx="4.6560163"
           ry="2.1503637" />
        <path
           style="fill:none;stroke:#000000;stroke-width:0.5;stroke-linecap:butt;stroke-linejoin:miter;stroke-miterlimit:4;stroke-dasharray:none;stroke-opacity:1"
           d="m 184.21552,189.75811 c 0,0 1.63653,-1.12986 3.74177,-1.1359 2.29941,-0.007 3.74178,1.06908 3.74178,1.06908"
           id="path860"
           inkscape:connector-curvature="0"
           sodipodi:nodetypes="csc" />
        <ellipse
           ry="2.1503637"
           rx="4.6560163"
           cy="112.48195"
           cx="120.33297"
           id="ellipse872"
           style="opacity:1;fill:none;stroke:#000000;stroke-width:0.40000001;stroke-linecap:round;stroke-linejoin:round;stroke-miterlimit:4;stroke-dasharray:none;stroke-dashoffset:0;stroke-opacity:1" />
        <path
           sodipodi:nodetypes="csc"
           inkscape:connector-curvature="0"
           id="path874"
           d="m 116.55778,113.68467 c 0,0 1.63653,-1.12986 3.74177,-1.1359 2.29941,-0.007 3.74178,1.06908 3.74178,1.06908"
           style="fill:none;stroke:#000000;stroke-width:0.5;stroke-linecap:butt;stroke-linejoin:miter;stroke-miterlimit:4;stroke-dasharray:none;stroke-opacity:1" />
        <ellipse
           style="opacity:1;fill:none;stroke:#000000;stroke-width:0.50847048;stroke-linecap:round;stroke-linejoin:round;stroke-miterlimit:4;stroke-dasharray:none;stroke-dashoffset:0;stroke-opacity:1"
           id="path876"
           cx="128.08891"
           cy="104.59935"
           rx="3.2029991"
           ry="1.4991559" />
        <path
           style="fill:#000000;stroke:#000000;stroke-width:0.26458332px;stroke-linecap:butt;stroke-linejoin:miter;stroke-opacity:1"
           d="m 3.7797618,147.93564 1.3701638,-4.6302 8.5044644,2.17336 -2.078869,0.51972 4.015997,3.54353 -3.96875,1.74813 -4.8191966,-4.06324 z"
           id="path878"
           inkscape:connector-curvature="0"
           sodipodi:nodetypes="cccccccc" />
        <path
           style="fill:none;stroke:#000000;stroke-width:0.40000001;stroke-linecap:butt;stroke-linejoin:miter;stroke-miterlimit:4;stroke-dasharray:none;stroke-opacity:1"
           d="m 319.57363,184.78595 c 0,0 -31.23358,-13.95159 -44.97393,-19.69964 -3.12018,-1.30528 -6.46026,-1.85275 -10.58333,-0.18898 -45.63481,18.41487 -96.85882,39.84262 -144.52864,59.53124 -6.34402,2.40955 -1.5642,5.51139 -0.40231,6.32636 l 41.36547,29.01442 v 9.78013"
           id="path880"
           inkscape:connector-curvature="0"
           sodipodi:nodetypes="csscscc" />
        <path
           style="fill:none;stroke:#000000;stroke-width:0.40000001;stroke-linecap:butt;stroke-linejoin:miter;stroke-miterlimit:4;stroke-dasharray:none;stroke-opacity:1"
           d="m 319.57885,184.74107 0.0236,7.91388"
           id="path882"
           inkscape:connector-curvature="0"
           sodipodi:nodetypes="cc" />
        <path
           style="fill:#000000;stroke:#000000;stroke-width:0.26458332px;stroke-linecap:butt;stroke-linejoin:miter;stroke-opacity:1"
           d="m 313.53125,190.67057 1.22843,-2.90569 0.54333,-0.18898 1.22843,1.77176 -0.92132,0.85045 -0.0236,3.42541 h -0.87409 v -2.92932 z"
           id="path884"
           inkscape:connector-curvature="0" />
        <path
           style="fill:#000000;stroke:#000000;stroke-width:0.26458332px;stroke-linecap:butt;stroke-linejoin:miter;stroke-opacity:1"
           d="m 127.22029,229.58126 -2.53906,1.06908 -0.33408,-3.67496 5.81311,1.26953 -1.73725,0.86863 6.41447,4.40995 -0.93545,0.73499 z"
           id="path845"
           inkscape:connector-curvature="0" />
        <path
           style="fill:#000000;stroke:#000000;stroke-width:0.26458332px;stroke-linecap:butt;stroke-linejoin:miter;stroke-opacity:1"
           d="m 163.73599,262.0211 0.13364,3.87541 1.00226,-0.23386 -0.0668,-3.97564 c 0.61367,-0.30333 0.72247,-0.31877 1.36975,-0.53453 l -1.53681,-2.17157 -0.86863,0.20046 -1.06908,3.20722 z"
           id="path847"
           inkscape:connector-curvature="0"
           sodipodi:nodetypes="ccccccccc" />
      </g>
      <g
         id="text863"
         style="font-style:normal;font-weight:normal;font-size:10.58333302px;line-height:1.25;font-family:sans-serif;letter-spacing:0px;word-spacing:0px;fill:#000000;fill-opacity:1;stroke:none;stroke-width:0.26458332"
         aria-label="Orificio">
        <path
           id="path881"
           style="font-size:7.76111126px;stroke-width:0.26458332"
           d="m -61.50407,165.02823 q 0.344854,0.37896 0.526755,0.92846 0.185691,0.54949 0.185691,1.24678 0,0.69729 -0.18948,1.25057 -0.185691,0.54949 -0.522966,0.91708 -0.348643,0.38275 -0.826134,0.57602 -0.4737,0.19327 -1.083827,0.19327 -0.594968,0 -1.083827,-0.19706 -0.485069,-0.19706 -0.826134,-0.57223 -0.341064,-0.37517 -0.526755,-0.92087 -0.181901,-0.54571 -0.181901,-1.24678 0,-0.68971 0.181901,-1.23541 0.181901,-0.5495 0.530545,-0.93983 0.333485,-0.37138 0.826134,-0.56844 0.496438,-0.19706 1.080037,-0.19706 0.606337,0 1.087617,0.20085 0.485069,0.19706 0.822344,0.56465 z m -0.06821,2.17524 q 0,-1.09899 -0.492648,-1.69396 -0.492649,-0.59875 -1.34531,-0.59875 -0.86024,0 -1.352889,0.59875 -0.488859,0.59497 -0.488859,1.69396 0,1.11035 0.500228,1.70153 0.500228,0.58739 1.34152,0.58739 0.841292,0 1.33773,-0.58739 0.500228,-0.59118 0.500228,-1.70153 z"
           inkscape:connector-curvature="0" />
        <path
           id="path883"
           style="font-size:7.76111126px;stroke-width:0.26458332"
           d="m -57.017177,166.56681 h -0.0379 q -0.159164,-0.0379 -0.310748,-0.0531 -0.147795,-0.0189 -0.352433,-0.0189 -0.329696,0 -0.636654,0.1478 -0.306958,0.144 -0.591178,0.37517 v 3.00515 h -0.712446 v -4.23298 h 0.712446 v 0.62528 q 0.424435,-0.34106 0.746552,-0.48128 0.325906,-0.144 0.663181,-0.144 0.18569,0 0.269062,0.0114 0.08337,0.008 0.250114,0.0341 z"
           inkscape:connector-curvature="0" />
        <path
           id="path885"
           style="font-size:7.76111126px;stroke-width:0.26458332"
           d="m -55.573338,165.08129 h -0.803396 v -0.73897 h 0.803396 z m -0.04548,4.94164 h -0.712446 v -4.23298 h 0.712446 z"
           inkscape:connector-curvature="0" />
        <path
           id="path887"
           style="font-size:7.76111126px;stroke-width:0.26458332"
           d="m -51.923949,164.81602 h -0.0379 q -0.117478,-0.0341 -0.306958,-0.0682 -0.18948,-0.0379 -0.333485,-0.0379 -0.458542,0 -0.666971,0.20464 -0.204638,0.20085 -0.204638,0.73139 v 0.14401 h 1.284676 v 0.59875 h -1.261939 v 3.63423 h -0.712445 v -3.63423 h -0.48128 v -0.59875 h 0.48128 v -0.14022 q 0,-0.75413 0.375171,-1.15583 0.37517,-0.40549 1.083827,-0.40549 0.238745,0 0.428225,0.0227 0.19327,0.0227 0.352433,0.053 z"
           inkscape:connector-curvature="0" />
        <path
           id="path889"
           style="font-size:7.76111126px;stroke-width:0.26458332"
           d="m -50.707486,165.08129 h -0.803396 v -0.73897 h 0.803396 z m -0.04547,4.94164 h -0.712446 v -4.23298 h 0.712446 z"
           inkscape:connector-curvature="0" />
        <path
           id="path891"
           style="font-size:7.76111126px;stroke-width:0.26458332"
           d="m -46.205433,169.75766 q -0.356223,0.17053 -0.67834,0.26527 -0.318326,0.0947 -0.678339,0.0947 -0.458542,0 -0.841292,-0.13263 -0.38275,-0.13643 -0.655602,-0.40928 -0.276641,-0.27285 -0.428225,-0.68971 -0.151585,-0.41685 -0.151585,-0.97393 0,-1.03835 0.568441,-1.62953 0.572231,-0.59117 1.508263,-0.59117 0.363802,0 0.712446,0.10231 0.352433,0.10232 0.644233,0.25012 v 0.79203 h -0.0379 q -0.325906,-0.25391 -0.67455,-0.39033 -0.344854,-0.13643 -0.67455,-0.13643 -0.606337,0 -0.95877,0.40928 -0.348644,0.40549 -0.348644,1.19372 0,0.7655 0.341065,1.17857 0.344854,0.40928 0.966349,0.40928 0.216008,0 0.439594,-0.0568 0.223587,-0.0568 0.401699,-0.14779 0.155373,-0.0796 0.291799,-0.16674 0.136426,-0.0909 0.216008,-0.15538 h 0.0379 z"
           inkscape:connector-curvature="0" />
        <path
           id="path893"
           style="font-size:7.76111126px;stroke-width:0.26458332"
           d="m -44.522848,165.08129 h -0.803397 v -0.73897 h 0.803397 z m -0.04548,4.94164 h -0.712446 v -4.23298 h 0.712446 z"
           inkscape:connector-curvature="0" />
        <path
           id="path895"
           style="font-size:7.76111126px;stroke-width:0.26458332"
           d="m -39.543308,167.90833 q 0,1.03457 -0.530545,1.63332 -0.530544,0.59876 -1.421102,0.59876 -0.898136,0 -1.428681,-0.59876 -0.526755,-0.59875 -0.526755,-1.63332 0,-1.03456 0.526755,-1.63332 0.530545,-0.60254 1.428681,-0.60254 0.890558,0 1.421102,0.60254 0.530545,0.59876 0.530545,1.63332 z m -0.735183,0 q 0,-0.82234 -0.322117,-1.22025 -0.322116,-0.4017 -0.894347,-0.4017 -0.579809,0 -0.901926,0.4017 -0.318326,0.39791 -0.318326,1.22025 0,0.79582 0.322116,1.20889 0.322116,0.40928 0.898136,0.40928 0.568441,0 0.890558,-0.40549 0.325906,-0.40928 0.325906,-1.21268 z"
           inkscape:connector-curvature="0" />
      </g>
      <g
         id="text867"
         style="font-style:normal;font-weight:normal;font-size:10.58333302px;line-height:1.25;font-family:sans-serif;letter-spacing:0px;word-spacing:0px;fill:#000000;fill-opacity:1;stroke:none;stroke-width:0.26458332"
         aria-label="de">
        <path
           id="path898"
           style="font-size:7.76111126px;stroke-width:0.26458332"
           d="m -31.880109,170.02293 h -0.712446 v -0.44338 q -0.306958,0.26527 -0.640443,0.41307 -0.333485,0.14779 -0.723815,0.14779 -0.757921,0 -1.205094,-0.5836 -0.443384,-0.5836 -0.443384,-1.61816 0,-0.53812 0.151584,-0.95877 0.155374,-0.42065 0.416857,-0.71623 0.257693,-0.28801 0.598757,-0.4396 0.344854,-0.15158 0.712446,-0.15158 0.333485,0 0.591179,0.072 0.257693,0.0682 0.541913,0.21601 v -1.83417 h 0.712446 z m -0.712446,-1.04214 v -2.42913 q -0.28801,-0.12885 -0.515386,-0.17812 -0.227377,-0.0493 -0.496438,-0.0493 -0.598758,0 -0.932243,0.41686 -0.333486,0.41685 -0.333486,1.18235 0,0.75413 0.257694,1.14825 0.257693,0.39033 0.826133,0.39033 0.303169,0 0.613917,-0.13263 0.310747,-0.13643 0.579809,-0.34865 z"
           inkscape:connector-curvature="0" />
        <path
           id="path900"
           style="font-size:7.76111126px;stroke-width:0.26458332"
           d="m -26.934675,167.98034 h -3.118845 q 0,0.39033 0.117478,0.68213 0.117478,0.28801 0.322117,0.4737 0.197059,0.1819 0.466121,0.27285 0.272852,0.0909 0.598758,0.0909 0.432015,0 0.867819,-0.17053 0.439594,-0.17433 0.625285,-0.34107 h 0.0379 v 0.77687 q -0.360012,0.15159 -0.735183,0.2539 -0.375171,0.10232 -0.788238,0.10232 -1.05351,0 -1.644689,-0.56844 -0.591178,-0.57223 -0.591178,-1.62195 0,-1.03835 0.564651,-1.64848 0.568441,-0.61012 1.493104,-0.61012 0.856451,0 1.318783,0.50023 0.466121,0.50022 0.466121,1.4211 z m -0.693497,-0.54571 q -0.0038,-0.56086 -0.284221,-0.86782 -0.276641,-0.30695 -0.845082,-0.30695 -0.57223,0 -0.913294,0.33727 -0.337275,0.33728 -0.382751,0.8375 z"
           inkscape:connector-curvature="0" />
      </g>
      <g
         id="text871"
         style="font-style:normal;font-weight:normal;font-size:10.58333302px;line-height:1.25;font-family:sans-serif;letter-spacing:0px;word-spacing:0px;fill:#000000;fill-opacity:1;stroke:none;stroke-width:0.26458332"
         aria-label="protección">
        <path
           id="path935"
           style="font-size:7.76111126px;stroke-width:0.26458332"
           d="m -18.893007,167.85528 q 0,0.51539 -0.147794,0.94361 -0.147795,0.42444 -0.416857,0.72003 -0.250114,0.28043 -0.591178,0.4358 -0.337275,0.15159 -0.716236,0.15159 -0.329695,0 -0.598757,-0.072 -0.265272,-0.072 -0.541914,-0.22358 v 1.77353 h -0.712445 v -5.7943 h 0.712445 v 0.44338 q 0.284221,-0.23875 0.636654,-0.39791 0.356223,-0.16295 0.757921,-0.16295 0.7655,0 1.189936,0.57981 0.428225,0.57602 0.428225,1.603 z m -0.735183,0.019 q 0,-0.7655 -0.261483,-1.14446 -0.261482,-0.37896 -0.803396,-0.37896 -0.306958,0 -0.617706,0.13263 -0.310747,0.13264 -0.594968,0.34865 v 2.39882 q 0.303169,0.13642 0.519176,0.18569 0.219797,0.0493 0.496439,0.0493 0.594968,0 0.928453,-0.4017 0.333485,-0.40169 0.333485,-1.18993 z"
           inkscape:connector-curvature="0" />
        <path
           id="path937"
           style="font-size:7.76111126px;stroke-width:0.26458332"
           d="m -15.141298,166.56681 h -0.0379 q -0.159163,-0.0379 -0.310747,-0.0531 -0.147795,-0.0189 -0.352434,-0.0189 -0.329695,0 -0.636653,0.1478 -0.306958,0.144 -0.591179,0.37517 v 3.00515 h -0.712445 v -4.23298 h 0.712445 v 0.62528 q 0.424436,-0.34106 0.746553,-0.48128 0.325906,-0.144 0.66318,-0.144 0.185691,0 0.269062,0.0114 0.08337,0.008 0.250114,0.0341 z"
           inkscape:connector-curvature="0" />
        <path
           id="path939"
           style="font-size:7.76111126px;stroke-width:0.26458332"
           d="m -10.855255,167.90833 q 0,1.03457 -0.530545,1.63332 -0.530544,0.59876 -1.421101,0.59876 -0.898137,0 -1.428682,-0.59876 -0.526755,-0.59875 -0.526755,-1.63332 0,-1.03456 0.526755,-1.63332 0.530545,-0.60254 1.428682,-0.60254 0.890557,0 1.421101,0.60254 0.530545,0.59876 0.530545,1.63332 z m -0.735183,0 q 0,-0.82234 -0.322117,-1.22025 -0.322116,-0.4017 -0.894346,-0.4017 -0.57981,0 -0.901926,0.4017 -0.318327,0.39791 -0.318327,1.22025 0,0.79582 0.322116,1.20889 0.322117,0.40928 0.898137,0.40928 0.56844,0 0.890557,-0.40549 0.325906,-0.40928 0.325906,-1.21268 z"
           inkscape:connector-curvature="0" />
        <path
           id="path941"
           style="font-size:7.76111126px;stroke-width:0.26458332"
           d="m -7.5507183,169.98504 q -0.200849,0.0531 -0.4395941,0.0872 -0.2349556,0.0341 -0.4206462,0.0341 -0.6480225,0 -0.9852973,-0.34865 -0.3372749,-0.34864 -0.3372749,-1.11793 v -2.25103 h -0.4812802 v -0.59875 h 0.4812802 v -1.21647 h 0.7124458 v 1.21647 h 1.4703667 v 0.59875 H -9.021085 v 1.92891 q 0,0.33349 0.015158,0.52297 0.015158,0.18569 0.1061089,0.34864 0.083371,0.15159 0.2273763,0.22359 0.1477946,0.0682 0.4471734,0.0682 0.1743219,0 0.3638021,-0.0493 0.1894803,-0.0531 0.2728516,-0.0872 h 0.037896 z"
           inkscape:connector-curvature="0" />
        <path
           id="path943"
           style="font-size:7.76111126px;stroke-width:0.26458332"
           d="m -3.1434082,167.98034 h -3.118845 q 0,0.39033 0.1174778,0.68213 0.1174777,0.28801 0.3221164,0.4737 0.1970595,0.1819 0.4661215,0.27285 0.2728515,0.0909 0.5987576,0.0909 0.4320149,0 0.8678195,-0.17053 0.4395942,-0.17433 0.6252849,-0.34107 h 0.037896 v 0.77687 q -0.3600125,0.15159 -0.7351834,0.2539 -0.3751709,0.10232 -0.7882378,0.10232 -1.0535102,0 -1.6446886,-0.56844 -0.5911784,-0.57223 -0.5911784,-1.62195 0,-1.03835 0.5646511,-1.64848 0.5684408,-0.61012 1.4931044,-0.61012 0.8564508,0 1.3187826,0.50023 0.4661214,0.50022 0.4661214,1.4211 z m -0.6934977,-0.54571 q -0.00379,-0.56086 -0.2842204,-0.86782 -0.2766412,-0.30695 -0.8450819,-0.30695 -0.5722304,0 -0.9132949,0.33727 -0.3372748,0.33728 -0.3827501,0.8375 z"
           inkscape:connector-curvature="0" />
        <path
           id="path945"
           style="font-size:7.76111126px;stroke-width:0.26458332"
           d="m 1.0668426,169.75766 q -0.35622288,0.17053 -0.67833932,0.26527 -0.31832683,0.0947 -0.67833931,0.0947 -0.45854222,0 -0.84129237,-0.13263 -0.3827501,-0.13643 -0.6556016,-0.40928 -0.2766412,-0.27285 -0.4282254,-0.68971 -0.1515842,-0.41685 -0.1515842,-0.97393 0,-1.03835 0.5684407,-1.62953 0.5722304,-0.59117 1.50826287,-0.59117 0.36380209,0 0.71244576,0.10231 0.35243327,0.10232 0.64423287,0.25012 v 0.79203 h -0.037896 q -0.32590599,-0.25391 -0.67454966,-0.39033 -0.34485407,-0.13643 -0.67454971,-0.13643 -0.60633682,0 -0.95877013,0.40928 -0.3486436,0.40549 -0.3486436,1.19372 0,0.7655 0.3410644,1.17857 0.34485409,0.40928 0.96634933,0.40928 0.21600749,0 0.43959419,-0.0568 0.2235867,-0.0568 0.40169814,-0.14779 0.15537381,-0.0796 0.2917996,-0.16674 0.13642578,-0.0909 0.21600744,-0.15538 h 0.037896 z"
           inkscape:connector-curvature="0" />
        <path
           id="path947"
           style="font-size:7.76111126px;stroke-width:0.26458332"
           d="m 5.114141,169.75766 q -0.3562229,0.17053 -0.6783393,0.26527 -0.3183268,0.0947 -0.6783393,0.0947 -0.4585422,0 -0.8412923,-0.13263 -0.3827501,-0.13643 -0.6556017,-0.40928 -0.2766412,-0.27285 -0.4282254,-0.68971 -0.1515842,-0.41685 -0.1515842,-0.97393 0,-1.03835 0.5684408,-1.62953 0.5722303,-0.59117 1.5082628,-0.59117 0.3638021,0 0.7124458,0.10231 0.3524332,0.10232 0.6442328,0.25012 v 0.79203 H 5.076245 q -0.3259061,-0.25391 -0.6745497,-0.39033 -0.3448541,-0.13643 -0.6745497,-0.13643 -0.6063369,0 -0.9587701,0.40928 -0.3486437,0.40549 -0.3486437,1.19372 0,0.7655 0.3410645,1.17857 0.344854,0.40928 0.9663493,0.40928 0.2160075,0 0.4395942,-0.0568 0.2235867,-0.0568 0.4016981,-0.14779 0.1553738,-0.0796 0.2917996,-0.16674 0.1364258,-0.0909 0.2160075,-0.15538 h 0.037896 z"
           inkscape:connector-curvature="0" />
        <path
           id="path949"
           style="font-size:7.76111126px;stroke-width:0.26458332"
           d="M 6.7967259,165.08129 H 5.9933296 v -0.73897 h 0.8033963 z m -0.045475,4.94164 h -0.712446 v -4.23298 h 0.7124457 z"
           inkscape:connector-curvature="0" />
        <path
           id="path951"
           style="font-size:7.76111126px;stroke-width:0.26458332"
           d="m 11.776268,167.90833 q 0,1.03457 -0.530544,1.63332 -0.530545,0.59876 -1.4211023,0.59876 -0.8981364,0 -1.4286811,-0.59876 -0.5267551,-0.59875 -0.5267551,-1.63332 0,-1.03456 0.5267551,-1.63332 0.5305447,-0.60254 1.4286811,-0.60254 0.8905573,0 1.4211023,0.60254 0.530544,0.59876 0.530544,1.63332 z m -0.735183,0 q 0,-0.82234 -0.322116,-1.22025 -0.322117,-0.4017 -0.8943473,-0.4017 -0.5798096,0 -0.901926,0.4017 -0.3183268,0.39791 -0.3183268,1.22025 0,0.79582 0.3221164,1.20889 0.3221164,0.40928 0.8981364,0.40928 0.5684403,0 0.8905573,-0.40549 0.325906,-0.40928 0.325906,-1.21268 z m -0.0379,-4.23677 -1.0345623,1.41731 H 9.4039755 l 0.6783395,-1.41731 z"
           inkscape:connector-curvature="0" />
        <path
           id="path953"
           style="font-size:7.76111126px;stroke-width:0.26458332"
           d="m 16.422325,170.02293 h -0.712446 v -2.41018 q 0,-0.2918 -0.03411,-0.54571 -0.03411,-0.25769 -0.125057,-0.4017 -0.09474,-0.15916 -0.272852,-0.23495 -0.178111,-0.0796 -0.462331,-0.0796 -0.2918,0 -0.610127,0.144 -0.318327,0.14401 -0.610126,0.36759 v 3.16053 H 12.88283 v -4.23298 h 0.712446 v 0.46991 q 0.333485,-0.27665 0.689708,-0.43202 0.356223,-0.15537 0.731394,-0.15537 0.685918,0 1.045931,0.41306 0.360012,0.41307 0.360012,1.18994 z"
           inkscape:connector-curvature="0" />
      </g>
      <g
         id="text875"
         style="font-style:normal;font-weight:normal;font-size:10.58333302px;line-height:1.25;font-family:sans-serif;letter-spacing:0px;word-spacing:0px;fill:#000000;fill-opacity:1;stroke:none;stroke-width:0.26458332"
         aria-label="contra">
        <path
           id="path903"
           style="font-size:7.76111126px;stroke-width:0.26458332"
           d="m -62.599266,180.67293 q -0.356223,0.17053 -0.67834,0.26527 -0.318327,0.0947 -0.678339,0.0947 -0.458542,0 -0.841292,-0.13263 -0.382751,-0.13643 -0.655602,-0.40928 -0.276641,-0.27285 -0.428226,-0.68971 -0.151584,-0.41686 -0.151584,-0.97393 0,-1.03835 0.568441,-1.62953 0.57223,-0.59118 1.508263,-0.59118 0.363802,0 0.712446,0.10232 0.352433,0.10232 0.644233,0.25012 v 0.79202 h -0.0379 q -0.325906,-0.2539 -0.674549,-0.39033 -0.344854,-0.13642 -0.67455,-0.13642 -0.606337,0 -0.95877,0.40928 -0.348644,0.40548 -0.348644,1.19372 0,0.7655 0.341065,1.17857 0.344854,0.40928 0.966349,0.40928 0.216008,0 0.439594,-0.0568 0.223587,-0.0568 0.401698,-0.14779 0.155374,-0.0796 0.2918,-0.16674 0.136426,-0.091 0.216007,-0.15538 h 0.0379 z"
           inkscape:connector-curvature="0" />
        <path
           id="path905"
           style="font-size:7.76111126px;stroke-width:0.26458332"
           d="m -58.074478,178.8236 q 0,1.03456 -0.530545,1.63332 -0.530544,0.59876 -1.421101,0.59876 -0.898137,0 -1.428682,-0.59876 -0.526755,-0.59876 -0.526755,-1.63332 0,-1.03456 0.526755,-1.63332 0.530545,-0.60254 1.428682,-0.60254 0.890557,0 1.421101,0.60254 0.530545,0.59876 0.530545,1.63332 z m -0.735183,0 q 0,-0.82234 -0.322117,-1.22025 -0.322116,-0.4017 -0.894346,-0.4017 -0.57981,0 -0.901926,0.4017 -0.318327,0.39791 -0.318327,1.22025 0,0.79582 0.322116,1.20889 0.322117,0.40927 0.898137,0.40927 0.56844,0 0.890557,-0.40548 0.325906,-0.40928 0.325906,-1.21268 z"
           inkscape:connector-curvature="0" />
        <path
           id="path907"
           style="font-size:7.76111126px;stroke-width:0.26458332"
           d="m -53.428422,180.9382 h -0.712446 v -2.41019 q 0,-0.2918 -0.03411,-0.5457 -0.03411,-0.25769 -0.125057,-0.4017 -0.09474,-0.15916 -0.272852,-0.23495 -0.178111,-0.0796 -0.462332,-0.0796 -0.291799,0 -0.610126,0.14401 -0.318327,0.144 -0.610126,0.36759 v 3.16053 h -0.712446 v -4.23299 h 0.712446 v 0.46991 q 0.333485,-0.27664 0.689708,-0.43201 0.356223,-0.15537 0.731393,-0.15537 0.685919,0 1.045931,0.41306 0.360013,0.41307 0.360013,1.18994 z"
           inkscape:connector-curvature="0" />
        <path
           id="path909"
           style="font-size:7.76111126px;stroke-width:0.26458332"
           d="m -49.858614,180.90031 q -0.200849,0.0531 -0.439594,0.0872 -0.234956,0.0341 -0.420646,0.0341 -0.648023,0 -0.985298,-0.34864 -0.337274,-0.34864 -0.337274,-1.11793 v -2.25103 h -0.48128 v -0.59876 h 0.48128 v -1.21646 h 0.712445 v 1.21646 h 1.470367 v 0.59876 h -1.470367 v 1.92891 q 0,0.33348 0.01516,0.52297 0.01516,0.18569 0.106109,0.34864 0.08337,0.15158 0.227376,0.22359 0.147795,0.0682 0.447173,0.0682 0.174322,0 0.363802,-0.0493 0.189481,-0.053 0.272852,-0.0872 h 0.0379 z"
           inkscape:connector-curvature="0" />
        <path
           id="path911"
           style="font-size:7.76111126px;stroke-width:0.26458332"
           d="m -46.35323,177.48208 h -0.0379 q -0.159163,-0.0379 -0.310748,-0.053 -0.147794,-0.019 -0.352433,-0.019 -0.329695,0 -0.636653,0.14779 -0.306958,0.14401 -0.591179,0.37518 v 3.00515 h -0.712446 v -4.23299 h 0.712446 v 0.62529 q 0.424436,-0.34107 0.746552,-0.48128 0.325906,-0.14401 0.663181,-0.14401 0.185691,0 0.269062,0.0114 0.08337,0.008 0.250114,0.0341 z"
           inkscape:connector-curvature="0" />
        <path
           id="path913"
           style="font-size:7.76111126px;stroke-width:0.26458332"
           d="m -42.521938,180.9382 h -0.708656 v -0.45096 q -0.09474,0.0644 -0.257693,0.1819 -0.159164,0.11369 -0.310748,0.1819 -0.178111,0.0872 -0.409277,0.14401 -0.231166,0.0606 -0.541914,0.0606 -0.57223,0 -0.970139,-0.37896 -0.397908,-0.37896 -0.397908,-0.96635 0,-0.48128 0.204639,-0.77687 0.208428,-0.29938 0.591178,-0.46991 0.38654,-0.17053 0.928453,-0.23117 0.541914,-0.0606 1.163409,-0.0909 v -0.1099 q 0,-0.24253 -0.08716,-0.40169 -0.08337,-0.15917 -0.242535,-0.25012 -0.151584,-0.0872 -0.363802,-0.11748 -0.212218,-0.0303 -0.443384,-0.0303 -0.28043,0 -0.625284,0.0758 -0.344854,0.072 -0.712446,0.21222 h -0.0379 v -0.72382 q 0.208428,-0.0568 0.602547,-0.12505 0.394119,-0.0682 0.776869,-0.0682 0.447173,0 0.776869,0.0758 0.333485,0.072 0.57602,0.25011 0.238745,0.17432 0.363802,0.45096 0.125057,0.27664 0.125057,0.68592 z m -0.708656,-1.04214 v -1.17857 q -0.325906,0.0189 -0.76929,0.0568 -0.439594,0.0379 -0.697287,0.1099 -0.306958,0.0872 -0.496438,0.27285 -0.189481,0.1819 -0.189481,0.50401 0,0.36381 0.219797,0.5495 0.219797,0.1819 0.67076,0.1819 0.375171,0 0.685919,-0.14401 0.310748,-0.14779 0.57602,-0.35243 z"
           inkscape:connector-curvature="0" />
      </g>
      <g
         id="text879"
         style="font-style:normal;font-weight:normal;font-size:10.58333302px;line-height:1.25;font-family:sans-serif;letter-spacing:0px;word-spacing:0px;fill:#000000;fill-opacity:1;stroke:none;stroke-width:0.26458332"
         aria-label="escritura">
        <path
           id="path916"
           style="font-size:7.76111126px;stroke-width:0.26458332"
           d="m -35.111081,178.8956 h -3.118845 q 0,0.39033 0.117478,0.68213 0.117478,0.28801 0.322117,0.4737 0.197059,0.18191 0.466121,0.27286 0.272852,0.091 0.598758,0.091 0.432015,0 0.867819,-0.17054 0.439594,-0.17432 0.625285,-0.34106 h 0.0379 v 0.77687 q -0.360012,0.15158 -0.735183,0.2539 -0.375171,0.10232 -0.788238,0.10232 -1.05351,0 -1.644689,-0.56844 -0.591178,-0.57223 -0.591178,-1.62195 0,-1.03835 0.564651,-1.64848 0.568441,-0.61012 1.493104,-0.61012 0.856451,0 1.318783,0.50022 0.466121,0.50023 0.466121,1.42111 z m -0.693497,-0.5457 q -0.0038,-0.56086 -0.284221,-0.86782 -0.276641,-0.30696 -0.845082,-0.30696 -0.57223,0 -0.913294,0.33728 -0.337275,0.33727 -0.382751,0.8375 z"
           inkscape:connector-curvature="0" />
        <path
           id="path918"
           style="font-size:7.76111126px;stroke-width:0.26458332"
           d="m -31.006938,179.71795 q 0,0.57981 -0.48128,0.95119 -0.47749,0.37138 -1.307414,0.37138 -0.469911,0 -0.86403,-0.1099 -0.390329,-0.11369 -0.655601,-0.24632 v -0.79961 h 0.0379 q 0.337274,0.25391 0.750341,0.40549 0.413067,0.14779 0.792028,0.14779 0.469911,0 0.735183,-0.15158 0.265273,-0.15158 0.265273,-0.47749 0,-0.25011 -0.144005,-0.37896 -0.144005,-0.12885 -0.553283,-0.2198 -0.151584,-0.0341 -0.397908,-0.0796 -0.242535,-0.0455 -0.443384,-0.0985 -0.557072,-0.14779 -0.792028,-0.43201 -0.231165,-0.28801 -0.231165,-0.70487 0,-0.26148 0.106108,-0.49265 0.109899,-0.23117 0.329696,-0.41307 0.212218,-0.17811 0.538124,-0.28043 0.329696,-0.10611 0.735183,-0.10611 0.378961,0 0.765501,0.0947 0.390329,0.0909 0.648022,0.22359 v 0.76171 h -0.0379 q -0.272851,-0.20085 -0.663181,-0.33727 -0.390329,-0.14022 -0.7655,-0.14022 -0.390329,0 -0.659391,0.15159 -0.269062,0.14779 -0.269062,0.44338 0,0.26148 0.162953,0.39412 0.159163,0.13263 0.515386,0.21601 0.19706,0.0455 0.439594,0.0909 0.246325,0.0455 0.409278,0.0834 0.496438,0.11369 0.7655,0.39033 0.269062,0.28043 0.269062,0.74276 z"
           inkscape:connector-curvature="0" />
        <path
           id="path920"
           style="font-size:7.76111126px;stroke-width:0.26458332"
           d="m -26.853531,180.67293 q -0.356223,0.17053 -0.67834,0.26527 -0.318326,0.0947 -0.678339,0.0947 -0.458542,0 -0.841292,-0.13263 -0.38275,-0.13643 -0.655602,-0.40928 -0.276641,-0.27285 -0.428225,-0.68971 -0.151585,-0.41686 -0.151585,-0.97393 0,-1.03835 0.568441,-1.62953 0.572231,-0.59118 1.508263,-0.59118 0.363802,0 0.712446,0.10232 0.352433,0.10232 0.644233,0.25012 v 0.79202 h -0.0379 q -0.325906,-0.2539 -0.67455,-0.39033 -0.344854,-0.13642 -0.67455,-0.13642 -0.606337,0 -0.95877,0.40928 -0.348644,0.40548 -0.348644,1.19372 0,0.7655 0.341065,1.17857 0.344854,0.40928 0.966349,0.40928 0.216008,0 0.439594,-0.0568 0.223587,-0.0568 0.401699,-0.14779 0.155373,-0.0796 0.291799,-0.16674 0.136426,-0.091 0.216008,-0.15538 h 0.0379 z"
           inkscape:connector-curvature="0" />
        <path
           id="path922"
           style="font-size:7.76111126px;stroke-width:0.26458332"
           d="m -23.295092,177.48208 h -0.0379 q -0.159163,-0.0379 -0.310748,-0.053 -0.147794,-0.019 -0.352433,-0.019 -0.329696,0 -0.636654,0.14779 -0.306958,0.14401 -0.591178,0.37518 v 3.00515 h -0.712446 v -4.23299 h 0.712446 v 0.62529 q 0.424436,-0.34107 0.746552,-0.48128 0.325906,-0.14401 0.663181,-0.14401 0.185691,0 0.269062,0.0114 0.08337,0.008 0.250114,0.0341 z"
           inkscape:connector-curvature="0" />
        <path
           id="path924"
           style="font-size:7.76111126px;stroke-width:0.26458332"
           d="m -21.851252,175.99656 h -0.803396 v -0.73898 h 0.803396 z m -0.04547,4.94164 h -0.712446 v -4.23299 h 0.712446 z"
           inkscape:connector-curvature="0" />
        <path
           id="path926"
           style="font-size:7.76111126px;stroke-width:0.26458332"
           d="m -18.281444,180.90031 q -0.20085,0.0531 -0.439595,0.0872 -0.234955,0.0341 -0.420646,0.0341 -0.648022,0 -0.985297,-0.34864 -0.337275,-0.34864 -0.337275,-1.11793 v -2.25103 h -0.48128 v -0.59876 h 0.48128 v -1.21646 h 0.712446 v 1.21646 h 1.470367 v 0.59876 h -1.470367 v 1.92891 q 0,0.33348 0.01516,0.52297 0.01516,0.18569 0.106109,0.34864 0.08337,0.15158 0.227376,0.22359 0.147795,0.0682 0.447174,0.0682 0.174322,0 0.363802,-0.0493 0.18948,-0.053 0.272851,-0.0872 h 0.0379 z"
           inkscape:connector-curvature="0" />
        <path
           id="path928"
           style="font-size:7.76111126px;stroke-width:0.26458332"
           d="m -13.908239,180.9382 h -0.712446 v -0.46991 q -0.360012,0.28422 -0.689708,0.43581 -0.329695,0.15158 -0.727604,0.15158 -0.666971,0 -1.038352,-0.40549 -0.371381,-0.40928 -0.371381,-1.19751 v -2.74747 h 0.712446 v 2.41019 q 0,0.32212 0.03032,0.55328 0.03032,0.22738 0.128847,0.39033 0.102319,0.16675 0.265272,0.24254 0.162953,0.0758 0.473701,0.0758 0.276641,0 0.602547,-0.144 0.329696,-0.14401 0.613916,-0.3676 v -3.16053 h 0.712446 z"
           inkscape:connector-curvature="0" />
        <path
           id="path930"
           style="font-size:7.76111126px;stroke-width:0.26458332"
           d="m -9.8647312,177.48208 h -0.037896 q -0.1591638,-0.0379 -0.3107478,-0.053 -0.147794,-0.019 -0.352433,-0.019 -0.329696,0 -0.636654,0.14779 -0.306958,0.14401 -0.591178,0.37518 v 3.00515 h -0.712446 v -4.23299 h 0.712446 v 0.62529 q 0.424436,-0.34107 0.746552,-0.48128 0.325906,-0.14401 0.663181,-0.14401 0.185691,0 0.269062,0.0114 0.08337,0.008 0.2501138,0.0341 z"
           inkscape:connector-curvature="0" />
        <path
           id="path932"
           style="font-size:7.76111126px;stroke-width:0.26458332"
           d="m -6.0334411,180.9382 h -0.7086561 v -0.45096 q -0.09474,0.0644 -0.2576932,0.1819 -0.1591634,0.11369 -0.3107476,0.1819 -0.1781114,0.0872 -0.4092774,0.14401 -0.2311659,0.0606 -0.5419135,0.0606 -0.5722304,0 -0.9701389,-0.37896 -0.3979085,-0.37896 -0.3979085,-0.96635 0,-0.48128 0.2046386,-0.77687 0.2084283,-0.29938 0.5911784,-0.46991 0.3865398,-0.17053 0.9284533,-0.23117 0.5419135,-0.0606 1.1634088,-0.0909 v -0.1099 q 0,-0.24253 -0.087161,-0.40169 -0.083371,-0.15917 -0.2425347,-0.25012 -0.1515842,-0.0872 -0.3638021,-0.11748 -0.2122179,-0.0303 -0.4433838,-0.0303 -0.2804308,0 -0.6252848,0.0758 -0.3448541,0.072 -0.7124458,0.21222 h -0.037896 v -0.72382 q 0.2084283,-0.0568 0.6025472,-0.12505 0.3941189,-0.0682 0.776869,-0.0682 0.4471734,0 0.7768691,0.0758 0.3334852,0.072 0.57602,0.25011 0.2387451,0.17432 0.363802,0.45096 0.125057,0.27664 0.125057,0.68592 z m -0.7086561,-1.04214 v -1.17857 q -0.3259061,0.0189 -0.7692899,0.0568 -0.4395942,0.0379 -0.6972873,0.1099 -0.306958,0.0872 -0.4964383,0.27285 -0.1894802,0.1819 -0.1894802,0.50401 0,0.36381 0.2197971,0.5495 0.2197971,0.1819 0.6707601,0.1819 0.3751709,0 0.6859185,-0.14401 0.3107476,-0.14779 0.57602,-0.35243 z"
           inkscape:connector-curvature="0" />
      </g>
    </g>
  </g>
</svg>
