<?xml version="1.0" encoding="UTF-8" standalone="no"?>
<!-- Created with Inkscape (http://www.inkscape.org/) -->

<svg
   xmlns:dc="http://purl.org/dc/elements/1.1/"
   xmlns:cc="http://creativecommons.org/ns#"
   xmlns:rdf="http://www.w3.org/1999/02/22-rdf-syntax-ns#"
   xmlns:svg="http://www.w3.org/2000/svg"
   xmlns="http://www.w3.org/2000/svg"
   xmlns:sodipodi="http://sodipodi.sourceforge.net/DTD/sodipodi-0.dtd"
   xmlns:inkscape="http://www.inkscape.org/namespaces/inkscape"
   width="297mm"
   height="176mm"
   viewBox="0 0 297 176"
   version="1.1"
   id="svg8"
   inkscape:version="0.92.4 (5da689c313, 2019-01-14)"
   sodipodi:docname="c08-p01-i01.svg">
  <defs
     id="defs2">
    <marker
       inkscape:stockid="Arrow2Lstart"
       orient="auto"
       refY="0"
       refX="0"
       id="marker1291"
       style="overflow:visible"
       inkscape:isstock="true">
      <path
         id="path1289"
         style="fill:#000000;fill-opacity:1;fill-rule:evenodd;stroke:#000000;stroke-width:0.625;stroke-linejoin:round;stroke-opacity:1"
         d="M 8.7185878,4.0337352 -2.2072895,0.01601326 8.7185884,-4.0017078 c -1.7454984,2.3720609 -1.7354408,5.6174519 -6e-7,8.035443 z"
         transform="matrix(1.1,0,0,1.1,1.1,0)"
         inkscape:connector-curvature="0" />
    </marker>
    <marker
       inkscape:stockid="Arrow1Lstart"
       orient="auto"
       refY="0"
       refX="0"
       id="marker1239"
       style="overflow:visible"
       inkscape:isstock="true">
      <path
         id="path1237"
         d="M 0,0 5,-5 -12.5,0 5,5 Z"
         style="fill:#000000;fill-opacity:1;fill-rule:evenodd;stroke:#000000;stroke-width:1.00000003pt;stroke-opacity:1"
         transform="matrix(0.8,0,0,0.8,10,0)"
         inkscape:connector-curvature="0" />
    </marker>
    <marker
       inkscape:stockid="Arrow1Lstart"
       orient="auto"
       refY="0"
       refX="0"
       id="Arrow1Lstart"
       style="overflow:visible"
       inkscape:isstock="true">
      <path
         id="path845"
         d="M 0,0 5,-5 -12.5,0 5,5 Z"
         style="fill:#000000;fill-opacity:1;fill-rule:evenodd;stroke:#000000;stroke-width:1.00000003pt;stroke-opacity:1"
         transform="matrix(0.8,0,0,0.8,10,0)"
         inkscape:connector-curvature="0" />
    </marker>
    <marker
       inkscape:stockid="Arrow2Lstart"
       orient="auto"
       refY="0"
       refX="0"
       id="Arrow2Lstart"
       style="overflow:visible"
       inkscape:isstock="true">
      <path
         id="path863"
         style="fill:#000000;fill-opacity:1;fill-rule:evenodd;stroke:#000000;stroke-width:0.625;stroke-linejoin:round;stroke-opacity:1"
         d="M 8.7185878,4.0337352 -2.2072895,0.01601326 8.7185884,-4.0017078 c -1.7454984,2.3720609 -1.7354408,5.6174519 -6e-7,8.035443 z"
         transform="matrix(1.1,0,0,1.1,1.1,0)"
         inkscape:connector-curvature="0" />
    </marker>
    <marker
       inkscape:stockid="TriangleInL"
       orient="auto"
       refY="0"
       refX="0"
       id="TriangleInL"
       style="overflow:visible"
       inkscape:isstock="true">
      <path
         id="path978"
         d="M 5.77,0 -2.88,5 V -5 Z"
         style="fill:#000000;fill-opacity:1;fill-rule:evenodd;stroke:#000000;stroke-width:1.00000003pt;stroke-opacity:1"
         transform="scale(-0.8)"
         inkscape:connector-curvature="0" />
    </marker>
    <marker
       inkscape:stockid="Arrow1Sstart"
       orient="auto"
       refY="0"
       refX="0"
       id="Arrow1Sstart"
       style="overflow:visible"
       inkscape:isstock="true">
      <path
         id="path857"
         d="M 0,0 5,-5 -12.5,0 5,5 Z"
         style="fill:#000000;fill-opacity:1;fill-rule:evenodd;stroke:#000000;stroke-width:1.00000003pt;stroke-opacity:1"
         transform="matrix(0.2,0,0,0.2,1.2,0)"
         inkscape:connector-curvature="0" />
    </marker>
  </defs>
  <sodipodi:namedview
     id="base"
     pagecolor="#ffffff"
     bordercolor="#666666"
     borderopacity="1.0"
     inkscape:pageopacity="0.0"
     inkscape:pageshadow="2"
     inkscape:zoom="0.7"
     inkscape:cx="464.38511"
     inkscape:cy="311.76432"
     inkscape:document-units="mm"
     inkscape:current-layer="layer1"
     showgrid="false"
     inkscape:snap-global="false"
     inkscape:window-width="1920"
     inkscape:window-height="1017"
     inkscape:window-x="-8"
     inkscape:window-y="-8"
     inkscape:window-maximized="1" />
  <metadata
     id="metadata5">
    <rdf:RDF>
      <cc:Work
         rdf:about="">
        <dc:format>image/svg+xml</dc:format>
        <dc:type
           rdf:resource="http://purl.org/dc/dcmitype/StillImage" />
        <dc:title></dc:title>
      </cc:Work>
    </rdf:RDF>
  </metadata>
  <g
     inkscape:label="Capa 1"
     inkscape:groupmode="layer"
     id="layer1"
     transform="translate(0,-121)">
    <g
       id="g1903">
      <path
         sodipodi:nodetypes="ccccc"
         inkscape:connector-curvature="0"
         id="rect828"
         d="m 16.031535,123.67765 62.794033,13.89802 v 38.73976 L 16.031535,162.01651 Z"
         style="opacity:1;fill:#ffffff;stroke:#000000;stroke-width:0.51430911;stroke-miterlimit:4;stroke-dasharray:none;stroke-dashoffset:0;stroke-opacity:1" />
      <path
         style="opacity:1;fill:#ffffff;stroke:#000000;stroke-width:0.51430911;stroke-miterlimit:4;stroke-dasharray:none;stroke-dashoffset:0;stroke-opacity:1"
         d="m 16.031535,162.01651 62.794033,14.18857 v 38.73976 L 16.031535,200.64592 Z"
         id="path831"
         inkscape:connector-curvature="0"
         sodipodi:nodetypes="ccccc" />
      <path
         style="opacity:1;fill:#ffffff;stroke:#000000;stroke-width:0.51430911;stroke-miterlimit:4;stroke-dasharray:none;stroke-dashoffset:0;stroke-opacity:1"
         d="m 230.87408,153.54979 62.79439,14.18857 v 38.73976 L 230.87408,192.1792 Z"
         id="path1615"
         inkscape:connector-curvature="0"
         sodipodi:nodetypes="ccccc" />
      <path
         style="opacity:1;fill:#ffffff;stroke:#000000;stroke-width:0.51430911;stroke-miterlimit:4;stroke-dasharray:none;stroke-dashoffset:0;stroke-opacity:1"
         d="m 188.01131,164.13319 62.79439,14.18857 v 38.73976 L 188.01131,202.7626 Z"
         id="path1595"
         inkscape:connector-curvature="0"
         sodipodi:nodetypes="ccccc" />
      <path
         sodipodi:nodetypes="ccccc"
         inkscape:connector-curvature="0"
         id="path1605"
         d="m 143.03186,174.18742 62.79439,14.18857 v 38.73976 l -62.79439,-14.29892 z"
         style="opacity:1;fill:#ffffff;stroke:#000000;stroke-width:0.51430911;stroke-miterlimit:4;stroke-dasharray:none;stroke-dashoffset:0;stroke-opacity:1" />
      <path
         sodipodi:nodetypes="ccccc"
         inkscape:connector-curvature="0"
         id="path833"
         d="m 98.581587,183.71248 62.794383,14.18857 v 38.73976 L 98.581587,222.34189 Z"
         style="opacity:1;fill:#ffffff;stroke:#000000;stroke-width:0.51430911;stroke-miterlimit:4;stroke-dasharray:none;stroke-dashoffset:0;stroke-opacity:1" />
      <path
         sodipodi:nodetypes="ccccc"
         inkscape:connector-curvature="0"
         id="path839"
         d="m 66.055132,252.44473 12.770436,3.13586 v 38.73976 L 16.031535,280.02142 v -33.09576"
         style="opacity:1;fill:#ffffff;stroke:#000000;stroke-width:0.51430911;stroke-miterlimit:4;stroke-dasharray:none;stroke-dashoffset:0;stroke-opacity:1" />
      <path
         sodipodi:nodetypes="ccccc"
         inkscape:connector-curvature="0"
         id="path837"
         d="M 3.3315311,205.40845 66.12556,219.59702 v 38.73976 L 3.3315311,244.03786 Z"
         style="opacity:1;fill:#ffffff;stroke:#000000;stroke-width:0.51430911;stroke-miterlimit:4;stroke-dasharray:none;stroke-dashoffset:0;stroke-opacity:1" />
      <path
         sodipodi:nodetypes="cccccccc"
         inkscape:connector-curvature="0"
         id="path1581"
         d="m 93.190368,185.2683 -4.86644,2.17336 6.92169,-0.85044 -0.34098,-0.78674 2.39625,-0.60611 -0.11931,-0.28873 -2.77639,0.63942 z"
         style="fill:#000000;stroke:#000000;stroke-width:0.26458332px;stroke-linecap:butt;stroke-linejoin:miter;stroke-opacity:1" />
      <path
         style="fill:#000000;stroke:#000000;stroke-width:0.26458332px;stroke-linecap:butt;stroke-linejoin:miter;stroke-opacity:1"
         d="m 153.97651,237.56887 -4.86644,2.17336 6.92169,-0.85044 -0.34098,-0.78674 2.39625,-0.60611 -0.11931,-0.28873 -2.77639,0.63942 z"
         id="path1589"
         inkscape:connector-curvature="0"
         sodipodi:nodetypes="cccccccc" />
      <path
         sodipodi:nodetypes="cccccccc"
         inkscape:connector-curvature="0"
         id="path1591"
         d="m 93.465673,222.74022 -4.86644,2.17336 6.92169,-0.85044 -0.34098,-0.78674 2.39625,-0.60611 -0.11931,-0.28873 -2.77639,0.63942 z"
         style="fill:#000000;stroke:#000000;stroke-width:0.26458332px;stroke-linecap:butt;stroke-linejoin:miter;stroke-opacity:1" />
      <path
         sodipodi:nodetypes="cccccccc"
         inkscape:connector-curvature="0"
         id="path1593"
         d="m 155.01594,199.29878 -4.86644,2.17336 6.92169,-0.85044 -0.34098,-0.78674 2.39625,-0.60611 -0.11931,-0.28873 -2.77639,0.63942 z"
         style="fill:#000000;stroke:#000000;stroke-width:0.26458332px;stroke-linecap:butt;stroke-linejoin:miter;stroke-opacity:1" />
      <path
         style="fill:#000000;stroke:#000000;stroke-width:0.26458332px;stroke-linecap:butt;stroke-linejoin:miter;stroke-opacity:1"
         d="m 182.62006,165.68901 -4.86647,2.17336 6.92173,-0.85044 -0.34098,-0.78674 2.39626,-0.60611 -0.11931,-0.28873 -2.77641,0.63942 z"
         id="path1597"
         inkscape:connector-curvature="0"
         sodipodi:nodetypes="cccccccc" />
      <path
         sodipodi:nodetypes="cccccccc"
         inkscape:connector-curvature="0"
         id="path1599"
         d="m 243.40624,217.98958 -4.86644,2.17336 6.92169,-0.85044 -0.34098,-0.78674 2.39625,-0.60611 -0.11931,-0.28873 -2.77639,0.63942 z"
         style="fill:#000000;stroke:#000000;stroke-width:0.26458332px;stroke-linecap:butt;stroke-linejoin:miter;stroke-opacity:1" />
      <path
         style="fill:#000000;stroke:#000000;stroke-width:0.26458332px;stroke-linecap:butt;stroke-linejoin:miter;stroke-opacity:1"
         d="m 244.44567,179.71949 -4.86644,2.17336 6.92169,-0.85044 -0.34098,-0.78674 2.39625,-0.60611 -0.11931,-0.28873 -2.77639,0.63942 z"
         id="path1603"
         inkscape:connector-curvature="0"
         sodipodi:nodetypes="cccccccc" />
      <path
         sodipodi:nodetypes="cccccccc"
         inkscape:connector-curvature="0"
         id="path1607"
         d="m 137.64061,175.74324 -4.86647,2.17336 6.92173,-0.85044 -0.34098,-0.78674 2.39626,-0.60611 -0.11931,-0.28873 -2.77641,0.63942 z"
         style="fill:#000000;stroke:#000000;stroke-width:0.26458332px;stroke-linecap:butt;stroke-linejoin:miter;stroke-opacity:1" />
      <path
         style="fill:#000000;stroke:#000000;stroke-width:0.26458332px;stroke-linecap:butt;stroke-linejoin:miter;stroke-opacity:1"
         d="m 198.42679,228.04381 -4.86644,2.17336 6.92169,-0.85044 -0.34098,-0.78674 2.39625,-0.60611 -0.11931,-0.28873 -2.77639,0.63942 z"
         id="path1609"
         inkscape:connector-curvature="0"
         sodipodi:nodetypes="cccccccc" />
      <path
         sodipodi:nodetypes="cccccccc"
         inkscape:connector-curvature="0"
         id="path1613"
         d="m 199.46622,189.77372 -4.86644,2.17336 6.92169,-0.85044 -0.34098,-0.78674 2.39625,-0.60611 -0.11931,-0.28873 -2.77639,0.63942 z"
         style="fill:#000000;stroke:#000000;stroke-width:0.26458332px;stroke-linecap:butt;stroke-linejoin:miter;stroke-opacity:1" />
      <path
         style="fill:#000000;stroke:#000000;stroke-width:0.26458332px;stroke-linecap:butt;stroke-linejoin:miter;stroke-opacity:1"
         d="m 225.48283,155.10561 -4.86647,2.17336 6.92173,-0.85044 -0.34098,-0.78674 2.39626,-0.60611 -0.11931,-0.28873 -2.77641,0.63942 z"
         id="path1617"
         inkscape:connector-curvature="0"
         sodipodi:nodetypes="cccccccc" />
      <path
         sodipodi:nodetypes="cccccccc"
         inkscape:connector-curvature="0"
         id="path1619"
         d="m 286.26901,207.40618 -4.86644,2.17336 6.92169,-0.85044 -0.34098,-0.78674 2.39625,-0.60611 -0.11931,-0.28873 -2.77639,0.63942 z"
         style="fill:#000000;stroke:#000000;stroke-width:0.26458332px;stroke-linecap:butt;stroke-linejoin:miter;stroke-opacity:1" />
      <path
         style="fill:#000000;stroke:#000000;stroke-width:0.26458332px;stroke-linecap:butt;stroke-linejoin:miter;stroke-opacity:1"
         d="m 287.30844,169.13609 -4.86644,2.17336 6.92169,-0.85044 -0.34098,-0.78674 2.39625,-0.60611 -0.11931,-0.28873 -2.77639,0.63942 z"
         id="path1623"
         inkscape:connector-curvature="0"
         sodipodi:nodetypes="cccccccc" />
      <text
         transform="skewY(12.47033)"
         id="text1631"
         y="107.85494"
         x="256.66507"
         style="font-style:normal;font-weight:normal;font-size:10.58333302px;line-height:1.25;font-family:sans-serif;letter-spacing:0px;word-spacing:0px;fill:#000000;fill-opacity:1;stroke:none;stroke-width:0.26458332"
         xml:space="preserve"><tspan
           style="font-size:4.23333311px;stroke-width:0.26458332"
           y="107.85494"
           x="256.66507"
           id="tspan1629"
           sodipodi:role="line">PANTALLA 5</tspan></text>
      <text
         xml:space="preserve"
         style="font-style:normal;font-weight:normal;font-size:10.58333302px;line-height:1.25;font-family:sans-serif;letter-spacing:0px;word-spacing:0px;fill:#000000;fill-opacity:1;stroke:none;stroke-width:0.26458332"
         x="212.36513"
         y="127.49961"
         id="text1635"
         transform="skewY(12.47033)"><tspan
           sodipodi:role="line"
           id="tspan1633"
           x="212.36513"
           y="127.49961"
           style="font-size:4.23333311px;stroke-width:0.26458332">PANTALLA 4 </tspan></text>
      <text
         transform="skewY(12.47033)"
         id="text1639"
         y="147.69528"
         x="167.57317"
         style="font-style:normal;font-weight:normal;font-size:10.58333302px;line-height:1.25;font-family:sans-serif;letter-spacing:0px;word-spacing:0px;fill:#000000;fill-opacity:1;stroke:none;stroke-width:0.26458332"
         xml:space="preserve"><tspan
           style="font-size:4.23333311px;stroke-width:0.26458332"
           y="147.69528"
           x="167.57317"
           id="tspan1637"
           sodipodi:role="line">PANTALLA 3 </tspan></text>
      <text
         xml:space="preserve"
         style="font-style:normal;font-weight:normal;font-size:10.58333302px;line-height:1.25;font-family:sans-serif;letter-spacing:0px;word-spacing:0px;fill:#000000;fill-opacity:1;stroke:none;stroke-width:0.26458332"
         x="124.57837"
         y="167.409"
         id="text1643"
         transform="skewY(12.47033)"><tspan
           sodipodi:role="line"
           id="tspan1641"
           x="124.57837"
           y="167.409"
           style="font-size:4.23333311px;stroke-width:0.26458332">PANTALLA 2 </tspan></text>
      <text
         transform="skewY(12.47033)"
         id="text1647"
         y="125.78481"
         x="51.146069"
         style="font-style:normal;font-weight:normal;font-size:10.58333302px;line-height:1.25;font-family:sans-serif;letter-spacing:0px;word-spacing:0px;fill:#000000;fill-opacity:1;stroke:none;stroke-width:0.26458332"
         xml:space="preserve"><tspan
           style="font-size:4.23333311px;stroke-width:0.26458332"
           y="125.78481"
           x="51.146069"
           id="tspan1645"
           sodipodi:role="line">PANTALLA 1 </tspan></text>
      <text
         xml:space="preserve"
         style="font-style:normal;font-weight:normal;font-size:10.58333302px;line-height:1.25;font-family:sans-serif;letter-spacing:0px;word-spacing:0px;fill:#000000;fill-opacity:1;stroke:none;stroke-width:0.26458332"
         x="55.021477"
         y="156.93327"
         id="text1651"
         transform="skewY(12.47033)"><tspan
           sodipodi:role="line"
           id="tspan1649"
           x="55.021477"
           y="156.93327"
           style="font-size:4.23333311px;stroke-width:0.26458332">BLOQUE 3</tspan></text>
      <text
         transform="skewY(12.47033)"
         id="text1655"
         y="168.07527"
         x="18.110607"
         style="font-style:normal;font-weight:normal;font-size:10.58333302px;line-height:1.25;font-family:sans-serif;letter-spacing:0px;word-spacing:0px;fill:#000000;fill-opacity:1;stroke:none;stroke-width:0.26458332"
         xml:space="preserve"><tspan
           style="font-size:4.23333311px;stroke-width:0.26458332"
           y="168.07527"
           x="18.110607"
           id="tspan1653"
           sodipodi:role="line">RSX GESTOR DE BANCOS</tspan></text>
      <text
         transform="skewY(12.47033)"
         id="text1659"
         y="196.09108"
         x="55.021477"
         style="font-style:normal;font-weight:normal;font-size:10.58333302px;line-height:1.25;font-family:sans-serif;letter-spacing:0px;word-spacing:0px;fill:#000000;fill-opacity:1;stroke:none;stroke-width:0.26458332"
         xml:space="preserve"><tspan
           style="font-size:4.23333311px;stroke-width:0.26458332"
           y="196.09108"
           x="55.021477"
           id="tspan1657"
           sodipodi:role="line">BLOQUE 2</tspan></text>
      <text
         xml:space="preserve"
         style="font-style:normal;font-weight:normal;font-size:10.58333302px;line-height:1.25;font-family:sans-serif;letter-spacing:0px;word-spacing:0px;fill:#000000;fill-opacity:1;stroke:none;stroke-width:0.26458332"
         x="42.661644"
         y="242.06422"
         id="text1663"
         transform="skewY(12.47033)"><tspan
           sodipodi:role="line"
           id="tspan1661"
           x="42.661644"
           y="242.06422"
           style="font-size:4.23333311px;stroke-width:0.26458332">BLOQUE 1</tspan></text>
      <text
         xml:space="preserve"
         style="font-style:normal;font-weight:normal;font-size:10.58333302px;line-height:1.25;font-family:sans-serif;letter-spacing:0px;word-spacing:0px;fill:#000000;fill-opacity:1;stroke:none;stroke-width:0.26458332"
         x="55.021477"
         y="274.93594"
         id="text1671"
         transform="skewY(12.47033)"><tspan
           sodipodi:role="line"
           id="tspan1669"
           x="55.021477"
           y="274.93594"
           style="font-size:4.23333311px;stroke-width:0.26458332">BLOQUE 0</tspan></text>
      <path
         style="fill:#000000;stroke:#000000;stroke-width:0.26458332px;stroke-linecap:butt;stroke-linejoin:miter;stroke-opacity:1"
         d="m 72.82816,216.91935 -4.86644,2.17336 6.92169,-0.85044 -0.34098,-0.78674 2.39625,-0.60611 -0.11931,-0.28873 -2.77639,0.63942 z"
         id="path1673"
         inkscape:connector-curvature="0"
         sodipodi:nodetypes="cccccccc" />
      <path
         sodipodi:nodetypes="cccccccc"
         inkscape:connector-curvature="0"
         id="path1675"
         d="m 10.955264,202.75407 -4.8664398,2.17336 6.9216898,-0.85044 -0.34098,-0.78674 2.39625,-0.60611 -0.11931,-0.28873 -2.77639,0.63942 z"
         style="fill:#000000;stroke:#000000;stroke-width:0.26458332px;stroke-linecap:butt;stroke-linejoin:miter;stroke-opacity:1" />
      <path
         sodipodi:nodetypes="cccccccc"
         inkscape:connector-curvature="0"
         id="path1677"
         d="m 19.173802,242.57722 -4.86644,2.17336 6.92169,-0.85044 -0.34098,-0.78674 2.39625,-0.60611 -0.11931,-0.28873 -2.77639,0.63942 z"
         style="fill:#000000;stroke:#000000;stroke-width:0.26458332px;stroke-linecap:butt;stroke-linejoin:miter;stroke-opacity:1" />
      <path
         style="fill:#000000;stroke:#000000;stroke-width:0.26458332px;stroke-linecap:butt;stroke-linejoin:miter;stroke-opacity:1"
         d="m 73.286824,256.54982 -4.86644,2.17336 6.92169,-0.85044 -0.34098,-0.78674 2.39625,-0.60611 -0.11931,-0.28873 -2.77639,0.63942 z"
         id="path1679"
         inkscape:connector-curvature="0"
         sodipodi:nodetypes="cccccccc" />
      <path
         sodipodi:nodetypes="cc"
         inkscape:connector-curvature="0"
         id="path1681"
         d="m 16.224973,175.6299 62.47776,13.91829"
         style="fill:none;stroke:#000000;stroke-width:0.5;stroke-linecap:butt;stroke-linejoin:miter;stroke-miterlimit:4;stroke-dasharray:1.00000003, 1.00000003;stroke-dashoffset:0;stroke-opacity:1" />
      <path
         sodipodi:nodetypes="cc"
         inkscape:connector-curvature="0"
         id="path1683"
         d="m 16.156337,172.10866 1.586913,0.35079"
         style="fill:none;stroke:#000000;stroke-width:0.5;stroke-linecap:butt;stroke-linejoin:miter;stroke-miterlimit:4;stroke-dasharray:none;stroke-opacity:1" />
      <path
         style="fill:none;stroke:#000000;stroke-width:0.5;stroke-linecap:butt;stroke-linejoin:miter;stroke-miterlimit:4;stroke-dasharray:none;stroke-opacity:1"
         d="m 16.170176,167.33798 1.586913,0.35079"
         id="path1685"
         inkscape:connector-curvature="0"
         sodipodi:nodetypes="cc" />
      <path
         sodipodi:nodetypes="cc"
         inkscape:connector-curvature="0"
         id="path1687"
         d="m 72.245512,180.10376 6.432599,1.46871"
         style="fill:none;stroke:#000000;stroke-width:0.5;stroke-linecap:butt;stroke-linejoin:miter;stroke-miterlimit:4;stroke-dasharray:1.00000003, 1.00000003;stroke-dashoffset:0;stroke-opacity:1" />
      <path
         style="fill:none;stroke:#000000;stroke-width:0.5;stroke-linecap:butt;stroke-linejoin:miter;stroke-miterlimit:4;stroke-dasharray:1.00000003, 1.00000003;stroke-dashoffset:0;stroke-opacity:1"
         d="m 73.076388,185.05478 5.601723,1.28022"
         id="path1689"
         inkscape:connector-curvature="0"
         sodipodi:nodetypes="cc" />
      <text
         xml:space="preserve"
         style="font-style:normal;font-weight:normal;font-size:10.58333302px;line-height:1.25;font-family:sans-serif;letter-spacing:0px;word-spacing:0px;fill:#000000;fill-opacity:1;stroke:none;stroke-width:0.26458332"
         x="136.65471"
         y="198.64185"
         id="text1697"
         transform="skewY(12.47033)"><tspan
           sodipodi:role="line"
           id="tspan1695"
           x="136.65471"
           y="198.64185"
           style="font-size:4.23333311px;stroke-width:0.26458332">BLOQUE 4</tspan></text>
      <text
         transform="skewY(12.47033)"
         id="text1701"
         y="178.15367"
         x="181.45071"
         style="font-style:normal;font-weight:normal;font-size:10.58333302px;line-height:1.25;font-family:sans-serif;letter-spacing:0px;word-spacing:0px;fill:#000000;fill-opacity:1;stroke:none;stroke-width:0.26458332"
         xml:space="preserve"><tspan
           style="font-size:4.23333311px;stroke-width:0.26458332"
           y="178.15367"
           x="181.45071"
           id="tspan1699"
           sodipodi:role="line">BLOQUE 5</tspan></text>
      <text
         xml:space="preserve"
         style="font-style:normal;font-weight:normal;font-size:10.58333302px;line-height:1.25;font-family:sans-serif;letter-spacing:0px;word-spacing:0px;fill:#000000;fill-opacity:1;stroke:none;stroke-width:0.26458332"
         x="227.65831"
         y="158.3909"
         id="text1705"
         transform="skewY(12.47033)"><tspan
           sodipodi:role="line"
           id="tspan1703"
           x="227.65831"
           y="158.3909"
           style="font-size:4.23333311px;stroke-width:0.26458332">BLOQUE 6</tspan></text>
      <text
         transform="skewY(12.47033)"
         id="text1709"
         y="139.48492"
         x="269.99167"
         style="font-style:normal;font-weight:normal;font-size:10.58333302px;line-height:1.25;font-family:sans-serif;letter-spacing:0px;word-spacing:0px;fill:#000000;fill-opacity:1;stroke:none;stroke-width:0.26458332"
         xml:space="preserve"><tspan
           style="font-size:4.23333311px;stroke-width:0.26458332"
           y="139.48492"
           x="269.99167"
           id="tspan1707"
           sodipodi:role="line">BLOQUE 7</tspan></text>
      <path
         sodipodi:nodetypes="cczzsssccsscccsssscssssssssssssassscc"
         inkscape:connector-curvature="0"
         id="path1713"
         d="m 78.632267,184.84181 0.01517,-2.69323 c 0,0 6.241262,-2.19613 9.444192,-2.82674 3.20293,-0.63062 6.299843,-1.04558 10.149427,-0.85139 3.849584,0.19419 8.489204,0.96666 12.666954,2.54561 3.83494,1.44939 7.20454,3.88473 10.67803,6.09454 0.68735,0.43729 1.33089,1.17399 2.07867,1.4886 0.85693,0.36054 1.63505,0.57817 2.70306,1.21578 0.54647,0.43404 -0.30801,0.18535 -0.7869,0.10006 -0.72013,-0.24711 -1.58246,-0.35514 -2.18787,-0.3714 -0.41636,-0.0112 -0.69093,0.78389 -0.59444,1.07787 0.30938,0.94256 1.7547,1.85114 2.23264,3.27644 0.28449,0.83483 -0.0649,1.40718 -0.76549,1.02902 -0.9014,-0.47369 -2.04188,-2.39007 -2.93713,-3.30319 0,0 2.22818,2.99631 3.20723,4.47676 0.0194,0.0293 0.0221,0.0686 0.0335,0.10495 0.10445,0.33164 0.21698,0.76316 -0.0335,0.96413 -0.32035,0.25698 -0.97159,0.0722 -1.20271,-0.26727 -0.73679,-1.08221 -2.73952,-3.60814 -2.73952,-3.60814 0,0 1.48527,1.96373 2.13817,2.87315 0.29977,0.41755 -0.20127,1.89384 -1.13591,0.98555 -0.18145,-0.17634 -0.19209,-0.23586 -0.39363,-0.49771 -1.16664,-1.5158 -2.70087,-4.01265 -2.88042,-3.82871 -0.16502,0.16905 1.57328,1.48244 1.67044,2.47224 0.0449,0.45696 -0.085,1.17578 -0.53454,1.26953 -0.6323,0.13188 -1.01245,-0.82202 -1.40317,-1.33635 -1.23203,-1.6218 -2.00681,-3.43688 -2.87307,-5.39246 -0.0231,-0.0522 -0.0455,-0.10339 -0.0669,-0.15338 -0.4792,-1.11756 0.51646,-2.02504 -1.15684,-3.45959 -0.11274,-0.0966 -0.78155,-0.61579 -0.83098,-0.64968 -0.95109,-0.65221 -1.40154,-0.87204 -2.55576,-1.36975 -2.42618,-1.04619 -4.99644,-1.76993 -7.58378,-2.30521 -2.12919,-0.44049 -4.262987,-0.70198 -6.481283,-0.73499 -2.480082,-0.0369 -5.070035,0.2957 -7.516956,0.70159 -2.776445,0.46055 -5.514306,1.18395 -8.18513,2.07134 -0.743837,0.24714 -2.171564,0.90203 -2.171564,0.90203 z"
         style="fill:#ffffff;stroke:#000000;stroke-width:0.26458332px;stroke-linecap:butt;stroke-linejoin:miter;stroke-opacity:1" />
      <path
         sodipodi:nodetypes="cc"
         inkscape:connector-curvature="0"
         id="path1717"
         d="m 22.639442,242.51408 43.336647,9.93948"
         style="fill:none;stroke:#000000;stroke-width:0.5;stroke-linecap:butt;stroke-linejoin:miter;stroke-miterlimit:4;stroke-dasharray:1, 3;stroke-dashoffset:0;stroke-opacity:1" />
    </g>
  </g>
</svg>
