<?xml version="1.0" encoding="UTF-8" standalone="no"?>
<!-- Created with Inkscape (http://www.inkscape.org/) -->

<svg
   xmlns:dc="http://purl.org/dc/elements/1.1/"
   xmlns:cc="http://creativecommons.org/ns#"
   xmlns:rdf="http://www.w3.org/1999/02/22-rdf-syntax-ns#"
   xmlns:svg="http://www.w3.org/2000/svg"
   xmlns="http://www.w3.org/2000/svg"
   xmlns:sodipodi="http://sodipodi.sourceforge.net/DTD/sodipodi-0.dtd"
   xmlns:inkscape="http://www.inkscape.org/namespaces/inkscape"
   width="324mm"
   height="45mm"
   viewBox="0 0 324 45"
   version="1.1"
   id="svg8"
   inkscape:version="0.92.4 (5da689c313, 2019-01-14)"
   sodipodi:docname="c01-p10-i02.svg">
  <defs
     id="defs2" />
  <sodipodi:namedview
     id="base"
     pagecolor="#ffffff"
     bordercolor="#666666"
     borderopacity="1.0"
     inkscape:pageopacity="0.0"
     inkscape:pageshadow="2"
     inkscape:zoom="0.7"
     inkscape:cx="333.9792"
     inkscape:cy="-43.728681"
     inkscape:document-units="mm"
     inkscape:current-layer="layer1"
     showgrid="false"
     inkscape:window-width="1920"
     inkscape:window-height="1017"
     inkscape:window-x="-8"
     inkscape:window-y="-8"
     inkscape:window-maximized="1" />
  <metadata
     id="metadata5">
    <rdf:RDF>
      <cc:Work
         rdf:about="">
        <dc:format>image/svg+xml</dc:format>
        <dc:type
           rdf:resource="http://purl.org/dc/dcmitype/StillImage" />
        <dc:title></dc:title>
      </cc:Work>
    </rdf:RDF>
  </metadata>
  <g
     inkscape:label="Capa 1"
     inkscape:groupmode="layer"
     id="layer1"
     transform="translate(0,-252)">
    <g
       id="g1149"
       transform="translate(34.715414,161.42773)">
      <path
         id="rect826"
         d="m -33.167408,93.176338 h 21.733631 v 22.300592 h -21.733631 z"
         style="opacity:1;fill:none;stroke:#000000;stroke-width:0.5;stroke-miterlimit:4;stroke-dasharray:none;stroke-dashoffset:0;stroke-opacity:1"
         inkscape:connector-curvature="0" />
      <path
         d="m -19.39121,100.94958 -2.444295,4.34082 v 2.41329 h -0.930176 v -2.43396 l -2.444295,-4.32015 h 1.111043 l 1.343587,2.47013 0.496094,0.99219 0.454753,-0.89917 1.35909,-2.56315 z"
         style="font-style:normal;font-variant:normal;font-weight:normal;font-stretch:normal;font-size:10.58333302px;line-height:1.25;font-family:Consolas;-inkscape-font-specification:Consolas;letter-spacing:0px;word-spacing:0px;fill:#000000;fill-opacity:1;stroke:none;stroke-width:0.26458332"
         id="path1012"
         inkscape:connector-curvature="0" />
      <path
         d="m 3.6970317,109.08316 h 1.2526366 q 0.144694,0 0.2480469,0.10335 0.107487,0.0992 0.107487,0.24391 0,0.1447 -0.107487,0.24805 -0.1033529,0.0992 -0.2480469,0.0992 H 3.6515564 q -0.2480468,0 -0.5126302,-0.1571 -0.2645833,-0.1571 -0.3679361,-0.3514 L 1.9689719,107.7189 q -0.1612305,-0.33487 -0.1612305,-0.68626 0,-0.38861 0.1529622,-0.67387 l 0.8102865,-1.53375 q 0.1157552,-0.21498 0.3596679,-0.37621 0.2439128,-0.16536 0.471289,-0.16536 h 1.372526 q 0.144694,0 0.2439128,0.10335 0.1033528,0.10335 0.1033528,0.24391 0,0.1447 -0.1033528,0.25219 -0.099219,0.10335 -0.2439128,0.10335 H 3.6515564 q -0.1653646,0 -0.2687174,0.1943 l -0.7689453,1.43867 q -0.090951,0.1695 -0.090951,0.40101 0,0.24392 0.099219,0.42995 l 0.7358724,1.41387 q 0.1033529,0.21911 0.3389976,0.21911 z"
         style="font-style:normal;font-variant:normal;font-weight:normal;font-stretch:normal;font-size:8.46666622px;line-height:1.25;font-family:'OCR A Extended';-inkscape-font-specification:'OCR A Extended';letter-spacing:0px;word-spacing:0px;fill:#000000;fill-opacity:1;stroke:none;stroke-width:0.26458332"
         id="path1003"
         inkscape:connector-curvature="0" />
      <path
         d="m 10.398431,107.0409 v 1.46761 q 0,0.46716 -0.44235,0.86403 -0.4382161,0.39688 -0.905371,0.39688 H 8.2362894 q -0.4754231,0 -0.9095051,-0.40101 -0.434082,-0.40514 -0.434082,-0.8599 v -1.46761 q 0,-0.45475 0.4216796,-0.85576 Q 7.7401957,105.78 8.2362894,105.78 H 9.05071 q 0.4671549,-0.008 0.905371,0.38861 0.44235,0.39687 0.44235,0.87229 z m -2.8029293,0.0289 v 1.4056 q 0,0.19017 0.1364258,0.30179 l 0.2604492,0.22324 q 0.086816,0.0744 0.2439127,0.0744 h 0.8061523 q 0.1777669,0 0.3224609,-0.12816 l 0.2108399,-0.18604 Q 9.7039,108.66148 9.7039,108.48371 v -1.4056 q 0,-0.20671 -0.1281575,-0.30592 l -0.2439128,-0.19431 q -0.1240234,-0.10335 -0.289388,-0.10335 H 8.3231058 q -0.2356445,0 -0.363802,0.11162 l -0.2356446,0.20257 q -0.1281575,0.10749 -0.1281575,0.28112 z"
         style="font-style:normal;font-variant:normal;font-weight:normal;font-stretch:normal;font-size:8.46666622px;line-height:1.25;font-family:'OCR A Extended';-inkscape-font-specification:'OCR A Extended';letter-spacing:0px;word-spacing:0px;fill:#000000;fill-opacity:1;stroke:none;stroke-width:0.26458332"
         id="path1005"
         inkscape:connector-curvature="0" />
      <path
         d="m 12.713535,109.38081 v 1.53789 q 0,0.14883 -0.103352,0.25218 -0.09922,0.10336 -0.243913,0.10336 -0.144694,0 -0.252181,-0.10336 -0.103353,-0.10335 -0.103353,-0.25218 v -4.95267 q 0,-0.14056 0.103353,-0.24391 0.103353,-0.10335 0.252181,-0.10335 0.14056,0 0.243913,0.10335 0.103352,0.10335 0.103352,0.24391 v 0.22325 q 0.504362,-0.56224 0.996322,-0.56224 h 0.16123 q 0.367937,0 0.677995,0.27285 l 0.578776,0.50023 q 0.380339,0.33072 0.380339,0.83922 v 1.08314 q 0,0.51263 -0.409278,0.86403 l -0.566373,0.48782 q -0.28112,0.25632 -0.711068,0.25632 h -0.152962 q -0.405143,0 -0.686263,-0.28112 z m 0.979786,-0.15296 h 0.177766 q 0.128158,0 0.272852,-0.12816 l 0.541569,-0.47542 q 0.136426,-0.10749 0.136426,-0.29352 v -1.12035 q 0,-0.16536 -0.152962,-0.29352 l -0.582911,-0.50023 q -0.09922,-0.0868 -0.214974,-0.0868 h -0.202571 q -0.115755,0 -0.30179,0.19016 l -0.516765,0.51264 q -0.136426,0.13642 -0.136426,0.30592 v 0.88883 q 0,0.16123 0.152963,0.3142 l 0.500228,0.50022 q 0.186035,0.18604 0.326595,0.18604 z"
         style="font-style:normal;font-variant:normal;font-weight:normal;font-stretch:normal;font-size:8.46666622px;line-height:1.25;font-family:'OCR A Extended';-inkscape-font-specification:'OCR A Extended';letter-spacing:0px;word-spacing:0px;fill:#000000;fill-opacity:1;stroke:none;stroke-width:0.26458332"
         id="path1007"
         inkscape:connector-curvature="0" />
      <path
         d="m 20.62623,106.80526 -1.872754,4.23333 q -0.09508,0.22738 -0.330729,0.22738 h -0.963249 q -0.144694,0 -0.248046,-0.0992 -0.09922,-0.0992 -0.09922,-0.24805 0,-0.14469 0.09922,-0.24391 0.103352,-0.0992 0.248046,-0.0992 h 0.744141 l 0.475423,-1.10381 h -0.169499 q -0.235644,0 -0.338997,-0.24391 l -1.041797,-2.42259 v -0.66973 q 0,-0.14469 0.09922,-0.24391 0.09922,-0.10335 0.239779,-0.10335 0.144694,0 0.248047,0.10335 0.107487,0.0992 0.107487,0.24391 v 0.51677 l 0.913639,2.11666 h 0.243913 l 0.942578,-2.1084 v -0.5333 q 0,-0.13642 0.103352,-0.23977 0.107487,-0.10749 0.252181,-0.10749 0.14056,0 0.243913,0.10335 0.103353,0.10335 0.103353,0.24391 z"
         style="font-style:normal;font-variant:normal;font-weight:normal;font-stretch:normal;font-size:8.46666622px;line-height:1.25;font-family:'OCR A Extended';-inkscape-font-specification:'OCR A Extended';letter-spacing:0px;word-spacing:0px;fill:#000000;fill-opacity:1;stroke:none;stroke-width:0.26458332"
         id="path1009"
         inkscape:connector-curvature="0" />
      <path
         d="m 20.247711,131.24623 1.405599,-4.7501 q 0.08268,-0.26045 0.347265,-0.26045 0.256316,0 0.322461,0.21911 l 1.384929,4.82451 q 0.01654,0.0537 0.01654,0.10335 0,0.1447 -0.09922,0.24805 -0.09922,0.0992 -0.227376,0.0992 -0.272851,0 -0.347265,-0.25218 l -0.28112,-0.94258 h -1.583366 l -0.305924,1.00872 q -0.0124,0.0661 -0.103353,0.12816 -0.09095,0.0579 -0.198438,0.0579 -0.152962,0 -0.252181,-0.10335 -0.09922,-0.10336 -0.09922,-0.25218 0,-0.062 0.02067,-0.12816 z m 1.744596,-3.40238 -0.595312,1.98851 h 1.169954 z"
         style="font-style:normal;font-variant:normal;font-weight:normal;font-stretch:normal;font-size:8.46666622px;line-height:1.25;font-family:'OCR A Extended';-inkscape-font-specification:'OCR A Extended';letter-spacing:0px;word-spacing:0px;fill:#000000;fill-opacity:1;stroke:none;stroke-width:0.26458332"
         id="path996"
         inkscape:connector-curvature="0" />
      <path
         d="m 26.978049,128.54665 -0.946712,0.61598 v 2.22002 q 0,0.14056 -0.103353,0.24392 -0.103353,0.10335 -0.243912,0.10335 -0.14056,0 -0.243913,-0.10335 -0.103353,-0.10336 -0.103353,-0.24392 v -3.29489 q 0,-0.14469 0.09922,-0.24804 0.103353,-0.10749 0.248047,-0.10749 0.140559,0 0.243912,0.10749 0.103353,0.10335 0.103353,0.24804 v 0.23152 l 0.63252,-0.38448 q 0.318326,-0.20257 0.719336,-0.20257 h 0.32246 q 0.413412,0 0.715202,0.29352 0.301791,0.29353 0.318327,0.72347 l 0.09509,2.63343 q 0.0041,0.14056 -0.09922,0.24392 -0.103353,0.10335 -0.248047,0.10335 -0.136426,0 -0.239779,-0.0909 -0.103352,-0.0951 -0.107486,-0.25632 l -0.103353,-2.59209 q -0.0124,-0.3638 -0.380339,-0.3638 h -0.338997 q -0.157097,0 -0.338998,0.11989 z"
         style="font-style:normal;font-variant:normal;font-weight:normal;font-stretch:normal;font-size:8.46666622px;line-height:1.25;font-family:'OCR A Extended';-inkscape-font-specification:'OCR A Extended';letter-spacing:0px;word-spacing:0px;fill:#000000;fill-opacity:1;stroke:none;stroke-width:0.26458332"
         id="path998"
         inkscape:connector-curvature="0" />
      <path
         d="m 33.9523,128.75749 -1.872753,4.23333 q -0.09508,0.22738 -0.330729,0.22738 h -0.963249 q -0.144694,0 -0.248047,-0.0992 -0.09922,-0.0992 -0.09922,-0.24805 0,-0.14469 0.09922,-0.24391 0.103353,-0.0992 0.248047,-0.0992 h 0.74414 l 0.475424,-1.10381 h -0.169499 q -0.235645,0 -0.338997,-0.24391 l -1.041797,-2.42259 v -0.66973 q 0,-0.14469 0.09922,-0.24391 0.09922,-0.10335 0.239779,-0.10335 0.144694,0 0.248047,0.10335 0.107487,0.0992 0.107487,0.24391 v 0.51677 l 0.913639,2.11667 h 0.243913 l 0.942578,-2.1084 v -0.5333 q 0,-0.13643 0.103353,-0.23978 0.107487,-0.10749 0.252181,-0.10749 0.14056,0 0.243913,0.10335 0.103352,0.10336 0.103352,0.24392 z"
         style="font-style:normal;font-variant:normal;font-weight:normal;font-stretch:normal;font-size:8.46666622px;line-height:1.25;font-family:'OCR A Extended';-inkscape-font-specification:'OCR A Extended';letter-spacing:0px;word-spacing:0px;fill:#000000;fill-opacity:1;stroke:none;stroke-width:0.26458332"
         id="path1000"
         inkscape:connector-curvature="0" />
      <path
         d="m 47.593697,128.99314 v 1.46761 q 0,0.46715 -0.44235,0.86403 -0.438216,0.39687 -0.905371,0.39687 h -0.814421 q -0.475423,0 -0.909505,-0.40101 -0.434082,-0.40514 -0.434082,-0.85989 v -1.46761 q 0,-0.45476 0.42168,-0.85577 0.425814,-0.40514 0.921907,-0.40514 h 0.814421 q 0.467155,-0.008 0.905371,0.38861 0.44235,0.39687 0.44235,0.8723 z m -2.802929,0.0289 v 1.4056 q 0,0.19017 0.136425,0.30179 l 0.26045,0.22325 q 0.08682,0.0744 0.243912,0.0744 h 0.806153 q 0.177767,0 0.322461,-0.12816 l 0.210839,-0.18603 q 0.128158,-0.0992 0.128158,-0.27699 v -1.4056 q 0,-0.2067 -0.128158,-0.30592 l -0.243912,-0.19431 q -0.124024,-0.10335 -0.289388,-0.10335 h -0.719336 q -0.235645,0 -0.363802,0.11162 l -0.235645,0.20257 q -0.128157,0.10749 -0.128157,0.28112 z"
         style="font-style:normal;font-variant:normal;font-weight:normal;font-stretch:normal;font-size:8.46666622px;line-height:1.25;font-family:'OCR A Extended';-inkscape-font-specification:'OCR A Extended';letter-spacing:0px;word-spacing:0px;fill:#000000;fill-opacity:1;stroke:none;stroke-width:0.26458332"
         id="path985"
         inkscape:connector-curvature="0" />
      <path
         d="m 51.645129,131.72992 h -0.694531 q -0.429948,0 -0.740006,-0.30593 -0.310059,-0.30592 -0.310059,-0.73587 v -2.25309 h -0.355534 q -0.144694,0 -0.248047,-0.0992 -0.09922,-0.0992 -0.09922,-0.24805 0,-0.14469 0.09922,-0.24391 0.103353,-0.10335 0.248047,-0.10335 h 0.363802 v -0.85163 q 0,-0.14469 0.09922,-0.24391 0.103353,-0.10335 0.248047,-0.10335 0.136426,0 0.239779,0.10335 0.107487,0.10335 0.107487,0.24391 v 0.85163 h 1.39733 q 0.14056,0 0.243913,0.10335 0.103353,0.10335 0.103353,0.24391 0,0.1447 -0.103353,0.24805 -0.103353,0.0992 -0.243913,0.0992 h -1.405599 v 2.25309 q 0,0.14056 0.103353,0.24392 0.107487,0.10335 0.252181,0.10335 h 0.677995 q 0.276986,0 0.367936,-0.29766 0.09095,-0.30179 0.3514,-0.30179 0.152962,0 0.248047,0.10335 0.09922,0.0992 0.09922,0.25219 0,0.31419 -0.297656,0.62838 -0.293522,0.31006 -0.752409,0.31006 z"
         style="font-style:normal;font-variant:normal;font-weight:normal;font-stretch:normal;font-size:8.46666622px;line-height:1.25;font-family:'OCR A Extended';-inkscape-font-specification:'OCR A Extended';letter-spacing:0px;word-spacing:0px;fill:#000000;fill-opacity:1;stroke:none;stroke-width:0.26458332"
         id="path987"
         inkscape:connector-curvature="0" />
      <path
         d="m 54.307499,131.38265 v -4.7997 q 0,-0.14056 0.09922,-0.23978 0.103353,-0.0992 0.248047,-0.0992 0.144694,0 0.243913,0.10335 0.103352,0.0992 0.103352,0.24392 v 1.75286 l 0.558106,-0.3638 q 0.380338,-0.23978 0.677995,-0.23978 h 0.429948 q 0.425813,0 0.731738,0.30592 0.305924,0.30179 0.318327,0.73588 l 0.08682,2.60035 q 0.0041,0.1447 -0.09922,0.24805 -0.103353,0.0992 -0.248047,0.0992 -0.144694,0 -0.243912,-0.10335 -0.09922,-0.10749 -0.103353,-0.24392 l -0.08682,-2.60862 q -0.0041,-0.14056 -0.107487,-0.24392 -0.103352,-0.10335 -0.248046,-0.10335 h -0.388607 q -0.132292,0 -0.289388,0.10335 l -0.988054,0.64493 v 2.20761 q 0,0.1447 -0.103352,0.24805 -0.09922,0.0992 -0.243913,0.0992 -0.144694,0 -0.248047,-0.0992 -0.09922,-0.10335 -0.09922,-0.24805 z"
         style="font-style:normal;font-variant:normal;font-weight:normal;font-stretch:normal;font-size:8.46666622px;line-height:1.25;font-family:'OCR A Extended';-inkscape-font-specification:'OCR A Extended';letter-spacing:0px;word-spacing:0px;fill:#000000;fill-opacity:1;stroke:none;stroke-width:0.26458332"
         id="path989"
         inkscape:connector-curvature="0" />
      <path
         d="m 62.922993,129.04688 v 0.83922 q 0,0.14056 -0.103353,0.24392 -0.103352,0.10335 -0.243912,0.10335 h -2.455664 v 0.20257 q 0,0.17777 0.152962,0.30179 l 0.202572,0.1695 q 0.165364,0.12816 0.314192,0.12816 h 1.785938 q 0.14056,0 0.243912,0.10335 0.103353,0.0992 0.103353,0.24391 0,0.14056 -0.107487,0.24392 -0.103353,0.10335 -0.239778,0.10335 h -1.831413 q -0.181901,0 -0.384473,-0.0744 -0.198437,-0.0785 -0.293522,-0.16124 l -0.310058,-0.27285 q -0.144694,-0.11575 -0.243913,-0.32246 -0.09508,-0.2067 -0.09508,-0.38034 V 128.927 q 0,-0.13643 0.103353,-0.36794 0.107487,-0.23151 0.268718,-0.35966 l 0.289388,-0.22738 q 0.285253,-0.23151 0.632519,-0.23151 h 0.975651 q 0.367936,0 0.694531,0.30592 l 0.260449,0.24805 q 0.28112,0.25218 0.28112,0.75241 z m -2.794661,-0.0537 v 0.53743 h 2.108398 v -0.48369 q 0,-0.1943 -0.119889,-0.29766 l -0.202572,-0.17776 q -0.157096,-0.1282 -0.281119,-0.1282 h -0.872299 q -0.16123,0 -0.293522,0.11162 l -0.202571,0.1695 q -0.136426,0.10335 -0.136426,0.26872 z"
         style="font-style:normal;font-variant:normal;font-weight:normal;font-stretch:normal;font-size:8.46666622px;line-height:1.25;font-family:'OCR A Extended';-inkscape-font-specification:'OCR A Extended';letter-spacing:0px;word-spacing:0px;fill:#000000;fill-opacity:1;stroke:none;stroke-width:0.26458332"
         id="path991"
         inkscape:connector-curvature="0" />
      <path
         d="m 64.535298,131.38265 v -3.29489 q 0,-0.14469 0.09922,-0.24804 0.103353,-0.10749 0.248047,-0.10749 0.144694,0 0.243913,0.10335 0.103353,0.10336 0.103353,0.25218 v 0.43409 l 0.566373,-0.48369 q 0.3514,-0.29766 0.686263,-0.29766 h 0.508496 q 0.429948,0 0.735873,0.30592 0.305924,0.30593 0.305924,0.73588 v 0.18603 q 0,0.14883 -0.103353,0.25218 -0.09922,0.10335 -0.243912,0.10335 -0.144694,0 -0.248047,-0.0992 -0.09922,-0.10336 -0.09922,-0.24805 v -0.1943 q 0,-0.1447 -0.103353,-0.24392 -0.09922,-0.10335 -0.243913,-0.10335 h -0.450618 q -0.144694,0 -0.322461,0.15296 l -0.988053,0.85576 v 1.9389 q 0,0.1447 -0.103353,0.24805 -0.103353,0.0992 -0.243913,0.0992 -0.144694,0 -0.248047,-0.0992 -0.09922,-0.10335 -0.09922,-0.24805 z"
         style="font-style:normal;font-variant:normal;font-weight:normal;font-stretch:normal;font-size:8.46666622px;line-height:1.25;font-family:'OCR A Extended';-inkscape-font-specification:'OCR A Extended';letter-spacing:0px;word-spacing:0px;fill:#000000;fill-opacity:1;stroke:none;stroke-width:0.26458332"
         id="path993"
         inkscape:connector-curvature="0" />
      <path
         d="m 80.155177,131.38265 v -4.79143 q 0,-0.14883 0.09922,-0.25219 0.103353,-0.10335 0.248047,-0.10335 0.144694,0 0.243913,0.10335 0.103352,0.10336 0.103352,0.25219 v 2.836 l 1.86862,-1.59164 q 0.119889,-0.0992 0.260449,-0.0992 0.148828,0 0.248047,0.10749 0.09922,0.10335 0.09922,0.24805 0,0.15296 -0.107487,0.24391 l -1.455208,1.2361 1.794205,1.5751 q 0.107487,0.0868 0.107487,0.22738 0,0.13642 -0.09922,0.24804 -0.09922,0.10749 -0.243913,0.10749 -0.144694,0 -0.256315,-0.0951 l -1.852083,-1.60817 -0.363803,0.30593 v 1.05006 q 0,0.1447 -0.103352,0.24805 -0.09922,0.0992 -0.243913,0.0992 -0.144694,0 -0.248047,-0.0992 -0.09922,-0.10335 -0.09922,-0.24805 z"
         style="font-style:normal;font-variant:normal;font-weight:normal;font-stretch:normal;font-size:8.46666622px;line-height:1.25;font-family:'OCR A Extended';-inkscape-font-specification:'OCR A Extended';letter-spacing:0px;word-spacing:0px;fill:#000000;fill-opacity:1;stroke:none;stroke-width:0.26458332"
         id="path978"
         inkscape:connector-curvature="0" />
      <path
         d="m 88.762404,129.04688 v 0.83922 q 0,0.14056 -0.103353,0.24392 -0.103353,0.10335 -0.243913,0.10335 h -2.455664 v 0.20257 q 0,0.17777 0.152962,0.30179 l 0.202572,0.1695 q 0.165364,0.12816 0.314193,0.12816 h 1.785937 q 0.14056,0 0.243913,0.10335 0.103353,0.0992 0.103353,0.24391 0,0.14056 -0.107487,0.24392 -0.103353,0.10335 -0.239779,0.10335 h -1.831413 q -0.181901,0 -0.384472,-0.0744 -0.198438,-0.0785 -0.293522,-0.16124 l -0.310059,-0.27285 q -0.144694,-0.11575 -0.243913,-0.32246 -0.09508,-0.2067 -0.09508,-0.38034 V 128.927 q 0,-0.13643 0.103352,-0.36794 0.107487,-0.23151 0.268718,-0.35966 l 0.289388,-0.22738 q 0.285254,-0.23151 0.632519,-0.23151 h 0.975651 q 0.367937,0 0.694532,0.30592 l 0.260449,0.24805 q 0.28112,0.25218 0.28112,0.75241 z m -2.794662,-0.0537 v 0.53743 h 2.108399 v -0.48369 q 0,-0.1943 -0.11989,-0.29766 L 87.75368,128.5715 q -0.157097,-0.12816 -0.28112,-0.12816 h -0.872298 q -0.161231,0 -0.293522,0.11162 l -0.202572,0.1695 q -0.136426,0.10335 -0.136426,0.26872 z"
         style="font-style:normal;font-variant:normal;font-weight:normal;font-stretch:normal;font-size:8.46666622px;line-height:1.25;font-family:'OCR A Extended';-inkscape-font-specification:'OCR A Extended';letter-spacing:0px;word-spacing:0px;fill:#000000;fill-opacity:1;stroke:none;stroke-width:0.26458332"
         id="path980"
         inkscape:connector-curvature="0" />
      <path
         d="m 93.880437,128.75749 -1.872754,4.23333 q -0.09508,0.22738 -0.330729,0.22738 h -0.963248 q -0.144694,0 -0.248047,-0.0992 -0.09922,-0.0992 -0.09922,-0.24805 0,-0.14469 0.09922,-0.24391 0.103353,-0.0992 0.248047,-0.0992 h 0.74414 l 0.475423,-1.10381 h -0.169498 q -0.235645,0 -0.338998,-0.24391 l -1.041796,-2.42259 v -0.66973 q 0,-0.14469 0.09922,-0.24391 0.09922,-0.10335 0.239779,-0.10335 0.144694,0 0.248047,0.10335 0.107487,0.0992 0.107487,0.24391 v 0.51677 l 0.913639,2.11667 h 0.243913 l 0.942578,-2.1084 v -0.5333 q 0,-0.13643 0.103353,-0.23978 0.107487,-0.10749 0.252181,-0.10749 0.14056,0 0.243912,0.10335 0.103353,0.10336 0.103353,0.24392 z"
         style="font-style:normal;font-variant:normal;font-weight:normal;font-stretch:normal;font-size:8.46666622px;line-height:1.25;font-family:'OCR A Extended';-inkscape-font-specification:'OCR A Extended';letter-spacing:0px;word-spacing:0px;fill:#000000;fill-opacity:1;stroke:none;stroke-width:0.26458332"
         id="path982"
         inkscape:connector-curvature="0" />
      <path
         d="m 106.55797,131.72992 h -0.69454 q -0.42994,0 -0.74,-0.30593 -0.31006,-0.30592 -0.31006,-0.73587 v -2.25309 h -0.35553 q -0.1447,0 -0.24805,-0.0992 -0.0992,-0.0992 -0.0992,-0.24805 0,-0.14469 0.0992,-0.24391 0.10335,-0.10335 0.24805,-0.10335 h 0.3638 v -0.85163 q 0,-0.14469 0.0992,-0.24391 0.10335,-0.10335 0.24804,-0.10335 0.13643,0 0.23978,0.10335 0.10749,0.10335 0.10749,0.24391 v 0.85163 h 1.39733 q 0.14056,0 0.24391,0.10335 0.10336,0.10335 0.10336,0.24391 0,0.1447 -0.10336,0.24805 -0.10335,0.0992 -0.24391,0.0992 h -1.4056 v 2.25309 q 0,0.14056 0.10335,0.24392 0.10749,0.10335 0.25218,0.10335 h 0.678 q 0.27699,0 0.36794,-0.29766 0.091,-0.30179 0.3514,-0.30179 0.15296,0 0.24804,0.10335 0.0992,0.0992 0.0992,0.25219 0,0.31419 -0.29766,0.62838 -0.29352,0.31006 -0.7524,0.31006 z"
         style="font-style:normal;font-variant:normal;font-weight:normal;font-stretch:normal;font-size:8.46666622px;line-height:1.25;font-family:'OCR A Extended';-inkscape-font-specification:'OCR A Extended';letter-spacing:0px;word-spacing:0px;fill:#000000;fill-opacity:1;stroke:none;stroke-width:0.26458332"
         id="path973"
         inkscape:connector-curvature="0" />
      <path
         d="m 112.72606,128.99314 v 1.46761 q 0,0.46715 -0.44235,0.86403 -0.43821,0.39687 -0.90537,0.39687 h -0.81442 q -0.47542,0 -0.9095,-0.40101 -0.43408,-0.40514 -0.43408,-0.85989 v -1.46761 q 0,-0.45476 0.42168,-0.85577 0.42581,-0.40514 0.9219,-0.40514 h 0.81442 q 0.46716,-0.008 0.90537,0.38861 0.44235,0.39687 0.44235,0.8723 z m -2.80292,0.0289 v 1.4056 q 0,0.19017 0.13642,0.30179 l 0.26045,0.22325 q 0.0868,0.0744 0.24391,0.0744 h 0.80616 q 0.17776,0 0.32246,-0.12816 l 0.21084,-0.18603 q 0.12815,-0.0992 0.12815,-0.27699 v -1.4056 q 0,-0.2067 -0.12815,-0.30592 l -0.24392,-0.19431 q -0.12402,-0.10335 -0.28938,-0.10335 h -0.71934 q -0.23565,0 -0.3638,0.11162 l -0.23565,0.20257 q -0.12815,0.10749 -0.12815,0.28112 z"
         style="font-style:normal;font-variant:normal;font-weight:normal;font-stretch:normal;font-size:8.46666622px;line-height:1.25;font-family:'OCR A Extended';-inkscape-font-specification:'OCR A Extended';letter-spacing:0px;word-spacing:0px;fill:#000000;fill-opacity:1;stroke:none;stroke-width:0.26458332"
         id="path975"
         inkscape:connector-curvature="0" />
      <path
         d="m 125.98594,129.04688 v 0.83922 q 0,0.14056 -0.10335,0.24392 -0.10335,0.10335 -0.24391,0.10335 h -2.45567 v 0.20257 q 0,0.17777 0.15297,0.30179 l 0.20257,0.1695 q 0.16536,0.12816 0.31419,0.12816 h 1.78594 q 0.14056,0 0.24391,0.10335 0.10335,0.0992 0.10335,0.24391 0,0.14056 -0.10748,0.24392 -0.10336,0.10335 -0.23978,0.10335 h -1.83141 q -0.18191,0 -0.38448,-0.0744 -0.19844,-0.0785 -0.29352,-0.16124 l -0.31006,-0.27285 q -0.14469,-0.11575 -0.24391,-0.32246 -0.0951,-0.2067 -0.0951,-0.38034 V 128.927 q 0,-0.13643 0.10336,-0.36794 0.10748,-0.23151 0.26871,-0.35966 l 0.28939,-0.22738 q 0.28526,-0.23151 0.63252,-0.23151 h 0.97565 q 0.36794,0 0.69453,0.30592 l 0.26045,0.24805 q 0.28112,0.25218 0.28112,0.75241 z m -2.79466,-0.0537 v 0.53743 h 2.1084 v -0.48369 q 0,-0.1943 -0.11989,-0.29766 l -0.20257,-0.17776 q -0.1571,-0.12816 -0.28112,-0.12816 h -0.8723 q -0.16123,0 -0.29352,0.11162 l -0.20257,0.1695 q -0.13643,0.10335 -0.13643,0.26872 z"
         style="font-style:normal;font-variant:normal;font-weight:normal;font-stretch:normal;font-size:8.46666622px;line-height:1.25;font-family:'OCR A Extended';-inkscape-font-specification:'OCR A Extended';letter-spacing:0px;word-spacing:0px;fill:#000000;fill-opacity:1;stroke:none;stroke-width:0.26458332"
         id="path964"
         inkscape:connector-curvature="0" />
      <path
         d="m 129.40899,130.23337 -1.13688,1.35186 q -0.11162,0.14469 -0.27699,0.14469 -0.14882,0 -0.24804,-0.10335 -0.0992,-0.10336 -0.0992,-0.25218 0,-0.1323 0.0661,-0.21084 l 1.24437,-1.49242 -1.14928,-1.36839 q -0.0785,-0.0909 -0.0785,-0.20671 0,-0.13642 0.0951,-0.24391 0.0992,-0.11162 0.25219,-0.11162 0.17363,0 0.28112,0.12816 l 1.05006,1.2609 1.07487,-1.26917 q 0.0992,-0.11989 0.24805,-0.11989 0.13229,0 0.23978,0.0951 0.10748,0.091 0.10748,0.23565 0,0.14056 -0.0455,0.1943 l -1.16996,1.41387 1.22783,1.48415 q 0.0703,0.0785 0.0703,0.1943 0,0.1571 -0.10748,0.26458 -0.10336,0.10336 -0.23978,0.10336 -0.16123,0 -0.28112,-0.14056 z"
         style="font-style:normal;font-variant:normal;font-weight:normal;font-stretch:normal;font-size:8.46666622px;line-height:1.25;font-family:'OCR A Extended';-inkscape-font-specification:'OCR A Extended';letter-spacing:0px;word-spacing:0px;fill:#000000;fill-opacity:1;stroke:none;stroke-width:0.26458332"
         id="path966"
         inkscape:connector-curvature="0" />
      <path
         d="m 134.09708,125.92976 h 0.3638 q 0.14469,0 0.24391,0.10335 0.10335,0.0992 0.10335,0.24391 v 0.29766 q 0,0.14469 -0.10335,0.25218 -0.0992,0.10335 -0.24391,0.10335 h -0.37207 q -0.14883,0 -0.25218,-0.10748 -0.0992,-0.10749 -0.0951,-0.23978 l 0.008,-0.30593 q 0,-0.14469 0.0992,-0.24391 0.10335,-0.10335 0.24805,-0.10335 z m 1.41386,5.79189 h -2.11666 q -0.1447,0 -0.24805,-0.0992 -0.0992,-0.10335 -0.0992,-0.24804 0,-0.14056 0.0992,-0.24392 0.10335,-0.10335 0.24805,-0.10335 h 0.71106 v -2.59209 h -0.7028 q -0.14469,0 -0.24804,-0.10335 -0.0992,-0.10336 -0.0992,-0.24392 0,-0.14469 0.0992,-0.24804 0.10335,-0.10749 0.24804,-0.10749 h 1.05834 q 0.14469,0 0.24391,0.10749 0.10335,0.10335 0.10335,0.24804 v 2.93936 h 0.69453 q 0.1447,0 0.24805,0.10335 0.10749,0.0992 0.10749,0.24392 0,0.14469 -0.10335,0.24804 -0.10336,0.0992 -0.24392,0.0992 z"
         style="font-style:normal;font-variant:normal;font-weight:normal;font-stretch:normal;font-size:8.46666622px;line-height:1.25;font-family:'OCR A Extended';-inkscape-font-specification:'OCR A Extended';letter-spacing:0px;word-spacing:0px;fill:#000000;fill-opacity:1;stroke:none;stroke-width:0.26458332"
         id="path968"
         inkscape:connector-curvature="0" />
      <path
         d="m 140.25691,131.72992 h -0.69454 q -0.42994,0 -0.74,-0.30593 -0.31006,-0.30592 -0.31006,-0.73587 v -2.25309 h -0.35553 q -0.1447,0 -0.24805,-0.0992 -0.0992,-0.0992 -0.0992,-0.24805 0,-0.14469 0.0992,-0.24391 0.10335,-0.10335 0.24805,-0.10335 h 0.3638 v -0.85163 q 0,-0.14469 0.0992,-0.24391 0.10335,-0.10335 0.24804,-0.10335 0.13643,0 0.23978,0.10335 0.10749,0.10335 0.10749,0.24391 v 0.85163 h 1.39733 q 0.14056,0 0.24391,0.10335 0.10336,0.10335 0.10336,0.24391 0,0.1447 -0.10336,0.24805 -0.10335,0.0992 -0.24391,0.0992 h -1.4056 v 2.25309 q 0,0.14056 0.10335,0.24392 0.10749,0.10335 0.25218,0.10335 h 0.678 q 0.27699,0 0.36794,-0.29766 0.091,-0.30179 0.3514,-0.30179 0.15296,0 0.24804,0.10335 0.0992,0.0992 0.0992,0.25219 0,0.31419 -0.29765,0.62838 -0.29353,0.31006 -0.75241,0.31006 z"
         style="font-style:normal;font-variant:normal;font-weight:normal;font-stretch:normal;font-size:8.46666622px;line-height:1.25;font-family:'OCR A Extended';-inkscape-font-specification:'OCR A Extended';letter-spacing:0px;word-spacing:0px;fill:#000000;fill-opacity:1;stroke:none;stroke-width:0.26458332"
         id="path970"
         inkscape:connector-curvature="0" />
      <path
         d="m 150.71191,131.38265 v -3.29489 q 0,-0.14469 0.0992,-0.24391 0.10335,-0.10335 0.24804,-0.10335 0.26872,0 0.339,0.26458 0.28939,-0.27285 0.64492,-0.27285 0.41755,0 0.68627,0.35553 0.33072,-0.35553 0.7276,-0.35553 0.32246,0 0.55811,0.23151 0.23977,0.22738 0.25631,0.58291 l 0.0992,2.836 q 0,0.14056 -0.10335,0.24392 -0.10336,0.10335 -0.24392,0.10335 -0.14469,0 -0.24804,-0.10335 -0.10336,-0.10336 -0.10749,-0.24392 l -0.0827,-2.72438 q -0.008,-0.22324 -0.13643,-0.22324 -0.0703,0 -0.14469,0.062 l -0.41341,0.34727 v 2.53834 q 0,0.14056 -0.10336,0.23978 -0.0992,0.0992 -0.24391,0.0992 -0.14056,0 -0.24391,-0.0992 -0.10336,-0.10335 -0.10336,-0.24804 v -2.76159 q 0,-0.17777 -0.15296,-0.17777 -0.0744,0 -0.13642,0.0537 l -0.50023,0.42168 v 2.4722 q 0,0.14056 -0.0992,0.24392 -0.0992,0.10335 -0.23978,0.10335 -0.14469,0 -0.25218,-0.10335 -0.10335,-0.10336 -0.10335,-0.24392 z"
         style="font-style:normal;font-variant:normal;font-weight:normal;font-stretch:normal;font-size:8.46666622px;line-height:1.25;font-family:'OCR A Extended';-inkscape-font-specification:'OCR A Extended';letter-spacing:0px;word-spacing:0px;fill:#000000;fill-opacity:1;stroke:none;stroke-width:0.26458332"
         id="path955"
         inkscape:connector-curvature="0" />
      <path
         d="m 159.40595,129.04688 v 0.83922 q 0,0.14056 -0.10335,0.24392 -0.10336,0.10335 -0.24392,0.10335 h -2.45566 v 0.20257 q 0,0.17777 0.15296,0.30179 l 0.20257,0.1695 q 0.16537,0.12816 0.3142,0.12816 h 1.78593 q 0.14056,0 0.24392,0.10335 0.10335,0.0992 0.10335,0.24391 0,0.14056 -0.10749,0.24392 -0.10335,0.10335 -0.23978,0.10335 h -1.83141 q -0.1819,0 -0.38447,-0.0744 -0.19844,-0.0785 -0.29352,-0.16124 l -0.31006,-0.27285 q -0.1447,-0.11575 -0.24391,-0.32246 -0.0951,-0.2067 -0.0951,-0.38034 V 128.927 q 0,-0.13643 0.10335,-0.36794 0.10749,-0.23151 0.26872,-0.35966 l 0.28939,-0.22738 q 0.28525,-0.23151 0.63252,-0.23151 h 0.97565 q 0.36794,0 0.69453,0.30592 l 0.26045,0.24805 q 0.28112,0.25218 0.28112,0.75241 z m -2.79466,-0.0537 v 0.53743 h 2.1084 v -0.48369 q 0,-0.1943 -0.11989,-0.29766 l -0.20257,-0.17776 q -0.1571,-0.12816 -0.28112,-0.12816 h -0.8723 q -0.16123,0 -0.29352,0.11162 l -0.20257,0.1695 q -0.13643,0.10335 -0.13643,0.26872 z"
         style="font-style:normal;font-variant:normal;font-weight:normal;font-stretch:normal;font-size:8.46666622px;line-height:1.25;font-family:'OCR A Extended';-inkscape-font-specification:'OCR A Extended';letter-spacing:0px;word-spacing:0px;fill:#000000;fill-opacity:1;stroke:none;stroke-width:0.26458332"
         id="path957"
         inkscape:connector-curvature="0" />
      <path
         d="m 162.6595,128.54665 -0.94671,0.61598 v 2.22002 q 0,0.14056 -0.10336,0.24392 -0.10335,0.10335 -0.24391,0.10335 -0.14056,0 -0.24391,-0.10335 -0.10335,-0.10336 -0.10335,-0.24392 v -3.29489 q 0,-0.14469 0.0992,-0.24804 0.10336,-0.10749 0.24805,-0.10749 0.14056,0 0.24391,0.10749 0.10336,0.10335 0.10336,0.24804 v 0.23152 l 0.63252,-0.38448 q 0.31832,-0.20257 0.71933,-0.20257 h 0.32246 q 0.41341,0 0.7152,0.29352 0.3018,0.29353 0.31833,0.72347 l 0.0951,2.63343 q 0.004,0.14056 -0.0992,0.24392 -0.10336,0.10335 -0.24805,0.10335 -0.13643,0 -0.23978,-0.0909 -0.10335,-0.0951 -0.10749,-0.25632 l -0.10335,-2.59209 q -0.0124,-0.3638 -0.38034,-0.3638 h -0.33899 q -0.1571,0 -0.339,0.11989 z"
         style="font-style:normal;font-variant:normal;font-weight:normal;font-stretch:normal;font-size:8.46666622px;line-height:1.25;font-family:'OCR A Extended';-inkscape-font-specification:'OCR A Extended';letter-spacing:0px;word-spacing:0px;fill:#000000;fill-opacity:1;stroke:none;stroke-width:0.26458332"
         id="path959"
         inkscape:connector-curvature="0" />
      <path
         d="m 167.77753,131.02712 1.16996,-0.74414 v -2.19522 q 0,-0.14469 0.0992,-0.24804 0.10335,-0.10749 0.24804,-0.10749 0.1447,0 0.24391,0.10749 0.10336,0.10335 0.10336,0.24804 v 3.29489 q 0,0.14056 -0.10336,0.24392 -0.10335,0.10335 -0.24391,0.10335 -0.14056,0 -0.24391,-0.10335 -0.10335,-0.10336 -0.10335,-0.24392 v -0.27285 l -0.60358,0.39274 q -0.35554,0.22738 -0.71934,0.22738 h -0.32246 q -0.42581,0 -0.73174,-0.29766 -0.30592,-0.29765 -0.32659,-0.7276 l -0.0992,-2.6169 q -0.008,-0.13642 0.0951,-0.23977 0.10749,-0.10749 0.25218,-0.10749 0.14056,0 0.23978,0.10335 0.10335,0.10335 0.10749,0.24391 l 0.0909,2.56729 q 0.0124,0.37207 0.42581,0.37207 z"
         style="font-style:normal;font-variant:normal;font-weight:normal;font-stretch:normal;font-size:8.46666622px;line-height:1.25;font-family:'OCR A Extended';-inkscape-font-specification:'OCR A Extended';letter-spacing:0px;word-spacing:0px;fill:#000000;fill-opacity:1;stroke:none;stroke-width:0.26458332"
         id="path961"
         inkscape:connector-curvature="0" />
      <path
         d="m 209.31023,106.52599 q -0.22738,0.0992 -0.41342,0.18603 -0.1819,0.0868 -0.47955,0.1819 -0.25218,0.0786 -0.54984,0.1323 -0.29352,0.0579 -0.64906,0.0579 -0.66972,0 -1.21956,-0.18603 -0.5457,-0.19017 -0.95085,-0.59118 -0.39687,-0.39274 -0.62011,-0.99632 -0.22325,-0.60772 -0.22325,-1.40973 0,-0.76068 0.21498,-1.36013 0.21497,-0.59944 0.62012,-1.01286 0.39274,-0.401 0.94671,-0.61184 0.5581,-0.21084 1.2361,-0.21084 0.49609,0 0.98805,0.11989 0.4961,0.11988 1.09968,0.42167 v 0.97152 h -0.062 q -0.50849,-0.42581 -1.00872,-0.62012 -0.50023,-0.1943 -1.07074,-0.1943 -0.46715,0 -0.84335,0.15296 -0.37207,0.14883 -0.6656,0.46716 -0.28525,0.31006 -0.44648,0.78548 -0.1571,0.47129 -0.1571,1.09141 0,0.64905 0.17364,1.11621 0.17776,0.46715 0.45475,0.76067 0.28939,0.30593 0.67386,0.45476 0.38861,0.14469 0.81855,0.14469 0.59118,0 1.10795,-0.20257 0.51676,-0.20257 0.96738,-0.60772 h 0.0579 z"
         style="font-style:normal;font-weight:normal;font-size:8.46666622px;line-height:1.25;font-family:sans-serif;letter-spacing:0px;word-spacing:0px;fill:#000000;fill-opacity:1;stroke:none;stroke-width:0.26458332"
         id="path942"
         inkscape:connector-curvature="0" />
      <path
         d="m 214.34971,104.66564 q 0,1.12861 -0.57877,1.7818 -0.57878,0.65319 -1.5503,0.65319 -0.97978,0 -1.55856,-0.65319 -0.57464,-0.65319 -0.57464,-1.7818 0,-1.12862 0.57464,-1.78181 0.57878,-0.65732 1.55856,-0.65732 0.97152,0 1.5503,0.65732 0.57877,0.65319 0.57877,1.78181 z m -0.80202,0 q 0,-0.89711 -0.3514,-1.33119 -0.3514,-0.43821 -0.97565,-0.43821 -0.63252,0 -0.98392,0.43821 -0.34726,0.43408 -0.34726,1.33119 0,0.86816 0.3514,1.31878 0.3514,0.44648 0.97978,0.44648 0.62012,0 0.97152,-0.44235 0.35553,-0.44648 0.35553,-1.32291 z"
         style="font-style:normal;font-weight:normal;font-size:8.46666622px;line-height:1.25;font-family:sans-serif;letter-spacing:0px;word-spacing:0px;fill:#000000;fill-opacity:1;stroke:none;stroke-width:0.26458332"
         id="path944"
         inkscape:connector-curvature="0" />
      <path
         d="m 219.62071,104.60776 q 0,0.56224 -0.16123,1.02939 -0.16123,0.46303 -0.45476,0.78549 -0.27285,0.30592 -0.64492,0.47542 -0.36793,0.16536 -0.78135,0.16536 -0.35966,0 -0.65319,-0.0785 -0.28938,-0.0786 -0.59117,-0.24392 v 1.93477 h -0.77722 v -6.32106 h 0.77722 v 0.48369 q 0.31006,-0.26045 0.69453,-0.43408 0.3886,-0.17777 0.82682,-0.17777 0.83509,0 1.29811,0.63252 0.46716,0.62838 0.46716,1.74873 z m -0.80202,0.0207 q 0,-0.83509 -0.28525,-1.2485 -0.28526,-0.41341 -0.87644,-0.41341 -0.33486,0 -0.67386,0.14469 -0.33899,0.14469 -0.64905,0.38034 v 2.61689 q 0.33073,0.14883 0.56637,0.20257 0.23978,0.0538 0.54157,0.0538 0.64906,0 1.01286,-0.43822 0.3638,-0.43821 0.3638,-1.29811 z"
         style="font-style:normal;font-weight:normal;font-size:8.46666622px;line-height:1.25;font-family:sans-serif;letter-spacing:0px;word-spacing:0px;fill:#000000;fill-opacity:1;stroke:none;stroke-width:0.26458332"
         id="path946"
         inkscape:connector-curvature="0" />
      <path
         d="m 221.66709,101.58159 h -0.87643 v -0.80615 h 0.87643 z m -0.0496,5.39088 h -0.77721 v -4.6178 h 0.77721 z"
         style="font-style:normal;font-weight:normal;font-size:8.46666622px;line-height:1.25;font-family:sans-serif;letter-spacing:0px;word-spacing:0px;fill:#000000;fill-opacity:1;stroke:none;stroke-width:0.26458332"
         id="path948"
         inkscape:connector-curvature="0" />
      <path
         d="m 226.75205,106.97247 h -0.77307 v -0.49196 q -0.10336,0.0703 -0.28112,0.19844 -0.17364,0.12402 -0.339,0.19844 -0.19431,0.0951 -0.44649,0.15709 -0.25218,0.0661 -0.59117,0.0661 -0.62426,0 -1.05834,-0.41341 -0.43408,-0.41341 -0.43408,-1.0542 0,-0.52503 0.22324,-0.84749 0.22738,-0.3266 0.64492,-0.51263 0.42168,-0.18604 1.01286,-0.25218 0.59118,-0.0661 1.26918,-0.0992 v -0.11989 q 0,-0.26459 -0.0951,-0.43822 -0.091,-0.17363 -0.26458,-0.27285 -0.16537,-0.0951 -0.39688,-0.12816 -0.23151,-0.0331 -0.48369,-0.0331 -0.30592,0 -0.68213,0.0827 -0.3762,0.0786 -0.77721,0.23151 h -0.0413 v -0.78961 q 0.22737,-0.062 0.65732,-0.13643 0.42995,-0.0744 0.8475,-0.0744 0.48782,0 0.84749,0.0827 0.3638,0.0786 0.62838,0.27285 0.26045,0.19017 0.39688,0.49196 0.13642,0.30179 0.13642,0.74827 z m -0.77307,-1.13688 v -1.28571 q -0.35554,0.0207 -0.83923,0.062 -0.47956,0.0413 -0.76068,0.11989 -0.33486,0.0951 -0.54157,0.29766 -0.2067,0.19844 -0.2067,0.54984 0,0.39687 0.23978,0.59944 0.23978,0.19844 0.73174,0.19844 0.40927,0 0.74827,-0.1571 0.339,-0.16123 0.62839,-0.38447 z"
         style="font-style:normal;font-weight:normal;font-size:8.46666622px;line-height:1.25;font-family:sans-serif;letter-spacing:0px;word-spacing:0px;fill:#000000;fill-opacity:1;stroke:none;stroke-width:0.26458332"
         id="path950"
         inkscape:connector-curvature="0" />
      <path
         d="m 231.13835,103.20216 h -0.0413 q -0.17363,-0.0413 -0.339,-0.0579 -0.16123,-0.0207 -0.38447,-0.0207 -0.35967,0 -0.69453,0.16123 -0.33487,0.1571 -0.64492,0.40928 v 3.27835 h -0.77722 v -4.6178 h 0.77722 v 0.68213 q 0.46302,-0.37207 0.81442,-0.52504 0.35553,-0.15709 0.72347,-0.15709 0.20257,0 0.29352,0.0124 0.0909,0.008 0.27285,0.0372 z"
         style="font-style:normal;font-weight:normal;font-size:8.46666622px;line-height:1.25;font-family:sans-serif;letter-spacing:0px;word-spacing:0px;fill:#000000;fill-opacity:1;stroke:none;stroke-width:0.26458332"
         id="path952"
         inkscape:connector-curvature="0" />
      <path
         d="m 209.31023,117.29831 q -0.22738,0.0992 -0.41342,0.18604 -0.1819,0.0868 -0.47955,0.1819 -0.25218,0.0785 -0.54984,0.13229 -0.29352,0.0579 -0.64906,0.0579 -0.66972,0 -1.21956,-0.18604 -0.5457,-0.19017 -0.95085,-0.59118 -0.39687,-0.39274 -0.62011,-0.99632 -0.22325,-0.60771 -0.22325,-1.40973 0,-0.76068 0.21498,-1.36012 0.21497,-0.59945 0.62012,-1.01286 0.39274,-0.40101 0.94671,-0.61185 0.5581,-0.21084 1.2361,-0.21084 0.49609,0 0.98805,0.11989 0.4961,0.11989 1.09968,0.42168 v 0.97152 h -0.062 q -0.50849,-0.42582 -1.00872,-0.62012 -0.50023,-0.19431 -1.07074,-0.19431 -0.46715,0 -0.84335,0.15297 -0.37207,0.14883 -0.6656,0.46715 -0.28525,0.31006 -0.44648,0.78548 -0.1571,0.47129 -0.1571,1.09141 0,0.64906 0.17364,1.11621 0.17776,0.46716 0.45475,0.76068 0.28939,0.30592 0.67386,0.45475 0.38861,0.14469 0.81855,0.14469 0.59118,0 1.10795,-0.20257 0.51676,-0.20257 0.96738,-0.60771 h 0.0579 z"
         style="font-style:normal;font-weight:normal;font-size:8.46666622px;line-height:1.25;font-family:sans-serif;letter-spacing:0px;word-spacing:0px;fill:#000000;fill-opacity:1;stroke:none;stroke-width:0.26458332"
         id="path905"
         inkscape:connector-curvature="0" />
      <path
         d="m 214.24222,117.7448 h -0.77721 v -0.51263 q -0.39274,0.31006 -0.75241,0.47542 -0.35967,0.16536 -0.79375,0.16536 -0.7276,0 -1.13275,-0.44235 -0.40514,-0.44648 -0.40514,-1.30638 v -2.99723 h 0.77722 v 2.6293 q 0,0.3514 0.0331,0.60358 0.0331,0.24805 0.14056,0.42581 0.11162,0.1819 0.28939,0.26459 0.17776,0.0827 0.51676,0.0827 0.30179,0 0.65732,-0.1571 0.35967,-0.15709 0.66973,-0.40101 v -3.44785 h 0.77721 z"
         style="font-style:normal;font-weight:normal;font-size:8.46666622px;line-height:1.25;font-family:sans-serif;letter-spacing:0px;word-spacing:0px;fill:#000000;fill-opacity:1;stroke:none;stroke-width:0.26458332"
         id="path907"
         inkscape:connector-curvature="0" />
      <path
         d="m 219.36026,117.7448 h -0.77308 v -0.49196 q -0.10335,0.0703 -0.28112,0.19843 -0.17363,0.12403 -0.339,0.19844 -0.1943,0.0951 -0.44648,0.1571 -0.25218,0.0661 -0.59118,0.0661 -0.62425,0 -1.05833,-0.41341 -0.43409,-0.41341 -0.43409,-1.0542 0,-0.52503 0.22325,-0.84749 0.22737,-0.32659 0.64492,-0.51263 0.42168,-0.18604 1.01286,-0.25218 0.59117,-0.0662 1.26917,-0.0992 v -0.11989 q 0,-0.26458 -0.0951,-0.43822 -0.0909,-0.17363 -0.26458,-0.27285 -0.16536,-0.0951 -0.39687,-0.12815 -0.23151,-0.0331 -0.4837,-0.0331 -0.30592,0 -0.68212,0.0827 -0.37621,0.0785 -0.77722,0.23151 h -0.0413 v -0.78962 q 0.22738,-0.062 0.65733,-0.13643 0.42994,-0.0744 0.84749,-0.0744 0.48782,0 0.84749,0.0827 0.3638,0.0785 0.62839,0.27285 0.26045,0.19017 0.39687,0.49196 0.13643,0.30179 0.13643,0.74828 z m -0.77308,-1.13688 v -1.28571 q -0.35553,0.0207 -0.83923,0.062 -0.47955,0.0413 -0.76067,0.11989 -0.33487,0.0951 -0.54157,0.29765 -0.20671,0.19844 -0.20671,0.54984 0,0.39688 0.23978,0.59945 0.23978,0.19843 0.73174,0.19843 0.40928,0 0.74827,-0.15709 0.339,-0.16123 0.62839,-0.38447 z"
         style="font-style:normal;font-weight:normal;font-size:8.46666622px;line-height:1.25;font-family:sans-serif;letter-spacing:0px;word-spacing:0px;fill:#000000;fill-opacity:1;stroke:none;stroke-width:0.26458332"
         id="path909"
         inkscape:connector-curvature="0" />
      <path
         d="m 221.65056,117.7448 h -0.77722 v -6.43269 h 0.77722 z"
         style="font-style:normal;font-weight:normal;font-size:8.46666622px;line-height:1.25;font-family:sans-serif;letter-spacing:0px;word-spacing:0px;fill:#000000;fill-opacity:1;stroke:none;stroke-width:0.26458332"
         id="path911"
         inkscape:connector-curvature="0" />
      <path
         d="m 226.94222,119.44805 h -0.77721 v -2.22415 q -0.35967,0.31006 -0.7152,0.46302 -0.35553,0.14883 -0.76895,0.14883 -0.82268,0 -1.31464,-0.63252 -0.48783,-0.63666 -0.48783,-1.75287 0,-0.59531 0.1695,-1.05006 0.17363,-0.45889 0.45475,-0.76895 0.27285,-0.30179 0.64079,-0.46715 0.36794,-0.16537 0.77721,-0.16537 0.37207,0 0.65733,0.0827 0.28938,0.0827 0.58704,0.24391 l 0.0496,-0.19844 h 0.7276 z m -0.77721,-2.87734 v -2.61276 q -0.32246,-0.1447 -0.57051,-0.20257 -0.24804,-0.0579 -0.53743,-0.0579 -0.67386,0 -1.02526,0.45889 -0.3514,0.45475 -0.3514,1.25677 0,0.81028 0.28112,1.2485 0.28525,0.43408 0.89297,0.43408 0.33899,0 0.67799,-0.14469 0.339,-0.14883 0.63252,-0.38034 z"
         style="font-style:normal;font-weight:normal;font-size:8.46666622px;line-height:1.25;font-family:sans-serif;letter-spacing:0px;word-spacing:0px;fill:#000000;fill-opacity:1;stroke:none;stroke-width:0.26458332"
         id="path913"
         inkscape:connector-curvature="0" />
      <path
         d="m 232.30004,117.7448 h -0.77722 v -0.51263 q -0.39274,0.31006 -0.75241,0.47542 -0.35966,0.16536 -0.79375,0.16536 -0.7276,0 -1.13274,-0.44235 -0.40515,-0.44648 -0.40515,-1.30638 v -2.99723 h 0.77722 v 2.6293 q 0,0.3514 0.0331,0.60358 0.0331,0.24805 0.14056,0.42581 0.11162,0.1819 0.28939,0.26459 0.17776,0.0827 0.51676,0.0827 0.30179,0 0.65733,-0.1571 0.35966,-0.15709 0.66972,-0.40101 v -3.44785 h 0.77722 z"
         style="font-style:normal;font-weight:normal;font-size:8.46666622px;line-height:1.25;font-family:sans-serif;letter-spacing:0px;word-spacing:0px;fill:#000000;fill-opacity:1;stroke:none;stroke-width:0.26458332"
         id="path915"
         inkscape:connector-curvature="0" />
      <path
         d="m 234.66475,112.35391 h -0.87643 v -0.80615 h 0.87643 z m -0.0496,5.39089 h -0.77721 v -4.61781 h 0.77721 z"
         style="font-style:normal;font-weight:normal;font-size:8.46666622px;line-height:1.25;font-family:sans-serif;letter-spacing:0px;word-spacing:0px;fill:#000000;fill-opacity:1;stroke:none;stroke-width:0.26458332"
         id="path917"
         inkscape:connector-curvature="0" />
      <path
         d="m 240.0267,115.51651 h -3.40238 q 0,0.42581 0.12816,0.74414 0.12816,0.31419 0.3514,0.51676 0.21497,0.19844 0.50849,0.29766 0.29766,0.0992 0.65319,0.0992 0.47129,0 0.94672,-0.18604 0.47955,-0.19017 0.68212,-0.37207 h 0.0414 v 0.8475 q -0.39275,0.16536 -0.80202,0.27698 -0.40928,0.11162 -0.8599,0.11162 -1.14928,0 -1.7942,-0.62011 -0.64493,-0.62425 -0.64493,-1.7694 0,-1.13275 0.61599,-1.79834 0.62011,-0.6656 1.62884,-0.6656 0.93431,0 1.43867,0.54571 0.5085,0.5457 0.5085,1.55029 z m -0.75655,-0.59531 q -0.004,-0.61185 -0.31006,-0.94672 -0.30179,-0.33486 -0.9219,-0.33486 -0.62425,0 -0.99632,0.36794 -0.36794,0.36793 -0.41755,0.91364 z"
         style="font-style:normal;font-weight:normal;font-size:8.46666622px;line-height:1.25;font-family:sans-serif;letter-spacing:0px;word-spacing:0px;fill:#000000;fill-opacity:1;stroke:none;stroke-width:0.26458332"
         id="path919"
         inkscape:connector-curvature="0" />
      <path
         d="m 244.0864,113.97448 h -0.0413 q -0.17364,-0.0413 -0.339,-0.0579 -0.16123,-0.0207 -0.38447,-0.0207 -0.35967,0 -0.69453,0.16123 -0.33487,0.15709 -0.64493,0.40927 v 3.27836 h -0.77721 v -4.61781 h 0.77721 v 0.68213 q 0.46302,-0.37207 0.81442,-0.52503 0.35554,-0.1571 0.72347,-0.1571 0.20258,0 0.29353,0.0124 0.091,0.008 0.27285,0.0372 z"
         style="font-style:normal;font-weight:normal;font-size:8.46666622px;line-height:1.25;font-family:sans-serif;letter-spacing:0px;word-spacing:0px;fill:#000000;fill-opacity:1;stroke:none;stroke-width:0.26458332"
         id="path921"
         inkscape:connector-curvature="0" />
      <path
         d="m 251.73864,115.43796 q 0,1.12861 -0.57877,1.7818 -0.57878,0.65319 -1.5503,0.65319 -0.97978,0 -1.55856,-0.65319 -0.57464,-0.65319 -0.57464,-1.7818 0,-1.12861 0.57464,-1.7818 0.57878,-0.65733 1.55856,-0.65733 0.97152,0 1.5503,0.65733 0.57877,0.65319 0.57877,1.7818 z m -0.80202,0 q 0,-0.8971 -0.3514,-1.33118 -0.35139,-0.43822 -0.97565,-0.43822 -0.63252,0 -0.98392,0.43822 -0.34726,0.43408 -0.34726,1.33118 0,0.86816 0.3514,1.31878 0.3514,0.44649 0.97978,0.44649 0.62012,0 0.97152,-0.44235 0.35553,-0.44649 0.35553,-1.32292 z"
         style="font-style:normal;font-weight:normal;font-size:8.46666622px;line-height:1.25;font-family:sans-serif;letter-spacing:0px;word-spacing:0px;fill:#000000;fill-opacity:1;stroke:none;stroke-width:0.26458332"
         id="path923"
         inkscape:connector-curvature="0" />
      <path
         d="m 255.34359,117.70346 q -0.21911,0.0579 -0.47956,0.0951 -0.25631,0.0372 -0.45888,0.0372 -0.70694,0 -1.07487,-0.38034 -0.36794,-0.38034 -0.36794,-1.21956 v -2.45567 h -0.52503 V 113.127 h 0.52503 v -1.32705 h 0.77721 v 1.32705 h 1.60404 v 0.65319 h -1.60404 v 2.10427 q 0,0.3638 0.0165,0.5705 0.0165,0.20257 0.11575,0.38034 0.091,0.16537 0.24805,0.24391 0.16123,0.0744 0.48783,0.0744 0.19017,0 0.39687,-0.0538 0.20671,-0.0579 0.29766,-0.0951 h 0.0413 z"
         style="font-style:normal;font-weight:normal;font-size:8.46666622px;line-height:1.25;font-family:sans-serif;letter-spacing:0px;word-spacing:0px;fill:#000000;fill-opacity:1;stroke:none;stroke-width:0.26458332"
         id="path925"
         inkscape:connector-curvature="0" />
      <path
         d="m 259.16765,113.97448 h -0.0413 q -0.17364,-0.0413 -0.339,-0.0579 -0.16123,-0.0207 -0.38447,-0.0207 -0.35967,0 -0.69454,0.16123 -0.33486,0.15709 -0.64492,0.40927 v 3.27836 h -0.77721 v -4.61781 h 0.77721 v 0.68213 q 0.46302,-0.37207 0.81442,-0.52503 0.35554,-0.1571 0.72347,-0.1571 0.20258,0 0.29353,0.0124 0.091,0.008 0.27285,0.0372 z"
         style="font-style:normal;font-weight:normal;font-size:8.46666622px;line-height:1.25;font-family:sans-serif;letter-spacing:0px;word-spacing:0px;fill:#000000;fill-opacity:1;stroke:none;stroke-width:0.26458332"
         id="path927"
         inkscape:connector-curvature="0" />
      <path
         d="m 263.34723,117.7448 h -0.77308 v -0.49196 q -0.10335,0.0703 -0.28112,0.19843 -0.17363,0.12403 -0.33899,0.19844 -0.19431,0.0951 -0.44649,0.1571 -0.25218,0.0661 -0.59118,0.0661 -0.62425,0 -1.05833,-0.41341 -0.43408,-0.41341 -0.43408,-1.0542 0,-0.52503 0.22324,-0.84749 0.22738,-0.32659 0.64492,-0.51263 0.42168,-0.18604 1.01286,-0.25218 0.59118,-0.0662 1.26917,-0.0992 v -0.11989 q 0,-0.26458 -0.0951,-0.43822 -0.0909,-0.17363 -0.26458,-0.27285 -0.16537,-0.0951 -0.39688,-0.12815 -0.23151,-0.0331 -0.48369,-0.0331 -0.30592,0 -0.68213,0.0827 -0.3762,0.0785 -0.77721,0.23151 h -0.0413 v -0.78962 q 0.22737,-0.062 0.65732,-0.13643 0.42995,-0.0744 0.84749,-0.0744 0.48783,0 0.8475,0.0827 0.3638,0.0785 0.62838,0.27285 0.26045,0.19017 0.39688,0.49196 0.13642,0.30179 0.13642,0.74828 z m -0.77308,-1.13688 v -1.28571 q -0.35553,0.0207 -0.83922,0.062 -0.47956,0.0413 -0.76068,0.11989 -0.33486,0.0951 -0.54157,0.29765 -0.2067,0.19844 -0.2067,0.54984 0,0.39688 0.23978,0.59945 0.23977,0.19843 0.73173,0.19843 0.40928,0 0.74828,-0.15709 0.339,-0.16123 0.62838,-0.38447 z"
         style="font-style:normal;font-weight:normal;font-size:8.46666622px;line-height:1.25;font-family:sans-serif;letter-spacing:0px;word-spacing:0px;fill:#000000;fill-opacity:1;stroke:none;stroke-width:0.26458332"
         id="path929"
         inkscape:connector-curvature="0" />
      <path
         d="m 270.2264,117.70346 q -0.21911,0.0579 -0.47956,0.0951 -0.25631,0.0372 -0.45888,0.0372 -0.70694,0 -1.07487,-0.38034 -0.36794,-0.38034 -0.36794,-1.21956 v -2.45567 h -0.52503 V 113.127 h 0.52503 v -1.32705 h 0.77722 v 1.32705 h 1.60403 v 0.65319 h -1.60403 v 2.10427 q 0,0.3638 0.0165,0.5705 0.0165,0.20257 0.11576,0.38034 0.091,0.16537 0.24804,0.24391 0.16123,0.0744 0.48783,0.0744 0.19017,0 0.39687,-0.0538 0.20671,-0.0579 0.29766,-0.0951 h 0.0413 z"
         style="font-style:normal;font-weight:normal;font-size:8.46666622px;line-height:1.25;font-family:sans-serif;letter-spacing:0px;word-spacing:0px;fill:#000000;fill-opacity:1;stroke:none;stroke-width:0.26458332"
         id="path931"
         inkscape:connector-curvature="0" />
      <path
         d="M 275.03438,115.51651 H 271.632 q 0,0.42581 0.12816,0.74414 0.12815,0.31419 0.3514,0.51676 0.21497,0.19844 0.50849,0.29766 0.29766,0.0992 0.65319,0.0992 0.47129,0 0.94671,-0.18604 0.47956,-0.19017 0.68213,-0.37207 h 0.0413 v 0.8475 q -0.39274,0.16536 -0.80201,0.27698 -0.40928,0.11162 -0.8599,0.11162 -1.14928,0 -1.7942,-0.62011 -0.64493,-0.62425 -0.64493,-1.7694 0,-1.13275 0.61599,-1.79834 0.62011,-0.6656 1.62884,-0.6656 0.93431,0 1.43867,0.54571 0.5085,0.5457 0.5085,1.55029 z m -0.75655,-0.59531 q -0.004,-0.61185 -0.31006,-0.94672 -0.30179,-0.33486 -0.9219,-0.33486 -0.62426,0 -0.99633,0.36794 -0.36793,0.36793 -0.41754,0.91364 z"
         style="font-style:normal;font-weight:normal;font-size:8.46666622px;line-height:1.25;font-family:sans-serif;letter-spacing:0px;word-spacing:0px;fill:#000000;fill-opacity:1;stroke:none;stroke-width:0.26458332"
         id="path933"
         inkscape:connector-curvature="0" />
      <path
         d="m 279.62737,117.45541 q -0.3886,0.18603 -0.74,0.28939 -0.34727,0.10335 -0.74001,0.10335 -0.50023,0 -0.91777,-0.14469 -0.41755,-0.14883 -0.7152,-0.44649 -0.30179,-0.29765 -0.46716,-0.75241 -0.16536,-0.45475 -0.16536,-1.06246 0,-1.13275 0.62011,-1.77767 0.62425,-0.64493 1.64538,-0.64493 0.39688,0 0.77721,0.11163 0.38448,0.11162 0.7028,0.27285 v 0.86403 h -0.0413 q -0.35553,-0.27699 -0.73587,-0.42582 -0.3762,-0.14883 -0.73587,-0.14883 -0.66146,0 -1.04593,0.44649 -0.38034,0.44235 -0.38034,1.30225 0,0.83509 0.37207,1.2857 0.3762,0.44649 1.0542,0.44649 0.23564,0 0.47956,-0.062 0.24391,-0.062 0.43821,-0.16123 0.1695,-0.0868 0.31833,-0.1819 0.14883,-0.0992 0.23564,-0.1695 h 0.0413 z"
         style="font-style:normal;font-weight:normal;font-size:8.46666622px;line-height:1.25;font-family:sans-serif;letter-spacing:0px;word-spacing:0px;fill:#000000;fill-opacity:1;stroke:none;stroke-width:0.26458332"
         id="path935"
         inkscape:connector-curvature="0" />
      <path
         d="m 281.41331,117.7448 h -0.77721 v -6.43269 h 0.77721 z"
         style="font-style:normal;font-weight:normal;font-size:8.46666622px;line-height:1.25;font-family:sans-serif;letter-spacing:0px;word-spacing:0px;fill:#000000;fill-opacity:1;stroke:none;stroke-width:0.26458332"
         id="path937"
         inkscape:connector-curvature="0" />
      <path
         d="m 286.54789,117.7448 h -0.77308 v -0.49196 q -0.10336,0.0703 -0.28112,0.19843 -0.17364,0.12403 -0.339,0.19844 -0.1943,0.0951 -0.44648,0.1571 -0.25219,0.0661 -0.59118,0.0661 -0.62425,0 -1.05834,-0.41341 -0.43408,-0.41341 -0.43408,-1.0542 0,-0.52503 0.22324,-0.84749 0.22738,-0.32659 0.64493,-0.51263 0.42168,-0.18604 1.01285,-0.25218 0.59118,-0.0662 1.26918,-0.0992 v -0.11989 q 0,-0.26458 -0.0951,-0.43822 -0.0909,-0.17363 -0.26458,-0.27285 -0.16537,-0.0951 -0.39688,-0.12815 -0.23151,-0.0331 -0.48369,-0.0331 -0.30592,0 -0.68213,0.0827 -0.3762,0.0785 -0.77721,0.23151 h -0.0413 v -0.78962 q 0.22738,-0.062 0.65732,-0.13643 0.42995,-0.0744 0.8475,-0.0744 0.48782,0 0.84749,0.0827 0.3638,0.0785 0.62839,0.27285 0.26044,0.19017 0.39687,0.49196 0.13643,0.30179 0.13643,0.74828 z m -0.77308,-1.13688 v -1.28571 q -0.35554,0.0207 -0.83923,0.062 -0.47956,0.0413 -0.76068,0.11989 -0.33486,0.0951 -0.54156,0.29765 -0.20671,0.19844 -0.20671,0.54984 0,0.39688 0.23978,0.59945 0.23978,0.19843 0.73174,0.19843 0.40927,0 0.74827,-0.15709 0.339,-0.16123 0.62839,-0.38447 z"
         style="font-style:normal;font-weight:normal;font-size:8.46666622px;line-height:1.25;font-family:sans-serif;letter-spacing:0px;word-spacing:0px;fill:#000000;fill-opacity:1;stroke:none;stroke-width:0.26458332"
         id="path939"
         inkscape:connector-curvature="0" />
      <path
         d="m 208.26843,126.71935 q 0,0.56224 -0.16123,1.02939 -0.16123,0.46302 -0.45475,0.78548 -0.27285,0.30593 -0.64492,0.47543 -0.36794,0.16536 -0.78135,0.16536 -0.35967,0 -0.65319,-0.0785 -0.28939,-0.0786 -0.59118,-0.24391 v 1.93477 h -0.77721 v -6.32107 h 0.77721 v 0.4837 q 0.31006,-0.26045 0.69453,-0.43409 0.38861,-0.17776 0.82683,-0.17776 0.83509,0 1.29811,0.63252 0.46715,0.62838 0.46715,1.74873 z m -0.80201,0.0207 q 0,-0.83509 -0.28526,-1.2485 -0.28525,-0.41342 -0.87643,-0.41342 -0.33486,0 -0.67386,0.1447 -0.339,0.14469 -0.64906,0.38034 v 2.61689 q 0.33073,0.14883 0.56638,0.20257 0.23978,0.0538 0.54157,0.0538 0.64905,0 1.01285,-0.43822 0.36381,-0.43822 0.36381,-1.29811 z"
         style="font-style:normal;font-weight:normal;font-size:8.46666622px;line-height:1.25;font-family:sans-serif;letter-spacing:0px;word-spacing:0px;fill:#000000;fill-opacity:1;stroke:none;stroke-width:0.26458332"
         id="path872"
         inkscape:connector-curvature="0" />
      <path
         d="m 213.06814,129.08406 h -0.77308 v -0.49196 q -0.10335,0.0703 -0.28112,0.19844 -0.17363,0.12402 -0.339,0.19844 -0.1943,0.0951 -0.44648,0.15709 -0.25218,0.0661 -0.59118,0.0661 -0.62425,0 -1.05833,-0.41341 -0.43408,-0.41341 -0.43408,-1.0542 0,-0.52503 0.22324,-0.8475 0.22737,-0.32659 0.64492,-0.51263 0.42168,-0.18603 1.01286,-0.25218 0.59118,-0.0661 1.26917,-0.0992 v -0.11989 q 0,-0.26458 -0.0951,-0.43821 -0.091,-0.17363 -0.26459,-0.27285 -0.16536,-0.0951 -0.39687,-0.12816 -0.23151,-0.0331 -0.48369,-0.0331 -0.30593,0 -0.68213,0.0827 -0.37621,0.0785 -0.77722,0.23151 h -0.0413 v -0.78962 q 0.22738,-0.062 0.65733,-0.13642 0.42995,-0.0744 0.84749,-0.0744 0.48783,0 0.84749,0.0827 0.36381,0.0785 0.62839,0.27285 0.26045,0.19017 0.39688,0.49196 0.13642,0.30179 0.13642,0.74827 z m -0.77308,-1.13688 v -1.28571 q -0.35553,0.0207 -0.83922,0.062 -0.47956,0.0413 -0.76068,0.11989 -0.33486,0.0951 -0.54157,0.29766 -0.20671,0.19843 -0.20671,0.54983 0,0.39688 0.23978,0.59945 0.23978,0.19844 0.73174,0.19844 0.40928,0 0.74828,-0.1571 0.33899,-0.16123 0.62838,-0.38447 z"
         style="font-style:normal;font-weight:normal;font-size:8.46666622px;line-height:1.25;font-family:sans-serif;letter-spacing:0px;word-spacing:0px;fill:#000000;fill-opacity:1;stroke:none;stroke-width:0.26458332"
         id="path874"
         inkscape:connector-curvature="0" />
      <path
         d="m 217.45444,125.31375 h -0.0413 q -0.17364,-0.0413 -0.339,-0.0579 -0.16123,-0.0207 -0.38447,-0.0207 -0.35967,0 -0.69454,0.16123 -0.33486,0.1571 -0.64492,0.40928 v 3.27835 H 214.573 v -4.61781 h 0.77721 v 0.68213 q 0.46302,-0.37207 0.81442,-0.52503 0.35554,-0.1571 0.72347,-0.1571 0.20257,0 0.29352,0.0124 0.091,0.008 0.27286,0.0372 z"
         style="font-style:normal;font-weight:normal;font-size:8.46666622px;line-height:1.25;font-family:sans-serif;letter-spacing:0px;word-spacing:0px;fill:#000000;fill-opacity:1;stroke:none;stroke-width:0.26458332"
         id="path876"
         inkscape:connector-curvature="0" />
      <path
         d="m 221.63403,129.08406 h -0.77308 v -0.49196 q -0.10336,0.0703 -0.28112,0.19844 -0.17364,0.12402 -0.339,0.19844 -0.1943,0.0951 -0.44648,0.15709 -0.25219,0.0661 -0.59118,0.0661 -0.62425,0 -1.05834,-0.41341 -0.43408,-0.41341 -0.43408,-1.0542 0,-0.52503 0.22324,-0.8475 0.22738,-0.32659 0.64493,-0.51263 0.42168,-0.18603 1.01285,-0.25218 0.59118,-0.0661 1.26918,-0.0992 v -0.11989 q 0,-0.26458 -0.0951,-0.43821 -0.0909,-0.17363 -0.26458,-0.27285 -0.16537,-0.0951 -0.39688,-0.12816 -0.23151,-0.0331 -0.48369,-0.0331 -0.30592,0 -0.68213,0.0827 -0.3762,0.0785 -0.77721,0.23151 h -0.0413 v -0.78962 q 0.22738,-0.062 0.65732,-0.13642 0.42995,-0.0744 0.8475,-0.0744 0.48782,0 0.84749,0.0827 0.3638,0.0785 0.62839,0.27285 0.26044,0.19017 0.39687,0.49196 0.13643,0.30179 0.13643,0.74827 z m -0.77308,-1.13688 v -1.28571 q -0.35554,0.0207 -0.83923,0.062 -0.47956,0.0413 -0.76068,0.11989 -0.33486,0.0951 -0.54156,0.29766 -0.20671,0.19843 -0.20671,0.54983 0,0.39688 0.23978,0.59945 0.23978,0.19844 0.73174,0.19844 0.40927,0 0.74827,-0.1571 0.339,-0.16123 0.62839,-0.38447 z"
         style="font-style:normal;font-weight:normal;font-size:8.46666622px;line-height:1.25;font-family:sans-serif;letter-spacing:0px;word-spacing:0px;fill:#000000;fill-opacity:1;stroke:none;stroke-width:0.26458332"
         id="path878"
         inkscape:connector-curvature="0" />
      <path
         d="m 230.10896,124.46625 -1.86862,4.61781 h -0.78135 l -1.85622,-4.61781 h 0.84336 l 1.43041,3.67523 1.418,-3.67523 z"
         style="font-style:normal;font-weight:normal;font-size:8.46666622px;line-height:1.25;font-family:sans-serif;letter-spacing:0px;word-spacing:0px;fill:#000000;fill-opacity:1;stroke:none;stroke-width:0.26458332"
         id="path880"
         inkscape:connector-curvature="0" />
      <path
         d="m 234.99548,126.77722 q 0,1.12862 -0.57877,1.78181 -0.57878,0.65319 -1.5503,0.65319 -0.97978,0 -1.55856,-0.65319 -0.57464,-0.65319 -0.57464,-1.78181 0,-1.12861 0.57464,-1.7818 0.57878,-0.65732 1.55856,-0.65732 0.97152,0 1.5503,0.65732 0.57877,0.65319 0.57877,1.7818 z m -0.80202,0 q 0,-0.8971 -0.3514,-1.33118 -0.3514,-0.43822 -0.97565,-0.43822 -0.63252,0 -0.98392,0.43822 -0.34726,0.43408 -0.34726,1.33118 0,0.86817 0.3514,1.31879 0.3514,0.44648 0.97978,0.44648 0.62012,0 0.97152,-0.44235 0.35553,-0.44648 0.35553,-1.32292 z"
         style="font-style:normal;font-weight:normal;font-size:8.46666622px;line-height:1.25;font-family:sans-serif;letter-spacing:0px;word-spacing:0px;fill:#000000;fill-opacity:1;stroke:none;stroke-width:0.26458332"
         id="path882"
         inkscape:connector-curvature="0" />
      <path
         d="m 236.98813,129.08406 h -0.77722 v -6.43268 h 0.77722 z"
         style="font-style:normal;font-weight:normal;font-size:8.46666622px;line-height:1.25;font-family:sans-serif;letter-spacing:0px;word-spacing:0px;fill:#000000;fill-opacity:1;stroke:none;stroke-width:0.26458332"
         id="path884"
         inkscape:connector-curvature="0" />
      <path
         d="m 242.52784,124.46625 -1.86862,4.61781 h -0.78135 l -1.85621,-4.61781 h 0.84335 l 1.43041,3.67523 1.418,-3.67523 z"
         style="font-style:normal;font-weight:normal;font-size:8.46666622px;line-height:1.25;font-family:sans-serif;letter-spacing:0px;word-spacing:0px;fill:#000000;fill-opacity:1;stroke:none;stroke-width:0.26458332"
         id="path886"
         inkscape:connector-curvature="0" />
      <path
         d="m 247.34408,126.85577 h -3.40237 q 0,0.42582 0.12815,0.74414 0.12816,0.3142 0.3514,0.51677 0.21498,0.19844 0.5085,0.29765 0.29766,0.0992 0.65319,0.0992 0.47129,0 0.94671,-0.18603 0.47956,-0.19017 0.68213,-0.37207 h 0.0413 v 0.84749 q -0.39274,0.16537 -0.80202,0.27699 -0.40927,0.11162 -0.85989,0.11162 -1.14929,0 -1.79421,-0.62012 -0.64492,-0.62425 -0.64492,-1.7694 0,-1.13275 0.61598,-1.79834 0.62012,-0.66559 1.62885,-0.66559 0.9343,0 1.43867,0.5457 0.50849,0.5457 0.50849,1.55029 z m -0.75654,-0.59531 q -0.004,-0.61185 -0.31006,-0.94671 -0.30179,-0.33486 -0.92191,-0.33486 -0.62425,0 -0.99632,0.36793 -0.36793,0.36794 -0.41754,0.91364 z"
         style="font-style:normal;font-weight:normal;font-size:8.46666622px;line-height:1.25;font-family:sans-serif;letter-spacing:0px;word-spacing:0px;fill:#000000;fill-opacity:1;stroke:none;stroke-width:0.26458332"
         id="path888"
         inkscape:connector-curvature="0" />
      <path
         d="m 251.40378,125.31375 h -0.0413 q -0.17363,-0.0413 -0.33899,-0.0579 -0.16123,-0.0207 -0.38448,-0.0207 -0.35966,0 -0.69453,0.16123 -0.33486,0.1571 -0.64492,0.40928 v 3.27835 h -0.77721 v -4.61781 h 0.77721 v 0.68213 q 0.46302,-0.37207 0.81442,-0.52503 0.35553,-0.1571 0.72347,-0.1571 0.20257,0 0.29352,0.0124 0.0909,0.008 0.27285,0.0372 z"
         style="font-style:normal;font-weight:normal;font-size:8.46666622px;line-height:1.25;font-family:sans-serif;letter-spacing:0px;word-spacing:0px;fill:#000000;fill-opacity:1;stroke:none;stroke-width:0.26458332"
         id="path890"
         inkscape:connector-curvature="0" />
      <path
         d="m 258.70876,129.08406 h -0.77308 v -0.49196 q -0.10335,0.0703 -0.28112,0.19844 -0.17363,0.12402 -0.33899,0.19844 -0.19431,0.0951 -0.44649,0.15709 -0.25218,0.0661 -0.59118,0.0661 -0.62425,0 -1.05833,-0.41341 -0.43408,-0.41341 -0.43408,-1.0542 0,-0.52503 0.22324,-0.8475 0.22738,-0.32659 0.64492,-0.51263 0.42168,-0.18603 1.01286,-0.25218 0.59118,-0.0661 1.26917,-0.0992 v -0.11989 q 0,-0.26458 -0.0951,-0.43821 -0.091,-0.17363 -0.26458,-0.27285 -0.16537,-0.0951 -0.39688,-0.12816 -0.23151,-0.0331 -0.48369,-0.0331 -0.30592,0 -0.68213,0.0827 -0.3762,0.0785 -0.77721,0.23151 h -0.0413 v -0.78962 q 0.22737,-0.062 0.65732,-0.13642 0.42995,-0.0744 0.84749,-0.0744 0.48783,0 0.8475,0.0827 0.3638,0.0785 0.62838,0.27285 0.26045,0.19017 0.39688,0.49196 0.13642,0.30179 0.13642,0.74827 z m -0.77308,-1.13688 v -1.28571 q -0.35553,0.0207 -0.83922,0.062 -0.47956,0.0413 -0.76068,0.11989 -0.33486,0.0951 -0.54157,0.29766 -0.2067,0.19843 -0.2067,0.54983 0,0.39688 0.23978,0.59945 0.23977,0.19844 0.73173,0.19844 0.40928,0 0.74828,-0.1571 0.339,-0.16123 0.62838,-0.38447 z"
         style="font-style:normal;font-weight:normal;font-size:8.46666622px;line-height:1.25;font-family:sans-serif;letter-spacing:0px;word-spacing:0px;fill:#000000;fill-opacity:1;stroke:none;stroke-width:0.26458332"
         id="path892"
         inkscape:connector-curvature="0" />
      <path
         d="m 260.99906,129.08406 h -0.77721 v -6.43268 h 0.77721 z"
         style="font-style:normal;font-weight:normal;font-size:8.46666622px;line-height:1.25;font-family:sans-serif;letter-spacing:0px;word-spacing:0px;fill:#000000;fill-opacity:1;stroke:none;stroke-width:0.26458332"
         id="path894"
         inkscape:connector-curvature="0" />
      <path
         d="m 272.26039,129.08406 h -0.77721 v -2.6293 q 0,-0.29765 -0.0289,-0.57464 -0.0248,-0.27698 -0.11162,-0.44235 -0.0951,-0.17777 -0.27285,-0.26872 -0.17777,-0.0909 -0.51263,-0.0909 -0.3266,0 -0.65319,0.16537 -0.3266,0.16123 -0.65319,0.41341 0.0124,0.0951 0.0207,0.22324 0.008,0.12403 0.008,0.24805 v 2.95589 h -0.77721 v -2.6293 q 0,-0.30592 -0.0289,-0.57877 -0.0248,-0.27699 -0.11162,-0.44235 -0.0951,-0.17777 -0.27285,-0.26459 -0.17777,-0.0909 -0.51263,-0.0909 -0.31833,0 -0.64079,0.1571 -0.31833,0.1571 -0.63665,0.40101 v 3.44785 h -0.77722 v -4.61781 h 0.77722 v 0.51264 q 0.3638,-0.3018 0.72347,-0.47129 0.3638,-0.1695 0.77308,-0.1695 0.47129,0 0.79788,0.19843 0.33073,0.19844 0.49196,0.54984 0.47129,-0.39687 0.8599,-0.57051 0.3886,-0.17776 0.83095,-0.17776 0.76068,0 1.12035,0.46302 0.3638,0.45888 0.3638,1.28571 z"
         style="font-style:normal;font-weight:normal;font-size:8.46666622px;line-height:1.25;font-family:sans-serif;letter-spacing:0px;word-spacing:0px;fill:#000000;fill-opacity:1;stroke:none;stroke-width:0.26458332"
         id="path896"
         inkscape:connector-curvature="0" />
      <path
         d="m 277.62233,126.85577 h -3.40237 q 0,0.42582 0.12816,0.74414 0.12815,0.3142 0.3514,0.51677 0.21497,0.19844 0.50849,0.29765 0.29766,0.0992 0.65319,0.0992 0.47129,0 0.94671,-0.18603 0.47956,-0.19017 0.68213,-0.37207 h 0.0413 v 0.84749 q -0.39274,0.16537 -0.80201,0.27699 -0.40928,0.11162 -0.8599,0.11162 -1.14928,0 -1.79421,-0.62012 -0.64492,-0.62425 -0.64492,-1.7694 0,-1.13275 0.61599,-1.79834 0.62011,-0.66559 1.62884,-0.66559 0.93431,0 1.43867,0.5457 0.50849,0.5457 0.50849,1.55029 z m -0.75654,-0.59531 q -0.004,-0.61185 -0.31006,-0.94671 -0.30179,-0.33486 -0.9219,-0.33486 -0.62426,0 -0.99633,0.36793 -0.36793,0.36794 -0.41754,0.91364 z"
         style="font-style:normal;font-weight:normal;font-size:8.46666622px;line-height:1.25;font-family:sans-serif;letter-spacing:0px;word-spacing:0px;fill:#000000;fill-opacity:1;stroke:none;stroke-width:0.26458332"
         id="path898"
         inkscape:connector-curvature="0" />
      <path
         d="m 282.66183,129.08406 h -0.77722 v -2.6293 q 0,-0.31832 -0.0372,-0.59531 -0.0372,-0.28112 -0.13642,-0.43821 -0.10335,-0.17364 -0.29766,-0.25632 -0.1943,-0.0868 -0.50436,-0.0868 -0.31833,0 -0.66559,0.1571 -0.34727,0.1571 -0.66559,0.40101 v 3.44785 h -0.77722 v -4.61781 h 0.77722 v 0.51264 q 0.3638,-0.3018 0.7524,-0.47129 0.38861,-0.1695 0.79789,-0.1695 0.74827,0 1.14101,0.45062 0.39275,0.45061 0.39275,1.29811 z"
         style="font-style:normal;font-weight:normal;font-size:8.46666622px;line-height:1.25;font-family:sans-serif;letter-spacing:0px;word-spacing:0px;fill:#000000;fill-opacity:1;stroke:none;stroke-width:0.26458332"
         id="path900"
         inkscape:connector-curvature="0" />
      <path
         d="m 287.98656,129.08406 h -0.77721 v -0.51263 q -0.39274,0.31006 -0.75241,0.47542 -0.35967,0.16537 -0.79375,0.16537 -0.7276,0 -1.13275,-0.44235 -0.40514,-0.44649 -0.40514,-1.30638 v -2.99724 h 0.77721 v 2.6293 q 0,0.3514 0.0331,0.60358 0.0331,0.24805 0.14056,0.42582 0.11162,0.1819 0.28938,0.26458 0.17777,0.0827 0.51677,0.0827 0.30179,0 0.65732,-0.15709 0.35967,-0.1571 0.66973,-0.40101 v -3.44786 h 0.77721 z m -0.68626,-6.92878 -1.12861,1.54616 h -0.61599 l 0.74001,-1.54616 z"
         style="font-style:normal;font-weight:normal;font-size:8.46666622px;line-height:1.25;font-family:sans-serif;letter-spacing:0px;word-spacing:0px;fill:#000000;fill-opacity:1;stroke:none;stroke-width:0.26458332"
         id="path902"
         inkscape:connector-curvature="0" />
    </g>
  </g>
</svg>
