<?xml version="1.0" encoding="UTF-8" standalone="no"?>
<!-- Created with Inkscape (http://www.inkscape.org/) -->

<svg
   xmlns:dc="http://purl.org/dc/elements/1.1/"
   xmlns:cc="http://creativecommons.org/ns#"
   xmlns:rdf="http://www.w3.org/1999/02/22-rdf-syntax-ns#"
   xmlns:svg="http://www.w3.org/2000/svg"
   xmlns="http://www.w3.org/2000/svg"
   xmlns:sodipodi="http://sodipodi.sourceforge.net/DTD/sodipodi-0.dtd"
   xmlns:inkscape="http://www.inkscape.org/namespaces/inkscape"
   width="170mm"
   height="86mm"
   viewBox="0 0 170 86"
   version="1.1"
   id="svg8"
   inkscape:version="0.92.4 (5da689c313, 2019-01-14)"
   sodipodi:docname="c01-p03-i05.svg">
  <defs
     id="defs2">
    <marker
       inkscape:stockid="TriangleOutM"
       orient="auto"
       refY="0"
       refX="0"
       id="marker1987"
       style="overflow:visible"
       inkscape:isstock="true">
      <path
         id="path1985"
         d="M 5.77,0 -2.88,5 V -5 Z"
         style="fill:#000000;fill-opacity:1;fill-rule:evenodd;stroke:#000000;stroke-width:1.00000003pt;stroke-opacity:1"
         transform="scale(0.4)"
         inkscape:connector-curvature="0" />
    </marker>
    <marker
       inkscape:stockid="Arrow2Lend"
       orient="auto"
       refY="0"
       refX="0"
       id="marker1767"
       style="overflow:visible"
       inkscape:isstock="true">
      <path
         id="path1765"
         style="fill:#000000;fill-opacity:1;fill-rule:evenodd;stroke:#000000;stroke-width:0.625;stroke-linejoin:round;stroke-opacity:1"
         d="M 8.7185878,4.0337352 -2.2072895,0.01601326 8.7185884,-4.0017078 c -1.7454984,2.3720609 -1.7354408,5.6174519 -6e-7,8.035443 z"
         transform="matrix(-1.1,0,0,-1.1,-1.1,0)"
         inkscape:connector-curvature="0" />
    </marker>
    <marker
       inkscape:stockid="Arrow2Lend"
       orient="auto"
       refY="0"
       refX="0"
       id="marker1667"
       style="overflow:visible"
       inkscape:isstock="true">
      <path
         id="path1665"
         style="fill:#000000;fill-opacity:1;fill-rule:evenodd;stroke:#000000;stroke-width:0.625;stroke-linejoin:round;stroke-opacity:1"
         d="M 8.7185878,4.0337352 -2.2072895,0.01601326 8.7185884,-4.0017078 c -1.7454984,2.3720609 -1.7354408,5.6174519 -6e-7,8.035443 z"
         transform="matrix(-1.1,0,0,-1.1,-1.1,0)"
         inkscape:connector-curvature="0" />
    </marker>
    <marker
       inkscape:stockid="Arrow2Mend"
       orient="auto"
       refY="0"
       refX="0"
       id="marker1609"
       style="overflow:visible"
       inkscape:isstock="true">
      <path
         id="path1607"
         style="fill:#000000;fill-opacity:1;fill-rule:evenodd;stroke:#000000;stroke-width:0.625;stroke-linejoin:round;stroke-opacity:1"
         d="M 8.7185878,4.0337352 -2.2072895,0.01601326 8.7185884,-4.0017078 c -1.7454984,2.3720609 -1.7354408,5.6174519 -6e-7,8.035443 z"
         transform="scale(-0.6)"
         inkscape:connector-curvature="0" />
    </marker>
    <marker
       inkscape:stockid="TriangleOutL"
       orient="auto"
       refY="0"
       refX="0"
       id="TriangleOutL"
       style="overflow:visible"
       inkscape:isstock="true">
      <path
         id="path1021"
         d="M 5.77,0 -2.88,5 V -5 Z"
         style="fill:#000000;fill-opacity:1;fill-rule:evenodd;stroke:#000000;stroke-width:1.00000003pt;stroke-opacity:1"
         transform="scale(0.8)"
         inkscape:connector-curvature="0" />
    </marker>
    <marker
       inkscape:stockid="TriangleOutM"
       orient="auto"
       refY="0"
       refX="0"
       id="TriangleOutM"
       style="overflow:visible"
       inkscape:isstock="true">
      <path
         id="path1024"
         d="M 5.77,0 -2.88,5 V -5 Z"
         style="fill:#000000;fill-opacity:1;fill-rule:evenodd;stroke:#000000;stroke-width:1.00000003pt;stroke-opacity:1"
         transform="scale(0.4)"
         inkscape:connector-curvature="0" />
    </marker>
    <marker
       inkscape:stockid="Arrow2Mend"
       orient="auto"
       refY="0"
       refX="0"
       id="marker1229"
       style="overflow:visible"
       inkscape:isstock="true">
      <path
         id="path1227"
         style="fill:#000000;fill-opacity:1;fill-rule:evenodd;stroke:#000000;stroke-width:0.625;stroke-linejoin:round;stroke-opacity:1"
         d="M 8.7185878,4.0337352 -2.2072895,0.01601326 8.7185884,-4.0017078 c -1.7454984,2.3720609 -1.7354408,5.6174519 -6e-7,8.035443 z"
         transform="scale(-0.6)"
         inkscape:connector-curvature="0" />
    </marker>
    <marker
       inkscape:stockid="Arrow2Mend"
       orient="auto"
       refY="0"
       refX="0"
       id="marker1195"
       style="overflow:visible"
       inkscape:isstock="true">
      <path
         id="path1193"
         style="fill:#000000;fill-opacity:1;fill-rule:evenodd;stroke:#000000;stroke-width:0.625;stroke-linejoin:round;stroke-opacity:1"
         d="M 8.7185878,4.0337352 -2.2072895,0.01601326 8.7185884,-4.0017078 c -1.7454984,2.3720609 -1.7354408,5.6174519 -6e-7,8.035443 z"
         transform="scale(-0.6)"
         inkscape:connector-curvature="0" />
    </marker>
    <marker
       inkscape:stockid="Arrow2Lend"
       orient="auto"
       refY="0"
       refX="0"
       id="Arrow2Lend"
       style="overflow:visible"
       inkscape:isstock="true">
      <path
         id="path900"
         style="fill:#000000;fill-opacity:1;fill-rule:evenodd;stroke:#000000;stroke-width:0.625;stroke-linejoin:round;stroke-opacity:1"
         d="M 8.7185878,4.0337352 -2.2072895,0.01601326 8.7185884,-4.0017078 c -1.7454984,2.3720609 -1.7354408,5.6174519 -6e-7,8.035443 z"
         transform="matrix(-1.1,0,0,-1.1,-1.1,0)"
         inkscape:connector-curvature="0" />
    </marker>
    <marker
       inkscape:stockid="Arrow2Mend"
       orient="auto"
       refY="0"
       refX="0"
       id="Arrow2Mend"
       style="overflow:visible"
       inkscape:isstock="true">
      <path
         id="path906"
         style="fill:#000000;fill-opacity:1;fill-rule:evenodd;stroke:#000000;stroke-width:0.625;stroke-linejoin:round;stroke-opacity:1"
         d="M 8.7185878,4.0337352 -2.2072895,0.01601326 8.7185884,-4.0017078 c -1.7454984,2.3720609 -1.7354408,5.6174519 -6e-7,8.035443 z"
         transform="scale(-0.6)"
         inkscape:connector-curvature="0" />
    </marker>
  </defs>
  <sodipodi:namedview
     id="base"
     pagecolor="#ffffff"
     bordercolor="#666666"
     borderopacity="1.0"
     inkscape:pageopacity="0.0"
     inkscape:pageshadow="2"
     inkscape:zoom="1.4"
     inkscape:cx="296.30493"
     inkscape:cy="187.83271"
     inkscape:document-units="mm"
     inkscape:current-layer="layer1"
     showgrid="false"
     showguides="true"
     inkscape:guide-bbox="true"
     inkscape:snap-global="false"
     inkscape:window-width="1920"
     inkscape:window-height="1017"
     inkscape:window-x="-8"
     inkscape:window-y="-8"
     inkscape:window-maximized="1" />
  <metadata
     id="metadata5">
    <rdf:RDF>
      <cc:Work
         rdf:about="">
        <dc:format>image/svg+xml</dc:format>
        <dc:type
           rdf:resource="http://purl.org/dc/dcmitype/StillImage" />
        <dc:title></dc:title>
      </cc:Work>
    </rdf:RDF>
  </metadata>
  <g
     inkscape:label="Capa 1"
     inkscape:groupmode="layer"
     id="layer1"
     transform="translate(0,-211)">
    <g
       id="g1482"
       transform="translate(6.6574297,17.795287)">
      <path
         sodipodi:nodetypes="cccccccc"
         inkscape:connector-curvature="0"
         id="path828"
         d="m 57.550765,277.93024 -8.787947,-35.43526 h 22.910444 l 0.23386,-0.65735 5.326166,0.0118 0.15286,0.64554 h 84.864022 l -9.07143,35.15178"
         style="fill:none;stroke:#000000;stroke-width:0.40000001;stroke-linecap:butt;stroke-linejoin:miter;stroke-miterlimit:4;stroke-dasharray:none;stroke-opacity:1" />
      <path
         sodipodi:nodetypes="ccccccccccccccccc"
         inkscape:connector-curvature="0"
         id="path832"
         d="m 48.708529,242.37805 0.145918,-1.03371 3.92437,-0.0305 0.425223,-4.01599 h -3.732515 l 0.233861,-1.37017 22.369488,0.005 0.133609,0.76036 5.265891,-0.0118 0.332737,-0.75329 83.915749,-0.007 0.29111,1.23923 h -2.78762 l -0.43704,0.38568 0.70871,3.79157 2.67351,0.004 0.11812,1.05894"
         style="fill:none;stroke:#000000;stroke-width:0.40000001;stroke-linecap:butt;stroke-linejoin:miter;stroke-miterlimit:4;stroke-dasharray:none;stroke-opacity:1" />
      <path
         sodipodi:nodetypes="ccccc"
         inkscape:connector-curvature="0"
         id="rect834"
         d="m 141.16095,237.62814 h 16.15765 l 0.48869,3.20724 h -16.36285 z"
         style="opacity:1;fill:none;fill-opacity:1;stroke:#000000;stroke-width:0.40000001;stroke-linecap:round;stroke-linejoin:round;stroke-miterlimit:4;stroke-dasharray:none;stroke-dashoffset:0;stroke-opacity:1" />
      <path
         sodipodi:nodetypes="cc"
         inkscape:connector-curvature="0"
         id="path837"
         d="m 162.01398,237.16017 -0.0119,4.18316"
         style="fill:none;stroke:#000000;stroke-width:0.40000001;stroke-linecap:butt;stroke-linejoin:miter;stroke-miterlimit:4;stroke-dasharray:none;stroke-opacity:1" />
      <path
         inkscape:connector-curvature="0"
         id="path839"
         d="m 159.60493,237.19383 0.7684,4.15938"
         style="fill:none;stroke:#000000;stroke-width:0.26458332px;stroke-linecap:butt;stroke-linejoin:miter;stroke-opacity:1" />
      <path
         sodipodi:nodetypes="cc"
         inkscape:connector-curvature="0"
         id="path845"
         d="m 71.673262,242.39475 0.307106,-6.29505"
         style="fill:none;stroke:#000000;stroke-width:0.40000001;stroke-linecap:butt;stroke-linejoin:miter;stroke-miterlimit:4;stroke-dasharray:none;stroke-opacity:1" />
      <path
         sodipodi:nodetypes="ccccc"
         inkscape:connector-curvature="0"
         id="rect851"
         d="m 53.912745,237.95926 h 16.583704 l -0.236235,2.64583 -16.583704,-0.0118 z"
         style="opacity:1;fill:none;fill-opacity:1;stroke:#000000;stroke-width:0.40000001;stroke-linecap:round;stroke-linejoin:round;stroke-miterlimit:4;stroke-dasharray:none;stroke-dashoffset:0;stroke-opacity:1" />
      <path
         style="fill:none;stroke:#000000;stroke-width:0.40000001;stroke-linecap:butt;stroke-linejoin:miter;stroke-miterlimit:4;stroke-dasharray:none;stroke-opacity:1"
         d="m 77.494099,242.39475 0.307106,-6.29505"
         id="path854"
         inkscape:connector-curvature="0"
         sodipodi:nodetypes="cc" />
      <path
         inkscape:connector-curvature="0"
         id="path858"
         d="m 65.885144,238.12462 -0.236236,2.38598"
         style="fill:none;stroke:#000000;stroke-width:0.5;stroke-linecap:butt;stroke-linejoin:miter;stroke-miterlimit:4;stroke-dasharray:none;stroke-opacity:1" />
      <path
         style="fill:none;stroke:#000000;stroke-width:1.64445877;stroke-linecap:butt;stroke-linejoin:miter;stroke-miterlimit:4;stroke-dasharray:none;stroke-opacity:1"
         d="m 67.488372,238.05226 -0.26769,2.53071"
         id="path860"
         inkscape:connector-curvature="0" />
      <path
         sodipodi:nodetypes="cc"
         inkscape:connector-curvature="0"
         id="path865"
         d="m 49.473185,237.31076 0.129539,3.9785"
         style="fill:none;stroke:#000000;stroke-width:0.40000001;stroke-linecap:butt;stroke-linejoin:miter;stroke-miterlimit:4;stroke-dasharray:none;stroke-opacity:1" />
      <path
         style="fill:none;stroke:#000000;stroke-width:0.26458332px;stroke-linecap:butt;stroke-linejoin:miter;stroke-opacity:1"
         d="m 51.801638,237.31911 -0.626413,4.02575"
         id="path869"
         inkscape:connector-curvature="0"
         sodipodi:nodetypes="cc" />
      <ellipse
         ry="0.80620897"
         rx="1.9029214"
         cy="249.42213"
         cx="59.034504"
         id="path871"
         style="opacity:1;fill:none;fill-opacity:1;stroke:#000000;stroke-width:0.43025565;stroke-linecap:round;stroke-linejoin:round;stroke-miterlimit:4;stroke-dasharray:none;stroke-dashoffset:0;stroke-opacity:1" />
      <path
         sodipodi:nodetypes="ccccccccccc"
         inkscape:connector-curvature="0"
         id="path873"
         d="m 58.826436,254.77921 0.637834,3.68526 h 2.102494 l -0.519717,-3.70888 h 1.133928 l 0.01838,-0.51089 -2.664217,-2.11133 -0.377976,0.0236 -2.049485,2.02625 -0.01757,0.56053 z"
         style="opacity:1;fill:#000000;fill-opacity:1;stroke:#000000;stroke-width:0.26458332px;stroke-linecap:butt;stroke-linejoin:miter;stroke-opacity:1" />
      <g
         transform="translate(-20.501317,144.68843)"
         id="g2100">
        <path
           style="fill:#000000;stroke:#000000;stroke-width:0.26458332px;stroke-linecap:butt;stroke-linejoin:miter;stroke-opacity:1"
           d="m 74.315175,108.0203 1.937702,1.60362 1.702167,-3.99422 z"
           id="path2094"
           inkscape:connector-curvature="0"
           sodipodi:nodetypes="cccc" />
        <path
           sodipodi:nodetypes="cc"
           style="fill:none;stroke:#000000;stroke-width:0.40000001;stroke-linecap:butt;stroke-linejoin:miter;stroke-miterlimit:4;stroke-dasharray:none;stroke-opacity:1"
           d="m 67.247253,116.67399 8.682018,-8.64125"
           id="path2096"
           inkscape:connector-curvature="0" />
      </g>
      <path
         sodipodi:nodetypes="cccccc"
         inkscape:connector-curvature="0"
         id="path1120"
         d="m 60.665177,194.47396 5.480655,24.94643 1.039436,7.74851 -5.008185,1.41741 -2.551339,-8.032 -5.764137,-24.94642"
         style="fill:none;stroke:#000000;stroke-width:0.40000001;stroke-linecap:butt;stroke-linejoin:miter;stroke-miterlimit:4;stroke-dasharray:none;stroke-opacity:1" />
      <path
         sodipodi:nodetypes="cccc"
         inkscape:connector-curvature="0"
         id="path1122"
         d="m 66.695602,227.40177 1.1275,7.55107 -1.560829,0.47045 -3.612719,-7.02597"
         style="fill:none;stroke:#000000;stroke-width:0.26458332px;stroke-linecap:butt;stroke-linejoin:miter;stroke-opacity:1" />
      <path
         sodipodi:nodetypes="ccssccc"
         inkscape:connector-curvature="0"
         id="path1124"
         d="m 66.249433,235.40272 0.634764,1.26119 c 0,0 0.383947,0.47379 0.618063,0.47607 0.244225,0.002 0.406855,0.055 0.551244,-0.14199 0.112693,-0.15374 0.100228,-0.90203 0.100228,-0.90203 l -0.33409,-1.16931 z"
         style="fill:#000000;stroke:#000000;stroke-width:0.26458332px;stroke-linecap:butt;stroke-linejoin:miter;stroke-opacity:1" />
      <path
         sodipodi:nodetypes="cc"
         inkscape:connector-curvature="0"
         id="path1126"
         d="m 57.39613,195.03668 7.216278,32.94096"
         style="fill:none;stroke:#000000;stroke-width:0.34999999;stroke-linecap:butt;stroke-linejoin:miter;stroke-miterlimit:4;stroke-dasharray:none;stroke-opacity:1" />
      <path
         inkscape:connector-curvature="0"
         id="path1128"
         d="m 40.537947,208.0811 h 7.465028 v -3.02381 l 5.57515,6.80357 -5.575149,7.65402 v -3.30729 h -7.748512 z"
         style="fill:none;stroke:#000000;stroke-width:0.40000001;stroke-linecap:butt;stroke-linejoin:miter;stroke-miterlimit:4;stroke-dasharray:none;stroke-opacity:1" />
      <g
         id="text1132"
         style="font-style:normal;font-weight:normal;font-size:10.58333302px;line-height:1.25;font-family:sans-serif;letter-spacing:0px;word-spacing:0px;fill:#000000;fill-opacity:1;stroke:none;stroke-width:0.26458332"
         aria-label="Desplace">
        <path
           id="path1253"
           style="font-size:4.23333311px;stroke-width:0.26458332"
           d="m -3.2228367,206.0728 q 0,0.41962 -0.1839681,0.76068 -0.1819011,0.34107 -0.4857585,0.52917 -0.2108398,0.13022 -0.471289,0.1881 -0.2583822,0.0579 -0.6821289,0.0579 h -0.7772135 v -3.07785 h 0.7689453 q 0.4506185,0 0.7152018,0.0661 0.2666503,0.0641 0.4506184,0.17776 0.3141927,0.19637 0.4898926,0.52297 0.1756999,0.32659 0.1756999,0.77514 z m -0.4278809,-0.006 q 0,-0.36173 -0.1260905,-0.60978 -0.1260905,-0.24805 -0.3762044,-0.39067 -0.181901,-0.10336 -0.3865397,-0.14263 -0.2046386,-0.0413 -0.4898925,-0.0413 h -0.3844727 v 2.37505 h 0.3844727 q 0.2955892,0 0.5146972,-0.0434 0.2211751,-0.0434 0.4051432,-0.16123 0.2294434,-0.14676 0.3431315,-0.38654 0.1157552,-0.23978 0.1157552,-0.59945 z"
           inkscape:connector-curvature="0" />
        <path
           id="path1255"
           style="font-size:4.23333311px;stroke-width:0.26458332"
           d="M -0.65555163,206.49448 H -2.3567397 q 0,0.21291 0.064079,0.37207 0.064079,0.1571 0.1756998,0.25839 0.107487,0.0992 0.2542481,0.14882 0.1488281,0.0496 0.326595,0.0496 0.2356445,0 0.4733561,-0.093 0.23977863,-0.0951 0.34106444,-0.18604 h 0.0206706 v 0.42375 q -0.19637044,0.0827 -0.40100914,0.13849 -0.2046386,0.0558 -0.4299479,0.0558 -0.5746419,0 -0.8971028,-0.31006 -0.3224609,-0.31212 -0.3224609,-0.8847 0,-0.56637 0.3079915,-0.89917 0.3100586,-0.33279 0.8144205,-0.33279 0.467155,0 0.71933596,0.27285 0.25424804,0.27285 0.25424804,0.77514 z m -0.37827147,-0.29765 q -0.00207,-0.30593 -0.1550293,-0.47336 -0.1508952,-0.16743 -0.4609537,-0.16743 -0.3121257,0 -0.4981608,0.18397 -0.1839681,0.18397 -0.2087728,0.45682 z"
           inkscape:connector-curvature="0" />
        <path
           id="path1257"
           style="font-size:4.23333311px;stroke-width:0.26458332"
           d="m 1.5830713,206.94303 q 0,0.31626 -0.2625162,0.51884 -0.2604492,0.20257 -0.71313474,0.20257 -0.25631509,0 -0.47128904,-0.06 -0.21290689,-0.062 -0.35760089,-0.13436 v -0.43614 h 0.0206706 q 0.18396809,0.13849 0.40927732,0.22117 0.22530923,0.0806 0.43201495,0.0806 0.25631509,0 0.4010091,-0.0827 0.144694,-0.0827 0.144694,-0.26045 0,-0.13642 -0.078548,-0.2067 -0.078548,-0.0703 -0.30179032,-0.11989 -0.0826823,-0.0186 -0.21704101,-0.0434 -0.13229166,-0.0248 -0.24184569,-0.0537 -0.3038574,-0.0806 -0.43201495,-0.23565 -0.12609049,-0.15709 -0.12609049,-0.38447 0,-0.14263 0.0578776,-0.26872 0.05994466,-0.12609 0.17983398,-0.22531 0.1157552,-0.0971 0.29352212,-0.15296 0.17983397,-0.0579 0.40100909,-0.0579 0.20670572,0 0.41754557,0.0517 0.2129068,0.0496 0.3534667,0.12196 v 0.41548 h -0.02067 q -0.1488282,-0.10956 -0.361735,-0.18397 -0.21290691,-0.0765 -0.41754557,-0.0765 -0.21290689,0 -0.35966795,0.0827 -0.14676106,0.0806 -0.14676106,0.24184 0,0.14263 0.0888835,0.21498 0.0868164,0.0723 0.28111978,0.11782 0.10748697,0.0248 0.23977863,0.0496 0.13435872,0.0248 0.22324217,0.0455 0.2707845,0.062 0.4175456,0.21291 0.146761,0.15296 0.146761,0.40514 z"
           inkscape:connector-curvature="0" />
        <path
           id="path1259"
           style="font-size:4.23333311px;stroke-width:0.26458332"
           d="m 4.1730942,206.42627 q 0,0.28112 -0.080615,0.5147 -0.080615,0.23151 -0.2273763,0.39274 -0.1364258,0.15296 -0.3224609,0.23771 -0.1839681,0.0827 -0.3906738,0.0827 -0.179834,0 -0.3265951,-0.0393 -0.144694,-0.0393 -0.2955892,-0.12196 v 0.96738 H 2.141177 v -3.16053 h 0.3886067 v 0.24185 q 0.1550293,-0.13022 0.3472657,-0.21704 0.1943033,-0.0889 0.4134114,-0.0889 0.4175455,0 0.6490559,0.31626 0.2335775,0.31419 0.2335775,0.87436 z m -0.4010091,0.0103 q 0,-0.41755 -0.1426269,-0.62426 -0.142627,-0.2067 -0.4382162,-0.2067 -0.1674316,0 -0.3369303,0.0724 -0.1694987,0.0723 -0.324528,0.19017 v 1.30844 q 0.1653646,0.0744 0.2831869,0.10129 0.1198893,0.0269 0.2707845,0.0269 0.324528,0 0.506429,-0.21911 0.181901,-0.21911 0.181901,-0.64905 z"
           inkscape:connector-curvature="0" />
        <path
           id="path1261"
           style="font-size:4.23333311px;stroke-width:0.26458332"
           d="M 5.1714825,207.60863 H 4.7828758 v -3.21634 h 0.3886067 z"
           inkscape:connector-curvature="0" />
        <path
           id="path1263"
           style="font-size:4.23333311px;stroke-width:0.26458332"
           d="M 7.7387674,207.60863 H 7.3522277 v -0.24598 q -0.051676,0.0351 -0.1405599,0.0992 -0.086816,0.062 -0.1694987,0.0992 -0.097152,0.0475 -0.2232421,0.0785 -0.1260905,0.0331 -0.2955892,0.0331 -0.3121256,0 -0.5291666,-0.20671 -0.2170411,-0.20671 -0.2170411,-0.5271 0,-0.26252 0.1116211,-0.42375 0.1136882,-0.16329 0.322461,-0.25631 0.2108398,-0.093 0.506429,-0.12609 0.2955891,-0.0331 0.6345865,-0.0496 v -0.0599 q 0,-0.13229 -0.047542,-0.2191 -0.045475,-0.0868 -0.1322917,-0.13643 -0.082682,-0.0475 -0.1984374,-0.0641 -0.1157552,-0.0165 -0.2418457,-0.0165 -0.1529623,0 -0.3410645,0.0413 -0.1881022,0.0393 -0.3886067,0.11575 h -0.020671 v -0.39481 q 0.1136882,-0.031 0.3286621,-0.0682 0.2149739,-0.0372 0.4237467,-0.0372 0.2439128,0 0.4237467,0.0413 0.1819011,0.0393 0.3141927,0.13642 0.1302246,0.0951 0.1984375,0.24598 0.068213,0.1509 0.068213,0.37414 z m -0.3865397,-0.56844 v -0.64286 q -0.1777669,0.0103 -0.4196126,0.031 -0.2397786,0.0207 -0.3803385,0.0599 -0.1674316,0.0475 -0.2707845,0.14883 -0.1033529,0.0992 -0.1033529,0.27492 0,0.19844 0.1198894,0.29972 0.1198893,0.0992 0.3658691,0.0992 0.2046386,0 0.3741373,-0.0786 0.1694987,-0.0806 0.3141927,-0.19223 z"
           inkscape:connector-curvature="0" />
        <path
           id="path1265"
           style="font-size:4.23333311px;stroke-width:0.26458332"
           d="m 10.198566,207.46393 q -0.194304,0.093 -0.3700036,0.1447 -0.1736328,0.0517 -0.3700032,0.0517 -0.2501139,0 -0.4588867,-0.0723 -0.2087728,-0.0744 -0.3576009,-0.22325 -0.1508952,-0.14882 -0.2335775,-0.3762 -0.082682,-0.22738 -0.082682,-0.53123 0,-0.56638 0.3100585,-0.88884 0.3121257,-0.32246 0.8226888,-0.32246 0.1984375,0 0.3886067,0.0558 0.1922359,0.0558 0.3513999,0.13643 v 0.43201 h -0.02067 q -0.177767,-0.13849 -0.3679359,-0.2129 -0.1881022,-0.0744 -0.3679362,-0.0744 -0.3307291,0 -0.5229654,0.22324 -0.1901693,0.22118 -0.1901693,0.65113 0,0.41754 0.1860351,0.64285 0.1881023,0.22324 0.5270996,0.22324 0.1178223,0 0.2397787,-0.031 0.1219563,-0.031 0.219108,-0.0806 0.084749,-0.0434 0.1591634,-0.0909 0.07441,-0.0496 0.117822,-0.0848 h 0.02067 z"
           inkscape:connector-curvature="0" />
        <path
           id="path1267"
           style="font-size:4.23333311px;stroke-width:0.26458332"
           d="m 12.631492,206.49448 h -1.701188 q 0,0.21291 0.06408,0.37207 0.06408,0.1571 0.1757,0.25839 0.107487,0.0992 0.254248,0.14882 0.148828,0.0496 0.326595,0.0496 0.235645,0 0.473356,-0.093 0.239779,-0.0951 0.341065,-0.18604 h 0.02067 v 0.42375 q -0.19637,0.0827 -0.401009,0.13849 -0.204638,0.0558 -0.429948,0.0558 -0.574641,0 -0.897102,-0.31006 -0.322461,-0.31212 -0.322461,-0.8847 0,-0.56637 0.307991,-0.89917 0.310059,-0.33279 0.814421,-0.33279 0.467155,0 0.719336,0.27285 0.254248,0.27285 0.254248,0.77514 z m -0.378272,-0.29765 q -0.0021,-0.30593 -0.155029,-0.47336 -0.150895,-0.16743 -0.460954,-0.16743 -0.312125,0 -0.498161,0.18397 -0.183968,0.18397 -0.208772,0.45682 z"
           inkscape:connector-curvature="0" />
      </g>
      <g
         id="text1136"
         style="font-style:normal;font-weight:normal;font-size:10.58333302px;line-height:1.25;font-family:sans-serif;letter-spacing:0px;word-spacing:0px;fill:#000000;fill-opacity:1;stroke:none;stroke-width:0.26458332"
         aria-label="la">
        <path
           id="path1248"
           style="font-size:4.23333311px;stroke-width:0.26458332"
           d="m 15.402822,207.60863 h -0.388607 v -3.21634 h 0.388607 z"
           inkscape:connector-curvature="0" />
        <path
           id="path1250"
           style="font-size:4.23333311px;stroke-width:0.26458332"
           d="m 17.970107,207.60863 h -0.38654 v -0.24598 q -0.05168,0.0351 -0.14056,0.0992 -0.08682,0.062 -0.169499,0.0992 -0.09715,0.0475 -0.223242,0.0785 -0.12609,0.0331 -0.295589,0.0331 -0.312126,0 -0.529167,-0.20671 -0.217041,-0.20671 -0.217041,-0.5271 0,-0.26252 0.111621,-0.42375 0.113688,-0.16329 0.322461,-0.25631 0.21084,-0.093 0.506429,-0.12609 0.295589,-0.0331 0.634587,-0.0496 v -0.0599 q 0,-0.13229 -0.04754,-0.2191 -0.04548,-0.0868 -0.132292,-0.13643 -0.08268,-0.0475 -0.198438,-0.0641 -0.115755,-0.0165 -0.241845,-0.0165 -0.152963,0 -0.341065,0.0413 -0.188102,0.0393 -0.388607,0.11575 h -0.02067 v -0.39481 q 0.113688,-0.031 0.328662,-0.0682 0.214974,-0.0372 0.423747,-0.0372 0.243912,0 0.423746,0.0413 0.181901,0.0393 0.314193,0.13642 0.130225,0.0951 0.198438,0.24598 0.06821,0.1509 0.06821,0.37414 z m -0.38654,-0.56844 v -0.64286 q -0.177767,0.0103 -0.419613,0.031 -0.239778,0.0207 -0.380338,0.0599 -0.167432,0.0475 -0.270785,0.14883 -0.103353,0.0992 -0.103353,0.27492 0,0.19844 0.11989,0.29972 0.119889,0.0992 0.365869,0.0992 0.204638,0 0.374137,-0.0786 0.169499,-0.0806 0.314193,-0.19223 z"
           inkscape:connector-curvature="0" />
      </g>
      <g
         id="text1140"
         style="font-style:normal;font-weight:normal;font-size:10.58333302px;line-height:1.25;font-family:sans-serif;letter-spacing:0px;word-spacing:0px;fill:#000000;fill-opacity:1;stroke:none;stroke-width:0.26458332"
         aria-label="palanca">
        <path
           id="path1233"
           style="font-size:4.23333311px;stroke-width:0.26458332"
           d="m 22.569901,206.42627 q 0,0.28112 -0.08062,0.5147 -0.08062,0.23151 -0.227376,0.39274 -0.136426,0.15296 -0.322461,0.23771 -0.183968,0.0827 -0.390674,0.0827 -0.179834,0 -0.326595,-0.0393 -0.144694,-0.0393 -0.295589,-0.12196 v 0.96738 h -0.388607 v -3.16053 h 0.388607 v 0.24185 q 0.155029,-0.13022 0.347266,-0.21704 0.194303,-0.0889 0.413411,-0.0889 0.417546,0 0.649056,0.31626 0.233577,0.31419 0.233577,0.87436 z m -0.401009,0.0103 q 0,-0.41755 -0.142627,-0.62426 -0.142627,-0.2067 -0.438216,-0.2067 -0.167431,0 -0.33693,0.0724 -0.169499,0.0723 -0.324528,0.19017 v 1.30844 q 0.165365,0.0744 0.283187,0.10129 0.119889,0.0269 0.270784,0.0269 0.324528,0 0.506429,-0.21911 0.181901,-0.21911 0.181901,-0.64905 z"
           inkscape:connector-curvature="0" />
        <path
           id="path1235"
           style="font-size:4.23333311px;stroke-width:0.26458332"
           d="m 24.969755,207.60863 h -0.38654 v -0.24598 q -0.05168,0.0351 -0.14056,0.0992 -0.08682,0.062 -0.169499,0.0992 -0.09715,0.0475 -0.223242,0.0785 -0.12609,0.0331 -0.295589,0.0331 -0.312126,0 -0.529167,-0.20671 -0.217041,-0.20671 -0.217041,-0.5271 0,-0.26252 0.111622,-0.42375 0.113688,-0.16329 0.32246,-0.25631 0.21084,-0.093 0.506429,-0.12609 0.29559,-0.0331 0.634587,-0.0496 v -0.0599 q 0,-0.13229 -0.04754,-0.2191 -0.04548,-0.0868 -0.132292,-0.13643 -0.08268,-0.0475 -0.198437,-0.0641 -0.115756,-0.0165 -0.241846,-0.0165 -0.152962,0 -0.341065,0.0413 -0.188102,0.0393 -0.388606,0.11575 h -0.02067 v -0.39481 q 0.113688,-0.031 0.328662,-0.0682 0.214974,-0.0372 0.423747,-0.0372 0.243913,0 0.423747,0.0413 0.181901,0.0393 0.314192,0.13642 0.130225,0.0951 0.198438,0.24598 0.06821,0.1509 0.06821,0.37414 z m -0.38654,-0.56844 v -0.64286 q -0.177767,0.0103 -0.419613,0.031 -0.239778,0.0207 -0.380338,0.0599 -0.167432,0.0475 -0.270785,0.14883 -0.103352,0.0992 -0.103352,0.27492 0,0.19844 0.119889,0.29972 0.119889,0.0992 0.365869,0.0992 0.204639,0 0.374137,-0.0786 0.169499,-0.0806 0.314193,-0.19223 z"
           inkscape:connector-curvature="0" />
        <path
           id="path1237"
           style="font-size:4.23333311px;stroke-width:0.26458332"
           d="m 26.114904,207.60863 h -0.388606 v -3.21634 h 0.388606 z"
           inkscape:connector-curvature="0" />
        <path
           id="path1239"
           style="font-size:4.23333311px;stroke-width:0.26458332"
           d="M 28.682189,207.60863 H 28.29565 v -0.24598 q -0.05168,0.0351 -0.14056,0.0992 -0.08682,0.062 -0.169499,0.0992 -0.09715,0.0475 -0.223242,0.0785 -0.126091,0.0331 -0.295589,0.0331 -0.312126,0 -0.529167,-0.20671 -0.217041,-0.20671 -0.217041,-0.5271 0,-0.26252 0.111621,-0.42375 0.113688,-0.16329 0.322461,-0.25631 0.21084,-0.093 0.506429,-0.12609 0.295589,-0.0331 0.634587,-0.0496 v -0.0599 q 0,-0.13229 -0.04754,-0.2191 -0.04547,-0.0868 -0.132291,-0.13643 -0.08268,-0.0475 -0.198438,-0.0641 -0.115755,-0.0165 -0.241846,-0.0165 -0.152962,0 -0.341064,0.0413 -0.188102,0.0393 -0.388607,0.11575 h -0.02067 v -0.39481 q 0.113688,-0.031 0.328662,-0.0682 0.214974,-0.0372 0.423746,-0.0372 0.243913,0 0.423747,0.0413 0.181901,0.0393 0.314193,0.13642 0.130224,0.0951 0.198437,0.24598 0.06821,0.1509 0.06821,0.37414 z m -0.386539,-0.56844 v -0.64286 q -0.177767,0.0103 -0.419613,0.031 -0.239779,0.0207 -0.380339,0.0599 -0.167431,0.0475 -0.270784,0.14883 -0.103353,0.0992 -0.103353,0.27492 0,0.19844 0.119889,0.29972 0.11989,0.0992 0.36587,0.0992 0.204638,0 0.374137,-0.0786 0.169499,-0.0806 0.314193,-0.19223 z"
           inkscape:connector-curvature="0" />
        <path
           id="path1241"
           style="font-size:4.23333311px;stroke-width:0.26458332"
           d="m 31.36523,207.60863 h -0.388607 v -1.31465 q 0,-0.15916 -0.0186,-0.29766 -0.0186,-0.14056 -0.06821,-0.21911 -0.05168,-0.0868 -0.148829,-0.12815 -0.09715,-0.0434 -0.252181,-0.0434 -0.159163,0 -0.332796,0.0786 -0.173633,0.0786 -0.332796,0.2005 v 1.72393 h -0.388607 v -2.30891 h 0.388607 v 0.25632 q 0.181901,-0.1509 0.376204,-0.23564 0.194304,-0.0848 0.398942,-0.0848 0.374138,0 0.570508,0.2253 0.196371,0.22531 0.196371,0.64906 z"
           inkscape:connector-curvature="0" />
        <path
           id="path1243"
           style="font-size:4.23333311px;stroke-width:0.26458332"
           d="m 33.820894,207.46393 q -0.194303,0.093 -0.370003,0.1447 -0.173633,0.0517 -0.370004,0.0517 -0.250113,0 -0.458886,-0.0723 -0.208773,-0.0744 -0.357601,-0.22325 -0.150895,-0.14882 -0.233578,-0.3762 -0.08268,-0.22738 -0.08268,-0.53123 0,-0.56638 0.310059,-0.88884 0.312125,-0.32246 0.822688,-0.32246 0.198438,0 0.388607,0.0558 0.192237,0.0558 0.3514,0.13643 v 0.43201 h -0.02067 q -0.177767,-0.13849 -0.367936,-0.2129 -0.188102,-0.0744 -0.367936,-0.0744 -0.330729,0 -0.522965,0.22324 -0.19017,0.22118 -0.19017,0.65113 0,0.41754 0.186035,0.64285 0.188103,0.22324 0.5271,0.22324 0.117822,0 0.239779,-0.031 0.121956,-0.031 0.219108,-0.0806 0.08475,-0.0434 0.159163,-0.0909 0.07441,-0.0496 0.117822,-0.0848 h 0.02067 z"
           inkscape:connector-curvature="0" />
        <path
           id="path1245"
           style="font-size:4.23333311px;stroke-width:0.26458332"
           d="m 36.115327,207.60863 h -0.38654 v -0.24598 q -0.05168,0.0351 -0.140559,0.0992 -0.08682,0.062 -0.169499,0.0992 -0.09715,0.0475 -0.223242,0.0785 -0.126091,0.0331 -0.295589,0.0331 -0.312126,0 -0.529167,-0.20671 -0.217041,-0.20671 -0.217041,-0.5271 0,-0.26252 0.111621,-0.42375 0.113688,-0.16329 0.322461,-0.25631 0.21084,-0.093 0.506429,-0.12609 0.295589,-0.0331 0.634586,-0.0496 v -0.0599 q 0,-0.13229 -0.04754,-0.2191 -0.04547,-0.0868 -0.132292,-0.13643 -0.08268,-0.0475 -0.198437,-0.0641 -0.115755,-0.0165 -0.241846,-0.0165 -0.152962,0 -0.341064,0.0413 -0.188102,0.0393 -0.388607,0.11575 h -0.02067 v -0.39481 q 0.113688,-0.031 0.328662,-0.0682 0.214974,-0.0372 0.423746,-0.0372 0.243913,0 0.423747,0.0413 0.181901,0.0393 0.314193,0.13642 0.130224,0.0951 0.198437,0.24598 0.06821,0.1509 0.06821,0.37414 z m -0.38654,-0.56844 v -0.64286 q -0.177766,0.0103 -0.419612,0.031 -0.239779,0.0207 -0.380339,0.0599 -0.167431,0.0475 -0.270784,0.14883 -0.103353,0.0992 -0.103353,0.27492 0,0.19844 0.119889,0.29972 0.11989,0.0992 0.365869,0.0992 0.204639,0 0.374138,-0.0786 0.169498,-0.0806 0.314192,-0.19223 z"
           inkscape:connector-curvature="0" />
      </g>
      <g
         id="text1144"
         style="font-style:normal;font-weight:normal;font-size:10.58333302px;line-height:1.25;font-family:sans-serif;letter-spacing:0px;word-spacing:0px;fill:#000000;fill-opacity:1;stroke:none;stroke-width:0.26458332"
         aria-label="centro">
        <path
           id="path1220"
           style="font-size:4.23333311px;stroke-width:0.26458332"
           d="m 19.599541,214.17301 q -0.194303,0.093 -0.370003,0.14469 -0.173633,0.0517 -0.370003,0.0517 -0.250114,0 -0.458887,-0.0724 -0.208773,-0.0744 -0.357601,-0.22324 -0.150895,-0.14883 -0.233577,-0.3762 -0.08268,-0.22738 -0.08268,-0.53124 0,-0.56637 0.310058,-0.88883 0.312126,-0.32246 0.822689,-0.32246 0.198437,0 0.388607,0.0558 0.192236,0.0558 0.351399,0.13642 v 0.43202 h -0.02067 q -0.177767,-0.13849 -0.367936,-0.21291 -0.188103,-0.0744 -0.367937,-0.0744 -0.330729,0 -0.522965,0.22324 -0.190169,0.22117 -0.190169,0.65112 0,0.41755 0.186035,0.64286 0.188102,0.22324 0.527099,0.22324 0.117823,0 0.239779,-0.031 0.121956,-0.031 0.219108,-0.0806 0.08475,-0.0434 0.159164,-0.0909 0.07441,-0.0496 0.117822,-0.0848 h 0.02067 z"
           inkscape:connector-curvature="0" />
        <path
           id="path1222"
           style="font-size:4.23333311px;stroke-width:0.26458332"
           d="M 22.032468,213.20356 H 20.33128 q 0,0.21291 0.06408,0.37207 0.06408,0.1571 0.1757,0.25838 0.107487,0.0992 0.254248,0.14883 0.148828,0.0496 0.326595,0.0496 0.235645,0 0.473356,-0.093 0.239779,-0.0951 0.341065,-0.18603 h 0.02067 v 0.42374 q -0.19637,0.0827 -0.401009,0.1385 -0.204638,0.0558 -0.429948,0.0558 -0.574642,0 -0.897102,-0.31006 -0.322461,-0.31213 -0.322461,-0.8847 0,-0.56638 0.307991,-0.89917 0.310059,-0.3328 0.814421,-0.3328 0.467155,0 0.719336,0.27285 0.254248,0.27285 0.254248,0.77515 z m -0.378272,-0.29766 q -0.0021,-0.30592 -0.155029,-0.47335 -0.150895,-0.16743 -0.460954,-0.16743 -0.312125,0 -0.498161,0.18396 -0.183968,0.18397 -0.208772,0.45682 z"
           inkscape:connector-curvature="0" />
        <path
           id="path1224"
           style="font-size:4.23333311px;stroke-width:0.26458332"
           d="m 24.55221,214.3177 h -0.388606 v -1.31465 q 0,-0.15916 -0.0186,-0.29765 -0.0186,-0.14056 -0.06821,-0.21911 -0.05168,-0.0868 -0.148828,-0.12816 -0.09715,-0.0434 -0.252181,-0.0434 -0.159163,0 -0.332796,0.0786 -0.173633,0.0786 -0.332796,0.20051 v 1.72392 h -0.388607 v -2.3089 h 0.388607 v 0.25632 q 0.181901,-0.1509 0.376204,-0.23565 0.194304,-0.0848 0.398942,-0.0848 0.374138,0 0.570508,0.22531 0.19637,0.22531 0.19637,0.64906 z"
           inkscape:connector-curvature="0" />
        <path
           id="path1226"
           style="font-size:4.23333311px;stroke-width:0.26458332"
           d="m 26.499378,214.29703 q -0.109554,0.0289 -0.239779,0.0475 -0.128157,0.0186 -0.229443,0.0186 -0.353467,0 -0.537435,-0.19017 -0.183968,-0.19017 -0.183968,-0.60978 v -1.22783 h -0.262516 v -0.3266 h 0.262516 v -0.66352 h 0.388607 v 0.66352 h 0.802018 v 0.3266 H 25.69736 v 1.05213 q 0,0.1819 0.0083,0.28525 0.0083,0.10129 0.05788,0.19017 0.04547,0.0827 0.124023,0.12196 0.08061,0.0372 0.243913,0.0372 0.09509,0 0.198437,-0.0269 0.103353,-0.0289 0.148829,-0.0475 h 0.02067 z"
           inkscape:connector-curvature="0" />
        <path
           id="path1228"
           style="font-size:4.23333311px;stroke-width:0.26458332"
           d="m 28.411406,212.43255 h -0.02067 q -0.08682,-0.0207 -0.169498,-0.0289 -0.08061,-0.0103 -0.192237,-0.0103 -0.179834,0 -0.347265,0.0806 -0.167432,0.0785 -0.322461,0.20464 v 1.63917 h -0.388607 v -2.3089 h 0.388607 v 0.34106 q 0.23151,-0.18603 0.40721,-0.26251 0.177767,-0.0785 0.361735,-0.0785 0.101286,0 0.146761,0.006 0.04548,0.004 0.136426,0.0186 z"
           inkscape:connector-curvature="0" />
        <path
           id="path1230"
           style="font-size:4.23333311px;stroke-width:0.26458332"
           d="m 30.749248,213.16429 q 0,0.5643 -0.289388,0.8909 -0.289388,0.32659 -0.775146,0.32659 -0.489893,0 -0.779281,-0.32659 -0.287321,-0.3266 -0.287321,-0.8909 0,-0.56431 0.287321,-0.89091 0.289388,-0.32866 0.779281,-0.32866 0.485758,0 0.775146,0.32866 0.289388,0.3266 0.289388,0.89091 z m -0.401009,0 q 0,-0.44856 -0.1757,-0.6656 -0.1757,-0.21911 -0.487825,-0.21911 -0.31626,0 -0.49196,0.21911 -0.173633,0.21704 -0.173633,0.6656 0,0.43408 0.1757,0.65939 0.1757,0.22324 0.489893,0.22324 0.310058,0 0.485758,-0.22118 0.177767,-0.22324 0.177767,-0.66145 z"
           inkscape:connector-curvature="0" />
      </g>
      <g
         id="text1148"
         style="font-style:normal;font-weight:normal;font-size:10.58333302px;line-height:1.25;font-family:sans-serif;letter-spacing:0px;word-spacing:0px;fill:#000000;fill-opacity:1;stroke:none;stroke-width:0.26458332"
         aria-label="hacia">
        <path
           id="path1209"
           style="font-size:4.23333311px;stroke-width:0.26458332"
           d="M 1.349197,214.3177 H 0.96059023 v -1.31465 q 0,-0.15916 -0.0186035,-0.29765 -0.0186035,-0.14056 -0.0682129,-0.21911 -0.0516764,-0.0868 -0.14882812,-0.12816 -0.0971517,-0.0434 -0.25218098,-0.0434 -0.1591634,0 -0.3327962,0.0786 -0.17363281,0.0786 -0.33279621,0.20051 v 1.72392 h -0.38860675 v -3.21634 h 0.38860675 v 1.16376 q 0.18190103,-0.1509 0.37620441,-0.23565 0.19430337,-0.0848 0.39894204,-0.0848 0.37413735,0 0.57050773,0.22531 0.1963705,0.22531 0.1963705,0.64906 z"
           inkscape:connector-curvature="0" />
        <path
           id="path1211"
           style="font-size:4.23333311px;stroke-width:0.26458332"
           d="M 3.8916774,214.3177 H 3.5051377 v -0.24598 q -0.051676,0.0351 -0.1405599,0.0992 -0.086816,0.062 -0.1694987,0.0992 -0.097152,0.0475 -0.2232421,0.0786 -0.1260905,0.0331 -0.2955892,0.0331 -0.3121256,0 -0.5291667,-0.2067 -0.217041,-0.20671 -0.217041,-0.5271 0,-0.26252 0.1116211,-0.42375 0.1136882,-0.1633 0.322461,-0.25632 0.2108398,-0.093 0.506429,-0.12609 0.2955891,-0.0331 0.6345865,-0.0496 v -0.0599 q 0,-0.13229 -0.047542,-0.21911 -0.045475,-0.0868 -0.1322917,-0.13642 -0.082682,-0.0476 -0.1984374,-0.0641 -0.1157553,-0.0165 -0.2418457,-0.0165 -0.1529623,0 -0.3410645,0.0413 -0.1881022,0.0393 -0.3886067,0.11576 h -0.020671 v -0.39481 q 0.1136881,-0.031 0.3286621,-0.0682 0.2149739,-0.0372 0.4237467,-0.0372 0.2439128,0 0.4237467,0.0413 0.1819011,0.0393 0.3141927,0.13643 0.1302246,0.0951 0.1984375,0.24598 0.068213,0.15089 0.068213,0.37413 z m -0.3865397,-0.56844 v -0.64285 q -0.1777669,0.0103 -0.4196126,0.031 -0.2397786,0.0207 -0.3803385,0.06 -0.1674316,0.0475 -0.2707845,0.14883 -0.1033529,0.0992 -0.1033529,0.27491 0,0.19844 0.1198894,0.29973 0.1198893,0.0992 0.3658691,0.0992 0.2046386,0 0.3741373,-0.0786 0.1694987,-0.0806 0.3141927,-0.19224 z"
           inkscape:connector-curvature="0" />
        <path
           id="path1213"
           style="font-size:4.23333311px;stroke-width:0.26458332"
           d="m 6.3514754,214.17301 q -0.1943034,0.093 -0.3700032,0.14469 -0.1736328,0.0517 -0.3700033,0.0517 -0.2501139,0 -0.4588867,-0.0724 -0.2087727,-0.0744 -0.3576008,-0.22324 -0.1508952,-0.14883 -0.2335775,-0.3762 -0.082682,-0.22738 -0.082682,-0.53124 0,-0.56637 0.3100586,-0.88883 0.3121256,-0.32246 0.8226887,-0.32246 0.1984375,0 0.3886068,0.0558 0.1922363,0.0558 0.3513997,0.13642 v 0.43202 h -0.020671 q -0.1777669,-0.13849 -0.3679361,-0.21291 -0.1881022,-0.0744 -0.3679362,-0.0744 -0.3307292,0 -0.5229655,0.22324 -0.1901692,0.22117 -0.1901692,0.65112 0,0.41755 0.1860351,0.64286 0.1881022,0.22324 0.5270996,0.22324 0.1178222,0 0.2397786,-0.031 0.1219564,-0.031 0.2191081,-0.0806 0.084749,-0.0434 0.1591634,-0.0909 0.074414,-0.0496 0.1178222,-0.0848 h 0.020671 z"
           inkscape:connector-curvature="0" />
        <path
           id="path1215"
           style="font-size:4.23333311px;stroke-width:0.26458332"
           d="M 7.269249,211.62226 H 6.8310329 v -0.40308 H 7.269249 Z M 7.244444,214.3177 H 6.8558376 v -2.3089 h 0.3886067 z"
           inkscape:connector-curvature="0" />
        <path
           id="path1217"
           style="font-size:4.23333311px;stroke-width:0.26458332"
           d="M 9.8117292,214.3177 H 9.4251895 v -0.24598 q -0.051676,0.0351 -0.1405599,0.0992 -0.086816,0.062 -0.1694986,0.0992 -0.097152,0.0475 -0.2232422,0.0786 -0.1260905,0.0331 -0.2955892,0.0331 -0.3121256,0 -0.5291666,-0.2067 -0.217041,-0.20671 -0.217041,-0.5271 0,-0.26252 0.111621,-0.42375 0.1136882,-0.1633 0.322461,-0.25632 0.2108398,-0.093 0.506429,-0.12609 0.2955892,-0.0331 0.6345865,-0.0496 v -0.0599 q 0,-0.13229 -0.047542,-0.21911 -0.045475,-0.0868 -0.1322916,-0.13642 -0.082682,-0.0476 -0.1984375,-0.0641 -0.1157552,-0.0165 -0.2418457,-0.0165 -0.1529623,0 -0.3410645,0.0413 -0.1881022,0.0393 -0.3886067,0.11576 h -0.020671 v -0.39481 q 0.1136882,-0.031 0.3286621,-0.0682 0.214974,-0.0372 0.4237467,-0.0372 0.2439128,0 0.4237468,0.0413 0.181901,0.0393 0.3141926,0.13643 0.1302246,0.0951 0.1984375,0.24598 0.068213,0.15089 0.068213,0.37413 z m -0.3865397,-0.56844 v -0.64285 q -0.1777669,0.0103 -0.4196126,0.031 -0.2397786,0.0207 -0.3803385,0.06 -0.1674316,0.0475 -0.2707845,0.14883 -0.1033529,0.0992 -0.1033529,0.27491 0,0.19844 0.1198894,0.29973 0.1198893,0.0992 0.3658691,0.0992 0.2046386,0 0.3741373,-0.0786 0.1694987,-0.0806 0.3141927,-0.19224 z"
           inkscape:connector-curvature="0" />
      </g>
      <g
         id="text1152"
         style="font-style:normal;font-weight:normal;font-size:10.58333302px;line-height:1.25;font-family:sans-serif;letter-spacing:0px;word-spacing:0px;fill:#000000;fill-opacity:1;stroke:none;stroke-width:0.26458332"
         aria-label="el">
        <path
           id="path1204"
           style="font-size:4.23333311px;stroke-width:0.26458332"
           d="m 14.249701,213.21389 h -1.701188 q 0,0.21291 0.06408,0.37207 0.06408,0.1571 0.1757,0.25838 0.107487,0.0992 0.254248,0.14883 0.148828,0.0496 0.326595,0.0496 0.235644,0 0.473356,-0.093 0.239778,-0.0951 0.341064,-0.18603 h 0.02067 v 0.42374 q -0.196371,0.0827 -0.401009,0.1385 -0.204639,0.0558 -0.429948,0.0558 -0.574642,0 -0.897103,-0.31006 -0.322461,-0.31213 -0.322461,-0.8847 0,-0.56638 0.307992,-0.89917 0.310058,-0.3328 0.81442,-0.3328 0.467155,0 0.719336,0.27285 0.254248,0.27285 0.254248,0.77515 z m -0.378271,-0.29766 q -0.0021,-0.30592 -0.15503,-0.47335 -0.150895,-0.16743 -0.460953,-0.16743 -0.312126,0 -0.498161,0.18396 -0.183968,0.18397 -0.208773,0.45682 z"
           inkscape:connector-curvature="0" />
        <path
           id="path1206"
           style="font-size:4.23333311px;stroke-width:0.26458332"
           d="m 15.231553,214.32803 h -0.388606 v -3.21634 h 0.388606 z"
           inkscape:connector-curvature="0" />
      </g>
      <g
         id="text1156"
         style="font-style:normal;font-weight:normal;font-size:10.58333302px;line-height:1.25;font-family:sans-serif;letter-spacing:0px;word-spacing:0px;fill:#000000;fill-opacity:1;stroke:none;stroke-width:0.26458332"
         aria-label="del">
        <path
           id="path1197"
           style="font-size:4.23333311px;stroke-width:0.26458332"
           d="M 7.6696677,220.60149 H 7.281061 v -0.24185 q -0.1674317,0.14469 -0.3493327,0.22531 -0.181901,0.0806 -0.3948079,0.0806 -0.4134114,0 -0.6573242,-0.31832 -0.2418457,-0.31833 -0.2418457,-0.88264 0,-0.29352 0.082682,-0.52296 0.084749,-0.22944 0.2273763,-0.39067 0.1405599,-0.1571 0.326595,-0.23978 0.1881022,-0.0827 0.3886068,-0.0827 0.181901,0 0.3224609,0.0393 0.1405599,0.0372 0.2955892,0.11782 v -1.00045 h 0.388607 z M 7.281061,220.03305 v -1.32499 q -0.1570964,-0.0703 -0.2811198,-0.0971 -0.1240234,-0.0269 -0.2707845,-0.0269 -0.326595,0 -0.5084961,0.22737 -0.181901,0.22738 -0.181901,0.64493 0,0.41134 0.1405599,0.62631 0.1405599,0.21291 0.4506185,0.21291 0.1653645,0 0.3348632,-0.0724 0.1694987,-0.0744 0.3162598,-0.19016 z"
           inkscape:connector-curvature="0" />
        <path
           id="path1199"
           style="font-size:4.23333311px;stroke-width:0.26458332"
           d="M 10.367177,219.48734 H 8.6659892 q 0,0.21291 0.064079,0.37207 0.064079,0.1571 0.1756999,0.25838 0.1074869,0.0992 0.254248,0.14883 0.1488281,0.0496 0.326595,0.0496 0.2356445,0 0.4733561,-0.093 0.2397788,-0.0951 0.3410638,-0.18603 h 0.02067 v 0.42375 q -0.19637,0.0827 -0.4010089,0.13849 -0.2046386,0.0558 -0.4299479,0.0558 -0.5746419,0 -0.8971028,-0.31006 -0.3224609,-0.31212 -0.3224609,-0.8847 0,-0.56637 0.3079915,-0.89917 0.3100586,-0.3328 0.8144206,-0.3328 0.4671549,0 0.7193354,0.27286 0.254248,0.27285 0.254248,0.77514 z m -0.3782712,-0.29765 q -0.00207,-0.30593 -0.1550293,-0.47336 -0.1508951,-0.16743 -0.4609537,-0.16743 -0.3121257,0 -0.4981608,0.18397 -0.1839681,0.18396 -0.2087728,0.45682 z"
           inkscape:connector-curvature="0" />
        <path
           id="path1201"
           style="font-size:4.23333311px;stroke-width:0.26458332"
           d="m 11.34903,220.60149 h -0.388607 v -3.21634 h 0.388607 z"
           inkscape:connector-curvature="0" />
      </g>
      <g
         id="text1160"
         style="font-style:normal;font-weight:normal;font-size:10.58333302px;line-height:1.25;font-family:sans-serif;letter-spacing:0px;word-spacing:0px;fill:#000000;fill-opacity:1;stroke:none;stroke-width:0.26458332"
         aria-label="disco">
        <path
           id="path1186"
           style="font-size:4.23333311px;stroke-width:0.26458332"
           d="m 15.833948,220.60149 h -0.388607 v -0.24185 q -0.167431,0.14469 -0.349332,0.22531 -0.181901,0.0806 -0.394808,0.0806 -0.413412,0 -0.657324,-0.31832 -0.241846,-0.31833 -0.241846,-0.88264 0,-0.29352 0.08268,-0.52296 0.08475,-0.22944 0.227377,-0.39067 0.140559,-0.1571 0.326595,-0.23978 0.188102,-0.0827 0.388606,-0.0827 0.181901,0 0.322461,0.0393 0.14056,0.0372 0.295589,0.11782 v -1.00045 h 0.388607 z m -0.388607,-0.56844 v -1.32499 q -0.157096,-0.0703 -0.281119,-0.0971 -0.124024,-0.0269 -0.270785,-0.0269 -0.326595,0 -0.508496,0.22737 -0.181901,0.22738 -0.181901,0.64493 0,0.41134 0.14056,0.62631 0.14056,0.21291 0.450618,0.21291 0.165365,0 0.334864,-0.0724 0.169498,-0.0744 0.316259,-0.19016 z"
           inkscape:connector-curvature="0" />
        <path
           id="path1188"
           style="font-size:4.23333311px;stroke-width:0.26458332"
           d="m 17.016305,217.90604 h -0.438216 v -0.40307 h 0.438216 z m -0.02481,2.69545 h -0.388607 v -2.30891 H 16.9915 Z"
           inkscape:connector-curvature="0" />
        <path
           id="path1190"
           style="font-size:4.23333311px;stroke-width:0.26458332"
           d="m 19.414091,219.93589 q 0,0.31626 -0.262516,0.51884 -0.260449,0.20257 -0.713135,0.20257 -0.256315,0 -0.471289,-0.0599 -0.212907,-0.062 -0.357601,-0.13436 v -0.43615 h 0.02067 q 0.183968,0.1385 0.409277,0.22118 0.225309,0.0806 0.432015,0.0806 0.256315,0 0.401009,-0.0827 0.144694,-0.0827 0.144694,-0.26045 0,-0.13642 -0.07855,-0.2067 -0.07855,-0.0703 -0.30179,-0.11989 -0.08268,-0.0186 -0.217041,-0.0434 -0.132292,-0.0248 -0.241846,-0.0537 -0.303857,-0.0806 -0.432015,-0.23565 -0.12609,-0.15709 -0.12609,-0.38447 0,-0.14263 0.05788,-0.26872 0.05995,-0.12609 0.179834,-0.22531 0.115755,-0.0971 0.293522,-0.15296 0.179834,-0.0579 0.401009,-0.0579 0.206706,0 0.417546,0.0517 0.212907,0.0496 0.353467,0.12196 v 0.41547 h -0.02067 q -0.148828,-0.10955 -0.361735,-0.18396 -0.212907,-0.0765 -0.417545,-0.0765 -0.212907,0 -0.359668,0.0827 -0.146761,0.0806 -0.146761,0.24184 0,0.14263 0.08888,0.21498 0.08682,0.0723 0.28112,0.11782 0.107487,0.0248 0.239778,0.0496 0.134359,0.0248 0.223243,0.0455 0.270784,0.062 0.417545,0.21291 0.146761,0.15296 0.146761,0.40514 z"
           inkscape:connector-curvature="0" />
        <path
           id="path1192"
           style="font-size:4.23333311px;stroke-width:0.26458332"
           d="m 21.679586,220.45679 q -0.194304,0.093 -0.370004,0.1447 -0.173632,0.0517 -0.370003,0.0517 -0.250114,0 -0.458887,-0.0723 -0.208772,-0.0744 -0.3576,-0.22325 -0.150896,-0.14882 -0.233578,-0.3762 -0.08268,-0.22738 -0.08268,-0.53123 0,-0.56638 0.310058,-0.88884 0.312126,-0.32246 0.822689,-0.32246 0.198438,0 0.388607,0.0558 0.192236,0.0558 0.3514,0.13643 v 0.43201 h -0.02067 q -0.177767,-0.13849 -0.367936,-0.21291 -0.188102,-0.0744 -0.367936,-0.0744 -0.330729,0 -0.522966,0.22324 -0.190169,0.22118 -0.190169,0.65113 0,0.41754 0.186035,0.64285 0.188102,0.22324 0.5271,0.22324 0.117822,0 0.239778,-0.031 0.121957,-0.031 0.219108,-0.0806 0.08475,-0.0434 0.159164,-0.0909 0.07441,-0.0496 0.117822,-0.0848 h 0.02067 z"
           inkscape:connector-curvature="0" />
        <path
           id="path1194"
           style="font-size:4.23333311px;stroke-width:0.26458332"
           d="m 24.147652,219.44807 q 0,0.5643 -0.289388,0.8909 -0.289388,0.32659 -0.775146,0.32659 -0.489893,0 -0.779281,-0.32659 -0.287321,-0.3266 -0.287321,-0.8909 0,-0.56431 0.287321,-0.8909 0.289388,-0.32867 0.779281,-0.32867 0.485758,0 0.775146,0.32867 0.289388,0.32659 0.289388,0.8909 z m -0.401009,0 q 0,-0.44855 -0.1757,-0.66559 -0.1757,-0.21911 -0.487825,-0.21911 -0.31626,0 -0.49196,0.21911 -0.173633,0.21704 -0.173633,0.66559 0,0.43408 0.1757,0.65939 0.1757,0.22324 0.489893,0.22324 0.310058,0 0.485758,-0.22117 0.177767,-0.22325 0.177767,-0.66146 z"
           inkscape:connector-curvature="0" />
      </g>
      <g
         id="text1164"
         style="font-style:normal;font-weight:normal;font-size:10.58333302px;line-height:1.25;font-family:sans-serif;letter-spacing:0px;word-spacing:0px;fill:#000000;fill-opacity:1;stroke:none;stroke-width:0.26458332"
         aria-label="Orificio">
        <path
           id="path1347"
           style="font-size:4.23333311px;stroke-width:0.26458332"
           d="m 0.12815565,256.35466 q 0.1881022,0.2067 0.28732094,0.50643 0.10128581,0.29972 0.10128581,0.68006 0,0.38034 -0.10335286,0.68213 -0.10128581,0.29972 -0.28525389,0.50023 -0.19016927,0.20877 -0.45061847,0.31419 -0.25838215,0.10542 -0.59117835,0.10542 -0.32452803,0 -0.59117833,-0.10749 -0.2645833,-0.10748 -0.4506185,-0.31212 -0.1860351,-0.20464 -0.2873209,-0.5023 -0.099219,-0.29765 -0.099219,-0.68006 0,-0.3762 0.099219,-0.67386 0.099219,-0.29972 0.289388,-0.51263 0.181901,-0.20257 0.4506184,-0.31006 0.2707845,-0.10749 0.58911133,-0.10749 0.33072914,0 0.59324541,0.10956 0.26458332,0.10748 0.44855141,0.30799 z m -0.03720703,1.18649 q 0,-0.59945 -0.26871744,-0.92397 -0.26871743,-0.3266 -0.7338053,-0.3266 -0.46922198,0 -0.73793938,0.3266 -0.2666504,0.32452 -0.2666504,0.92397 0,0.60565 0.2728515,0.92811 0.2728516,0.32039 0.73173828,0.32039 0.4588867,0 0.72967119,-0.32039 0.27285155,-0.32246 0.27285155,-0.92811 z"
           inkscape:connector-curvature="0" />
        <path
           id="path1349"
           style="font-size:4.23333311px;stroke-width:0.26458332"
           d="m 2.5755513,257.19388 h -0.020671 q -0.086816,-0.0207 -0.1694987,-0.0289 -0.080615,-0.0103 -0.1922363,-0.0103 -0.179834,0 -0.3472656,0.0806 -0.1674316,0.0785 -0.3224609,0.20463 v 1.63918 H 1.1348124 v -2.3089 h 0.3886068 v 0.34106 q 0.2315104,-0.18603 0.4072102,-0.26251 0.1777669,-0.0785 0.361735,-0.0785 0.1012858,0 0.1467611,0.006 0.045475,0.004 0.1364258,0.0186 z"
           inkscape:connector-curvature="0" />
        <path
           id="path1351"
           style="font-size:4.23333311px;stroke-width:0.26458332"
           d="M 3.3631003,256.3836 H 2.9248842 v -0.40308 h 0.4382161 z m -0.024805,2.69544 H 2.9496889 v -2.3089 h 0.3886068 z"
           inkscape:connector-curvature="0" />
        <path
           id="path1353"
           style="font-size:4.23333311px;stroke-width:0.26458332"
           d="m 5.3536763,256.2389 h -0.020671 q -0.064079,-0.0186 -0.1674316,-0.0372 -0.1033529,-0.0207 -0.1819011,-0.0207 -0.2501139,0 -0.363802,0.11162 -0.1116211,0.10955 -0.1116211,0.39894 v 0.0786 h 0.7007324 v 0.32659 H 4.5206522 v 1.98231 H 4.1320455 v -1.98231 H 3.8695292 v -0.32659 h 0.2625163 v -0.0765 q 0,-0.41135 0.2046386,-0.63046 0.2046387,-0.22117 0.5911784,-0.22117 0.1302246,0 0.2335775,0.0124 0.1054199,0.0124 0.1922363,0.0289 z"
           inkscape:connector-curvature="0" />
        <path
           id="path1355"
           style="font-size:4.23333311px;stroke-width:0.26458332"
           d="M 6.0172017,256.3836 H 5.5789856 v -0.40308 h 0.4382161 z m -0.024805,2.69544 H 5.6037903 v -2.3089 H 5.992397 Z"
           inkscape:connector-curvature="0" />
        <path
           id="path1357"
           style="font-size:4.23333311px;stroke-width:0.26458332"
           d="m 8.4728655,258.93435 q -0.1943034,0.093 -0.3700032,0.14469 -0.1736328,0.0517 -0.3700033,0.0517 -0.2501139,0 -0.4588866,-0.0723 -0.2087728,-0.0744 -0.3576009,-0.22324 -0.1508952,-0.14883 -0.2335775,-0.37621 -0.082682,-0.22737 -0.082682,-0.53123 0,-0.56637 0.3100586,-0.88883 0.3121256,-0.32247 0.8226887,-0.32247 0.1984375,0 0.3886068,0.0558 0.1922363,0.0558 0.3513997,0.13643 v 0.43202 h -0.020671 q -0.1777669,-0.1385 -0.3679361,-0.21291 -0.1881022,-0.0744 -0.3679362,-0.0744 -0.3307292,0 -0.5229655,0.22325 -0.1901692,0.22117 -0.1901692,0.65112 0,0.41755 0.1860351,0.64285 0.1881022,0.22325 0.5270996,0.22325 0.1178222,0 0.2397786,-0.031 0.1219564,-0.031 0.2191081,-0.0806 0.084749,-0.0434 0.1591634,-0.0909 0.074414,-0.0496 0.1178222,-0.0848 h 0.020671 z"
           inkscape:connector-curvature="0" />
        <path
           id="path1359"
           style="font-size:4.23333311px;stroke-width:0.26458332"
           d="M 9.3906386,256.3836 H 8.9524225 v -0.40308 h 0.4382161 z m -0.024805,2.69544 H 8.9772272 v -2.3089 H 9.365834 Z"
           inkscape:connector-curvature="0" />
        <path
           id="path1361"
           style="font-size:4.23333311px;stroke-width:0.26458332"
           d="m 12.106752,257.92562 q 0,0.56431 -0.289388,0.8909 -0.289388,0.3266 -0.775147,0.3266 -0.489892,0 -0.77928,-0.3266 -0.2873213,-0.32659 -0.2873213,-0.8909 0,-0.5643 0.2873213,-0.8909 0.289388,-0.32866 0.77928,-0.32866 0.485759,0 0.775147,0.32866 0.289388,0.3266 0.289388,0.8909 z m -0.401009,0 q 0,-0.44855 -0.1757,-0.66559 -0.1757,-0.21911 -0.487826,-0.21911 -0.31626,0 -0.491959,0.21911 -0.173633,0.21704 -0.173633,0.66559 0,0.43408 0.1757,0.65939 0.1757,0.22325 0.489892,0.22325 0.310059,0 0.485759,-0.22118 0.177767,-0.22324 0.177767,-0.66146 z"
           inkscape:connector-curvature="0" />
      </g>
      <g
         id="text1168"
         style="font-style:normal;font-weight:normal;font-size:10.58333302px;line-height:1.25;font-family:sans-serif;letter-spacing:0px;word-spacing:0px;fill:#000000;fill-opacity:1;stroke:none;stroke-width:0.26458332"
         aria-label="de">
        <path
           id="path1342"
           style="font-size:4.23333311px;stroke-width:0.26458332"
           d="M 16.788337,259.07904 H 16.39973 v -0.24185 q -0.167432,0.1447 -0.349333,0.22531 -0.181901,0.0806 -0.394808,0.0806 -0.413411,0 -0.657324,-0.31833 -0.241845,-0.31832 -0.241845,-0.88263 0,-0.29352 0.08268,-0.52297 0.08475,-0.22944 0.227376,-0.39067 0.14056,-0.1571 0.326595,-0.23978 0.188102,-0.0827 0.388607,-0.0827 0.181901,0 0.322461,0.0393 0.14056,0.0372 0.295589,0.11783 v -1.00046 h 0.388607 z M 16.39973,258.5106 v -1.32498 q -0.157096,-0.0703 -0.28112,-0.0972 -0.124023,-0.0269 -0.270784,-0.0269 -0.326595,0 -0.508496,0.22738 -0.181901,0.22738 -0.181901,0.64492 0,0.41135 0.14056,0.62632 0.140559,0.21291 0.450618,0.21291 0.165365,0 0.334863,-0.0724 0.169499,-0.0744 0.31626,-0.19017 z"
           inkscape:connector-curvature="0" />
        <path
           id="path1344"
           style="font-size:4.23333311px;stroke-width:0.26458332"
           d="m 19.485846,257.9649 h -1.701188 q 0,0.2129 0.06408,0.37207 0.06408,0.15709 0.1757,0.25838 0.107487,0.0992 0.254248,0.14883 0.148828,0.0496 0.326595,0.0496 0.235644,0 0.473356,-0.093 0.239779,-0.0951 0.341064,-0.18604 h 0.02067 v 0.42375 q -0.19637,0.0827 -0.401009,0.13849 -0.204639,0.0558 -0.429948,0.0558 -0.574642,0 -0.897103,-0.31005 -0.322461,-0.31213 -0.322461,-0.88471 0,-0.56637 0.307992,-0.89916 0.310058,-0.3328 0.81442,-0.3328 0.467155,0 0.719336,0.27285 0.254248,0.27285 0.254248,0.77515 z m -0.378271,-0.29766 q -0.0021,-0.30592 -0.155029,-0.47336 -0.150896,-0.16743 -0.460954,-0.16743 -0.312126,0 -0.498161,0.18397 -0.183968,0.18397 -0.208773,0.45682 z"
           inkscape:connector-curvature="0" />
      </g>
      <g
         id="text1172"
         style="font-style:normal;font-weight:normal;font-size:10.58333302px;line-height:1.25;font-family:sans-serif;letter-spacing:0px;word-spacing:0px;fill:#000000;fill-opacity:1;stroke:none;stroke-width:0.26458332"
         aria-label="proteccin">
        <path
           id="path1321"
           style="font-size:4.23333311px;stroke-width:0.26458332"
           d="m 24.006211,257.89668 q 0,0.28112 -0.08062,0.5147 -0.08061,0.23151 -0.227376,0.39274 -0.136426,0.15296 -0.322461,0.23771 -0.183968,0.0827 -0.390674,0.0827 -0.179834,0 -0.326595,-0.0393 -0.144694,-0.0393 -0.295589,-0.12195 v 0.96738 h -0.388607 v -3.16053 h 0.388607 v 0.24184 q 0.155029,-0.13022 0.347265,-0.21704 0.194304,-0.0889 0.413412,-0.0889 0.417545,0 0.649056,0.31626 0.233577,0.31419 0.233577,0.87436 z m -0.401009,0.0103 q 0,-0.41755 -0.142627,-0.62425 -0.142627,-0.20671 -0.438216,-0.20671 -0.167432,0 -0.33693,0.0724 -0.169499,0.0723 -0.324528,0.19017 v 1.30845 q 0.165364,0.0744 0.283187,0.10128 0.119889,0.0269 0.270784,0.0269 0.324528,0 0.506429,-0.2191 0.181901,-0.21911 0.181901,-0.64906 z"
           inkscape:connector-curvature="0" />
        <path
           id="path1323"
           style="font-size:4.23333311px;stroke-width:0.26458332"
           d="m 26.052598,257.19388 h -0.02067 q -0.08682,-0.0207 -0.169499,-0.0289 -0.08062,-0.0103 -0.192236,-0.0103 -0.179834,0 -0.347265,0.0806 -0.167432,0.0785 -0.322461,0.20463 v 1.63918 H 24.61186 v -2.3089 h 0.388607 v 0.34106 q 0.23151,-0.18603 0.40721,-0.26251 0.177767,-0.0785 0.361735,-0.0785 0.101286,0 0.146761,0.006 0.04547,0.004 0.136426,0.0186 z"
           inkscape:connector-curvature="0" />
        <path
           id="path1325"
           style="font-size:4.23333311px;stroke-width:0.26458332"
           d="m 28.390439,257.92562 q 0,0.56431 -0.289388,0.8909 -0.289388,0.3266 -0.775146,0.3266 -0.489893,0 -0.779281,-0.3266 -0.28732,-0.32659 -0.28732,-0.8909 0,-0.5643 0.28732,-0.8909 0.289388,-0.32866 0.779281,-0.32866 0.485758,0 0.775146,0.32866 0.289388,0.3266 0.289388,0.8909 z m -0.401009,0 q 0,-0.44855 -0.175699,-0.66559 -0.1757,-0.21911 -0.487826,-0.21911 -0.31626,0 -0.49196,0.21911 -0.173632,0.21704 -0.173632,0.66559 0,0.43408 0.175699,0.65939 0.1757,0.22325 0.489893,0.22325 0.310059,0 0.485758,-0.22118 0.177767,-0.22324 0.177767,-0.66146 z"
           inkscape:connector-curvature="0" />
        <path
           id="path1327"
           style="font-size:4.23333311px;stroke-width:0.26458332"
           d="m 30.192913,259.05837 q -0.109554,0.0289 -0.239778,0.0475 -0.128158,0.0186 -0.229444,0.0186 -0.353466,0 -0.537434,-0.19017 -0.183968,-0.19017 -0.183968,-0.60979 v -1.22783 h -0.262517 v -0.32659 h 0.262517 v -0.66353 h 0.388606 v 0.66353 h 0.802018 v 0.32659 h -0.802018 v 1.05213 q 0,0.18191 0.0083,0.28526 0.0083,0.10128 0.05788,0.19017 0.04547,0.0827 0.124024,0.12195 0.08062,0.0372 0.243912,0.0372 0.09509,0 0.198438,-0.0269 0.103353,-0.0289 0.148828,-0.0475 h 0.02067 z"
           inkscape:connector-curvature="0" />
        <path
           id="path1329"
           style="font-size:4.23333311px;stroke-width:0.26458332"
           d="m 32.596901,257.9649 h -1.701188 q 0,0.2129 0.06408,0.37207 0.06408,0.15709 0.1757,0.25838 0.107487,0.0992 0.254248,0.14883 0.148828,0.0496 0.326595,0.0496 0.235645,0 0.473356,-0.093 0.239779,-0.0951 0.341065,-0.18604 h 0.02067 v 0.42375 q -0.19637,0.0827 -0.401009,0.13849 -0.204639,0.0558 -0.429948,0.0558 -0.574642,0 -0.897103,-0.31005 -0.322461,-0.31213 -0.322461,-0.88471 0,-0.56637 0.307992,-0.89916 0.310059,-0.3328 0.814421,-0.3328 0.467154,0 0.719335,0.27285 0.254248,0.27285 0.254248,0.77515 z m -0.378271,-0.29766 q -0.0021,-0.30592 -0.155029,-0.47336 -0.150895,-0.16743 -0.460954,-0.16743 -0.312126,0 -0.498161,0.18397 -0.183968,0.18397 -0.208773,0.45682 z"
           inkscape:connector-curvature="0" />
        <path
           id="path1331"
           style="font-size:4.23333311px;stroke-width:0.26458332"
           d="m 34.893402,258.93435 q -0.194304,0.093 -0.370003,0.14469 -0.173633,0.0517 -0.370004,0.0517 -0.250114,0 -0.458886,-0.0723 -0.208773,-0.0744 -0.357601,-0.22324 -0.150895,-0.14883 -0.233578,-0.37621 -0.08268,-0.22737 -0.08268,-0.53123 0,-0.56637 0.310059,-0.88883 0.312125,-0.32247 0.822688,-0.32247 0.198438,0 0.388607,0.0558 0.192236,0.0558 0.3514,0.13643 v 0.43202 h -0.02067 q -0.177767,-0.1385 -0.367936,-0.21291 -0.188102,-0.0744 -0.367936,-0.0744 -0.330729,0 -0.522966,0.22325 -0.190169,0.22117 -0.190169,0.65112 0,0.41755 0.186035,0.64285 0.188102,0.22325 0.5271,0.22325 0.117822,0 0.239779,-0.031 0.121956,-0.031 0.219108,-0.0806 0.08475,-0.0434 0.159163,-0.0909 0.07441,-0.0496 0.117822,-0.0848 h 0.02067 z"
           inkscape:connector-curvature="0" />
        <path
           id="path1333"
           style="font-size:4.23333311px;stroke-width:0.26458332"
           d="m 37.101019,258.93435 q -0.194304,0.093 -0.370004,0.14469 -0.173632,0.0517 -0.370003,0.0517 -0.250114,0 -0.458887,-0.0723 -0.208772,-0.0744 -0.3576,-0.22324 -0.150896,-0.14883 -0.233578,-0.37621 -0.08268,-0.22737 -0.08268,-0.53123 0,-0.56637 0.310058,-0.88883 0.312126,-0.32247 0.822689,-0.32247 0.198438,0 0.388607,0.0558 0.192236,0.0558 0.3514,0.13643 v 0.43202 h -0.02067 q -0.177767,-0.1385 -0.367936,-0.21291 -0.188102,-0.0744 -0.367936,-0.0744 -0.330729,0 -0.522966,0.22325 -0.190169,0.22117 -0.190169,0.65112 0,0.41755 0.186035,0.64285 0.188102,0.22325 0.5271,0.22325 0.117822,0 0.239778,-0.031 0.121957,-0.031 0.219108,-0.0806 0.08475,-0.0434 0.159164,-0.0909 0.07441,-0.0496 0.117822,-0.0848 h 0.02067 z"
           inkscape:connector-curvature="0" />
        <path
           id="path1335"
           style="font-size:4.23333311px;stroke-width:0.26458332"
           d="m 38.018792,256.3836 h -0.438216 v -0.40308 h 0.438216 z m -0.02481,2.69544 H 37.60538 v -2.3089 h 0.388607 z"
           inkscape:connector-curvature="0" />
        <path
           id="path1337"
           style="font-size:4.23333311px;stroke-width:0.26458332"
           d="m 40.734905,257.92562 q 0,0.56431 -0.289388,0.8909 -0.289388,0.3266 -0.775147,0.3266 -0.489892,0 -0.77928,-0.3266 -0.287321,-0.32659 -0.287321,-0.8909 0,-0.5643 0.287321,-0.8909 0.289388,-0.32866 0.77928,-0.32866 0.485759,0 0.775147,0.32866 0.289388,0.3266 0.289388,0.8909 z m -0.401009,0 q 0,-0.44855 -0.1757,-0.66559 -0.1757,-0.21911 -0.487826,-0.21911 -0.316259,0 -0.491959,0.21911 -0.173633,0.21704 -0.173633,0.66559 0,0.43408 0.1757,0.65939 0.1757,0.22325 0.489892,0.22325 0.310059,0 0.485759,-0.22118 0.177767,-0.22324 0.177767,-0.66146 z m -0.02067,-2.31097 -0.564307,0.77308 h -0.307991 l 0.370003,-0.77308 z"
           inkscape:connector-curvature="0" />
        <path
           id="path1339"
           style="font-size:4.23333311px;stroke-width:0.26458332"
           d="M 43.269116,259.07904 H 42.88051 v -1.31465 q 0,-0.15916 -0.0186,-0.29765 -0.0186,-0.14056 -0.06821,-0.21911 -0.05168,-0.0868 -0.148828,-0.12816 -0.09715,-0.0434 -0.252181,-0.0434 -0.159163,0 -0.332796,0.0786 -0.173633,0.0786 -0.332796,0.2005 v 1.72393 h -0.388607 v -2.3089 h 0.388607 v 0.25631 q 0.181901,-0.15089 0.376204,-0.23564 0.194304,-0.0848 0.398942,-0.0848 0.374138,0 0.570508,0.22531 0.19637,0.22531 0.19637,0.64905 z"
           inkscape:connector-curvature="0" />
      </g>
      <g
         id="text1176"
         style="font-style:normal;font-weight:normal;font-size:10.58333302px;line-height:1.25;font-family:sans-serif;letter-spacing:0px;word-spacing:0px;fill:#000000;fill-opacity:1;stroke:none;stroke-width:0.26458332"
         aria-label="escritura">
        <path
           id="path1302"
           style="font-size:4.23333311px;stroke-width:0.26458332"
           d="m 21.591889,264.66463 h -1.701188 q 0,0.21291 0.06408,0.37207 0.06408,0.1571 0.1757,0.25839 0.107486,0.0992 0.254248,0.14882 0.148828,0.0496 0.326595,0.0496 0.235644,0 0.473356,-0.093 0.239778,-0.0951 0.341064,-0.18604 h 0.02067 v 0.42375 q -0.196371,0.0827 -0.401009,0.13849 -0.204639,0.0558 -0.429948,0.0558 -0.574642,0 -0.897103,-0.31006 -0.322461,-0.31212 -0.322461,-0.8847 0,-0.56637 0.307991,-0.89917 0.310059,-0.33279 0.814421,-0.33279 0.467155,0 0.719336,0.27285 0.254248,0.27285 0.254248,0.77514 z m -0.378272,-0.29765 q -0.0021,-0.30593 -0.155029,-0.47336 -0.150895,-0.16743 -0.460954,-0.16743 -0.312125,0 -0.49816,0.18397 -0.183968,0.18397 -0.208773,0.45682 z"
           inkscape:connector-curvature="0" />
        <path
           id="path1304"
           style="font-size:4.23333311px;stroke-width:0.26458332"
           d="m 23.830512,265.11319 q 0,0.31626 -0.262516,0.51883 -0.26045,0.20257 -0.713135,0.20257 -0.256315,0 -0.471289,-0.06 -0.212907,-0.062 -0.357601,-0.13435 v -0.43615 h 0.02067 q 0.183968,0.13849 0.409277,0.22117 0.225309,0.0806 0.432015,0.0806 0.256315,0 0.401009,-0.0827 0.144694,-0.0827 0.144694,-0.26044 0,-0.13643 -0.07855,-0.20671 -0.07855,-0.0703 -0.301791,-0.11989 -0.08268,-0.0186 -0.217041,-0.0434 -0.132291,-0.0248 -0.241845,-0.0537 -0.303858,-0.0806 -0.432015,-0.23565 -0.126091,-0.15709 -0.126091,-0.38447 0,-0.14263 0.05788,-0.26872 0.05995,-0.12609 0.179834,-0.22531 0.115755,-0.0971 0.293522,-0.15296 0.179834,-0.0579 0.401009,-0.0579 0.206706,0 0.417546,0.0517 0.212907,0.0496 0.353466,0.12196 v 0.41548 h -0.02067 q -0.148828,-0.10956 -0.361735,-0.18397 -0.212907,-0.0765 -0.417546,-0.0765 -0.212907,0 -0.359668,0.0827 -0.146761,0.0806 -0.146761,0.24184 0,0.14263 0.08888,0.21498 0.08682,0.0723 0.28112,0.11782 0.107486,0.0248 0.239778,0.0496 0.134359,0.0248 0.223242,0.0455 0.270785,0.062 0.417546,0.2129 0.146761,0.15296 0.146761,0.40515 z"
           inkscape:connector-curvature="0" />
        <path
           id="path1306"
           style="font-size:4.23333311px;stroke-width:0.26458332"
           d="m 26.096007,265.63408 q -0.194304,0.093 -0.370004,0.1447 -0.173632,0.0517 -0.370003,0.0517 -0.250114,0 -0.458887,-0.0723 -0.208772,-0.0744 -0.3576,-0.22324 -0.150896,-0.14883 -0.233578,-0.37621 -0.08268,-0.22738 -0.08268,-0.53123 0,-0.56638 0.310058,-0.88884 0.312126,-0.32246 0.822689,-0.32246 0.198438,0 0.388607,0.0558 0.192236,0.0558 0.3514,0.13643 v 0.43201 h -0.02067 q -0.177767,-0.13849 -0.367936,-0.2129 -0.188102,-0.0744 -0.367936,-0.0744 -0.33073,0 -0.522966,0.22324 -0.190169,0.22118 -0.190169,0.65113 0,0.41754 0.186035,0.64285 0.188102,0.22324 0.5271,0.22324 0.117822,0 0.239778,-0.031 0.121957,-0.031 0.219108,-0.0806 0.08475,-0.0434 0.159164,-0.0909 0.07441,-0.0496 0.117822,-0.0847 h 0.02067 z"
           inkscape:connector-curvature="0" />
        <path
           id="path1308"
           style="font-size:4.23333311px;stroke-width:0.26458332"
           d="m 28.036973,263.89362 h -0.02067 q -0.08682,-0.0207 -0.169499,-0.0289 -0.08061,-0.0103 -0.192236,-0.0103 -0.179834,0 -0.347266,0.0806 -0.167431,0.0786 -0.322461,0.20464 v 1.63918 h -0.388606 v -2.3089 h 0.388606 v 0.34106 q 0.231511,-0.18604 0.407211,-0.26252 0.177767,-0.0785 0.361735,-0.0785 0.101285,0 0.146761,0.006 0.04547,0.004 0.136425,0.0186 z"
           inkscape:connector-curvature="0" />
        <path
           id="path1310"
           style="font-size:4.23333311px;stroke-width:0.26458332"
           d="m 28.824522,263.08334 h -0.438217 v -0.40308 h 0.438217 z m -0.02481,2.69544 H 28.41111 v -2.3089 h 0.388607 z"
           inkscape:connector-curvature="0" />
        <path
           id="path1312"
           style="font-size:4.23333311px;stroke-width:0.26458332"
           d="m 30.77169,265.75811 q -0.109554,0.0289 -0.239778,0.0475 -0.128158,0.0186 -0.229444,0.0186 -0.353466,0 -0.537435,-0.19017 -0.183968,-0.19017 -0.183968,-0.60978 v -1.22783 h -0.262516 v -0.32659 h 0.262516 v -0.66353 h 0.388607 v 0.66353 h 0.802018 v 0.32659 h -0.802018 v 1.05213 q 0,0.1819 0.0083,0.28526 0.0083,0.10128 0.05788,0.19017 0.04547,0.0827 0.124023,0.12195 0.08062,0.0372 0.243913,0.0372 0.09509,0 0.198438,-0.0269 0.103352,-0.0289 0.148828,-0.0476 h 0.02067 z"
           inkscape:connector-curvature="0" />
        <path
           id="path1314"
           style="font-size:4.23333311px;stroke-width:0.26458332"
           d="m 33.157074,265.77878 h -0.388606 v -0.25632 q -0.196371,0.15503 -0.376205,0.23771 -0.179834,0.0827 -0.396875,0.0827 -0.363802,0 -0.566374,-0.22118 -0.202571,-0.22324 -0.202571,-0.65319 v -1.49861 h 0.388607 v 1.31464 q 0,0.1757 0.01654,0.30179 0.01654,0.12403 0.07028,0.21291 0.05581,0.091 0.144694,0.13229 0.08888,0.0413 0.258382,0.0413 0.150895,0 0.328662,-0.0785 0.179834,-0.0786 0.334864,-0.20051 v -1.72392 h 0.388606 z"
           inkscape:connector-curvature="0" />
        <path
           id="path1316"
           style="font-size:4.23333311px;stroke-width:0.26458332"
           d="m 35.362624,263.89362 h -0.02067 q -0.08682,-0.0207 -0.169499,-0.0289 -0.08062,-0.0103 -0.192236,-0.0103 -0.179834,0 -0.347265,0.0806 -0.167432,0.0786 -0.322461,0.20464 v 1.63918 h -0.388607 v -2.3089 h 0.388607 v 0.34106 q 0.23151,-0.18604 0.40721,-0.26252 0.177767,-0.0785 0.361735,-0.0785 0.101286,0 0.146761,0.006 0.04548,0.004 0.136426,0.0186 z"
           inkscape:connector-curvature="0" />
        <path
           id="path1318"
           style="font-size:4.23333311px;stroke-width:0.26458332"
           d="m 37.452419,265.77878 h -0.38654 v -0.24598 q -0.05168,0.0351 -0.14056,0.0992 -0.08682,0.062 -0.169499,0.0992 -0.09715,0.0475 -0.223242,0.0785 -0.12609,0.0331 -0.295589,0.0331 -0.312126,0 -0.529167,-0.20671 -0.217041,-0.2067 -0.217041,-0.5271 0,-0.26251 0.111621,-0.42375 0.113689,-0.16329 0.322461,-0.25631 0.21084,-0.093 0.506429,-0.12609 0.29559,-0.0331 0.634587,-0.0496 v -0.0599 q 0,-0.1323 -0.04754,-0.21911 -0.04548,-0.0868 -0.132292,-0.13643 -0.08268,-0.0475 -0.198438,-0.0641 -0.115755,-0.0165 -0.241845,-0.0165 -0.152962,0 -0.341065,0.0413 -0.188102,0.0393 -0.388606,0.11575 h -0.02067 v -0.39481 q 0.113688,-0.031 0.328662,-0.0682 0.214974,-0.0372 0.423747,-0.0372 0.243913,0 0.423747,0.0413 0.181901,0.0393 0.314192,0.13642 0.130225,0.0951 0.198438,0.24598 0.06821,0.1509 0.06821,0.37414 z m -0.38654,-0.56844 v -0.64286 q -0.177767,0.0103 -0.419613,0.031 -0.239778,0.0207 -0.380338,0.0599 -0.167432,0.0476 -0.270785,0.14883 -0.103353,0.0992 -0.103353,0.27492 0,0.19844 0.11989,0.29972 0.119889,0.0992 0.365869,0.0992 0.204639,0 0.374137,-0.0785 0.169499,-0.0806 0.314193,-0.19223 z"
           inkscape:connector-curvature="0" />
      </g>
      <g
         id="text1180"
         style="font-style:normal;font-weight:normal;font-size:10.58333302px;line-height:1.25;font-family:sans-serif;letter-spacing:0px;word-spacing:0px;fill:#000000;fill-opacity:1;stroke:none;stroke-width:0.26458332"
         aria-label="contra">
        <path
           id="path1289"
           style="font-size:4.23333311px;stroke-width:0.26458332"
           d="m 6.0774419,265.63408 q -0.1943034,0.093 -0.3700033,0.1447 -0.1736328,0.0517 -0.3700032,0.0517 -0.2501139,0 -0.4588867,-0.0723 -0.2087728,-0.0744 -0.3576009,-0.22324 -0.1508952,-0.14883 -0.2335775,-0.37621 -0.082682,-0.22738 -0.082682,-0.53123 0,-0.56638 0.3100585,-0.88884 0.3121257,-0.32246 0.8226888,-0.32246 0.1984375,0 0.3886067,0.0558 0.1922364,0.0558 0.3513998,0.13643 v 0.43201 h -0.020671 q -0.1777669,-0.13849 -0.3679362,-0.2129 -0.1881022,-0.0744 -0.3679362,-0.0744 -0.3307291,0 -0.5229654,0.22324 -0.1901693,0.22118 -0.1901693,0.65113 0,0.41754 0.1860352,0.64285 0.1881022,0.22324 0.5270995,0.22324 0.1178223,0 0.2397787,-0.031 0.1219563,-0.031 0.219108,-0.0806 0.084749,-0.0434 0.1591634,-0.0909 0.074414,-0.0496 0.1178223,-0.0847 h 0.020671 z"
           inkscape:connector-curvature="0" />
        <path
           id="path1291"
           style="font-size:4.23333311px;stroke-width:0.26458332"
           d="m 8.5455081,264.62536 q 0,0.56431 -0.289388,0.8909 -0.289388,0.3266 -0.7751464,0.3266 -0.4898926,0 -0.7792806,-0.3266 -0.2873209,-0.32659 -0.2873209,-0.8909 0,-0.56431 0.2873209,-0.8909 0.289388,-0.32866 0.7792806,-0.32866 0.4857584,0 0.7751464,0.32866 0.289388,0.32659 0.289388,0.8909 z m -0.4010091,0 q 0,-0.44855 -0.1756998,-0.66559 -0.1756999,-0.21911 -0.4878255,-0.21911 -0.3162598,0 -0.4919596,0.21911 -0.1736328,0.21704 -0.1736328,0.66559 0,0.43408 0.1756998,0.65939 0.1756999,0.22324 0.4898926,0.22324 0.3100585,0 0.4857584,-0.22117 0.1777669,-0.22324 0.1777669,-0.66146 z"
           inkscape:connector-curvature="0" />
        <path
           id="path1293"
           style="font-size:4.23333311px;stroke-width:0.26458332"
           d="m 11.079721,265.77878 h -0.388607 v -1.31465 q 0,-0.15916 -0.0186,-0.29766 -0.0186,-0.14056 -0.06821,-0.2191 -0.05168,-0.0868 -0.148828,-0.12816 -0.09715,-0.0434 -0.252181,-0.0434 -0.159163,0 -0.3327959,0.0786 -0.1736328,0.0786 -0.3327962,0.2005 v 1.72393 H 9.1490892 v -2.3089 h 0.3886067 v 0.25631 q 0.181901,-0.15089 0.3762044,-0.23564 0.1943037,-0.0847 0.3989417,-0.0847 0.374138,0 0.570508,0.22531 0.196371,0.2253 0.196371,0.64905 z"
           inkscape:connector-curvature="0" />
        <path
           id="path1295"
           style="font-size:4.23333311px;stroke-width:0.26458332"
           d="m 13.026888,265.75811 q -0.109554,0.0289 -0.239778,0.0475 -0.128158,0.0186 -0.229444,0.0186 -0.353466,0 -0.537435,-0.19017 -0.183968,-0.19017 -0.183968,-0.60978 v -1.22783 h -0.262516 v -0.32659 h 0.262516 v -0.66353 h 0.388607 v 0.66353 h 0.802018 v 0.32659 H 12.22487 v 1.05213 q 0,0.1819 0.0083,0.28526 0.0083,0.10128 0.05788,0.19017 0.04547,0.0827 0.124023,0.12195 0.08062,0.0372 0.243913,0.0372 0.09509,0 0.198438,-0.0269 0.103352,-0.0289 0.148828,-0.0476 h 0.02067 z"
           inkscape:connector-curvature="0" />
        <path
           id="path1297"
           style="font-size:4.23333311px;stroke-width:0.26458332"
           d="m 14.938916,263.89362 h -0.02067 q -0.08682,-0.0207 -0.169499,-0.0289 -0.08061,-0.0103 -0.192236,-0.0103 -0.179834,0 -0.347265,0.0806 -0.167432,0.0786 -0.322461,0.20464 v 1.63918 h -0.388607 v -2.3089 h 0.388607 v 0.34106 q 0.23151,-0.18604 0.40721,-0.26252 0.177767,-0.0785 0.361735,-0.0785 0.101286,0 0.146761,0.006 0.04547,0.004 0.136426,0.0186 z"
           inkscape:connector-curvature="0" />
        <path
           id="path1299"
           style="font-size:4.23333311px;stroke-width:0.26458332"
           d="m 17.028711,265.77878 h -0.38654 v -0.24598 q -0.05168,0.0351 -0.14056,0.0992 -0.08682,0.062 -0.169499,0.0992 -0.09715,0.0475 -0.223242,0.0785 -0.12609,0.0331 -0.295589,0.0331 -0.312126,0 -0.529167,-0.20671 -0.217041,-0.2067 -0.217041,-0.5271 0,-0.26251 0.111621,-0.42375 0.113689,-0.16329 0.322461,-0.25631 0.21084,-0.093 0.506429,-0.12609 0.29559,-0.0331 0.634587,-0.0496 v -0.0599 q 0,-0.1323 -0.04754,-0.21911 -0.04548,-0.0868 -0.132292,-0.13643 -0.08268,-0.0475 -0.198438,-0.0641 -0.115755,-0.0165 -0.241845,-0.0165 -0.152962,0 -0.341065,0.0413 -0.188102,0.0393 -0.388606,0.11575 h -0.02067 v -0.39481 q 0.113688,-0.031 0.328662,-0.0682 0.214974,-0.0372 0.423747,-0.0372 0.243913,0 0.423747,0.0413 0.181901,0.0393 0.314192,0.13642 0.130225,0.0951 0.198438,0.24598 0.06821,0.1509 0.06821,0.37414 z m -0.38654,-0.56844 v -0.64286 q -0.177767,0.0103 -0.419613,0.031 -0.239778,0.0207 -0.380338,0.0599 -0.167432,0.0476 -0.270785,0.14883 -0.103353,0.0992 -0.103353,0.27492 0,0.19844 0.11989,0.29972 0.119889,0.0992 0.365869,0.0992 0.204639,0 0.374137,-0.0785 0.169499,-0.0806 0.314193,-0.19223 z"
           inkscape:connector-curvature="0" />
      </g>
      <g
         id="text1184"
         style="font-style:normal;font-weight:normal;font-size:10.58333302px;line-height:1.25;font-family:sans-serif;letter-spacing:0px;word-spacing:0px;fill:#000000;fill-opacity:1;stroke:none;stroke-width:0.26458332"
         aria-label="(ABIERTO)">
        <path
           id="path1270"
           style="font-size:4.23333311px;stroke-width:0.26458332"
           d="m 10.87892,272.87659 h -0.473356 q -0.365869,-0.41961 -0.5684409,-0.91571 -0.2025716,-0.49609 -0.2025716,-1.11827 0,-0.62219 0.2025716,-1.11828 0.2025719,-0.49609 0.5684409,-0.91571 h 0.473356 v 0.0207 q -0.167432,0.1509 -0.320394,0.34934 -0.150895,0.19637 -0.28112,0.45888 -0.124023,0.25425 -0.202571,0.56017 -0.076481,0.30593 -0.076481,0.64493 0,0.35346 0.074414,0.64699 0.07648,0.29352 0.204638,0.5581 0.124024,0.25425 0.283187,0.45889 0.159163,0.2067 0.318327,0.34933 z"
           inkscape:connector-curvature="0" />
        <path
           id="path1272"
           style="font-size:4.23333311px;stroke-width:0.26458332"
           d="m 14.027048,272.02496 h -0.436149 l -0.30179,-0.85783 h -1.331185 l -0.301791,0.85783 H 11.240655 L 12.361,268.94712 h 0.545703 z m -0.86403,-1.20923 -0.539502,-1.51101 -0.541569,1.51101 z"
           inkscape:connector-curvature="0" />
        <path
           id="path1274"
           style="font-size:4.23333311px;stroke-width:0.26458332"
           d="m 16.815508,271.07825 q 0,0.22944 -0.08682,0.40514 -0.08682,0.1757 -0.233578,0.28939 -0.173633,0.13643 -0.382405,0.19431 -0.206706,0.0579 -0.5271,0.0579 h -1.091406 v -3.07784 h 0.911572 q 0.33693,0 0.504362,0.0248 0.167432,0.0248 0.320394,0.10335 0.169499,0.0889 0.24598,0.22945 0.07648,0.13849 0.07648,0.33279 0,0.21911 -0.111621,0.37414 -0.111621,0.15296 -0.297656,0.24598 v 0.0165 q 0.312125,0.0641 0.491959,0.27491 0.179834,0.20878 0.179834,0.52917 z m -0.68833,-1.38699 q 0,-0.11163 -0.03721,-0.18811 -0.03721,-0.0765 -0.119889,-0.12402 -0.09715,-0.0558 -0.235645,-0.0682 -0.138493,-0.0145 -0.343131,-0.0145 H 14.90348 v 0.88883 h 0.529167 q 0.192236,0 0.305924,-0.0186 0.113688,-0.0207 0.21084,-0.0827 0.09715,-0.062 0.136426,-0.15917 0.04134,-0.0992 0.04134,-0.23357 z m 0.262516,1.40353 q 0,-0.18604 -0.05581,-0.29559 -0.05581,-0.10956 -0.202572,-0.18604 -0.09922,-0.0517 -0.241845,-0.0661 -0.14056,-0.0165 -0.343132,-0.0165 H 14.90348 v 1.14515 h 0.541569 q 0.268718,0 0.440283,-0.0269 0.171566,-0.0289 0.28112,-0.10335 0.115755,-0.0806 0.169499,-0.18397 0.05374,-0.10335 0.05374,-0.26665 z"
           inkscape:connector-curvature="0" />
        <path
           id="path1276"
           style="font-size:4.23333311px;stroke-width:0.26458332"
           d="m 18.481556,272.02496 h -1.215429 v -0.31419 h 0.403076 v -2.44946 h -0.403076 v -0.31419 h 1.215429 v 0.31419 H 18.07848 v 2.44946 h 0.403076 z"
           inkscape:connector-curvature="0" />
        <path
           id="path1278"
           style="font-size:4.23333311px;stroke-width:0.26458332"
           d="m 21.210072,272.02496 h -2.027784 v -3.07784 h 2.027784 v 0.3638 h -1.618506 v 0.84336 h 1.618506 v 0.3638 h -1.618506 v 1.14308 h 1.618506 z"
           inkscape:connector-curvature="0" />
        <path
           id="path1280"
           style="font-size:4.23333311px;stroke-width:0.26458332"
           d="m 24.407809,272.02496 h -0.531233 l -1.029395,-1.22369 h -0.576709 v 1.22369 h -0.409277 v -3.07784 h 0.861963 q 0.279052,0 0.465088,0.0372 0.186035,0.0351 0.334863,0.12816 0.167432,0.10542 0.260449,0.26665 0.09509,0.15916 0.09509,0.40514 0,0.3328 -0.167432,0.55811 -0.167432,0.22324 -0.460954,0.33693 z m -0.957047,-2.21175 q 0,-0.13229 -0.04754,-0.23358 -0.04548,-0.10335 -0.152963,-0.17363 -0.08888,-0.0599 -0.210839,-0.0827 -0.121957,-0.0248 -0.287321,-0.0248 h -0.481625 v 1.16169 h 0.413412 q 0.194303,0 0.338997,-0.0331 0.144694,-0.0351 0.24598,-0.12816 0.09302,-0.0868 0.136426,-0.19844 0.04547,-0.11369 0.04547,-0.28732 z"
           inkscape:connector-curvature="0" />
        <path
           id="path1282"
           style="font-size:4.23333311px;stroke-width:0.26458332"
           d="m 26.875876,269.31092 h -1.099674 v 2.71404 h -0.409278 v -2.71404 H 24.26725 v -0.3638 h 2.608626 z"
           inkscape:connector-curvature="0" />
        <path
           id="path1284"
           style="font-size:4.23333311px;stroke-width:0.26458332"
           d="m 29.488635,269.30058 q 0.188102,0.20671 0.287321,0.50643 0.101286,0.29972 0.101286,0.68006 0,0.38034 -0.103353,0.68213 -0.101286,0.29972 -0.285254,0.50023 -0.190169,0.20877 -0.450618,0.31419 -0.258382,0.10542 -0.591179,0.10542 -0.324528,0 -0.591178,-0.10748 -0.264583,-0.10749 -0.450618,-0.31213 -0.186036,-0.20464 -0.287321,-0.5023 -0.09922,-0.29765 -0.09922,-0.68006 0,-0.3762 0.09922,-0.67386 0.09922,-0.29972 0.289388,-0.51263 0.181901,-0.20257 0.450618,-0.31006 0.270785,-0.10748 0.589111,-0.10748 0.33073,0 0.593246,0.10955 0.264583,0.10749 0.448551,0.30799 z m -0.03721,1.18649 q 0,-0.59944 -0.268717,-0.92397 -0.268718,-0.3266 -0.733806,-0.3266 -0.469222,0 -0.737939,0.3266 -0.26665,0.32453 -0.26665,0.92397 0,0.60565 0.272851,0.92811 0.272852,0.3204 0.731738,0.3204 0.458887,0 0.729672,-0.3204 0.272851,-0.32246 0.272851,-0.92811 z"
           inkscape:connector-curvature="0" />
        <path
           id="path1286"
           style="font-size:4.23333311px;stroke-width:0.26458332"
           d="m 31.661112,270.84261 q 0,0.62218 -0.202571,1.11827 -0.202572,0.4961 -0.568441,0.91571 h -0.473356 v -0.0207 q 0.159163,-0.14263 0.318327,-0.34933 0.16123,-0.20464 0.283186,-0.45889 0.128158,-0.26458 0.202572,-0.5581 0.07648,-0.29353 0.07648,-0.64699 0,-0.339 -0.07648,-0.64493 -0.07648,-0.30592 -0.202572,-0.56017 -0.130224,-0.26251 -0.283186,-0.45888 -0.150896,-0.19844 -0.318327,-0.34934 v -0.0207 H 30.8901 q 0.365869,0.41962 0.568441,0.91571 0.202571,0.49609 0.202571,1.11828 z"
           inkscape:connector-curvature="0" />
      </g>
    </g>
  </g>
</svg>
