<?xml version="1.0" encoding="UTF-8" standalone="no"?>
<!-- Created with Inkscape (http://www.inkscape.org/) -->

<svg
   xmlns:dc="http://purl.org/dc/elements/1.1/"
   xmlns:cc="http://creativecommons.org/ns#"
   xmlns:rdf="http://www.w3.org/1999/02/22-rdf-syntax-ns#"
   xmlns:svg="http://www.w3.org/2000/svg"
   xmlns="http://www.w3.org/2000/svg"
   xmlns:sodipodi="http://sodipodi.sourceforge.net/DTD/sodipodi-0.dtd"
   xmlns:inkscape="http://www.inkscape.org/namespaces/inkscape"
   width="280mm"
   height="48mm"
   viewBox="0 0 280 48"
   version="1.1"
   id="svg8"
   inkscape:version="0.92.4 (5da689c313, 2019-01-14)"
   sodipodi:docname="c01-p07-i04.svg">
  <defs
     id="defs2" />
  <sodipodi:namedview
     id="base"
     pagecolor="#ffffff"
     bordercolor="#666666"
     borderopacity="1.0"
     inkscape:pageopacity="0.0"
     inkscape:pageshadow="2"
     inkscape:zoom="0.98994949"
     inkscape:cx="541.90181"
     inkscape:cy="148.88937"
     inkscape:document-units="mm"
     inkscape:current-layer="layer1"
     showgrid="false"
     showguides="true"
     inkscape:guide-bbox="true"
     inkscape:window-width="1920"
     inkscape:window-height="1017"
     inkscape:window-x="-8"
     inkscape:window-y="-8"
     inkscape:window-maximized="1" />
  <metadata
     id="metadata5">
    <rdf:RDF>
      <cc:Work
         rdf:about="">
        <dc:format>image/svg+xml</dc:format>
        <dc:type
           rdf:resource="http://purl.org/dc/dcmitype/StillImage" />
        <dc:title></dc:title>
      </cc:Work>
    </rdf:RDF>
  </metadata>
  <g
     inkscape:label="Capa 1"
     inkscape:groupmode="layer"
     id="layer1"
     transform="translate(0,-249)">
    <g
       id="g1219"
       transform="translate(-1.3958616,128.61035)">
      <rect
         y="124.83184"
         x="2.6458333"
         height="19.276785"
         width="18.520834"
         id="rect826"
         style="opacity:1;fill:none;stroke:#000000;stroke-width:0.5;stroke-miterlimit:4;stroke-dasharray:none;stroke-dashoffset:0;stroke-opacity:1" />
      <g
         id="text830"
         style="font-style:normal;font-weight:normal;font-size:10.58333302px;line-height:1.25;font-family:sans-serif;letter-spacing:0px;word-spacing:0px;fill:#000000;fill-opacity:1;stroke:none;stroke-width:0.26458332"
         aria-label="Format ">
        <path
           id="path916"
           style="font-size:8.11388874px"
           d="m 41.688773,136.87776 v -4.93252 h 3.018937 q 0.130741,0 0.229788,0.099 0.103008,0.0991 0.103008,0.23375 0,0.13867 -0.09905,0.24167 -0.09905,0.0991 -0.233749,0.0991 h -2.353345 v 1.04593 h 1.687752 q 0.138665,0 0.23375,0.0991 0.09905,0.0951 0.09905,0.23375 0,0.13866 -0.09905,0.23771 -0.09508,0.0951 -0.23375,0.0951 h -1.687752 v 2.54748 q 0,0.13866 -0.09905,0.23771 -0.09508,0.0951 -0.23375,0.0951 -0.138665,0 -0.237712,-0.0951 -0.09508,-0.099 -0.09508,-0.23771 z"
           inkscape:connector-curvature="0" />
        <path
           id="path918"
           style="font-size:8.11388874px"
           d="m 49.937365,134.5878 v 1.40647 q 0,0.44769 -0.423919,0.82802 -0.419958,0.38034 -0.867648,0.38034 h -0.780486 q -0.455614,0 -0.871609,-0.3843 -0.415995,-0.38826 -0.415995,-0.82406 v -1.40647 q 0,-0.4358 0.404109,-0.8201 0.408072,-0.38826 0.883495,-0.38826 h 0.780486 q 0.44769,-0.008 0.867648,0.37241 0.423919,0.38034 0.423919,0.83595 z m -2.686141,0.0277 v 1.34703 q 0,0.18225 0.130741,0.28922 l 0.249597,0.21394 q 0.0832,0.0713 0.23375,0.0713 h 0.772563 q 0.17036,0 0.309025,-0.12282 l 0.202055,-0.17828 q 0.122817,-0.0951 0.122817,-0.26545 v -1.34703 q 0,-0.19809 -0.122817,-0.29318 l -0.23375,-0.1862 q -0.118856,-0.0991 -0.27733,-0.0991 h -0.689364 q -0.225826,0 -0.348644,0.10697 l -0.225826,0.19413 q -0.122817,0.10301 -0.122817,0.26941 z"
           inkscape:connector-curvature="0" />
        <path
           id="path920"
           style="font-size:8.11388874px"
           d="m 51.48249,136.87776 v -3.1576 q 0,-0.13867 0.09509,-0.23771 0.09905,-0.10301 0.237711,-0.10301 0.138665,0 0.23375,0.099 0.09905,0.0991 0.09905,0.24168 v 0.41599 l 0.542775,-0.46353 q 0.336758,-0.28526 0.657669,-0.28526 h 0.487309 q 0.412033,0 0.705211,0.29318 0.293177,0.29318 0.293177,0.70521 v 0.17828 q 0,0.14263 -0.09905,0.24168 -0.09508,0.099 -0.23375,0.099 -0.138665,0 -0.237712,-0.0951 -0.09508,-0.0991 -0.09508,-0.23771 v -0.18621 q 0,-0.13867 -0.09905,-0.23375 -0.09508,-0.099 -0.233749,-0.099 h -0.431843 q -0.138665,0 -0.309025,0.14659 l -0.946885,0.82011 v 1.85811 q 0,0.13866 -0.09905,0.23771 -0.09905,0.0951 -0.23375,0.0951 -0.138665,0 -0.237711,-0.0951 -0.09509,-0.099 -0.09509,-0.23771 z"
           inkscape:connector-curvature="0" />
        <path
           id="path922"
           style="font-size:8.11388874px"
           d="m 56.29615,136.87776 v -3.1576 q 0,-0.13867 0.09509,-0.23375 0.09905,-0.0991 0.237711,-0.0991 0.257521,0 0.324873,0.25356 0.27733,-0.26148 0.61805,-0.26148 0.400148,0 0.657669,0.34072 0.316948,-0.34072 0.697287,-0.34072 0.309025,0 0.534851,0.22186 0.229788,0.2179 0.245635,0.55862 l 0.09509,2.71784 q 0,0.1347 -0.09905,0.23375 -0.09905,0.099 -0.233749,0.099 -0.138665,0 -0.237712,-0.099 -0.09905,-0.0991 -0.103008,-0.23375 l -0.07924,-2.61087 q -0.0079,-0.21394 -0.130742,-0.21394 -0.06735,0 -0.138665,0.0594 l -0.396186,0.3328 v 2.43258 q 0,0.1347 -0.09905,0.22979 -0.09508,0.0951 -0.23375,0.0951 -0.134703,0 -0.23375,-0.0951 -0.09905,-0.0991 -0.09905,-0.23771 v -2.64653 q 0,-0.17036 -0.146589,-0.17036 -0.07131,0 -0.130741,0.0515 l -0.479385,0.40411 v 2.36919 q 0,0.1347 -0.09508,0.23375 -0.09509,0.099 -0.229788,0.099 -0.138665,0 -0.241673,-0.099 -0.09905,-0.0991 -0.09905,-0.23375 z"
           inkscape:connector-curvature="0" />
        <path
           id="path924"
           style="font-size:8.11388874px"
           d="m 62.266672,134.80967 h 1.303452 q 0.10697,0 0.309025,0.0475 l -0.0079,-0.47146 q 0,-0.13867 -0.09905,-0.23375 -0.09509,-0.099 -0.23375,-0.099 h -1.263833 q -0.134703,0 -0.23375,-0.099 -0.09905,-0.0991 -0.09905,-0.23375 0,-0.13867 0.09508,-0.23375 0.09905,-0.0991 0.237712,-0.0991 h 1.263833 q 0.412034,0 0.701249,0.28922 0.293178,0.28921 0.305064,0.70917 l 0.0832,2.49201 q 0,0.13866 -0.09905,0.23771 -0.09905,0.0951 -0.23375,0.0951 -0.142626,0 -0.241673,-0.0951 -0.09905,-0.099 -0.09905,-0.23771 l -0.562585,0.3328 h -1.125168 q -0.419957,0 -0.713134,-0.29318 -0.293178,-0.29318 -0.293178,-0.71314 v -0.38826 q 0,-0.41599 0.293178,-0.70917 0.297139,-0.29714 0.713134,-0.29714 z m 1.663981,1.29553 -0.01981,-0.28129 q -0.004,-0.14263 -0.09905,-0.23772 -0.09509,-0.0951 -0.23375,-0.0951 h -1.311376 q -0.138665,0 -0.237711,0.0991 -0.09509,0.0951 -0.09509,0.23375 v 0.37241 q 0,0.1347 0.09905,0.23375 0.09905,0.0991 0.233749,0.0991 h 0.938961 z"
           inkscape:connector-curvature="0" />
        <path
           id="path926"
           style="font-size:8.11388874px"
           d="M 68.510563,137.21056 H 67.84497 q -0.412033,0 -0.709173,-0.29318 -0.297139,-0.29318 -0.297139,-0.70521 v -2.15922 h -0.34072 q -0.138665,0 -0.237712,-0.0951 -0.09508,-0.0951 -0.09508,-0.23771 0,-0.13867 0.09508,-0.23375 0.09905,-0.0991 0.237712,-0.0991 h 0.348644 v -0.81614 q 0,-0.13867 0.09508,-0.23375 0.09905,-0.0991 0.237712,-0.0991 0.130741,0 0.229788,0.0991 0.103008,0.0991 0.103008,0.23375 v 0.81614 h 1.339109 q 0.134703,0 0.233749,0.0991 0.09905,0.099 0.09905,0.23375 0,0.13866 -0.09905,0.23771 -0.09905,0.0951 -0.233749,0.0951 H 67.50425 v 2.15922 q 0,0.1347 0.09905,0.23375 0.103008,0.099 0.241673,0.099 h 0.649745 q 0.265445,0 0.352606,-0.28525 0.08716,-0.28922 0.336758,-0.28922 0.146589,0 0.237712,0.099 0.09508,0.0951 0.09508,0.24167 0,0.30111 -0.285254,0.60221 -0.281292,0.29714 -0.721058,0.29714 z"
           inkscape:connector-curvature="0" />
      </g>
      <g
         id="text834"
         style="font-style:normal;font-weight:normal;font-size:10.58333302px;line-height:1.25;font-family:sans-serif;letter-spacing:0px;word-spacing:0px;fill:#000000;fill-opacity:1;stroke:none;stroke-width:0.26458332"
         aria-label="Y">
        <path
           id="path929"
           style="font-size:7.76111126px;stroke-width:0.26458332"
           d="m 13.839329,131.39646 -1.985753,3.16811 v 2.47461 h -0.750342 v -2.39503 l -1.9933324,-3.24769 h 0.8299235 l 1.5423689,2.52388 1.557528,-2.52388 z"
           inkscape:connector-curvature="0" />
      </g>
      <g
         id="text838"
         style="font-style:normal;font-weight:normal;font-size:10.58333302px;line-height:1.25;font-family:sans-serif;letter-spacing:0px;word-spacing:0px;fill:#000000;fill-opacity:1;stroke:none;stroke-width:0.26458332"
         aria-label="Any ">
        <path
           id="path973"
           style="font-size:8.11388874px"
           d="m 57.100149,155.81906 1.347032,-4.55218 q 0.07924,-0.2496 0.332797,-0.2496 0.245635,0 0.309025,0.20998 l 1.327223,4.62349 q 0.01585,0.0515 0.01585,0.0991 0,0.13866 -0.09508,0.23771 -0.09509,0.0951 -0.217903,0.0951 -0.261483,0 -0.332796,-0.24167 l -0.269406,-0.9033 h -1.517393 l -0.293177,0.96669 q -0.01189,0.0634 -0.09905,0.12282 -0.08716,0.0555 -0.190169,0.0555 -0.146589,0 -0.241674,-0.099 -0.09508,-0.0991 -0.09508,-0.24168 0,-0.0594 0.01981,-0.12281 z m 1.671905,-3.26062 -0.570508,1.90566 h 1.121206 z"
           inkscape:connector-curvature="0" />
        <path
           id="path975"
           style="font-size:8.11388874px"
           d="m 63.550057,153.23196 -0.907266,0.59032 v 2.12752 q 0,0.1347 -0.09905,0.23375 -0.09905,0.099 -0.233749,0.099 -0.134704,0 -0.23375,-0.099 -0.09905,-0.0991 -0.09905,-0.23375 v -3.15761 q 0,-0.13866 0.09508,-0.23771 0.09905,-0.10301 0.237712,-0.10301 0.134703,0 0.233749,0.10301 0.09905,0.099 0.09905,0.23771 v 0.22187 l 0.606164,-0.36845 q 0.305064,-0.19414 0.689364,-0.19414 h 0.309025 q 0.396186,0 0.685402,0.2813 0.289216,0.28129 0.305063,0.69332 l 0.09112,2.52371 q 0.004,0.1347 -0.09508,0.23375 -0.09905,0.099 -0.237711,0.099 -0.130742,0 -0.229788,-0.0872 -0.09905,-0.0911 -0.103009,-0.24563 l -0.09905,-2.48409 q -0.01189,-0.34864 -0.364491,-0.34864 h -0.324873 q -0.15055,0 -0.324872,0.11489 z"
           inkscape:connector-curvature="0" />
        <path
           id="path977"
           style="font-size:8.11388874px"
           d="m 70.233714,153.43402 -1.794722,4.05694 q -0.09112,0.2179 -0.316949,0.2179 H 67.19893 q -0.138665,0 -0.237712,-0.0951 -0.09508,-0.0951 -0.09508,-0.23771 0,-0.13867 0.09508,-0.23375 0.09905,-0.0951 0.237712,-0.0951 h 0.713134 l 0.455614,-1.05781 h -0.162436 q -0.225826,0 -0.324872,-0.23375 l -0.998389,-2.32165 v -0.64183 q 0,-0.13866 0.09508,-0.23375 0.09508,-0.099 0.229787,-0.099 0.138665,0 0.237712,0.099 0.103008,0.0951 0.103008,0.23375 v 0.49524 l 0.875571,2.02847 h 0.23375 l 0.903304,-2.02055 v -0.51108 q 0,-0.13074 0.09905,-0.22979 0.103008,-0.10301 0.241673,-0.10301 0.134703,0 0.23375,0.0991 0.09905,0.0991 0.09905,0.23375 z"
           inkscape:connector-curvature="0" />
      </g>
      <g
         id="text842"
         style="font-style:normal;font-weight:normal;font-size:10.58333302px;line-height:1.25;font-family:sans-serif;letter-spacing:0px;word-spacing:0px;fill:#000000;fill-opacity:1;stroke:none;stroke-width:0.26458332"
         aria-label="Inicializar con">
        <path
           id="path1079"
           style="font-size:7.05555534px;stroke-width:0.26458332"
           d="m 212.60325,127.4175 h -2.02571 v -0.52365 h 0.67179 v -4.08244 h -0.67179 v -0.52365 h 2.02571 v 0.52365 h -0.67179 v 4.08244 h 0.67179 z"
           inkscape:connector-curvature="0" />
        <path
           id="path1081"
           style="font-size:7.05555534px;stroke-width:0.26458332"
           d="m 216.93718,127.4175 h -0.64767 v -2.19108 q 0,-0.26527 -0.031,-0.49609 -0.031,-0.23427 -0.11369,-0.36518 -0.0861,-0.1447 -0.24804,-0.2136 -0.16192,-0.0723 -0.42031,-0.0723 -0.26527,0 -0.55466,0.13091 -0.28938,0.13091 -0.55466,0.33417 v 2.87321 h -0.64767 v -3.84817 h 0.64767 v 0.42719 q 0.30317,-0.25149 0.62701,-0.39274 0.32384,-0.14125 0.6649,-0.14125 0.62357,0 0.95085,0.37552 0.32728,0.37551 0.32728,1.08176 z"
           inkscape:connector-curvature="0" />
        <path
           id="path1083"
           style="font-size:7.05555534px;stroke-width:0.26458332"
           d="m 218.88022,122.9251 h -0.73036 v -0.67179 h 0.73036 z m -0.0413,4.4924 h -0.64768 v -3.84817 h 0.64768 z"
           inkscape:connector-curvature="0" />
        <path
           id="path1085"
           style="font-size:7.05555534px;stroke-width:0.26458332"
           d="m 222.97299,127.17635 q -0.32384,0.15503 -0.61667,0.24115 -0.28939,0.0861 -0.61667,0.0861 -0.41686,0 -0.76481,-0.12058 -0.34796,-0.12402 -0.596,-0.37207 -0.2515,-0.24804 -0.3893,-0.62701 -0.1378,-0.37896 -0.1378,-0.88538 0,-0.94396 0.51676,-1.4814 0.52021,-0.53743 1.37115,-0.53743 0.33073,0 0.64768,0.093 0.32039,0.093 0.58566,0.22737 v 0.72003 h -0.0345 q -0.29628,-0.23082 -0.61323,-0.35485 -0.3135,-0.12402 -0.61322,-0.12402 -0.55122,0 -0.87161,0.37207 -0.31695,0.36863 -0.31695,1.08521 0,0.6959 0.31006,1.07142 0.3135,0.37207 0.8785,0.37207 0.19637,0 0.39963,-0.0517 0.20326,-0.0517 0.36518,-0.13435 0.14125,-0.0724 0.26527,-0.15159 0.12402,-0.0827 0.19637,-0.14125 h 0.0345 z"
           inkscape:connector-curvature="0" />
        <path
           id="path1087"
           style="font-size:7.05555534px;stroke-width:0.26458332"
           d="m 224.50261,122.9251 h -0.73036 v -0.67179 h 0.73036 z m -0.0413,4.4924 h -0.64768 v -3.84817 h 0.64768 z"
           inkscape:connector-curvature="0" />
        <path
           id="path1089"
           style="font-size:7.05555534px;stroke-width:0.26458332"
           d="m 228.74008,127.4175 h -0.64423 v -0.40996 q -0.0861,0.0586 -0.23427,0.16536 -0.14469,0.10335 -0.2825,0.16537 -0.16191,0.0792 -0.37207,0.13091 -0.21015,0.0551 -0.49264,0.0551 -0.52021,0 -0.88195,-0.34451 -0.36173,-0.34451 -0.36173,-0.8785 0,-0.43752 0.18603,-0.70624 0.18948,-0.27216 0.53744,-0.42719 0.3514,-0.15503 0.84404,-0.21015 0.49265,-0.0551 1.05765,-0.0827 v -0.0999 q 0,-0.22049 -0.0792,-0.36518 -0.0758,-0.1447 -0.22048,-0.22738 -0.13781,-0.0792 -0.33073,-0.1068 -0.19293,-0.0276 -0.40308,-0.0276 -0.25494,0 -0.56844,0.0689 -0.3135,0.0655 -0.64768,0.19293 h -0.0345 v -0.65802 q 0.18948,-0.0517 0.54777,-0.11368 0.35829,-0.062 0.70625,-0.062 0.40652,0 0.70624,0.0689 0.30317,0.0654 0.52365,0.22737 0.21705,0.15848 0.33073,0.40997 0.11369,0.25149 0.11369,0.62356 z m -0.64423,-0.9474 v -1.07142 q -0.29628,0.0172 -0.69936,0.0517 -0.39963,0.0345 -0.63389,0.0999 -0.27906,0.0792 -0.45131,0.24805 -0.17226,0.16536 -0.17226,0.4582 0,0.33073 0.19982,0.49954 0.19982,0.16536 0.60978,0.16536 0.34107,0 0.62356,-0.13091 0.2825,-0.13436 0.52366,-0.3204 z"
           inkscape:connector-curvature="0" />
        <path
           id="path1091"
           style="font-size:7.05555534px;stroke-width:0.26458332"
           d="m 230.64867,127.4175 h -0.64768 v -5.36057 h 0.64768 z"
           inkscape:connector-curvature="0" />
        <path
           id="path1093"
           style="font-size:7.05555534px;stroke-width:0.26458332"
           d="m 232.63304,122.9251 h -0.73036 v -0.67179 h 0.73036 z m -0.0413,4.4924 h -0.64768 v -3.84817 h 0.64768 z"
           inkscape:connector-curvature="0" />
        <path
           id="path1095"
           style="font-size:7.05555534px;stroke-width:0.26458332"
           d="m 236.67069,127.4175 h -3.10748 v -0.47886 l 2.24276,-2.82843 h -2.19452 v -0.54088 h 3.00067 v 0.46164 l -2.25309,2.83876 h 2.31166 z"
           inkscape:connector-curvature="0" />
        <path
           id="path1097"
           style="font-size:7.05555534px;stroke-width:0.26458332"
           d="m 240.57743,127.4175 h -0.64423 v -0.40996 q -0.0861,0.0586 -0.23427,0.16536 -0.14469,0.10335 -0.2825,0.16537 -0.16192,0.0792 -0.37207,0.13091 -0.21015,0.0551 -0.49265,0.0551 -0.52021,0 -0.88194,-0.34451 -0.36174,-0.34451 -0.36174,-0.8785 0,-0.43752 0.18604,-0.70624 0.18948,-0.27216 0.53743,-0.42719 0.3514,-0.15503 0.84405,-0.21015 0.49265,-0.0551 1.05765,-0.0827 v -0.0999 q 0,-0.22049 -0.0792,-0.36518 -0.0758,-0.1447 -0.22049,-0.22738 -0.1378,-0.0792 -0.33073,-0.1068 -0.19292,-0.0276 -0.40307,-0.0276 -0.25494,0 -0.56844,0.0689 -0.31351,0.0655 -0.64768,0.19293 h -0.0344 v -0.65802 q 0.18948,-0.0517 0.54777,-0.11368 0.35829,-0.062 0.70624,-0.062 0.40652,0 0.70625,0.0689 0.30317,0.0654 0.52365,0.22737 0.21704,0.15848 0.33073,0.40997 0.11369,0.25149 0.11369,0.62356 z m -0.64423,-0.9474 v -1.07142 q -0.29628,0.0172 -0.69936,0.0517 -0.39963,0.0345 -0.6339,0.0999 -0.27905,0.0792 -0.4513,0.24805 -0.17226,0.16536 -0.17226,0.4582 0,0.33073 0.19982,0.49954 0.19981,0.16536 0.60978,0.16536 0.34106,0 0.62356,-0.13091 0.2825,-0.13436 0.52366,-0.3204 z"
           inkscape:connector-curvature="0" />
        <path
           id="path1099"
           style="font-size:7.05555534px;stroke-width:0.26458332"
           d="m 244.23268,124.27558 h -0.0345 q -0.14469,-0.0345 -0.28249,-0.0482 -0.13436,-0.0172 -0.3204,-0.0172 -0.29972,0 -0.57877,0.13436 -0.27906,0.13091 -0.53744,0.34106 v 2.73196 h -0.64768 v -3.84817 h 0.64768 v 0.56844 q 0.38585,-0.31006 0.67869,-0.43752 0.29627,-0.13092 0.60289,-0.13092 0.16881,0 0.2446,0.0103 0.0758,0.007 0.22738,0.031 z"
           inkscape:connector-curvature="0" />
        <path
           id="path1101"
           style="font-size:7.05555534px;stroke-width:0.26458332"
           d="m 250.17547,127.17635 q -0.32384,0.15503 -0.61668,0.24115 -0.28938,0.0861 -0.61667,0.0861 -0.41685,0 -0.76481,-0.12058 -0.34795,-0.12402 -0.596,-0.37207 -0.25149,-0.24804 -0.3893,-0.62701 -0.1378,-0.37896 -0.1378,-0.88538 0,-0.94396 0.51676,-1.4814 0.52021,-0.53743 1.37115,-0.53743 0.33073,0 0.64768,0.093 0.32039,0.093 0.58567,0.22737 v 0.72003 h -0.0345 q -0.29627,-0.23082 -0.61322,-0.35485 -0.31351,-0.12402 -0.61323,-0.12402 -0.55121,0 -0.87161,0.37207 -0.31695,0.36863 -0.31695,1.08521 0,0.6959 0.31006,1.07142 0.31351,0.37207 0.8785,0.37207 0.19637,0 0.39963,-0.0517 0.20326,-0.0517 0.36518,-0.13435 0.14125,-0.0724 0.26527,-0.15159 0.12403,-0.0827 0.19637,-0.14125 h 0.0345 z"
           inkscape:connector-curvature="0" />
        <path
           id="path1103"
           style="font-size:7.05555534px;stroke-width:0.26458332"
           d="m 254.28891,125.49514 q 0,0.94051 -0.48232,1.48484 -0.48231,0.54432 -1.29191,0.54432 -0.81648,0 -1.2988,-0.54432 -0.47887,-0.54433 -0.47887,-1.48484 0,-0.94051 0.47887,-1.48484 0.48232,-0.54777 1.2988,-0.54777 0.8096,0 1.29191,0.54777 0.48232,0.54433 0.48232,1.48484 z m -0.66835,0 q 0,-0.74759 -0.29283,-1.10932 -0.29284,-0.36518 -0.81305,-0.36518 -0.5271,0 -0.81993,0.36518 -0.28939,0.36173 -0.28939,1.10932 0,0.72347 0.29284,1.09899 0.29283,0.37207 0.81648,0.37207 0.51677,0 0.8096,-0.36863 0.29628,-0.37207 0.29628,-1.10243 z"
           inkscape:connector-curvature="0" />
        <path
           id="path1105"
           style="font-size:7.05555534px;stroke-width:0.26458332"
           d="m 258.5126,127.4175 h -0.64768 v -2.19108 q 0,-0.26527 -0.031,-0.49609 -0.031,-0.23427 -0.11368,-0.36518 -0.0861,-0.1447 -0.24805,-0.2136 -0.16192,-0.0723 -0.4203,-0.0723 -0.26528,0 -0.55466,0.13091 -0.28939,0.13091 -0.55466,0.33417 v 2.87321 h -0.64768 v -3.84817 h 0.64768 v 0.42719 q 0.30316,-0.25149 0.627,-0.39274 0.32384,-0.14125 0.66491,-0.14125 0.62356,0 0.95084,0.37552 0.32729,0.37551 0.32729,1.08176 z"
           inkscape:connector-curvature="0" />
      </g>
      <g
         id="text846"
         style="font-style:normal;font-weight:normal;font-size:10.58333302px;line-height:1.25;font-family:sans-serif;letter-spacing:0px;word-spacing:0px;fill:#000000;fill-opacity:1;stroke:none;stroke-width:0.26458332"
         aria-label="formato de datos">
        <path
           id="path1050"
           style="font-size:7.05555534px;stroke-width:0.26458332"
           d="m 213.05112,131.90471 h -0.0344 q -0.1068,-0.031 -0.27905,-0.062 -0.17226,-0.0345 -0.30317,-0.0345 -0.41686,0 -0.60634,0.18604 -0.18603,0.18259 -0.18603,0.6649 v 0.13091 h 1.16789 v 0.54433 h -1.14722 v 3.30385 h -0.64768 v -3.30385 h -0.43753 v -0.54433 h 0.43753 v -0.12746 q 0,-0.68558 0.34107,-1.05076 0.34106,-0.36862 0.98529,-0.36862 0.21704,0 0.3893,0.0207 0.1757,0.0207 0.32039,0.0482 z"
           inkscape:connector-curvature="0" />
        <path
           id="path1052"
           style="font-size:7.05555534px;stroke-width:0.26458332"
           d="m 216.74082,134.71591 q 0,0.94051 -0.48231,1.48484 -0.48232,0.54432 -1.29191,0.54432 -0.81649,0 -1.29881,-0.54432 -0.47886,-0.54433 -0.47886,-1.48484 0,-0.94051 0.47886,-1.48483 0.48232,-0.54777 1.29881,-0.54777 0.80959,0 1.29191,0.54777 0.48231,0.54432 0.48231,1.48483 z m -0.66835,0 q 0,-0.74758 -0.29283,-1.10932 -0.29284,-0.36518 -0.81304,-0.36518 -0.5271,0 -0.81994,0.36518 -0.28939,0.36174 -0.28939,1.10932 0,0.72347 0.29284,1.09899 0.29283,0.37207 0.81649,0.37207 0.51676,0 0.80959,-0.36863 0.29628,-0.37207 0.29628,-1.10243 z"
           inkscape:connector-curvature="0" />
        <path
           id="path1054"
           style="font-size:7.05555534px;stroke-width:0.26458332"
           d="m 220.14802,133.49635 h -0.0344 q -0.1447,-0.0344 -0.2825,-0.0482 -0.13436,-0.0172 -0.32039,-0.0172 -0.29973,0 -0.57878,0.13436 -0.27905,0.13091 -0.53743,0.34106 v 2.73197 h -0.64768 v -3.84818 h 0.64768 v 0.56844 q 0.38585,-0.31005 0.67868,-0.43752 0.29628,-0.13092 0.60289,-0.13092 0.16881,0 0.2446,0.0103 0.0758,0.007 0.22738,0.031 z"
           inkscape:connector-curvature="0" />
        <path
           id="path1056"
           style="font-size:7.05555534px;stroke-width:0.26458332"
           d="m 226.3802,136.63828 h -0.64768 v -2.19109 q 0,-0.24804 -0.0241,-0.47886 -0.0207,-0.23083 -0.093,-0.36863 -0.0792,-0.14814 -0.22737,-0.22393 -0.14814,-0.0758 -0.42719,-0.0758 -0.27217,0 -0.54433,0.1378 -0.27216,0.13436 -0.54432,0.34451 0.0103,0.0792 0.0172,0.18604 0.007,0.10335 0.007,0.2067 v 2.46325 h -0.64768 v -2.19109 q 0,-0.25493 -0.0241,-0.48231 -0.0207,-0.23082 -0.093,-0.36862 -0.0792,-0.14814 -0.22738,-0.22049 -0.14813,-0.0758 -0.42719,-0.0758 -0.26527,0 -0.53399,0.13091 -0.26527,0.13091 -0.53054,0.33418 v 2.87321 h -0.64768 v -3.84818 h 0.64768 v 0.4272 q 0.30317,-0.2515 0.60289,-0.39275 0.30317,-0.14124 0.64423,-0.14124 0.39274,0 0.66491,0.16536 0.2756,0.16536 0.40996,0.4582 0.39274,-0.33073 0.71658,-0.47543 0.32384,-0.14813 0.69247,-0.14813 0.63389,0 0.93362,0.38585 0.30317,0.3824 0.30317,1.07142 z"
           inkscape:connector-curvature="0" />
        <path
           id="path1058"
           style="font-size:7.05555534px;stroke-width:0.26458332"
           d="m 230.61766,136.63828 h -0.64423 v -0.40997 q -0.0861,0.0586 -0.23427,0.16536 -0.14469,0.10336 -0.28249,0.16537 -0.16192,0.0792 -0.37207,0.13091 -0.21015,0.0551 -0.49265,0.0551 -0.52021,0 -0.88195,-0.34451 -0.36173,-0.34451 -0.36173,-0.8785 0,-0.43752 0.18603,-0.70624 0.18948,-0.27216 0.53744,-0.42719 0.3514,-0.15503 0.84405,-0.21015 0.49265,-0.0551 1.05764,-0.0827 v -0.0999 q 0,-0.22049 -0.0792,-0.36518 -0.0758,-0.1447 -0.22048,-0.22738 -0.13781,-0.0792 -0.33073,-0.1068 -0.19293,-0.0276 -0.40308,-0.0276 -0.25493,0 -0.56844,0.0689 -0.3135,0.0655 -0.64768,0.19293 h -0.0344 v -0.65801 q 0.18948,-0.0517 0.54777,-0.11369 0.35829,-0.062 0.70625,-0.062 0.40652,0 0.70624,0.0689 0.30317,0.0654 0.52366,0.22737 0.21704,0.15848 0.33073,0.40997 0.11368,0.25149 0.11368,0.62356 z m -0.64423,-0.94741 v -1.07142 q -0.29628,0.0172 -0.69935,0.0517 -0.39963,0.0344 -0.6339,0.0999 -0.27905,0.0792 -0.45131,0.24805 -0.17225,0.16536 -0.17225,0.4582 0,0.33073 0.19981,0.49954 0.19982,0.16536 0.60978,0.16536 0.34107,0 0.62357,-0.13091 0.28249,-0.13436 0.52365,-0.3204 z"
           inkscape:connector-curvature="0" />
        <path
           id="path1060"
           style="font-size:7.05555534px;stroke-width:0.26458332"
           d="m 233.86983,136.60382 q -0.18259,0.0482 -0.39963,0.0792 -0.21359,0.031 -0.3824,0.031 -0.58912,0 -0.89573,-0.31695 -0.30661,-0.31695 -0.30661,-1.0163 v -2.04639 h -0.43753 v -0.54433 h 0.43753 v -1.10587 h 0.64768 v 1.10587 h 1.33669 v 0.54433 h -1.33669 v 1.75355 q 0,0.30317 0.0138,0.47543 0.0138,0.16881 0.0965,0.31694 0.0758,0.13781 0.2067,0.20326 0.13436,0.062 0.40653,0.062 0.15847,0 0.33073,-0.0448 0.17225,-0.0482 0.24804,-0.0792 h 0.0345 z"
           inkscape:connector-curvature="0" />
        <path
           id="path1062"
           style="font-size:7.05555534px;stroke-width:0.26458332"
           d="m 237.93505,134.71591 q 0,0.94051 -0.48232,1.48484 -0.48231,0.54432 -1.29191,0.54432 -0.81649,0 -1.2988,-0.54432 -0.47887,-0.54433 -0.47887,-1.48484 0,-0.94051 0.47887,-1.48483 0.48231,-0.54777 1.2988,-0.54777 0.8096,0 1.29191,0.54777 0.48232,0.54432 0.48232,1.48483 z m -0.66835,0 q 0,-0.74758 -0.29284,-1.10932 -0.29283,-0.36518 -0.81304,-0.36518 -0.5271,0 -0.81993,0.36518 -0.28939,0.36174 -0.28939,1.10932 0,0.72347 0.29283,1.09899 0.29284,0.37207 0.81649,0.37207 0.51677,0 0.8096,-0.36863 0.29628,-0.37207 0.29628,-1.10243 z"
           inkscape:connector-curvature="0" />
        <path
           id="path1064"
           style="font-size:7.05555534px;stroke-width:0.26458332"
           d="m 244.54274,136.63828 h -0.64768 v -0.40308 q -0.27905,0.24116 -0.58222,0.37551 -0.30317,0.13436 -0.65801,0.13436 -0.68902,0 -1.09554,-0.53054 -0.40308,-0.53055 -0.40308,-1.47106 0,-0.4892 0.1378,-0.87161 0.14125,-0.3824 0.37896,-0.65112 0.23427,-0.26183 0.54433,-0.39963 0.3135,-0.1378 0.64768,-0.1378 0.30317,0 0.53743,0.0654 0.23427,0.062 0.49265,0.19637 v -1.66742 h 0.64768 z m -0.64768,-0.94741 v -2.2083 q -0.26183,-0.11714 -0.46853,-0.16192 -0.20671,-0.0448 -0.45131,-0.0448 -0.54432,0 -0.84749,0.37896 -0.30317,0.37896 -0.30317,1.07487 0,0.68558 0.23426,1.04387 0.23427,0.35484 0.75104,0.35484 0.2756,0 0.5581,-0.12058 0.2825,-0.12402 0.5271,-0.31695 z"
           inkscape:connector-curvature="0" />
        <path
           id="path1066"
           style="font-size:7.05555534px;stroke-width:0.26458332"
           d="m 249.03859,134.78137 h -2.83532 q 0,0.35484 0.1068,0.62012 0.1068,0.26182 0.29283,0.43063 0.17915,0.16537 0.42375,0.24805 0.24805,0.0827 0.54433,0.0827 0.39274,0 0.78892,-0.15503 0.39963,-0.15847 0.56844,-0.31006 h 0.0345 v 0.70625 q -0.32729,0.1378 -0.66835,0.23082 -0.34107,0.093 -0.71658,0.093 -0.95774,0 -1.49517,-0.51677 -0.53744,-0.52021 -0.53744,-1.4745 0,-0.94395 0.51332,-1.49861 0.51676,-0.55466 1.35737,-0.55466 0.77859,0 1.19889,0.45475 0.42375,0.45475 0.42375,1.29191 z m -0.63046,-0.49609 q -0.003,-0.50988 -0.25838,-0.78893 -0.25149,-0.27905 -0.76825,-0.27905 -0.52021,0 -0.83027,0.30661 -0.30662,0.30661 -0.34796,0.76137 z"
           inkscape:connector-curvature="0" />
        <path
           id="path1068"
           style="font-size:7.05555534px;stroke-width:0.26458332"
           d="m 255.62217,136.63828 h -0.64768 v -0.40308 q -0.27905,0.24116 -0.58222,0.37551 -0.30317,0.13436 -0.65802,0.13436 -0.68901,0 -1.09554,-0.53054 -0.40307,-0.53055 -0.40307,-1.47106 0,-0.4892 0.1378,-0.87161 0.14125,-0.3824 0.37896,-0.65112 0.23427,-0.26183 0.54433,-0.39963 0.3135,-0.1378 0.64767,-0.1378 0.30317,0 0.53744,0.0654 0.23427,0.062 0.49265,0.19637 v -1.66742 h 0.64768 z m -0.64768,-0.94741 v -2.2083 q -0.26183,-0.11714 -0.46853,-0.16192 -0.20671,-0.0448 -0.45131,-0.0448 -0.54433,0 -0.8475,0.37896 -0.30316,0.37896 -0.30316,1.07487 0,0.68558 0.23426,1.04387 0.23427,0.35484 0.75103,0.35484 0.27561,0 0.55811,-0.12058 0.2825,-0.12402 0.5271,-0.31695 z"
           inkscape:connector-curvature="0" />
        <path
           id="path1070"
           style="font-size:7.05555534px;stroke-width:0.26458332"
           d="m 259.8872,136.63828 h -0.64424 v -0.40997 q -0.0861,0.0586 -0.23426,0.16536 -0.1447,0.10336 -0.2825,0.16537 -0.16192,0.0792 -0.37207,0.13091 -0.21015,0.0551 -0.49265,0.0551 -0.52021,0 -0.88195,-0.34451 -0.36173,-0.34451 -0.36173,-0.8785 0,-0.43752 0.18604,-0.70624 0.18948,-0.27216 0.53743,-0.42719 0.3514,-0.15503 0.84405,-0.21015 0.49265,-0.0551 1.05764,-0.0827 v -0.0999 q 0,-0.22049 -0.0792,-0.36518 -0.0758,-0.1447 -0.22049,-0.22738 -0.1378,-0.0792 -0.33073,-0.1068 -0.19293,-0.0276 -0.40308,-0.0276 -0.25493,0 -0.56844,0.0689 -0.3135,0.0655 -0.64767,0.19293 h -0.0345 v -0.65801 q 0.18948,-0.0517 0.54777,-0.11369 0.35829,-0.062 0.70625,-0.062 0.40652,0 0.70624,0.0689 0.30317,0.0654 0.52366,0.22737 0.21704,0.15848 0.33073,0.40997 0.11369,0.25149 0.11369,0.62356 z m -0.64424,-0.94741 v -1.07142 q -0.29628,0.0172 -0.69935,0.0517 -0.39963,0.0344 -0.6339,0.0999 -0.27905,0.0792 -0.45131,0.24805 -0.17225,0.16536 -0.17225,0.4582 0,0.33073 0.19981,0.49954 0.19982,0.16536 0.60979,0.16536 0.34106,0 0.62356,-0.13091 0.2825,-0.13436 0.52365,-0.3204 z"
           inkscape:connector-curvature="0" />
        <path
           id="path1072"
           style="font-size:7.05555534px;stroke-width:0.26458332"
           d="m 263.13937,136.60382 q -0.18259,0.0482 -0.39963,0.0792 -0.2136,0.031 -0.38241,0.031 -0.58911,0 -0.89573,-0.31695 -0.30661,-0.31695 -0.30661,-1.0163 v -2.04639 h -0.43753 v -0.54433 h 0.43753 v -1.10587 h 0.64768 v 1.10587 h 1.3367 v 0.54433 h -1.3367 v 1.75355 q 0,0.30317 0.0138,0.47543 0.0138,0.16881 0.0965,0.31694 0.0758,0.13781 0.20671,0.20326 0.13436,0.062 0.40652,0.062 0.15847,0 0.33073,-0.0448 0.17225,-0.0482 0.24805,-0.0792 h 0.0344 z"
           inkscape:connector-curvature="0" />
        <path
           id="path1074"
           style="font-size:7.05555534px;stroke-width:0.26458332"
           d="m 267.20458,134.71591 q 0,0.94051 -0.48232,1.48484 -0.48231,0.54432 -1.29191,0.54432 -0.81649,0 -1.2988,-0.54432 -0.47887,-0.54433 -0.47887,-1.48484 0,-0.94051 0.47887,-1.48483 0.48231,-0.54777 1.2988,-0.54777 0.8096,0 1.29191,0.54777 0.48232,0.54432 0.48232,1.48483 z m -0.66835,0 q 0,-0.74758 -0.29284,-1.10932 -0.29283,-0.36518 -0.81304,-0.36518 -0.5271,0 -0.81993,0.36518 -0.28939,0.36174 -0.28939,1.10932 0,0.72347 0.29283,1.09899 0.29284,0.37207 0.81649,0.37207 0.51677,0 0.8096,-0.36863 0.29628,-0.37207 0.29628,-1.10243 z"
           inkscape:connector-curvature="0" />
        <path
           id="path1076"
           style="font-size:7.05555534px;stroke-width:0.26458332"
           d="m 270.95973,135.52895 q 0,0.5271 -0.43752,0.86472 -0.43409,0.33762 -1.18856,0.33762 -0.42719,0 -0.78548,-0.0999 -0.35485,-0.10335 -0.59601,-0.22393 v -0.72691 h 0.0345 q 0.30661,0.23082 0.68212,0.36862 0.37552,0.13436 0.72003,0.13436 0.42719,0 0.66835,-0.1378 0.24115,-0.13781 0.24115,-0.43408 0,-0.22738 -0.13091,-0.34451 -0.13091,-0.11714 -0.50298,-0.19982 -0.13781,-0.031 -0.36174,-0.0724 -0.22048,-0.0413 -0.40307,-0.0896 -0.50643,-0.13436 -0.72003,-0.39274 -0.21015,-0.26183 -0.21015,-0.64079 0,-0.23771 0.0965,-0.44786 0.0999,-0.21015 0.29973,-0.37551 0.19292,-0.16192 0.4892,-0.25494 0.29972,-0.0965 0.66835,-0.0965 0.34451,0 0.69591,0.0861 0.35484,0.0827 0.58911,0.20326 v 0.69247 h -0.0344 q -0.24805,-0.18259 -0.60289,-0.30662 -0.35485,-0.12746 -0.69591,-0.12746 -0.35485,0 -0.59945,0.1378 -0.2446,0.13436 -0.2446,0.40308 0,0.23771 0.14814,0.35829 0.14469,0.12057 0.46853,0.19637 0.17915,0.0413 0.39963,0.0827 0.22393,0.0413 0.37207,0.0758 0.45131,0.10335 0.69591,0.35485 0.2446,0.25493 0.2446,0.67523 z"
           inkscape:connector-curvature="0" />
      </g>
      <g
         id="text850"
         style="font-style:normal;font-weight:normal;font-size:10.58333302px;line-height:1.25;font-family:sans-serif;letter-spacing:0px;word-spacing:0px;fill:#000000;fill-opacity:1;stroke:none;stroke-width:0.26458332"
         aria-label="Cualquier otra tecla">
        <path
           id="path1013"
           style="font-size:7.05555534px;stroke-width:0.26458332"
           d="m 214.83223,155.30916 q -0.18948,0.0827 -0.34451,0.15503 -0.15158,0.0723 -0.39963,0.15158 -0.21015,0.0655 -0.4582,0.11024 -0.2446,0.0482 -0.54088,0.0482 -0.5581,0 -1.0163,-0.15503 -0.45475,-0.15848 -0.79237,-0.49265 -0.33073,-0.32729 -0.51677,-0.83027 -0.18603,-0.50643 -0.18603,-1.17478 0,-0.63389 0.17914,-1.13343 0.17915,-0.49954 0.51677,-0.84405 0.32728,-0.33418 0.78892,-0.50988 0.46509,-0.1757 1.03009,-0.1757 0.41341,0 0.82337,0.0999 0.41342,0.0999 0.9164,0.3514 v 0.8096 h -0.0517 q -0.42374,-0.35485 -0.8406,-0.51677 -0.41686,-0.16191 -0.89228,-0.16191 -0.3893,0 -0.7028,0.12746 -0.31006,0.12403 -0.55466,0.3893 -0.23771,0.25838 -0.37207,0.65457 -0.13091,0.39274 -0.13091,0.9095 0,0.54088 0.14469,0.93018 0.14814,0.38929 0.37896,0.6339 0.24116,0.25493 0.56155,0.37896 0.32384,0.12057 0.68213,0.12057 0.49265,0 0.92329,-0.1688 0.43063,-0.16881 0.80615,-0.50643 h 0.0482 z"
           inkscape:connector-curvature="0" />
        <path
           id="path1015"
           style="font-size:7.05555534px;stroke-width:0.26458332"
           d="m 218.94223,155.68123 h -0.64768 v -0.42719 q -0.32728,0.25838 -0.62701,0.39618 -0.29972,0.13781 -0.66146,0.13781 -0.60633,0 -0.94395,-0.36863 -0.33762,-0.37207 -0.33762,-1.08865 v -2.49769 h 0.64768 v 2.19108 q 0,0.29283 0.0276,0.50298 0.0276,0.20671 0.11713,0.35485 0.093,0.15158 0.24116,0.22048 0.14814,0.0689 0.43063,0.0689 0.2515,0 0.54778,-0.13091 0.29972,-0.13091 0.5581,-0.33417 v -2.87321 h 0.64768 z"
           inkscape:connector-curvature="0" />
        <path
           id="path1017"
           style="font-size:7.05555534px;stroke-width:0.26458332"
           d="m 223.20726,155.68123 h -0.64424 v -0.40997 q -0.0861,0.0586 -0.23426,0.16537 -0.1447,0.10335 -0.2825,0.16536 -0.16192,0.0792 -0.37207,0.13092 -0.21015,0.0551 -0.49265,0.0551 -0.52021,0 -0.88194,-0.34451 -0.36174,-0.34451 -0.36174,-0.8785 0,-0.43753 0.18604,-0.70625 0.18948,-0.27216 0.53743,-0.42719 0.3514,-0.15503 0.84405,-0.21015 0.49265,-0.0551 1.05764,-0.0827 v -0.0999 q 0,-0.22049 -0.0792,-0.36518 -0.0758,-0.14469 -0.22049,-0.22738 -0.1378,-0.0792 -0.33073,-0.10679 -0.19292,-0.0276 -0.40308,-0.0276 -0.25493,0 -0.56844,0.0689 -0.3135,0.0654 -0.64767,0.19292 h -0.0344 v -0.65801 q 0.18948,-0.0517 0.54777,-0.11369 0.35829,-0.062 0.70624,-0.062 0.40652,0 0.70624,0.0689 0.30317,0.0655 0.52366,0.22738 0.21704,0.15847 0.33073,0.40996 0.11369,0.2515 0.11369,0.62357 z m -0.64424,-0.9474 v -1.07143 q -0.29627,0.0172 -0.69935,0.0517 -0.39963,0.0344 -0.6339,0.0999 -0.27905,0.0792 -0.45131,0.24804 -0.17225,0.16537 -0.17225,0.4582 0,0.33073 0.19981,0.49954 0.19982,0.16536 0.60979,0.16536 0.34106,0 0.62356,-0.13091 0.2825,-0.13436 0.52365,-0.32039 z"
           inkscape:connector-curvature="0" />
        <path
           id="path1019"
           style="font-size:7.05555534px;stroke-width:0.26458332"
           d="m 225.11584,155.68123 h -0.64768 v -5.36057 h 0.64768 z"
           inkscape:connector-curvature="0" />
        <path
           id="path1021"
           style="font-size:7.05555534px;stroke-width:0.26458332"
           d="m 229.52556,157.10061 h -0.64768 v -1.85346 q -0.29972,0.25838 -0.596,0.38585 -0.29628,0.12402 -0.64079,0.12402 -0.68557,0 -1.09554,-0.5271 -0.40652,-0.53054 -0.40652,-1.46072 0,-0.49609 0.14125,-0.87505 0.1447,-0.38241 0.37896,-0.64079 0.22738,-0.25149 0.53399,-0.3893 0.30662,-0.1378 0.64768,-0.1378 0.31006,0 0.54777,0.0689 0.24116,0.0689 0.4892,0.20326 l 0.0413,-0.16536 h 0.60633 z m -0.64768,-2.39779 v -2.1773 q -0.26871,-0.12058 -0.47542,-0.16881 -0.2067,-0.0482 -0.44786,-0.0482 -0.56155,0 -0.85439,0.38241 -0.29283,0.37896 -0.29283,1.0473 0,0.67524 0.23427,1.04042 0.23771,0.36174 0.74414,0.36174 0.2825,0 0.56499,-0.12058 0.2825,-0.12402 0.5271,-0.31695 z"
           inkscape:connector-curvature="0" />
        <path
           id="path1023"
           style="font-size:7.05555534px;stroke-width:0.26458332"
           d="m 233.99041,155.68123 h -0.64768 v -0.42719 q -0.32729,0.25838 -0.62701,0.39618 -0.29972,0.13781 -0.66146,0.13781 -0.60633,0 -0.94395,-0.36863 -0.33762,-0.37207 -0.33762,-1.08865 v -2.49769 h 0.64767 v 2.19108 q 0,0.29283 0.0276,0.50298 0.0276,0.20671 0.11713,0.35485 0.093,0.15158 0.24116,0.22048 0.14813,0.0689 0.43063,0.0689 0.25149,0 0.54777,-0.13091 0.29973,-0.13091 0.55811,-0.33417 v -2.87321 h 0.64768 z"
           inkscape:connector-curvature="0" />
        <path
           id="path1025"
           style="font-size:7.05555534px;stroke-width:0.26458332"
           d="m 235.961,151.18882 h -0.73036 v -0.67179 h 0.73036 z m -0.0413,4.49241 h -0.64768 v -3.84817 h 0.64768 z"
           inkscape:connector-curvature="0" />
        <path
           id="path1027"
           style="font-size:7.05555534px;stroke-width:0.26458332"
           d="m 240.42929,153.82432 h -2.83531 q 0,0.35485 0.10679,0.62012 0.1068,0.26183 0.29284,0.43064 0.17914,0.16536 0.42374,0.24804 0.24805,0.0827 0.54433,0.0827 0.39274,0 0.78892,-0.15503 0.39964,-0.15848 0.56845,-0.31006 h 0.0344 v 0.70624 q -0.32729,0.13781 -0.66835,0.23082 -0.34107,0.093 -0.71658,0.093 -0.95774,0 -1.49517,-0.51676 -0.53744,-0.52021 -0.53744,-1.4745 0,-0.94396 0.51332,-1.49862 0.51677,-0.55466 1.35737,-0.55466 0.77859,0 1.19889,0.45475 0.42375,0.45475 0.42375,1.29191 z m -0.63045,-0.49609 q -0.003,-0.50988 -0.25839,-0.78893 -0.25149,-0.27905 -0.76825,-0.27905 -0.52021,0 -0.83027,0.30661 -0.30661,0.30662 -0.34795,0.76137 z"
           inkscape:connector-curvature="0" />
        <path
           id="path1029"
           style="font-size:7.05555534px;stroke-width:0.26458332"
           d="m 243.81237,152.5393 h -0.0344 q -0.14469,-0.0344 -0.2825,-0.0482 -0.13436,-0.0172 -0.32039,-0.0172 -0.29972,0 -0.57878,0.13436 -0.27905,0.13092 -0.53743,0.34107 v 2.73196 h -0.64768 v -3.84817 h 0.64768 v 0.56844 q 0.38585,-0.31006 0.67868,-0.43753 0.29628,-0.13091 0.60289,-0.13091 0.16881,0 0.24461,0.0103 0.0758,0.007 0.22737,0.031 z"
           inkscape:connector-curvature="0" />
        <path
           id="path1031"
           style="font-size:7.05555534px;stroke-width:0.26458332"
           d="m 250.18924,153.75887 q 0,0.94051 -0.48231,1.48483 -0.48231,0.54433 -1.29191,0.54433 -0.81649,0 -1.2988,-0.54433 -0.47887,-0.54432 -0.47887,-1.48483 0,-0.94052 0.47887,-1.48484 0.48231,-0.54777 1.2988,-0.54777 0.8096,0 1.29191,0.54777 0.48231,0.54432 0.48231,1.48484 z m -0.66834,0 q 0,-0.74759 -0.29284,-1.10933 -0.29283,-0.36518 -0.81304,-0.36518 -0.5271,0 -0.81993,0.36518 -0.28939,0.36174 -0.28939,1.10933 0,0.72347 0.29283,1.09898 0.29284,0.37207 0.81649,0.37207 0.51676,0 0.8096,-0.36862 0.29628,-0.37207 0.29628,-1.10243 z"
           inkscape:connector-curvature="0" />
        <path
           id="path1033"
           style="font-size:7.05555534px;stroke-width:0.26458332"
           d="m 253.19337,155.64678 q -0.18259,0.0482 -0.39963,0.0792 -0.2136,0.031 -0.38241,0.031 -0.58911,0 -0.89572,-0.31695 -0.30662,-0.31695 -0.30662,-1.0163 v -2.04639 h -0.43753 v -0.54432 h 0.43753 v -1.10588 h 0.64768 v 1.10588 h 1.3367 v 0.54432 h -1.3367 v 1.75356 q 0,0.30316 0.0138,0.47542 0.0138,0.16881 0.0965,0.31695 0.0758,0.1378 0.20671,0.20326 0.13436,0.062 0.40652,0.062 0.15847,0 0.33073,-0.0448 0.17225,-0.0482 0.24805,-0.0792 h 0.0344 z"
           inkscape:connector-curvature="0" />
        <path
           id="path1035"
           style="font-size:7.05555534px;stroke-width:0.26458332"
           d="m 256.38008,152.5393 h -0.0344 q -0.14469,-0.0344 -0.2825,-0.0482 -0.13436,-0.0172 -0.32039,-0.0172 -0.29972,0 -0.57878,0.13436 -0.27905,0.13092 -0.53743,0.34107 v 2.73196 h -0.64768 v -3.84817 h 0.64768 v 0.56844 q 0.38585,-0.31006 0.67868,-0.43753 0.29628,-0.13091 0.60289,-0.13091 0.16881,0 0.2446,0.0103 0.0758,0.007 0.22738,0.031 z"
           inkscape:connector-curvature="0" />
        <path
           id="path1037"
           style="font-size:7.05555534px;stroke-width:0.26458332"
           d="m 259.86307,155.68123 h -0.64423 v -0.40997 q -0.0861,0.0586 -0.23427,0.16537 -0.14469,0.10335 -0.2825,0.16536 -0.16192,0.0792 -0.37207,0.13092 -0.21015,0.0551 -0.49264,0.0551 -0.52021,0 -0.88195,-0.34451 -0.36173,-0.34451 -0.36173,-0.8785 0,-0.43753 0.18603,-0.70625 0.18948,-0.27216 0.53744,-0.42719 0.3514,-0.15503 0.84404,-0.21015 0.49265,-0.0551 1.05765,-0.0827 v -0.0999 q 0,-0.22049 -0.0792,-0.36518 -0.0758,-0.14469 -0.22048,-0.22738 -0.13781,-0.0792 -0.33073,-0.10679 -0.19293,-0.0276 -0.40308,-0.0276 -0.25494,0 -0.56844,0.0689 -0.3135,0.0654 -0.64768,0.19292 h -0.0345 v -0.65801 q 0.18948,-0.0517 0.54777,-0.11369 0.35829,-0.062 0.70624,-0.062 0.40653,0 0.70625,0.0689 0.30317,0.0655 0.52365,0.22738 0.21705,0.15847 0.33073,0.40996 0.11369,0.2515 0.11369,0.62357 z m -0.64423,-0.9474 v -1.07143 q -0.29628,0.0172 -0.69936,0.0517 -0.39963,0.0344 -0.63389,0.0999 -0.27906,0.0792 -0.45131,0.24804 -0.17226,0.16537 -0.17226,0.4582 0,0.33073 0.19982,0.49954 0.19982,0.16536 0.60978,0.16536 0.34107,0 0.62356,-0.13091 0.2825,-0.13436 0.52366,-0.32039 z"
           inkscape:connector-curvature="0" />
        <path
           id="path1039"
           style="font-size:7.05555534px;stroke-width:0.26458332"
           d="m 265.59571,155.64678 q -0.18259,0.0482 -0.39963,0.0792 -0.2136,0.031 -0.38241,0.031 -0.58911,0 -0.89572,-0.31695 -0.30661,-0.31695 -0.30661,-1.0163 v -2.04639 h -0.43753 v -0.54432 h 0.43753 v -1.10588 h 0.64767 v 1.10588 h 1.3367 v 0.54432 h -1.3367 v 1.75356 q 0,0.30316 0.0138,0.47542 0.0138,0.16881 0.0965,0.31695 0.0758,0.1378 0.2067,0.20326 0.13436,0.062 0.40652,0.062 0.15848,0 0.33073,-0.0448 0.17226,-0.0482 0.24805,-0.0792 h 0.0344 z"
           inkscape:connector-curvature="0" />
        <path
           id="path1041"
           style="font-size:7.05555534px;stroke-width:0.26458332"
           d="m 269.60236,153.82432 h -2.83532 q 0,0.35485 0.1068,0.62012 0.1068,0.26183 0.29284,0.43064 0.17914,0.16536 0.42374,0.24804 0.24805,0.0827 0.54433,0.0827 0.39274,0 0.78892,-0.15503 0.39963,-0.15848 0.56844,-0.31006 h 0.0345 v 0.70624 q -0.32729,0.13781 -0.66835,0.23082 -0.34107,0.093 -0.71658,0.093 -0.95774,0 -1.49517,-0.51676 -0.53744,-0.52021 -0.53744,-1.4745 0,-0.94396 0.51332,-1.49862 0.51676,-0.55466 1.35737,-0.55466 0.77859,0 1.19889,0.45475 0.42375,0.45475 0.42375,1.29191 z m -0.63045,-0.49609 q -0.003,-0.50988 -0.25839,-0.78893 -0.25149,-0.27905 -0.76825,-0.27905 -0.52021,0 -0.83027,0.30661 -0.30661,0.30662 -0.34796,0.76137 z"
           inkscape:connector-curvature="0" />
        <path
           id="path1043"
           style="font-size:7.05555534px;stroke-width:0.26458332"
           d="m 273.42986,155.44007 q -0.32384,0.15503 -0.61668,0.24116 -0.28938,0.0861 -0.61667,0.0861 -0.41685,0 -0.76481,-0.12058 -0.34795,-0.12403 -0.596,-0.37207 -0.25149,-0.24805 -0.3893,-0.62701 -0.1378,-0.37896 -0.1378,-0.88539 0,-0.94396 0.51676,-1.48139 0.52021,-0.53744 1.37115,-0.53744 0.33073,0 0.64768,0.093 0.32039,0.093 0.58567,0.22738 v 0.72002 h -0.0344 q -0.29628,-0.23082 -0.61323,-0.35484 -0.31351,-0.12402 -0.61323,-0.12402 -0.55121,0 -0.87161,0.37207 -0.31695,0.36862 -0.31695,1.0852 0,0.69591 0.31006,1.07143 0.31351,0.37207 0.8785,0.37207 0.19637,0 0.39963,-0.0517 0.20326,-0.0517 0.36518,-0.13436 0.14125,-0.0724 0.26528,-0.15158 0.12402,-0.0827 0.19637,-0.14125 h 0.0344 z"
           inkscape:connector-curvature="0" />
        <path
           id="path1045"
           style="font-size:7.05555534px;stroke-width:0.26458332"
           d="m 274.91814,155.68123 h -0.64768 v -5.36057 h 0.64768 z"
           inkscape:connector-curvature="0" />
        <path
           id="path1047"
           style="font-size:7.05555534px;stroke-width:0.26458332"
           d="m 279.19695,155.68123 h -0.64424 v -0.40997 q -0.0861,0.0586 -0.23426,0.16537 -0.1447,0.10335 -0.2825,0.16536 -0.16192,0.0792 -0.37207,0.13092 -0.21015,0.0551 -0.49265,0.0551 -0.52021,0 -0.88195,-0.34451 -0.36173,-0.34451 -0.36173,-0.8785 0,-0.43753 0.18603,-0.70625 0.18948,-0.27216 0.53744,-0.42719 0.3514,-0.15503 0.84405,-0.21015 0.49265,-0.0551 1.05764,-0.0827 v -0.0999 q 0,-0.22049 -0.0792,-0.36518 -0.0758,-0.14469 -0.22049,-0.22738 -0.1378,-0.0792 -0.33073,-0.10679 -0.19293,-0.0276 -0.40308,-0.0276 -0.25493,0 -0.56844,0.0689 -0.3135,0.0654 -0.64768,0.19292 h -0.0344 v -0.65801 q 0.18948,-0.0517 0.54777,-0.11369 0.35829,-0.062 0.70625,-0.062 0.40652,0 0.70624,0.0689 0.30317,0.0655 0.52366,0.22738 0.21704,0.15847 0.33073,0.40996 0.11369,0.2515 0.11369,0.62357 z m -0.64424,-0.9474 v -1.07143 q -0.29628,0.0172 -0.69935,0.0517 -0.39963,0.0344 -0.6339,0.0999 -0.27905,0.0792 -0.45131,0.24804 -0.17225,0.16537 -0.17225,0.4582 0,0.33073 0.19981,0.49954 0.19982,0.16536 0.60979,0.16536 0.34106,0 0.62356,-0.13091 0.2825,-0.13436 0.52365,-0.32039 z"
           inkscape:connector-curvature="0" />
      </g>
      <g
         id="text854"
         style="font-style:normal;font-weight:normal;font-size:10.58333302px;line-height:1.25;font-family:sans-serif;letter-spacing:0px;word-spacing:0px;fill:#000000;fill-opacity:1;stroke:none;stroke-width:0.26458332"
         aria-label="para volver al menú">
        <path
           id="path980"
           style="font-size:7.05555534px;stroke-width:0.26458332"
           d="m 213.96407,163.33234 q 0,0.46853 -0.13436,0.85783 -0.13436,0.38585 -0.37896,0.65457 -0.22737,0.25493 -0.53743,0.39618 -0.30662,0.1378 -0.65112,0.1378 -0.29973,0 -0.54433,-0.0654 -0.24116,-0.0655 -0.49265,-0.20326 v 1.6123 h -0.64768 v -5.26755 h 0.64768 v 0.40308 q 0.25838,-0.21704 0.57878,-0.36174 0.32384,-0.14814 0.68902,-0.14814 0.69591,0 1.08176,0.5271 0.38929,0.52366 0.38929,1.45728 z m -0.66835,0.0172 q 0,-0.69591 -0.23771,-1.04042 -0.23771,-0.3445 -0.73036,-0.3445 -0.27905,0 -0.56155,0.12057 -0.2825,0.12058 -0.54088,0.31695 v 2.18075 q 0.27561,0.12402 0.47198,0.16881 0.19981,0.0448 0.45131,0.0448 0.54088,0 0.84405,-0.36518 0.30316,-0.36518 0.30316,-1.08176 z"
           inkscape:connector-curvature="0" />
        <path
           id="path982"
           style="font-size:7.05555534px;stroke-width:0.26458332"
           d="m 217.96383,165.30293 h -0.64423 v -0.40996 q -0.0861,0.0586 -0.23427,0.16536 -0.1447,0.10335 -0.2825,0.16537 -0.16192,0.0792 -0.37207,0.13091 -0.21015,0.0551 -0.49265,0.0551 -0.52021,0 -0.88194,-0.34451 -0.36174,-0.34451 -0.36174,-0.8785 0,-0.43753 0.18604,-0.70624 0.18948,-0.27217 0.53743,-0.42719 0.3514,-0.15503 0.84405,-0.21016 0.49265,-0.0551 1.05765,-0.0827 v -0.0999 q 0,-0.22048 -0.0792,-0.36518 -0.0758,-0.14469 -0.22049,-0.22737 -0.1378,-0.0792 -0.33073,-0.1068 -0.19292,-0.0276 -0.40307,-0.0276 -0.25494,0 -0.56844,0.0689 -0.31351,0.0655 -0.64768,0.19293 h -0.0344 v -0.65802 q 0.18948,-0.0517 0.54777,-0.11368 0.35829,-0.062 0.70624,-0.062 0.40652,0 0.70625,0.0689 0.30316,0.0654 0.52365,0.22737 0.21704,0.15848 0.33073,0.40997 0.11369,0.25149 0.11369,0.62356 z m -0.64423,-0.9474 v -1.07142 q -0.29628,0.0172 -0.69936,0.0517 -0.39963,0.0344 -0.6339,0.0999 -0.27905,0.0792 -0.4513,0.24805 -0.17226,0.16536 -0.17226,0.4582 0,0.33072 0.19982,0.49953 0.19981,0.16537 0.60978,0.16537 0.34106,0 0.62356,-0.13091 0.2825,-0.13436 0.52366,-0.3204 z"
           inkscape:connector-curvature="0" />
        <path
           id="path984"
           style="font-size:7.05555534px;stroke-width:0.26458332"
           d="m 221.61907,162.16101 h -0.0344 q -0.14469,-0.0345 -0.28249,-0.0482 -0.13436,-0.0172 -0.3204,-0.0172 -0.29972,0 -0.57877,0.13436 -0.27906,0.13091 -0.53744,0.34106 v 2.73196 h -0.64768 v -3.84817 h 0.64768 v 0.56844 q 0.38585,-0.31006 0.67868,-0.43753 0.29628,-0.13091 0.6029,-0.13091 0.16881,0 0.2446,0.0103 0.0758,0.007 0.22737,0.031 z"
           inkscape:connector-curvature="0" />
        <path
           id="path986"
           style="font-size:7.05555534px;stroke-width:0.26458332"
           d="m 225.10207,165.30293 h -0.64424 v -0.40996 q -0.0861,0.0586 -0.23426,0.16536 -0.1447,0.10335 -0.2825,0.16537 -0.16192,0.0792 -0.37207,0.13091 -0.21015,0.0551 -0.49265,0.0551 -0.52021,0 -0.88194,-0.34451 -0.36174,-0.34451 -0.36174,-0.8785 0,-0.43753 0.18604,-0.70624 0.18948,-0.27217 0.53743,-0.42719 0.3514,-0.15503 0.84405,-0.21016 0.49265,-0.0551 1.05764,-0.0827 v -0.0999 q 0,-0.22048 -0.0792,-0.36518 -0.0758,-0.14469 -0.22049,-0.22737 -0.1378,-0.0792 -0.33073,-0.1068 -0.19292,-0.0276 -0.40308,-0.0276 -0.25493,0 -0.56844,0.0689 -0.3135,0.0655 -0.64767,0.19293 h -0.0345 v -0.65802 q 0.18949,-0.0517 0.54778,-0.11368 0.35828,-0.062 0.70624,-0.062 0.40652,0 0.70624,0.0689 0.30317,0.0654 0.52366,0.22737 0.21704,0.15848 0.33073,0.40997 0.11369,0.25149 0.11369,0.62356 z m -0.64424,-0.9474 v -1.07142 q -0.29628,0.0172 -0.69935,0.0517 -0.39963,0.0344 -0.6339,0.0999 -0.27905,0.0792 -0.45131,0.24805 -0.17225,0.16536 -0.17225,0.4582 0,0.33072 0.19981,0.49953 0.19982,0.16537 0.60979,0.16537 0.34106,0 0.62356,-0.13091 0.2825,-0.13436 0.52365,-0.3204 z"
           inkscape:connector-curvature="0" />
        <path
           id="path988"
           style="font-size:7.05555534px;stroke-width:0.26458332"
           d="m 232.16451,161.45476 -1.55718,3.84817 h -0.65112 l -1.54685,-3.84817 h 0.7028 l 1.192,3.06269 1.18167,-3.06269 z"
           inkscape:connector-curvature="0" />
        <path
           id="path990"
           style="font-size:7.05555534px;stroke-width:0.26458332"
           d="m 236.23661,163.38057 q 0,0.94051 -0.48231,1.48484 -0.48231,0.54432 -1.29191,0.54432 -0.81649,0 -1.2988,-0.54432 -0.47887,-0.54433 -0.47887,-1.48484 0,-0.94051 0.47887,-1.48484 0.48231,-0.54777 1.2988,-0.54777 0.8096,0 1.29191,0.54777 0.48231,0.54433 0.48231,1.48484 z m -0.66835,0 q 0,-0.74759 -0.29283,-1.10932 -0.29283,-0.36518 -0.81304,-0.36518 -0.5271,0 -0.81993,0.36518 -0.28939,0.36173 -0.28939,1.10932 0,0.72347 0.29283,1.09898 0.29283,0.37208 0.81649,0.37208 0.51676,0 0.8096,-0.36863 0.29627,-0.37207 0.29627,-1.10243 z"
           inkscape:connector-curvature="0" />
        <path
           id="path992"
           style="font-size:7.05555534px;stroke-width:0.26458332"
           d="m 237.89715,165.30293 h -0.64768 v -5.36057 h 0.64768 z"
           inkscape:connector-curvature="0" />
        <path
           id="path994"
           style="font-size:7.05555534px;stroke-width:0.26458332"
           d="m 242.51358,161.45476 -1.55719,3.84817 h -0.65112 l -1.54685,-3.84817 h 0.7028 l 1.19201,3.06269 1.18166,-3.06269 z"
           inkscape:connector-curvature="0" />
        <path
           id="path996"
           style="font-size:7.05555534px;stroke-width:0.26458332"
           d="m 246.52711,163.44603 h -2.83531 q 0,0.35484 0.1068,0.62011 0.1068,0.26183 0.29283,0.43064 0.17915,0.16536 0.42375,0.24805 0.24804,0.0827 0.54432,0.0827 0.39274,0 0.78893,-0.15503 0.39963,-0.15847 0.56844,-0.31006 h 0.0345 v 0.70625 q -0.32728,0.1378 -0.66835,0.23082 -0.34106,0.093 -0.71658,0.093 -0.95773,0 -1.49517,-0.51677 -0.53743,-0.52021 -0.53743,-1.4745 0,-0.94396 0.51332,-1.49862 0.51676,-0.55466 1.35736,-0.55466 0.77859,0 1.1989,0.45476 0.42374,0.45475 0.42374,1.29191 z m -0.63045,-0.4961 q -0.003,-0.50987 -0.25838,-0.78892 -0.25149,-0.27906 -0.76826,-0.27906 -0.52021,0 -0.83027,0.30662 -0.30661,0.30661 -0.34795,0.76136 z"
           inkscape:connector-curvature="0" />
        <path
           id="path998"
           style="font-size:7.05555534px;stroke-width:0.26458332"
           d="m 249.9102,162.16101 h -0.0344 q -0.1447,-0.0345 -0.2825,-0.0482 -0.13436,-0.0172 -0.32039,-0.0172 -0.29973,0 -0.57878,0.13436 -0.27905,0.13091 -0.53744,0.34106 v 2.73196 h -0.64767 v -3.84817 h 0.64767 v 0.56844 q 0.38586,-0.31006 0.67869,-0.43753 0.29628,-0.13091 0.60289,-0.13091 0.16881,0 0.2446,0.0103 0.0758,0.007 0.22738,0.031 z"
           inkscape:connector-curvature="0" />
        <path
           id="path1000"
           style="font-size:7.05555534px;stroke-width:0.26458332"
           d="m 255.99768,165.30293 h -0.64423 v -0.40996 q -0.0861,0.0586 -0.23427,0.16536 -0.14469,0.10335 -0.2825,0.16537 -0.16192,0.0792 -0.37207,0.13091 -0.21015,0.0551 -0.49265,0.0551 -0.5202,0 -0.88194,-0.34451 -0.36173,-0.34451 -0.36173,-0.8785 0,-0.43753 0.18603,-0.70624 0.18948,-0.27217 0.53744,-0.42719 0.35139,-0.15503 0.84404,-0.21016 0.49265,-0.0551 1.05765,-0.0827 v -0.0999 q 0,-0.22048 -0.0792,-0.36518 -0.0758,-0.14469 -0.22049,-0.22737 -0.1378,-0.0792 -0.33072,-0.1068 -0.19293,-0.0276 -0.40308,-0.0276 -0.25494,0 -0.56844,0.0689 -0.31351,0.0655 -0.64768,0.19293 h -0.0345 v -0.65802 q 0.18948,-0.0517 0.54777,-0.11368 0.35829,-0.062 0.70624,-0.062 0.40653,0 0.70625,0.0689 0.30317,0.0654 0.52365,0.22737 0.21704,0.15848 0.33073,0.40997 0.11369,0.25149 0.11369,0.62356 z m -0.64423,-0.9474 v -1.07142 q -0.29628,0.0172 -0.69936,0.0517 -0.39963,0.0344 -0.63389,0.0999 -0.27906,0.0792 -0.45131,0.24805 -0.17226,0.16536 -0.17226,0.4582 0,0.33072 0.19982,0.49953 0.19981,0.16537 0.60978,0.16537 0.34107,0 0.62356,-0.13091 0.2825,-0.13436 0.52366,-0.3204 z"
           inkscape:connector-curvature="0" />
        <path
           id="path1002"
           style="font-size:7.05555534px;stroke-width:0.26458332"
           d="m 257.90626,165.30293 h -0.64767 v -5.36057 h 0.64767 z"
           inkscape:connector-curvature="0" />
        <path
           id="path1004"
           style="font-size:7.05555534px;stroke-width:0.26458332"
           d="m 267.29071,165.30293 h -0.64768 v -2.19108 q 0,-0.24804 -0.0241,-0.47887 -0.0207,-0.23082 -0.093,-0.36862 -0.0792,-0.14814 -0.22737,-0.22393 -0.14814,-0.0758 -0.42719,-0.0758 -0.27217,0 -0.54433,0.1378 -0.27216,0.13436 -0.54432,0.34451 0.0103,0.0792 0.0172,0.18603 0.007,0.10336 0.007,0.20671 v 2.46324 h -0.64768 v -2.19108 q 0,-0.25493 -0.0241,-0.48231 -0.0207,-0.23082 -0.093,-0.36863 -0.0792,-0.14814 -0.22738,-0.22048 -0.14814,-0.0758 -0.42719,-0.0758 -0.26527,0 -0.53399,0.13091 -0.26527,0.13091 -0.53054,0.33417 v 2.87321 h -0.64768 v -3.84817 h 0.64768 v 0.42719 q 0.30317,-0.25149 0.60289,-0.39274 0.30317,-0.14125 0.64423,-0.14125 0.39274,0 0.66491,0.16537 0.2756,0.16536 0.40996,0.4582 0.39274,-0.33073 0.71658,-0.47543 0.32384,-0.14814 0.69247,-0.14814 0.63389,0 0.93362,0.38585 0.30317,0.38241 0.30317,1.07143 z"
           inkscape:connector-curvature="0" />
        <path
           id="path1006"
           style="font-size:7.05555534px;stroke-width:0.26458332"
           d="m 271.75899,163.44603 h -2.83531 q 0,0.35484 0.1068,0.62011 0.1068,0.26183 0.29283,0.43064 0.17915,0.16536 0.42375,0.24805 0.24804,0.0827 0.54432,0.0827 0.39274,0 0.78893,-0.15503 0.39963,-0.15847 0.56844,-0.31006 h 0.0344 v 0.70625 q -0.32728,0.1378 -0.66835,0.23082 -0.34106,0.093 -0.71658,0.093 -0.95773,0 -1.49517,-0.51677 -0.53743,-0.52021 -0.53743,-1.4745 0,-0.94396 0.51332,-1.49862 0.51676,-0.55466 1.35736,-0.55466 0.77859,0 1.1989,0.45476 0.42374,0.45475 0.42374,1.29191 z m -0.63045,-0.4961 q -0.003,-0.50987 -0.25838,-0.78892 -0.25149,-0.27906 -0.76826,-0.27906 -0.52021,0 -0.83027,0.30662 -0.30661,0.30661 -0.34795,0.76136 z"
           inkscape:connector-curvature="0" />
        <path
           id="path1008"
           style="font-size:7.05555534px;stroke-width:0.26458332"
           d="m 275.95857,165.30293 h -0.64768 v -2.19108 q 0,-0.26527 -0.031,-0.49609 -0.031,-0.23427 -0.11369,-0.36518 -0.0861,-0.1447 -0.24804,-0.2136 -0.16192,-0.0723 -0.4203,-0.0723 -0.26528,0 -0.55466,0.13091 -0.28939,0.13091 -0.55467,0.33417 v 2.87321 h -0.64767 v -3.84817 h 0.64767 v 0.42719 q 0.30317,-0.25149 0.62701,-0.39274 0.32384,-0.14125 0.66491,-0.14125 0.62356,0 0.95084,0.37552 0.32729,0.37551 0.32729,1.08176 z"
           inkscape:connector-curvature="0" />
        <path
           id="path1010"
           style="font-size:7.05555534px;stroke-width:0.26458332"
           d="m 280.39585,165.30293 h -0.64768 v -0.42719 q -0.32729,0.25838 -0.62701,0.39619 -0.29972,0.1378 -0.66146,0.1378 -0.60634,0 -0.94395,-0.36862 -0.33762,-0.37207 -0.33762,-1.08865 v -2.4977 h 0.64767 v 2.19108 q 0,0.29283 0.0276,0.50299 0.0276,0.2067 0.11714,0.35484 0.093,0.15158 0.24115,0.22049 0.14814,0.0689 0.43064,0.0689 0.25149,0 0.54777,-0.13092 0.29973,-0.13091 0.55811,-0.33417 v -2.87321 h 0.64768 z m -0.57189,-5.77398 -0.94051,1.28847 h -0.51332 l 0.61667,-1.28847 z"
           inkscape:connector-curvature="0" />
      </g>
      <g
         id="text858"
         style="font-style:normal;font-weight:normal;font-size:10.58333302px;line-height:1.25;font-family:sans-serif;letter-spacing:0px;word-spacing:0px;fill:#000000;fill-opacity:1;stroke:none;stroke-width:0.26458332"
         aria-label="as ">
        <path
           id="path911"
           style="font-size:8.11388874px"
           d="m 79.191773,134.80967 h 1.303451 q 0.106971,0 0.309026,0.0475 l -0.0079,-0.47146 q 0,-0.13867 -0.09905,-0.23375 -0.09508,-0.099 -0.233749,-0.099 h -1.263834 q -0.134703,0 -0.233749,-0.099 -0.09905,-0.0991 -0.09905,-0.23375 0,-0.13867 0.09508,-0.23375 0.09905,-0.0991 0.237711,-0.0991 h 1.263834 q 0.412033,0 0.701249,0.28922 0.293177,0.28921 0.305063,0.70917 l 0.0832,2.49201 q 0,0.13866 -0.09905,0.23771 -0.09905,0.0951 -0.23375,0.0951 -0.142627,0 -0.241674,-0.0951 -0.09905,-0.099 -0.09905,-0.23771 l -0.562584,0.3328 h -1.125168 q -0.419958,0 -0.713135,-0.29318 -0.293178,-0.29318 -0.293178,-0.71314 v -0.38826 q 0,-0.41599 0.293178,-0.70917 0.297139,-0.29714 0.713135,-0.29714 z m 1.663981,1.29553 -0.01981,-0.28129 q -0.004,-0.14263 -0.09905,-0.23772 -0.09508,-0.0951 -0.23375,-0.0951 h -1.311375 q -0.138665,0 -0.237712,0.0991 -0.09508,0.0951 -0.09508,0.23375 v 0.37241 q 0,0.1347 0.09905,0.23375 0.09905,0.0991 0.23375,0.0991 h 0.93896 z"
           inkscape:connector-curvature="0" />
        <path
           id="path913"
           style="font-size:8.11388874px"
           d="m 84.029203,133.38736 h 1.525316 q 0.356568,0 0.629936,0.21394 0.273368,0.20998 0.273368,0.41204 0,0.14262 -0.103008,0.23374 -0.09905,0.0911 -0.221864,0.0911 -0.158474,0 -0.289216,-0.14263 -0.130741,-0.14263 -0.273368,-0.14263 H 84.06486 q -0.221864,0 -0.221864,0.18621 0,0.13074 0.146589,0.19809 l 1.770951,0.78445 q 0.269407,0.11886 0.439767,0.3843 0.174321,0.26149 0.174321,0.5824 0,0.42788 -0.305063,0.72502 -0.301101,0.29714 -0.685402,0.29714 h -1.347032 q -0.348644,0 -0.649745,-0.20998 -0.297139,-0.20998 -0.297139,-0.40807 0,-0.13075 0.09508,-0.22979 0.09905,-0.10301 0.253559,-0.10301 0.12678,0 0.269407,0.14263 0.146589,0.14262 0.419957,0.14262 h 1.240062 q 0.146589,0 0.245635,-0.11093 0.09905,-0.11489 0.09905,-0.26148 0,-0.22583 -0.221864,-0.32487 l -1.786799,-0.80426 q -0.257521,-0.1149 -0.396186,-0.3328 -0.138665,-0.2179 -0.138665,-0.44373 0,-0.35656 0.245635,-0.61805 0.249597,-0.26148 0.614088,-0.26148 z"
           inkscape:connector-curvature="0" />
      </g>
      <g
         id="text862"
         style="font-style:normal;font-weight:normal;font-size:10.58333302px;line-height:1.25;font-family:sans-serif;letter-spacing:0px;word-spacing:0px;fill:#000000;fill-opacity:1;stroke:none;stroke-width:0.26458332"
         aria-label="Data ">
        <path
           id="path902"
           style="font-size:8.11388874px"
           d="m 94.401195,131.94524 h 1.315338 q 0.257521,0.004 0.499194,0.1664 0.245635,0.16244 0.360529,0.39223 l 0.657669,1.33118 q 0.186208,0.36053 0.186208,0.75275 0,0.3645 -0.198093,0.7488 l -0.661631,1.31533 q -0.12678,0.25356 -0.364491,0.40808 -0.237712,0.15055 -0.530889,0.15055 h -1.271757 q -0.138665,0 -0.237712,-0.099 -0.09508,-0.0991 -0.09508,-0.23375 0,-0.13867 0.09508,-0.23771 0.09905,-0.10301 0.237712,-0.10301 h 0.348643 v -3.91828 h -0.34072 q -0.138665,0 -0.237711,-0.0991 -0.09508,-0.103 -0.09508,-0.24167 0,-0.1347 0.09508,-0.23375 0.09905,-0.099 0.237711,-0.099 z m 1.006313,0.67352 v 3.9262 h 0.23375 q 0.221864,0 0.332796,-0.2179 l 0.657668,-1.30741 q 0.122818,-0.25752 0.122818,-0.43185 0,-0.2179 -0.09905,-0.41203 l -0.68144,-1.35495 q -0.10697,-0.20206 -0.348644,-0.20206 z"
           inkscape:connector-curvature="0" />
        <path
           id="path904"
           style="font-size:8.11388874px"
           d="m 99.963647,134.80967 h 1.303453 q 0.10697,0 0.30902,0.0475 l -0.008,-0.47146 q 0,-0.13867 -0.0991,-0.23375 -0.0951,-0.099 -0.23375,-0.099 h -1.26383 q -0.134703,0 -0.233749,-0.099 -0.09905,-0.0991 -0.09905,-0.23375 0,-0.13867 0.09508,-0.23375 0.09905,-0.0991 0.237711,-0.0991 h 1.263828 q 0.41204,0 0.70125,0.28922 0.29318,0.28921 0.30507,0.70917 l 0.0832,2.49201 q 0,0.13866 -0.099,0.23771 -0.0991,0.0951 -0.23375,0.0951 -0.14263,0 -0.24167,-0.0951 -0.0991,-0.099 -0.0991,-0.23771 l -0.56259,0.3328 h -1.125161 q -0.419958,0 -0.713135,-0.29318 -0.293178,-0.29318 -0.293178,-0.71314 v -0.38826 q 0,-0.41599 0.293178,-0.70917 0.297139,-0.29714 0.713135,-0.29714 z m 1.663983,1.29553 -0.0198,-0.28129 q -0.004,-0.14263 -0.0991,-0.23772 -0.0951,-0.0951 -0.23375,-0.0951 h -1.311373 q -0.138666,0 -0.237712,0.0991 -0.09509,0.0951 -0.09509,0.23375 v 0.37241 q 0,0.1347 0.09905,0.23375 0.09905,0.0991 0.23375,0.0991 h 0.938965 z"
           inkscape:connector-curvature="0" />
        <path
           id="path906"
           style="font-size:8.11388874px"
           d="m 106.20754,137.21056 h -0.66559 q -0.41204,0 -0.70918,-0.29318 -0.29714,-0.29318 -0.29714,-0.70521 v -2.15922 h -0.34072 q -0.13866,0 -0.23771,-0.0951 -0.0951,-0.0951 -0.0951,-0.23771 0,-0.13867 0.0951,-0.23375 0.0991,-0.0991 0.23771,-0.0991 h 0.34865 v -0.81614 q 0,-0.13867 0.0951,-0.23375 0.0991,-0.0991 0.23771,-0.0991 0.13074,0 0.22979,0.0991 0.10301,0.0991 0.10301,0.23375 v 0.81614 h 1.33911 q 0.1347,0 0.23375,0.0991 0.099,0.099 0.099,0.23375 0,0.13866 -0.099,0.23771 -0.0991,0.0951 -0.23375,0.0951 h -1.34703 v 2.15922 q 0,0.1347 0.099,0.23375 0.10301,0.099 0.24168,0.099 h 0.64974 q 0.26544,0 0.35261,-0.28525 0.0872,-0.28922 0.33675,-0.28922 0.14659,0 0.23772,0.099 0.0951,0.0951 0.0951,0.24167 0,0.30111 -0.28525,0.60221 -0.2813,0.29714 -0.72106,0.29714 z"
           inkscape:connector-curvature="0" />
        <path
           id="path908"
           style="font-size:8.11388874px"
           d="m 109.75736,134.80967 h 1.30346 q 0.10697,0 0.30902,0.0475 l -0.008,-0.47146 q 0,-0.13867 -0.099,-0.23375 -0.0951,-0.099 -0.23375,-0.099 h -1.26383 q -0.13471,0 -0.23375,-0.099 -0.0991,-0.0991 -0.0991,-0.23375 0,-0.13867 0.0951,-0.23375 0.099,-0.0991 0.23771,-0.0991 h 1.26383 q 0.41203,0 0.70125,0.28922 0.29318,0.28921 0.30506,0.70917 l 0.0832,2.49201 q 0,0.13866 -0.099,0.23771 -0.099,0.0951 -0.23375,0.0951 -0.14263,0 -0.24168,-0.0951 -0.099,-0.099 -0.099,-0.23771 l -0.56259,0.3328 h -1.12517 q -0.41995,0 -0.71313,-0.29318 -0.29318,-0.29318 -0.29318,-0.71314 v -0.38826 q 0,-0.41599 0.29318,-0.70917 0.29714,-0.29714 0.71313,-0.29714 z m 1.66399,1.29553 -0.0198,-0.28129 q -0.004,-0.14263 -0.099,-0.23772 -0.0951,-0.0951 -0.23375,-0.0951 h -1.31138 q -0.13866,0 -0.23771,0.0991 -0.0951,0.0951 -0.0951,0.23375 v 0.37241 q 0,0.1347 0.099,0.23375 0.099,0.0991 0.23375,0.0991 h 0.93897 z"
           inkscape:connector-curvature="0" />
      </g>
      <g
         id="text866"
         style="font-style:normal;font-weight:normal;font-size:10.58333302px;line-height:1.25;font-family:sans-serif;letter-spacing:0px;word-spacing:0px;fill:#000000;fill-opacity:1;stroke:none;stroke-width:0.26458332"
         aria-label="other ">
        <path
           id="path962"
           style="font-size:8.11388874px"
           d="m 81.598756,153.65984 v 1.40646 q 0,0.44769 -0.423919,0.82803 -0.419957,0.38034 -0.867647,0.38034 h -0.780486 q -0.455614,0 -0.871609,-0.3843 -0.415996,-0.38826 -0.415996,-0.82407 v -1.40646 q 0,-0.4358 0.40411,-0.8201 0.408072,-0.38827 0.883495,-0.38827 h 0.780486 q 0.44769,-0.008 0.867647,0.37242 0.423919,0.38034 0.423919,0.83595 z m -2.686141,0.0277 v 1.34704 q 0,0.18224 0.130742,0.28921 l 0.249597,0.21394 q 0.0832,0.0713 0.23375,0.0713 h 0.772562 q 0.17036,0 0.309025,-0.12282 l 0.202055,-0.17828 q 0.122818,-0.0951 0.122818,-0.26545 v -1.34703 q 0,-0.19809 -0.122818,-0.29318 l -0.233749,-0.18621 q -0.118856,-0.099 -0.277331,-0.099 h -0.689363 q -0.225826,0 -0.348644,0.10697 l -0.225826,0.19413 q -0.122818,0.10301 -0.122818,0.2694 z"
           inkscape:connector-curvature="0" />
        <path
           id="path964"
           style="font-size:8.11388874px"
           d="m 85.481379,156.28259 h -0.665593 q -0.412033,0 -0.709172,-0.29317 -0.29714,-0.29318 -0.29714,-0.70522 v -2.15921 h -0.34072 q -0.138665,0 -0.237711,-0.0951 -0.09508,-0.0951 -0.09508,-0.23772 0,-0.13866 0.09508,-0.23375 0.09905,-0.099 0.237711,-0.099 h 0.348644 v -0.81614 q 0,-0.13867 0.09508,-0.23375 0.09905,-0.0991 0.237712,-0.0991 0.130741,0 0.229788,0.0991 0.103008,0.099 0.103008,0.23375 v 0.81614 h 1.339109 q 0.134703,0 0.23375,0.099 0.09905,0.0991 0.09905,0.23375 0,0.13867 -0.09905,0.23772 -0.09905,0.0951 -0.23375,0.0951 h -1.347032 v 2.15921 q 0,0.13471 0.09905,0.23375 0.103008,0.099 0.241673,0.099 h 0.649745 q 0.265445,0 0.352606,-0.28525 0.08716,-0.28922 0.336758,-0.28922 0.146589,0 0.237712,0.0991 0.09508,0.0951 0.09508,0.24167 0,0.3011 -0.285254,0.6022 -0.281292,0.29714 -0.721058,0.29714 z"
           inkscape:connector-curvature="0" />
        <path
           id="path966"
           style="font-size:8.11388874px"
           d="m 88.032817,155.9498 v -4.59972 q 0,-0.13471 0.09508,-0.22979 0.09905,-0.0951 0.237712,-0.0951 0.138665,0 0.23375,0.099 0.09905,0.0951 0.09905,0.23375 v 1.67983 l 0.534851,-0.34864 q 0.364491,-0.22979 0.649745,-0.22979 h 0.412034 q 0.408071,0 0.701249,0.29318 0.293177,0.28921 0.305063,0.70521 l 0.0832,2.49201 q 0.004,0.13866 -0.09508,0.23771 -0.09905,0.0951 -0.237711,0.0951 -0.138665,0 -0.23375,-0.099 -0.09508,-0.10301 -0.09905,-0.23375 l -0.0832,-2.49994 q -0.004,-0.1347 -0.103009,-0.23375 -0.09905,-0.099 -0.237711,-0.099 h -0.372415 q -0.12678,0 -0.27733,0.099 l -0.946885,0.61805 v 2.11564 q 0,0.13866 -0.09905,0.23771 -0.09508,0.0951 -0.23375,0.0951 -0.138665,0 -0.237712,-0.0951 -0.09508,-0.0991 -0.09508,-0.23771 z"
           inkscape:connector-curvature="0" />
        <path
           id="path968"
           style="font-size:8.11388874px"
           d="m 96.289333,153.71135 v 0.80425 q 0,0.13471 -0.09905,0.23375 -0.09905,0.0991 -0.233749,0.0991 h -2.353345 v 0.19413 q 0,0.17036 0.146589,0.28922 l 0.194131,0.16243 q 0.158474,0.12282 0.301101,0.12282 h 1.711524 q 0.134703,0 0.233749,0.0991 0.09905,0.0951 0.09905,0.23375 0,0.1347 -0.103008,0.23375 -0.09905,0.099 -0.229788,0.099 h -1.755104 q -0.174322,0 -0.368453,-0.0713 -0.190169,-0.0753 -0.281292,-0.15451 l -0.29714,-0.26149 q -0.138665,-0.11093 -0.233749,-0.30902 -0.09112,-0.19809 -0.09112,-0.36449 v -1.52532 q 0,-0.13074 0.09905,-0.3526 0.103009,-0.22187 0.257521,-0.34469 l 0.27733,-0.2179 q 0.273369,-0.22186 0.606165,-0.22186 h 0.934999 q 0.352605,0 0.665592,0.29318 l 0.249597,0.23771 q 0.269407,0.24167 0.269407,0.72106 z m -2.678217,-0.0515 v 0.51504 h 2.020548 v -0.46353 q 0,-0.18621 -0.114894,-0.28526 l -0.194131,-0.17036 q -0.150551,-0.12282 -0.269406,-0.12282 H 94.21728 q -0.154512,0 -0.281292,0.10697 l -0.194131,0.16244 q -0.130741,0.0991 -0.130741,0.25752 z"
           inkscape:connector-curvature="0" />
        <path
           id="path970"
           style="font-size:8.11388874px"
           d="m 97.834458,155.9498 v -3.15761 q 0,-0.13866 0.09508,-0.23771 0.09905,-0.10301 0.237712,-0.10301 0.138665,0 0.23375,0.0991 0.09905,0.0991 0.09905,0.24167 v 0.416 l 0.542775,-0.46354 q 0.336758,-0.28525 0.657669,-0.28525 h 0.487306 q 0.41204,0 0.70521,0.29318 0.29318,0.29317 0.29318,0.70521 v 0.17828 q 0,0.14263 -0.099,0.24167 -0.0951,0.0991 -0.23375,0.0991 -0.13866,0 -0.23771,-0.0951 -0.0951,-0.0991 -0.0951,-0.23772 v -0.1862 q 0,-0.13867 -0.0991,-0.23375 -0.0951,-0.0991 -0.23375,-0.0991 h -0.43184 q -0.138665,0 -0.309025,0.14659 l -0.946885,0.8201 v 1.85812 q 0,0.13866 -0.09905,0.23771 -0.09905,0.0951 -0.23375,0.0951 -0.138665,0 -0.237712,-0.0951 -0.09508,-0.0991 -0.09508,-0.23771 z"
           inkscape:connector-curvature="0" />
      </g>
      <g
         id="text870"
         style="font-style:normal;font-weight:normal;font-size:10.58333302px;line-height:1.25;font-family:sans-serif;letter-spacing:0px;word-spacing:0px;fill:#000000;fill-opacity:1;stroke:none;stroke-width:0.26458332"
         aria-label="key ">
        <path
           id="path955"
           style="font-size:8.11388874px"
           d="m 109.46788,155.9498 v -4.5918 q 0,-0.14263 0.0951,-0.24167 0.099,-0.0991 0.23771,-0.0991 0.13867,0 0.23375,0.0991 0.0991,0.099 0.0991,0.24167 v 2.71784 l 1.79076,-1.52532 q 0.1149,-0.0951 0.2496,-0.0951 0.14263,0 0.23771,0.103 0.0951,0.0991 0.0951,0.23772 0,0.14659 -0.10301,0.23375 l -1.39458,1.18459 1.71945,1.50947 q 0.10301,0.0832 0.10301,0.2179 0,0.13074 -0.0951,0.23771 -0.0951,0.10301 -0.23375,0.10301 -0.13866,0 -0.24563,-0.0911 l -1.77492,-1.54116 -0.34864,0.29317 v 1.00632 q 0,0.13866 -0.0991,0.23771 -0.0951,0.0951 -0.23375,0.0951 -0.13866,0 -0.23771,-0.0951 -0.0951,-0.0991 -0.0951,-0.23771 z"
           inkscape:connector-curvature="0" />
        <path
           id="path957"
           style="font-size:8.11388874px"
           d="m 117.71647,153.71135 v 0.80425 q 0,0.13471 -0.0991,0.23375 -0.099,0.0991 -0.23375,0.0991 h -2.35334 v 0.19413 q 0,0.17036 0.14659,0.28922 l 0.19413,0.16243 q 0.15847,0.12282 0.3011,0.12282 h 1.71152 q 0.13471,0 0.23375,0.0991 0.0991,0.0951 0.0991,0.23375 0,0.1347 -0.10301,0.23375 -0.099,0.099 -0.22979,0.099 h -1.7551 q -0.17432,0 -0.36845,-0.0713 -0.19017,-0.0753 -0.28129,-0.15451 l -0.29714,-0.26149 q -0.13867,-0.11093 -0.23375,-0.30902 -0.0911,-0.19809 -0.0911,-0.36449 v -1.52532 q 0,-0.13074 0.0991,-0.3526 0.10301,-0.22187 0.25752,-0.34469 l 0.27733,-0.2179 q 0.27337,-0.22186 0.60617,-0.22186 h 0.93499 q 0.35261,0 0.6656,0.29318 l 0.24959,0.23771 q 0.26941,0.24167 0.26941,0.72106 z m -2.67822,-0.0515 v 0.51504 h 2.02055 v -0.46353 q 0,-0.18621 -0.11489,-0.28526 l -0.19413,-0.17036 q -0.15055,-0.12282 -0.26941,-0.12282 h -0.83595 q -0.15451,0 -0.28129,0.10697 l -0.19414,0.16244 q -0.13074,0.0991 -0.13074,0.25752 z"
           inkscape:connector-curvature="0" />
        <path
           id="path959"
           style="font-size:8.11388874px"
           d="m 122.62125,153.43402 -1.79472,4.05694 q -0.0911,0.2179 -0.31695,0.2179 h -0.92311 q -0.13867,0 -0.23771,-0.0951 -0.0951,-0.0951 -0.0951,-0.23771 0,-0.13867 0.0951,-0.23375 0.099,-0.0951 0.23771,-0.0951 h 0.71313 l 0.45562,-1.05781 h -0.16244 q -0.22583,0 -0.32487,-0.23375 l -0.99839,-2.32165 v -0.64183 q 0,-0.13866 0.0951,-0.23375 0.0951,-0.099 0.22979,-0.099 0.13867,0 0.23771,0.099 0.10301,0.0951 0.10301,0.23375 v 0.49524 l 0.87557,2.02847 h 0.23375 l 0.90331,-2.02055 v -0.51108 q 0,-0.13074 0.099,-0.22979 0.10301,-0.10301 0.24168,-0.10301 0.1347,0 0.23375,0.0991 0.099,0.0991 0.099,0.23375 z"
           inkscape:connector-curvature="0" />
      </g>
      <g
         id="text874"
         style="font-style:normal;font-weight:normal;font-size:10.58333302px;line-height:1.25;font-family:sans-serif;letter-spacing:0px;word-spacing:0px;fill:#000000;fill-opacity:1;stroke:none;stroke-width:0.26458332"
         aria-label="to ">
        <path
           id="path950"
           style="font-size:8.11388874px"
           d="m 132.98817,156.28259 h -0.66559 q -0.41204,0 -0.70918,-0.29317 -0.29714,-0.29318 -0.29714,-0.70522 v -2.15921 h -0.34072 q -0.13866,0 -0.23771,-0.0951 -0.0951,-0.0951 -0.0951,-0.23772 0,-0.13866 0.0951,-0.23375 0.0991,-0.099 0.23771,-0.099 h 0.34865 v -0.81614 q 0,-0.13867 0.0951,-0.23375 0.099,-0.0991 0.23771,-0.0991 0.13075,0 0.22979,0.0991 0.10301,0.099 0.10301,0.23375 v 0.81614 h 1.33911 q 0.1347,0 0.23375,0.099 0.099,0.0991 0.099,0.23375 0,0.13867 -0.099,0.23772 -0.099,0.0951 -0.23375,0.0951 h -1.34703 v 2.15921 q 0,0.13471 0.099,0.23375 0.10301,0.099 0.24168,0.099 h 0.64974 q 0.26545,0 0.35261,-0.28525 0.0872,-0.28922 0.33675,-0.28922 0.14659,0 0.23772,0.0991 0.0951,0.0951 0.0951,0.24167 0,0.3011 -0.28525,0.6022 -0.28129,0.29714 -0.72106,0.29714 z"
           inkscape:connector-curvature="0" />
        <path
           id="path952"
           style="font-size:8.11388874px"
           d="m 138.89926,153.65984 v 1.40646 q 0,0.44769 -0.42392,0.82803 -0.41995,0.38034 -0.86764,0.38034 h -0.78049 q -0.45561,0 -0.87161,-0.3843 -0.41599,-0.38826 -0.41599,-0.82407 v -1.40646 q 0,-0.4358 0.40411,-0.8201 0.40807,-0.38827 0.88349,-0.38827 h 0.78049 q 0.44769,-0.008 0.86764,0.37242 0.42392,0.38034 0.42392,0.83595 z m -2.68614,0.0277 v 1.34704 q 0,0.18224 0.13074,0.28921 l 0.2496,0.21394 q 0.0832,0.0713 0.23375,0.0713 h 0.77256 q 0.17036,0 0.30903,-0.12282 l 0.20205,-0.17828 q 0.12282,-0.0951 0.12282,-0.26545 v -1.34703 q 0,-0.19809 -0.12282,-0.29318 l -0.23375,-0.18621 q -0.11885,-0.099 -0.27733,-0.099 h -0.68936 q -0.22583,0 -0.34864,0.10697 l -0.22583,0.19413 q -0.12282,0.10301 -0.12282,0.2694 z"
           inkscape:connector-curvature="0" />
      </g>
      <g
         id="text878"
         style="font-style:normal;font-weight:normal;font-size:10.58333302px;line-height:1.25;font-family:sans-serif;letter-spacing:0px;word-spacing:0px;fill:#000000;fill-opacity:1;stroke:none;stroke-width:0.26458332"
         aria-label="exit ">
        <path
           id="path941"
           style="font-size:8.11388874px"
           d="m 149.53234,153.71135 v 0.80425 q 0,0.13471 -0.099,0.23375 -0.0991,0.0991 -0.23375,0.0991 h -2.35335 v 0.19413 q 0,0.17036 0.14659,0.28922 l 0.19413,0.16243 q 0.15848,0.12282 0.3011,0.12282 h 1.71153 q 0.1347,0 0.23375,0.0991 0.099,0.0951 0.099,0.23375 0,0.1347 -0.10301,0.23375 -0.099,0.099 -0.22978,0.099 h -1.75511 q -0.17432,0 -0.36845,-0.0713 -0.19017,-0.0753 -0.28129,-0.15451 l -0.29714,-0.26149 q -0.13867,-0.11093 -0.23375,-0.30902 -0.0911,-0.19809 -0.0911,-0.36449 v -1.52532 q 0,-0.13074 0.099,-0.3526 0.10301,-0.22187 0.25752,-0.34469 l 0.27733,-0.2179 q 0.27337,-0.22186 0.60617,-0.22186 h 0.935 q 0.3526,0 0.66559,0.29318 l 0.2496,0.23771 q 0.2694,0.24167 0.2694,0.72106 z m -2.67821,-0.0515 v 0.51504 h 2.02054 v -0.46353 q 0,-0.18621 -0.11489,-0.28526 l -0.19413,-0.17036 q -0.15055,-0.12282 -0.26941,-0.12282 h -0.83595 q -0.15451,0 -0.28129,0.10697 l -0.19413,0.16244 q -0.13074,0.0991 -0.13074,0.25752 z"
           inkscape:connector-curvature="0" />
        <path
           id="path943"
           style="font-size:8.11388874px"
           d="m 152.81276,154.8484 -1.08951,1.29553 q -0.10697,0.13866 -0.26544,0.13866 -0.14263,0 -0.23772,-0.099 -0.0951,-0.0991 -0.0951,-0.24168 0,-0.12678 0.0634,-0.20205 l 1.19252,-1.43023 -1.1014,-1.31138 q -0.0753,-0.0872 -0.0753,-0.19809 0,-0.13074 0.0911,-0.23375 0.0951,-0.10697 0.24167,-0.10697 0.1664,0 0.26941,0.12282 l 1.00631,1.20836 1.03009,-1.21629 q 0.0951,-0.11489 0.23771,-0.11489 0.12678,0 0.22979,0.0911 0.103,0.0872 0.103,0.22583 0,0.1347 -0.0436,0.1862 l -1.1212,1.35496 1.17667,1.42231 q 0.0674,0.0753 0.0674,0.18621 0,0.15055 -0.10301,0.25355 -0.099,0.0991 -0.22979,0.0991 -0.15451,0 -0.2694,-0.1347 z"
           inkscape:connector-curvature="0" />
        <path
           id="path945"
           style="font-size:8.11388874px"
           d="m 157.30551,150.7241 h 0.34865 q 0.13866,0 0.23374,0.0991 0.0991,0.0951 0.0991,0.23375 v 0.28525 q 0,0.13867 -0.0991,0.24168 -0.0951,0.099 -0.23374,0.099 h -0.35657 q -0.14263,0 -0.24168,-0.103 -0.0951,-0.10301 -0.0911,-0.22979 l 0.008,-0.29318 q 0,-0.13867 0.0951,-0.23375 0.0991,-0.0991 0.23771,-0.0991 z m 1.35496,5.55057 H 156.632 q -0.13867,0 -0.23772,-0.0951 -0.0951,-0.099 -0.0951,-0.23771 0,-0.1347 0.0951,-0.23375 0.099,-0.099 0.23772,-0.099 h 0.68144 v -2.48409 h -0.67352 q -0.13867,0 -0.23771,-0.0991 -0.0951,-0.099 -0.0951,-0.23375 0,-0.13866 0.0951,-0.23771 0.099,-0.10301 0.23771,-0.10301 h 1.01424 q 0.13866,0 0.23374,0.10301 0.0991,0.099 0.0991,0.23771 v 2.81689 h 0.66559 q 0.13867,0 0.23772,0.099 0.103,0.0951 0.103,0.23375 0,0.13867 -0.099,0.23771 -0.099,0.0951 -0.23375,0.0951 z"
           inkscape:connector-curvature="0" />
        <path
           id="path947"
           style="font-size:8.11388874px"
           d="m 163.20868,156.28259 h -0.66559 q -0.41203,0 -0.70917,-0.29317 -0.29714,-0.29318 -0.29714,-0.70522 v -2.15921 h -0.34072 q -0.13867,0 -0.23771,-0.0951 -0.0951,-0.0951 -0.0951,-0.23772 0,-0.13866 0.0951,-0.23375 0.099,-0.099 0.23771,-0.099 h 0.34864 v -0.81614 q 0,-0.13867 0.0951,-0.23375 0.099,-0.0991 0.23771,-0.0991 0.13074,0 0.22979,0.0991 0.103,0.099 0.103,0.23375 v 0.81614 h 1.33911 q 0.13471,0 0.23375,0.099 0.0991,0.0991 0.0991,0.23375 0,0.13867 -0.0991,0.23772 -0.099,0.0951 -0.23375,0.0951 h -1.34703 v 2.15921 q 0,0.13471 0.0991,0.23375 0.10301,0.099 0.24167,0.099 h 0.64975 q 0.26544,0 0.3526,-0.28525 0.0872,-0.28922 0.33676,-0.28922 0.14659,0 0.23771,0.0991 0.0951,0.0951 0.0951,0.24167 0,0.3011 -0.28526,0.6022 -0.28129,0.29714 -0.72106,0.29714 z"
           inkscape:connector-curvature="0" />
      </g>
      <g
         id="text882"
         style="font-style:normal;font-weight:normal;font-size:10.58333302px;line-height:1.25;font-family:sans-serif;letter-spacing:0px;word-spacing:0px;fill:#000000;fill-opacity:1;stroke:none;stroke-width:0.26458332"
         aria-label="menu ">
        <path
           id="path932"
           style="font-size:8.11388874px"
           d="m 171.49707,155.9498 v -3.15761 q 0,-0.13866 0.0951,-0.23375 0.0991,-0.099 0.23771,-0.099 0.25753,0 0.32488,0.25356 0.27733,-0.26149 0.61805,-0.26149 0.40014,0 0.65767,0.34072 0.31694,-0.34072 0.69728,-0.34072 0.30903,0 0.53485,0.22187 0.22979,0.2179 0.24564,0.55862 l 0.0951,2.71784 q 0,0.1347 -0.099,0.23375 -0.0991,0.099 -0.23375,0.099 -0.13867,0 -0.23771,-0.099 -0.099,-0.0991 -0.10301,-0.23375 l -0.0792,-2.61087 q -0.008,-0.21394 -0.13074,-0.21394 -0.0674,0 -0.13867,0.0594 l -0.39618,0.33279 v 2.43259 q 0,0.1347 -0.0991,0.22978 -0.0951,0.0951 -0.23375,0.0951 -0.1347,0 -0.23375,-0.0951 -0.099,-0.099 -0.099,-0.23771 v -2.64652 q 0,-0.17036 -0.14659,-0.17036 -0.0713,0 -0.13074,0.0515 l -0.47939,0.40411 v 2.3692 q 0,0.1347 -0.0951,0.23375 -0.0951,0.099 -0.22979,0.099 -0.13867,0 -0.24168,-0.099 -0.099,-0.0991 -0.099,-0.23375 z"
           inkscape:connector-curvature="0" />
        <path
           id="path934"
           style="font-size:8.11388874px"
           d="m 179.82886,153.71135 v 0.80425 q 0,0.13471 -0.0991,0.23375 -0.099,0.0991 -0.23375,0.0991 h -2.35334 v 0.19413 q 0,0.17036 0.14659,0.28922 l 0.19413,0.16243 q 0.15847,0.12282 0.3011,0.12282 h 1.71152 q 0.13471,0 0.23375,0.0991 0.0991,0.0951 0.0991,0.23375 0,0.1347 -0.10301,0.23375 -0.0991,0.099 -0.22979,0.099 h -1.7551 q -0.17432,0 -0.36845,-0.0713 -0.19017,-0.0753 -0.2813,-0.15451 l -0.29714,-0.26149 q -0.13866,-0.11093 -0.23374,-0.30902 -0.0911,-0.19809 -0.0911,-0.36449 v -1.52532 q 0,-0.13074 0.0991,-0.3526 0.10301,-0.22187 0.25752,-0.34469 l 0.27733,-0.2179 q 0.27337,-0.22186 0.60616,-0.22186 h 0.935 q 0.35261,0 0.6656,0.29318 l 0.24959,0.23771 q 0.26941,0.24167 0.26941,0.72106 z m -2.67822,-0.0515 v 0.51504 h 2.02055 v -0.46353 q 0,-0.18621 -0.11489,-0.28526 l -0.19413,-0.17036 q -0.15056,-0.12282 -0.26941,-0.12282 h -0.83595 q -0.15452,0 -0.2813,0.10697 l -0.19413,0.16244 q -0.13074,0.0991 -0.13074,0.25752 z"
           inkscape:connector-curvature="0" />
        <path
           id="path936"
           style="font-size:8.11388874px"
           d="m 182.94684,153.23196 -0.90726,0.59032 v 2.12752 q 0,0.1347 -0.0991,0.23375 -0.0991,0.099 -0.23375,0.099 -0.1347,0 -0.23375,-0.099 -0.0991,-0.0991 -0.0991,-0.23375 v -3.15761 q 0,-0.13866 0.0951,-0.23771 0.0991,-0.10301 0.23771,-0.10301 0.1347,0 0.23375,0.10301 0.0991,0.099 0.0991,0.23771 v 0.22187 l 0.60616,-0.36845 q 0.30506,-0.19414 0.68937,-0.19414 h 0.30902 q 0.39619,0 0.6854,0.2813 0.28922,0.28129 0.30507,0.69332 l 0.0911,2.52371 q 0.004,0.1347 -0.0951,0.23375 -0.099,0.099 -0.23771,0.099 -0.13074,0 -0.22979,-0.0872 -0.099,-0.0911 -0.103,-0.24563 l -0.099,-2.48409 q -0.0119,-0.34864 -0.36449,-0.34864 h -0.32487 q -0.15056,0 -0.32488,0.11489 z"
           inkscape:connector-curvature="0" />
        <path
           id="path938"
           style="font-size:8.11388874px"
           d="m 187.85163,155.60908 1.1212,-0.71314 v -2.10375 q 0,-0.13866 0.0951,-0.23771 0.099,-0.10301 0.23771,-0.10301 0.13866,0 0.23375,0.10301 0.099,0.099 0.099,0.23771 v 3.15761 q 0,0.1347 -0.099,0.23375 -0.0991,0.099 -0.23375,0.099 -0.1347,0 -0.23375,-0.099 -0.0991,-0.0991 -0.0991,-0.23375 v -0.26149 l -0.57843,0.37638 q -0.34072,0.2179 -0.68936,0.2179 h -0.30903 q -0.40807,0 -0.70125,-0.28525 -0.29317,-0.28526 -0.31298,-0.69729 l -0.0951,-2.50786 q -0.008,-0.13074 0.0911,-0.22978 0.10301,-0.10301 0.24168,-0.10301 0.1347,0 0.22979,0.099 0.099,0.0991 0.103,0.23375 l 0.0872,2.46032 q 0.0119,0.35657 0.40808,0.35657 z"
           inkscape:connector-curvature="0" />
      </g>
    </g>
  </g>
</svg>
